<svg width="25" height="17" viewBox="0 0 25 17" fill="none" xmlns="http://www.w3.org/2000/svg">
<g clip-path="url(#clip0_11788_1848)">
<path d="M0.000489734 4.58486C0.0817062 4.20578 0.190322 3.84044 0.435439 3.52532C0.916867 2.90694 1.5666 2.625 2.35528 2.625C6.87992 2.625 11.4046 2.625 15.9292 2.625C15.9855 2.625 16.0417 2.63258 16.1141 2.63779C16.0378 3.10738 15.963 3.56939 15.8827 4.06362H2.90422C2.97663 4.15176 3.00941 4.20056 3.051 4.24084C5.70277 6.80882 8.35551 9.376 11.0092 11.9424C11.2685 12.1935 11.4192 12.1912 11.6859 11.9334C13.3034 10.3694 14.9202 8.80438 16.5364 7.23845C16.5985 7.17779 16.6508 7.10718 16.7042 7.04558L17.7346 8.08806L15.803 9.94652L21.1359 15.1049C21.1625 14.9639 21.1804 14.8215 21.1897 14.6784C21.1929 12.8911 21.1929 11.1034 21.1897 9.31535V9.05189L22.677 8.83012C22.6814 8.88888 22.6907 8.95616 22.6907 9.02393C22.6907 10.9061 22.6907 12.7882 22.6907 14.6704C22.6907 15.6181 22.2993 16.3606 21.3952 16.7677C21.0549 16.9152 20.6863 16.9918 20.3134 16.9923C14.3318 17.0055 8.35029 17.009 2.36898 17.0027C1.12284 17.0027 0.186406 16.2061 0.0273982 15.1134C0.0273982 15.1002 0.00929586 15.0888 0 15.0765L0.000489734 4.58486ZM3.34602 15.5337H19.3144L14.7056 11.0733C14.6703 11.106 14.6107 11.1586 14.5539 11.2155C13.9668 11.7841 13.3616 12.3338 12.798 12.9214C11.9618 13.7937 10.7157 13.79 9.88493 12.9138C9.32962 12.3286 8.72637 11.7865 8.14905 11.2212C8.08691 11.1605 8.0512 11.0738 8.01597 11.0155L3.34602 15.5337ZM1.51571 4.8687C1.51075 4.892 1.50732 4.91558 1.50544 4.9393C1.50544 8.21553 1.50544 11.4916 1.50544 14.7675C1.51308 14.8733 1.52944 14.9784 1.55437 15.0817L6.80946 9.99391L1.51571 4.8687Z" fill="black"/>
<path d="M21.6307 0C22.0871 0.1033 22.5661 0.152581 22.9962 0.319852C24.2726 0.816925 25.0398 2.00772 24.9972 3.33972C24.9757 4.01307 24.8162 4.6433 24.4008 5.20292C23.9116 5.86631 22.8944 6.20939 22.1992 5.90612C21.9883 5.81135 21.8205 5.62986 21.6184 5.47681C21.3293 5.76112 20.9521 5.97293 20.4819 6.00278C19.5885 6.05917 18.9534 5.51471 18.8982 4.6414C18.7817 2.80664 20.3307 1.48648 22.2251 1.81533C22.502 1.86272 22.7696 1.9646 23.0407 2.04515C23.161 2.08069 23.1875 2.15272 23.1645 2.28208C23.0431 2.96443 22.9335 3.6482 22.822 4.33197C22.8038 4.44863 22.7956 4.56656 22.7975 4.68452C22.801 4.93614 22.9159 5.00722 23.1336 4.8608C23.2921 4.75315 23.4244 4.61346 23.5216 4.45139C23.9174 3.77046 23.8754 2.48489 23.2359 1.80681C22.8376 1.38365 22.343 1.16995 21.7706 1.08844C19.9501 0.829244 18.1677 2.202 18.4182 4.57838C18.5562 5.88811 19.4818 6.72067 20.8439 6.76616C21.4986 6.78796 22.1189 6.6714 22.7217 6.3506C22.8332 6.69319 22.9365 7.01115 23.0441 7.34569C22.5712 7.57867 22.0587 7.72715 21.5313 7.78401C20.5724 7.88446 19.6462 7.79917 18.8052 7.29025C17.8609 6.71878 17.3139 5.88622 17.1965 4.82621C17.016 3.19141 17.539 1.81249 18.9251 0.801758C19.543 0.351596 20.2544 0.118462 21.023 0.0459625C21.1106 0.0374331 21.1972 0.0189535 21.2843 0.0052117L21.6307 0ZM21.593 3.03598L21.5416 2.96206C21.3567 3.02272 21.1502 3.05257 20.9902 3.15161C20.5523 3.41791 20.3987 3.84106 20.3943 4.32202C20.3943 4.4964 20.4036 4.68215 20.611 4.75608C20.8067 4.82573 20.9569 4.72385 21.0886 4.59828C21.1436 4.54076 21.1927 4.47824 21.2353 4.41158C21.5308 3.99364 21.5015 3.50083 21.593 3.03598Z" fill="black"/>
</g>
<defs>
<clipPath id="clip0_11788_1848">
<rect width="25" height="17" fill="white"/>
</clipPath>
</defs>
</svg>
