<svg width="15" height="16" viewBox="0 0 15 16" fill="none" xmlns="http://www.w3.org/2000/svg">
<path d="M7.14706 0.345703C4.21429 0.345703 3.26471 2.08853 3.26471 4.42659V5.3457C2.29412 5.3457 1.5 6.17291 1.5 7.18394V13.5075C1.5 14.5185 2.29412 15.3457 3.26471 15.3457H11.7353C12.7059 15.3457 13.5 14.5185 13.5 13.5075V7.18394C13.5 6.17291 12.7059 5.3457 11.7353 5.3457V4.42659C11.7353 1.37161 9.37395 0.345703 7.14706 0.345703ZM7.14706 2.18394C9.15546 2.18394 9.97059 2.3345 9.97059 4.42659V5.3457H5.02941V4.42659C5.02941 2.3345 5.13866 2.18394 7.14706 2.18394ZM7.14706 8.50747C8.11765 8.50747 8.91177 9.33467 8.91177 10.3457C8.91177 11.3567 8.11765 12.1839 7.14706 12.1839C6.17647 12.1839 5.38235 11.3567 5.38235 10.3457C5.38235 9.33467 6.17647 8.50747 7.14706 8.50747Z" fill="#666666"/>
</svg>
