<svg width="121" height="90" viewBox="0 0 121 90" fill="none" xmlns="http://www.w3.org/2000/svg">
<g clip-path="url(#clip0_11376_7482)">
<path d="M0.803445 89.974C0.61775 89.9743 0.437679 89.9101 0.293803 89.7923C0.149927 89.6746 0.0511161 89.5105 0.0141461 89.3279C-0.0228239 89.1454 0.00432602 88.9556 0.0909862 88.7909C0.177646 88.6262 0.318475 88.4966 0.489562 88.4242L4.19182 86.851C4.28908 86.8097 4.3935 86.788 4.49912 86.7871C4.60473 86.7863 4.70948 86.8063 4.80737 86.8461C4.90526 86.8859 4.99439 86.9446 5.06966 87.0189C5.14493 87.0933 5.20487 87.1817 5.24605 87.2793C5.28723 87.3769 5.30886 87.4816 5.30969 87.5875C5.31052 87.6935 5.29054 87.7985 5.25089 87.8967C5.21124 87.9949 5.15269 88.0843 5.0786 88.1598C5.00451 88.2353 4.91631 88.2955 4.81905 88.3368L1.11706 89.9097C1.01786 89.9519 0.911215 89.9738 0.803445 89.974Z" fill="black"/>
<path d="M11.3835 85.4792C11.1978 85.4795 11.0178 85.4153 10.8739 85.2975C10.73 85.1797 10.6312 85.0157 10.5942 84.8331C10.5573 84.6506 10.5844 84.4608 10.6711 84.2961C10.7577 84.1313 10.8986 84.0018 11.0696 83.9293L17.948 81.0067C18.1444 80.9232 18.3658 80.9215 18.5634 81.0018C18.7611 81.0821 18.9189 81.2378 19.0021 81.4348C19.0853 81.6318 19.087 81.8539 19.007 82.0522C18.9269 82.2505 18.7716 82.4088 18.5752 82.4922L11.6966 85.4152C11.5976 85.4573 11.4911 85.479 11.3835 85.4792ZM25.141 79.6338C24.9553 79.6341 24.7752 79.5699 24.6314 79.4521C24.4875 79.3343 24.3887 79.1703 24.3517 78.9877C24.3147 78.8052 24.3419 78.6154 24.4286 78.4507C24.5152 78.286 24.656 78.1564 24.8271 78.084L31.7055 75.1613C31.9019 75.0778 32.1233 75.0761 32.3209 75.1564C32.5186 75.2367 32.6764 75.3925 32.7596 75.5895C32.8427 75.7864 32.8445 76.0085 32.7645 76.2068C32.6844 76.4051 32.5291 76.5634 32.3327 76.6468L25.4544 79.5695C25.3552 79.6117 25.2487 79.6336 25.141 79.6338ZM38.898 73.7881C38.7124 73.7882 38.5325 73.724 38.3887 73.6063C38.245 73.4885 38.1463 73.3245 38.1093 73.1421C38.0724 72.9597 38.0994 72.77 38.186 72.6054C38.2725 72.4407 38.4132 72.3111 38.5841 72.2386L45.4619 69.3169C45.5591 69.2756 45.6635 69.2539 45.7691 69.2531C45.8747 69.2523 45.9795 69.2723 46.0774 69.3121C46.1752 69.3518 46.2644 69.4105 46.3396 69.4848C46.4149 69.5591 46.4748 69.6476 46.516 69.7451C46.5572 69.8427 46.5788 69.9474 46.5796 70.0533C46.5805 70.1593 46.5605 70.2643 46.5209 70.3625C46.4812 70.4607 46.4227 70.5501 46.3486 70.6256C46.2745 70.7011 46.1864 70.7612 46.0891 70.8025L39.2108 73.7241C39.1117 73.7663 39.0051 73.788 38.8974 73.7881H38.898ZM52.6547 67.9425C52.4691 67.9426 52.2892 67.8783 52.1454 67.7606C52.0017 67.6429 51.903 67.4789 51.866 67.2964C51.8291 67.114 51.8561 66.9244 51.9427 66.7597C52.0292 66.595 52.1699 66.4654 52.3408 66.3929L58.2359 63.888C58.5341 63.7634 58.824 63.6197 59.1039 63.4578C59.2887 63.3509 59.5083 63.322 59.7144 63.3774C59.9205 63.4329 60.0962 63.5682 60.2029 63.7536C60.3095 63.939 60.3383 64.1593 60.283 64.3661C60.2277 64.5728 60.0928 64.749 59.908 64.856C59.5698 65.0515 59.2195 65.2254 58.8594 65.3766L52.968 67.8798C52.8686 67.9216 52.7619 67.9429 52.6541 67.9425H52.6547ZM63.5861 58.9802C63.5437 58.9802 63.5013 58.9769 63.4594 58.9703C63.2487 58.9368 63.06 58.8208 62.9346 58.6478C62.8092 58.4747 62.7575 58.2588 62.7908 58.0475C62.8523 57.6562 62.8833 57.2606 62.8836 56.8644C62.8786 54.9842 62.18 53.1724 60.9226 51.7781C60.7807 51.6201 60.7067 51.4122 60.7169 51.1998C60.727 50.9873 60.8203 50.7875 60.9766 50.6438C61.1329 50.5 61.3394 50.424 61.5513 50.4322C61.7631 50.4405 61.9632 50.5323 62.1079 50.6878C63.6376 52.3795 64.4871 54.5805 64.4919 56.8644C64.4918 57.3454 64.4541 57.8257 64.379 58.3008C64.3489 58.4902 64.2525 58.6626 64.1071 58.7871C63.9617 58.9116 63.7768 58.9801 63.5856 58.9802H63.5861Z" fill="black"/>
<path d="M47.0352 51.2805C46.822 51.2832 46.6163 51.2009 46.4636 51.0516C46.3109 50.9022 46.2235 50.6982 46.2208 50.4842C46.218 50.2703 46.3001 50.064 46.449 49.9108C46.5979 49.7576 46.8013 49.67 47.0146 49.6672C48.2589 49.6325 49.4859 49.3661 50.6332 48.8818L50.6576 48.8719C51.9414 48.3315 53.3028 47.9995 54.6906 47.8883C54.9025 47.8748 55.1111 47.9459 55.271 48.0861C55.4308 48.2263 55.5289 48.4242 55.5438 48.6366C55.5588 48.8491 55.4893 49.0588 55.3507 49.2201C55.2121 49.3814 55.0154 49.4811 54.8038 49.4976C53.5515 49.6004 52.3244 49.9069 51.1704 50.4053L51.1412 50.4169C49.8421 50.9496 48.4577 51.2422 47.0548 51.2805H47.0352Z" fill="black"/>
<path d="M40.0239 48.454C39.9101 48.4541 39.7975 48.43 39.6937 48.3832C39.5899 48.3364 39.4972 48.2679 39.4218 48.1824C38.8347 47.5193 38.3611 46.7633 38.02 45.9451C37.5536 44.8297 37.3137 43.6323 37.3145 42.4228C37.3151 41.6426 37.4141 40.8657 37.6093 40.1104C37.6346 40.0067 37.6802 39.9091 37.7435 39.8232C37.8067 39.7373 37.8863 39.6649 37.9777 39.6101C38.069 39.5553 38.1703 39.5193 38.2757 39.504C38.381 39.4888 38.4883 39.4947 38.5914 39.5214C38.6944 39.5481 38.7912 39.5951 38.876 39.6596C38.9609 39.724 39.0321 39.8048 39.0856 39.8971C39.1391 39.9894 39.1737 40.0914 39.1876 40.1973C39.2015 40.3032 39.1943 40.4107 39.1664 40.5138C39.0052 41.1372 38.9236 41.7787 38.9233 42.4228C38.9226 43.419 39.1203 44.4054 39.5047 45.324C39.7774 45.9783 40.1563 46.5827 40.6259 47.1128C40.7287 47.2291 40.7959 47.3727 40.8193 47.5263C40.8427 47.68 40.8213 47.8372 40.7578 47.9789C40.6943 48.1207 40.5912 48.241 40.4611 48.3254C40.331 48.4099 40.1794 48.4548 40.0244 48.4548L40.0239 48.454ZM43.3257 35.4328C43.1396 35.4332 42.9591 35.3688 42.8151 35.2506C42.671 35.1325 42.5723 34.9679 42.5356 34.7849C42.499 34.6019 42.5268 34.4118 42.6143 34.247C42.7017 34.0823 42.8435 33.953 43.0153 33.8814L50.2094 30.8667C50.3068 30.8259 50.4114 30.8047 50.517 30.8044C50.6226 30.8041 50.7273 30.8246 50.825 30.8649C50.9227 30.9052 51.0116 30.9643 51.0865 31.039C51.1614 31.1137 51.2209 31.2025 51.2616 31.3003C51.3023 31.3981 51.3234 31.5029 51.3237 31.6089C51.324 31.7148 51.3035 31.8198 51.2634 31.9178C51.2233 32.0158 51.1643 32.1049 51.0898 32.1801C51.0153 32.2552 50.9268 32.3149 50.8294 32.3558L43.6363 35.3704C43.5379 35.4116 43.4323 35.4328 43.3257 35.4328ZM57.7136 29.4035C57.5277 29.4036 57.3474 29.3392 57.2035 29.221C57.0597 29.1029 56.961 28.9383 56.9245 28.7555C56.8879 28.5726 56.9157 28.3827 57.003 28.218C57.0903 28.0533 57.2319 27.9241 57.4035 27.8523L64.5976 24.8377C64.695 24.7969 64.7996 24.7757 64.9052 24.7754C65.0108 24.7751 65.1154 24.7957 65.2131 24.8359C65.3108 24.8762 65.3996 24.9353 65.4745 25.01C65.5494 25.0847 65.6088 25.1735 65.6495 25.2712C65.6902 25.369 65.7113 25.4738 65.7116 25.5798C65.7119 25.6857 65.6914 25.7907 65.6513 25.8886C65.6112 25.9866 65.5522 26.0757 65.4777 26.1508C65.4032 26.226 65.3148 26.2856 65.2173 26.3265L58.0237 29.3411C57.9255 29.3822 57.8201 29.4034 57.7136 29.4035ZM72.1029 23.3742C71.9169 23.3743 71.7367 23.3099 71.5928 23.1917C71.4489 23.0736 71.3503 22.909 71.3138 22.7262C71.2772 22.5433 71.3049 22.3534 71.3923 22.1887C71.4796 22.024 71.6211 21.8948 71.7928 21.823L78.9869 18.8084C79.1837 18.7259 79.4051 18.7253 79.6024 18.8066C79.7996 18.8879 79.9566 19.0445 80.0388 19.2419C80.121 19.4394 80.1216 19.6615 80.0406 19.8593C79.9595 20.0572 79.8034 20.2147 79.6066 20.2972L72.4111 23.3113C72.3135 23.3524 72.2088 23.3738 72.1029 23.3742Z" fill="black"/>
<path d="M86.4969 17.3419C86.3108 17.3422 86.1304 17.2778 85.9864 17.1596C85.8424 17.0415 85.7437 16.8769 85.7071 16.6939C85.6705 16.5109 85.6983 16.3208 85.7858 16.1561C85.8733 15.9914 86.015 15.8622 86.1868 15.7905L89.8968 14.2361C90.0936 14.1537 90.315 14.153 90.5123 14.2344C90.7096 14.3157 90.8666 14.4723 90.9487 14.6697C91.0309 14.8671 91.0316 15.0892 90.9505 15.2871C90.8694 15.485 90.7133 15.6425 90.5165 15.7249L86.8065 17.2793C86.7085 17.3206 86.6032 17.3419 86.4969 17.3419Z" fill="#5A38FD"/>
<path d="M121 0L68.1758 2.94878L86.4901 16.5002L85.4511 39.3047L121 0Z" fill="black"/>
<path d="M110.977 4.79297L86.4902 16.5007L110.977 4.79297Z" fill="white"/>
<path d="M86.4908 17.3067C86.3082 17.307 86.131 17.2449 85.9882 17.1307C85.8455 17.0164 85.7457 16.8569 85.7054 16.6783C85.6651 16.4996 85.6865 16.3126 85.7663 16.1478C85.846 15.983 85.9793 15.8504 86.1442 15.7717L110.63 4.06398C110.823 3.97255 111.043 3.9614 111.244 4.03298C111.445 4.10457 111.609 4.25304 111.7 4.44584C111.792 4.63864 111.804 4.86002 111.733 5.06143C111.662 5.26284 111.514 5.42783 111.322 5.52022L86.8363 17.2279C86.7284 17.2796 86.6104 17.3066 86.4908 17.3067Z" fill="white"/>
</g>
<defs>
<clipPath id="clip0_11376_7482">
<rect width="121" height="89.9744" fill="white"/>
</clipPath>
</defs>
</svg>
