<?xml version="1.0" encoding="utf-8"?>
<!-- Generator: Adobe Illustrator 28.1.0, SVG Export Plug-In . SVG Version: 6.00 Build 0)  -->
<svg version="1.1" id="Camada_1" xmlns="http://www.w3.org/2000/svg" xmlns:xlink="http://www.w3.org/1999/xlink" x="0px" y="0px"
	 viewBox="0 0 369 50" style="enable-background:new 0 0 369 50;" xml:space="preserve">
<style type="text/css">
	.st0{fill:#F7F8FC;stroke:#E6E6E6;stroke-width:2;stroke-linecap:round;}
	.st1{fill:#FFFFFF;}
	.st2{fill:#FF4445;}
	.st3{fill-rule:evenodd;clip-rule:evenodd;fill:#FFFFFF;stroke:#FF4445;stroke-width:2;}
	.st4{fill:#353B46;}
	.st5{fill:none;stroke:#FF4445;stroke-miterlimit:10;}
</style>
<path class="st0" d="M5.9,7.9h357c2.8,0,5,2.2,5,5v31c0,2.8-2.2,5-5,5H5.9c-2.8,0-5-2.2-5-5v-31C0.9,10.1,3.1,7.9,5.9,7.9z"/>
<path class="st1" d="M45,9c0-2.8,2.2-5,5-5h267c2.8,0,5,2.2,5,5s-2.2,5-5,5H50C47.2,14,45,11.8,45,9z"/>
<path class="st2" d="M43.2,9c0-2.8,4.1-5,9.2-5h259.5c5.1,0,9.2,2.2,9.2,5s-4.1,5-9.2,5H52.4C47.3,14,43.2,11.8,43.2,9z"/>
<path class="st2" d="M44,8.5C44,7.1,45.1,6,46.5,6h5C52.9,6,54,7.1,54,8.5S52.9,11,51.5,11h-5C45.1,11,44,9.9,44,8.5z"/>
<path class="st3" d="M191.5,16c4.1,0,7.5-3.4,7.5-7.5S195.6,1,191.5,1S184,4.4,184,8.5S187.4,16,191.5,16z"/>
<path class="st4" d="M168.3,30.2V31h-3.8v-0.8H168.3z M164.8,23.9V31h-0.9v-7.1H164.8z M167.8,26.9v0.8h-3.3v-0.8H167.8z
	 M168.3,23.9v0.8h-3.7v-0.8H168.3z M169.8,23.9h0.9l2.3,5.8l2.3-5.8h0.9l-2.9,7.1h-0.7L169.8,23.9z M169.5,23.9h0.8l0.1,4.3V31h-0.9
	L169.5,23.9L169.5,23.9z M175.8,23.9h0.8V31h-0.9v-2.8L175.8,23.9z M183.4,24.5L181,31h-1l2.7-7.1h0.6L183.4,24.5z M185.3,31
	l-2.4-6.5v-0.6h0.6l2.7,7.1H185.3z M185.2,28.4v0.8h-4v-0.8H185.2z M192.7,23.9V31h-0.9l-3.6-5.5V31h-0.9v-7.1h0.9l3.6,5.5v-5.5
	H192.7z M197.1,24.5l-2.4,6.5h-1l2.7-7.1h0.6L197.1,24.5z M199.1,31l-2.4-6.5v-0.6h0.6L200,31H199.1z M199,28.4v0.8h-4v-0.8H199z
	 M205.3,30.2V31h-3.6v-0.8H205.3z M201.9,23.9V31H201v-7.1H201.9z M207.4,23.9V31h-0.9v-7.1H207.4z M212.9,29.2c0-0.2,0-0.3-0.1-0.4
	c0-0.1-0.1-0.2-0.3-0.4c-0.1-0.1-0.3-0.2-0.5-0.3c-0.2-0.1-0.5-0.2-0.8-0.3c-0.4-0.1-0.7-0.2-1-0.3c-0.3-0.1-0.5-0.3-0.7-0.4
	c-0.2-0.2-0.4-0.4-0.5-0.6s-0.2-0.5-0.2-0.7c0-0.3,0.1-0.5,0.2-0.8c0.1-0.2,0.3-0.4,0.5-0.6s0.5-0.3,0.8-0.4s0.6-0.1,1-0.1
	c0.5,0,1,0.1,1.4,0.3c0.4,0.2,0.7,0.5,0.9,0.8s0.3,0.7,0.3,1H213c0-0.3-0.1-0.5-0.2-0.7c-0.1-0.2-0.3-0.4-0.5-0.5s-0.5-0.2-0.9-0.2
	c-0.3,0-0.6,0.1-0.8,0.2s-0.4,0.2-0.5,0.4c-0.1,0.2-0.2,0.4-0.2,0.6c0,0.1,0,0.3,0.1,0.4s0.2,0.2,0.3,0.3c0.1,0.1,0.3,0.2,0.5,0.3
	c0.2,0.1,0.5,0.2,0.8,0.3c0.4,0.1,0.8,0.2,1,0.4s0.5,0.3,0.7,0.5s0.3,0.4,0.4,0.6c0.1,0.2,0.1,0.5,0.1,0.7c0,0.3-0.1,0.6-0.2,0.8
	c-0.1,0.2-0.3,0.4-0.5,0.6s-0.5,0.3-0.8,0.4s-0.6,0.1-1,0.1c-0.3,0-0.7,0-1-0.1s-0.6-0.2-0.9-0.4c-0.3-0.2-0.5-0.4-0.6-0.7
	c-0.2-0.3-0.2-0.6-0.2-0.9h0.9c0,0.2,0,0.5,0.1,0.6c0.1,0.2,0.2,0.3,0.4,0.4s0.4,0.2,0.6,0.3c0.2,0.1,0.4,0.1,0.7,0.1s0.6,0,0.8-0.1
	s0.4-0.2,0.5-0.4C212.8,29.6,212.9,29.4,212.9,29.2z M219.6,30.2V31h-3.8v-0.8H219.6z M216,23.9V31h-1v-7.1H216z M219.1,26.9v0.8
	h-3.3v-0.8H219.1z M219.5,23.9v0.8h-3.7v-0.8H219.5z M197.4,21.3h1.1l-1.3,1.4h-0.7L197.4,21.3z"/>
<path class="st3" d="M317.5,16c4.1,0,7.5-3.4,7.5-7.5S321.6,1,317.5,1S310,4.4,310,8.5S313.4,16,317.5,16z"/>
<path class="st4" d="M297.1,28.7c-0.1,0.8-0.4,1.3-0.8,1.7c-0.5,0.4-1.1,0.6-1.9,0.6s-1.5-0.3-2-0.9s-0.8-1.4-0.8-2.4V27
	c0-0.7,0.1-1.2,0.4-1.7c0.2-0.5,0.6-0.9,1-1.2c0.4-0.3,0.9-0.4,1.5-0.4c0.8,0,1.4,0.2,1.8,0.6c0.5,0.4,0.7,1,0.8,1.7h-0.9
	c-0.1-0.6-0.3-1-0.5-1.2c-0.3-0.3-0.6-0.4-1.1-0.4c-0.6,0-1.1,0.2-1.4,0.7c-0.3,0.4-0.5,1.1-0.5,1.9v0.7c0,0.8,0.2,1.4,0.5,1.8
	c0.3,0.5,0.8,0.7,1.4,0.7c0.5,0,0.9-0.1,1.2-0.4c0.3-0.2,0.5-0.6,0.6-1.2L297.1,28.7L297.1,28.7z M303.8,27.7c0,0.7-0.1,1.3-0.4,1.8
	c-0.2,0.5-0.6,0.9-1,1.2c-0.4,0.3-0.9,0.4-1.5,0.4s-1.1-0.1-1.5-0.4s-0.8-0.7-1-1.2s-0.4-1.1-0.4-1.8v-0.5c0-0.7,0.1-1.3,0.4-1.8
	c0.2-0.5,0.6-0.9,1-1.2c0.4-0.3,0.9-0.4,1.5-0.4s1.1,0.1,1.5,0.4s0.8,0.7,1,1.2s0.4,1.1,0.4,1.8V27.7z M302.9,27.2
	c0-0.8-0.2-1.5-0.5-1.9c-0.3-0.5-0.8-0.7-1.4-0.7s-1.1,0.2-1.4,0.7c-0.3,0.4-0.5,1.1-0.5,1.9v0.5c0,0.8,0.2,1.5,0.5,1.9
	c0.3,0.5,0.8,0.7,1.4,0.7s1.1-0.2,1.4-0.7c0.3-0.4,0.5-1.1,0.5-1.9V27.2z M310.7,31h-0.9l-3.6-5.5V31h-0.9v-7.1h0.9l3.6,5.5v-5.5
	h0.9V31z M317.6,28.7c-0.1,0.8-0.4,1.3-0.8,1.7c-0.5,0.4-1.1,0.6-1.9,0.6s-1.5-0.3-2-0.9s-0.8-1.4-0.8-2.4V27c0-0.7,0.1-1.2,0.4-1.7
	c0.2-0.5,0.6-0.9,1-1.2c0.4-0.3,0.9-0.4,1.5-0.4c0.8,0,1.4,0.2,1.8,0.6c0.5,0.4,0.7,1,0.8,1.7h-0.9c-0.1-0.6-0.3-1-0.5-1.2
	c-0.3-0.3-0.6-0.4-1.1-0.4c-0.6,0-1.1,0.2-1.4,0.7c-0.3,0.4-0.5,1.1-0.5,1.9v0.7c0,0.8,0.2,1.4,0.5,1.8c0.3,0.5,0.8,0.7,1.4,0.7
	c0.5,0,0.9-0.1,1.2-0.4c0.3-0.2,0.5-0.6,0.6-1.2L317.6,28.7L317.6,28.7z M319.8,30.2h3.4V31h-4.3v-7.1h0.9V30.2z M329,23.9v4.8
	c0,0.7-0.2,1.2-0.6,1.6s-1,0.7-1.7,0.7h-0.2c-0.8,0-1.4-0.2-1.9-0.6s-0.7-1-0.7-1.7v-4.8h0.9v4.8c0,0.5,0.1,0.9,0.4,1.2
	c0.3,0.3,0.7,0.4,1.2,0.4s0.9-0.1,1.2-0.4c0.3-0.3,0.4-0.7,0.4-1.2v-4.8C328,23.9,329,23.9,329,23.9z M331.5,31h-0.9v-7.1h0.9V31z
	 M331.4,21.9h1.1l-1.3,1.4h-0.7L331.4,21.9z M333.2,31v-7.1h2c0.6,0,1.2,0.1,1.6,0.4c0.5,0.3,0.8,0.7,1.1,1.2
	c0.3,0.5,0.4,1.1,0.4,1.7v0.5c0,0.7-0.1,1.3-0.4,1.8s-0.6,0.9-1.1,1.2c-0.5,0.3-1,0.4-1.7,0.4h-1.9V31z M334.1,24.7v5.6h1
	c0.7,0,1.3-0.2,1.7-0.7c0.4-0.4,0.6-1.1,0.6-1.9v-0.4c0-0.8-0.2-1.4-0.6-1.9c-0.4-0.4-0.9-0.7-1.6-0.7H334.1z M345.2,27.7
	c0,0.7-0.1,1.3-0.4,1.8c-0.2,0.5-0.6,0.9-1,1.2c-0.4,0.3-0.9,0.4-1.5,0.4s-1.1-0.1-1.5-0.4s-0.8-0.7-1-1.2s-0.4-1.1-0.4-1.8v-0.5
	c0-0.7,0.1-1.3,0.4-1.8c0.2-0.5,0.6-0.9,1-1.2c0.4-0.3,0.9-0.4,1.5-0.4s1.1,0.1,1.5,0.4s0.8,0.7,1,1.2s0.4,1.1,0.4,1.8V27.7z
	 M344.3,27.2c0-0.8-0.2-1.5-0.5-1.9c-0.3-0.5-0.8-0.7-1.4-0.7s-1.1,0.2-1.4,0.7c-0.3,0.4-0.5,1.1-0.5,1.9v0.5c0,0.8,0.2,1.5,0.5,1.9
	c0.3,0.5,0.8,0.7,1.4,0.7s1.1-0.2,1.4-0.7c0.3-0.4,0.5-1.1,0.5-1.9V27.2z"/>
<path class="st3" d="M46.5,16c4.1,0,7.5-3.4,7.5-7.5S50.6,1,46.5,1S39,4.4,39,8.5S42.4,16,46.5,16z"/>
<path class="st4" d="M18.9,27.8c-0.8-0.2-1.4-0.5-1.8-0.8s-0.5-0.8-0.5-1.2c0-0.6,0.2-1,0.7-1.4c0.4-0.4,1-0.6,1.7-0.6
	c0.5,0,0.9,0.1,1.3,0.3c0.4,0.2,0.7,0.4,0.9,0.8c0.2,0.3,0.3,0.7,0.3,1.1h-0.9c0-0.4-0.1-0.8-0.4-1s-0.7-0.4-1.2-0.4
	s-0.8,0.1-1.1,0.3c-0.3,0.2-0.4,0.5-0.4,0.8s0.1,0.5,0.4,0.7c0.2,0.2,0.7,0.4,1.3,0.5c0.6,0.2,1.1,0.3,1.4,0.6
	c0.3,0.2,0.6,0.4,0.7,0.7c0.2,0.3,0.2,0.6,0.2,0.9c0,0.6-0.2,1-0.7,1.4c-0.4,0.3-1,0.5-1.8,0.5c-0.5,0-0.9-0.1-1.4-0.3
	c-0.4-0.2-0.8-0.4-1-0.8c-0.2-0.3-0.3-0.7-0.3-1.1h0.9c0,0.4,0.2,0.8,0.5,1s0.7,0.4,1.3,0.4c0.5,0,0.9-0.1,1.1-0.3
	c0.3-0.2,0.4-0.5,0.4-0.8s-0.1-0.6-0.4-0.8C20,28.2,19.6,28,18.9,27.8z M28.2,27.7c0,0.7-0.1,1.3-0.4,1.8c-0.2,0.5-0.6,0.9-1,1.2
	c-0.4,0.3-0.9,0.4-1.5,0.4s-1.1-0.1-1.5-0.4s-0.8-0.7-1-1.2s-0.4-1.1-0.4-1.8v-0.5c0-0.7,0.1-1.3,0.4-1.8c0.2-0.5,0.6-0.9,1-1.2
	c0.4-0.3,0.9-0.4,1.5-0.4s1.1,0.1,1.5,0.4s0.8,0.7,1,1.2s0.4,1.1,0.4,1.8V27.7z M27.3,27.2c0-0.8-0.2-1.5-0.5-1.9
	c-0.3-0.5-0.8-0.7-1.4-0.7s-1.1,0.2-1.4,0.7c-0.3,0.4-0.5,1.1-0.5,1.9v0.5c0,0.8,0.2,1.5,0.5,1.9c0.3,0.5,0.8,0.7,1.4,0.7
	s1.1-0.2,1.4-0.7c0.3-0.4,0.5-1.1,0.5-1.9V27.2z M30.6,30.2H34V31h-4.3v-7.1h0.9V30.2z M36,31h-0.9v-7.1H36V31z M43,28.7
	c-0.1,0.8-0.4,1.3-0.8,1.7c-0.5,0.4-1.1,0.6-1.9,0.6c-0.8,0-1.5-0.3-2-0.9s-0.8-1.4-0.8-2.4V27c0-0.7,0.1-1.2,0.4-1.7
	c0.2-0.5,0.6-0.9,1-1.2c0.4-0.3,0.9-0.4,1.5-0.4c0.8,0,1.4,0.2,1.8,0.6c0.5,0.4,0.7,1,0.8,1.7h-1c-0.1-0.6-0.3-1-0.5-1.2
	c-0.3-0.3-0.6-0.4-1.1-0.4c-0.6,0-1.1,0.2-1.4,0.7c-0.3,0.4-0.5,1.1-0.5,1.9v0.7c0,0.8,0.2,1.4,0.5,1.8c0.3,0.5,0.8,0.7,1.4,0.7
	c0.5,0,0.9-0.1,1.2-0.4c0.3-0.2,0.5-0.6,0.6-1.2L43,28.7L43,28.7z M45.3,31h-0.9v-7.1h0.9V31z M51.7,24.7h-2.3V31h-0.9v-6.3h-2.3
	v-0.8h5.5V24.7z M56.3,29.1h-3L52.7,31h-1l2.7-7.1h0.8L58,31h-1L56.3,29.1z M53.6,28.4H56L54.8,25L53.6,28.4z M64.1,28.7
	c-0.1,0.8-0.4,1.3-0.8,1.7c-0.5,0.4-1.1,0.6-1.9,0.6c-0.8,0-1.5-0.3-2-0.9s-0.8-1.4-0.8-2.4V27c0-0.7,0.1-1.2,0.4-1.7
	c0.2-0.5,0.6-0.9,1-1.2c0.4-0.3,0.9-0.4,1.5-0.4c0.8,0,1.4,0.2,1.8,0.6c0.5,0.4,0.7,1,0.8,1.7h-0.9c-0.1-0.6-0.3-1-0.5-1.2
	c-0.3-0.3-0.6-0.4-1.1-0.4c-0.6,0-1.1,0.2-1.4,0.7c-0.3,0.4-0.5,1.1-0.5,1.9v0.7c0,0.8,0.2,1.4,0.5,1.8c0.3,0.5,0.8,0.7,1.4,0.7
	c0.5,0,0.9-0.1,1.2-0.4c0.3-0.2,0.5-0.6,0.6-1.2L64.1,28.7L64.1,28.7z M61.7,31l-0.1,0.3c0.5,0.1,0.7,0.4,0.7,0.8
	c0,0.3-0.1,0.6-0.4,0.7c-0.3,0.2-0.6,0.3-1.1,0.3v-0.5c0.3,0,0.5,0,0.6-0.1s0.2-0.2,0.2-0.4c0-0.1-0.1-0.2-0.2-0.3
	c-0.1-0.1-0.3-0.1-0.6-0.1L61,31C61,31,61.7,31,61.7,31z M69.3,29.1h-3L65.7,31h-1l2.7-7.1h0.8L71,31h-1L69.3,29.1z M66.6,28.4H69
	L67.8,25L66.6,28.4z M69.6,22.1c0,0.4-0.1,0.6-0.3,0.9c-0.2,0.2-0.4,0.3-0.7,0.3c-0.1,0-0.2,0-0.3,0c-0.1,0-0.2-0.1-0.4-0.2
	c-0.2-0.1-0.3-0.2-0.3-0.2c-0.1,0-0.1,0-0.2,0s-0.2,0.1-0.3,0.2C67,23.2,67,23.3,67,23.5h-0.6c0-0.3,0.1-0.6,0.3-0.9
	c0.2-0.2,0.4-0.3,0.8-0.3c0.1,0,0.2,0,0.3,0c0.1,0,0.2,0.1,0.4,0.2c0.2,0.1,0.3,0.2,0.4,0.2s0.2,0,0.3,0c0.1,0,0.3-0.1,0.3-0.2
	c0.1-0.1,0.1-0.2,0.1-0.4H69.6z M77.3,27.7c0,0.7-0.1,1.3-0.4,1.8c-0.2,0.5-0.6,0.9-1,1.2c-0.4,0.3-0.9,0.4-1.5,0.4
	s-1.1-0.1-1.5-0.4s-0.8-0.7-1-1.2s-0.4-1.1-0.4-1.8v-0.5c0-0.7,0.1-1.3,0.4-1.8c0.2-0.5,0.6-0.9,1-1.2c0.4-0.3,0.9-0.4,1.5-0.4
	s1.1,0.1,1.5,0.4s0.8,0.7,1,1.2s0.4,1.1,0.4,1.8V27.7z M76.4,27.2c0-0.8-0.2-1.5-0.5-1.9c-0.3-0.5-0.8-0.7-1.4-0.7s-1.1,0.2-1.4,0.7
	c-0.3,0.4-0.5,1.1-0.5,1.9v0.5c0,0.8,0.2,1.5,0.5,1.9c0.3,0.5,0.8,0.7,1.4,0.7s1.1-0.2,1.4-0.7c0.3-0.4,0.5-1.1,0.5-1.9V27.2z"/>
<polyline class="st5" points="43,8 45.9,11 50.3,6.6 "/>
<polyline class="st5" points="187.8,8 190.8,11 195.2,6.6 "/>
<polyline class="st5" points="313.9,8 316.9,11 321.2,6.6 "/>
</svg>
