<?xml version="1.0" encoding="utf-8"?>
<!-- Generator: Adobe Illustrator 28.1.0, SVG Export Plug-In . SVG Version: 6.00 Build 0)  -->
<svg version="1.1" id="Camada_1" xmlns="http://www.w3.org/2000/svg" xmlns:xlink="http://www.w3.org/1999/xlink" x="0px" y="0px"
	 viewBox="0 0 369 50" style="enable-background:new 0 0 369 50;" xml:space="preserve">
<style type="text/css">
	.st0{fill:#F7F8FC;stroke:#E6E6E6;stroke-width:2;stroke-linecap:round;}
	.st1{fill:#FFFFFF;}
	.st2{fill:#FF4445;}
	.st3{fill-rule:evenodd;clip-rule:evenodd;fill:#FFFFFF;stroke:#FF4445;stroke-width:2;}
	.st4{fill:#353B46;}
	.st5{fill:#5C5F69;}
	.st6{fill:none;stroke:#FF4445;stroke-miterlimit:10;}
</style>
<path class="st0" d="M6,8h357c2.8,0,5,2.2,5,5v31c0,2.8-2.2,5-5,5H6c-2.8,0-5-2.2-5-5V13C1,10.2,3.2,8,6,8z"/>
<path class="st1" d="M45,9c0-2.8,2.2-5,5-5h267c2.8,0,5,2.2,5,5s-2.2,5-5,5H50C47.2,14,45,11.8,45,9z"/>
<path class="st2" d="M44,8.5C44,7.1,45.1,6,46.5,6h5C52.9,6,54,7.1,54,8.5S52.9,11,51.5,11h-5C45.1,11,44,9.9,44,8.5z"/>
<path class="st3" d="M191.5,16c4.1,0,7.5-3.4,7.5-7.5S195.6,1,191.5,1S184,4.4,184,8.5S187.4,16,191.5,16z"/>
<path class="st4" d="M163.2,32.4v1h-4.7v-1H163.2z M158.8,24.5v8.9h-1.1v-8.9H158.8z M162.5,28.3v1h-4.1v-1H162.5z M163.2,24.5v1
	h-4.6v-1H163.2z M165,24.5h1.1l2.9,7.2l2.9-7.2h1.1l-3.6,8.9h-0.9L165,24.5z M164.7,24.5h1l0.1,5.4v3.5h-1.1L164.7,24.5L164.7,24.5z
	 M172.5,24.5h1v8.9h-1.1v-3.5L172.5,24.5z M182,25.3l-3,8.1h-1.2l3.4-8.9h0.7L182,25.3z M184.4,33.4l-3-8.1v-0.7h0.7l3.4,8.9H184.4z
	 M184.3,30.2v1h-5v-1H184.3z M193.6,24.5v8.9h-1.1l-4.5-6.9v6.9h-1.1v-8.9h1.1l4.5,6.9v-6.9H193.6z M199.1,25.3l-3,8.1h-1.2l3.4-8.9
	h0.7L199.1,25.3z M201.6,33.4l-3-8.1v-0.7h0.7l3.4,8.9H201.6z M201.5,30.2v1h-5v-1H201.5z M209.4,32.4v1h-4.5v-1H209.4z M205.1,24.5
	v8.9H204v-8.9H205.1z M212,24.5v8.9h-1.1v-8.9H212z M218.9,31.2c0-0.2,0-0.4-0.1-0.5c0-0.1-0.1-0.2-0.4-0.5
	c-0.1-0.1-0.4-0.2-0.6-0.4c-0.2-0.1-0.6-0.2-1-0.4c-0.5-0.1-0.9-0.2-1.2-0.4c-0.4-0.1-0.6-0.4-0.9-0.5c-0.2-0.2-0.5-0.5-0.6-0.7
	s-0.2-0.6-0.2-0.9c0-0.4,0.1-0.6,0.2-1c0.1-0.2,0.4-0.5,0.6-0.7s0.6-0.4,1-0.5c0.4-0.1,0.7-0.1,1.2-0.1c0.6,0,1.2,0.1,1.7,0.4
	c0.5,0.2,0.9,0.6,1.1,1c0.2,0.4,0.4,0.9,0.4,1.2H219c0-0.4-0.1-0.6-0.2-0.9c-0.1-0.2-0.4-0.5-0.6-0.6s-0.6-0.2-1.1-0.2
	c-0.4,0-0.7,0.1-1,0.2s-0.5,0.2-0.6,0.5c-0.1,0.2-0.2,0.5-0.2,0.7c0,0.1,0,0.4,0.1,0.5c0.1,0.1,0.2,0.2,0.4,0.4
	c0.1,0.1,0.4,0.2,0.6,0.4s0.6,0.2,1,0.4c0.5,0.1,1,0.2,1.2,0.5s0.6,0.4,0.9,0.6s0.4,0.5,0.5,0.7c0.1,0.2,0.1,0.6,0.1,0.9
	c0,0.4-0.1,0.7-0.2,1c-0.1,0.2-0.4,0.5-0.6,0.7c-0.2,0.2-0.6,0.4-1,0.5s-0.7,0.1-1.2,0.1c-0.4,0-0.9,0-1.2-0.1s-0.7-0.2-1.1-0.5
	c-0.4-0.2-0.6-0.5-0.7-0.9c-0.2-0.4-0.2-0.7-0.2-1.1h1.1c0,0.2,0,0.6,0.1,0.7c0.1,0.2,0.2,0.4,0.5,0.5c0.2,0.1,0.5,0.2,0.7,0.4
	c0.2,0.1,0.5,0.1,0.9,0.1c0.4,0,0.7,0,1-0.1c0.2-0.1,0.5-0.2,0.6-0.5C218.8,31.7,218.9,31.4,218.9,31.2z M227.3,32.4v1h-4.7v-1
	H227.3z M222.8,24.5v8.9h-1.2v-8.9H222.8z M226.6,28.3v1h-4.1v-1H226.6z M227.1,24.5v1h-4.6v-1H227.1z M199.6,21.3h1.4l-1.6,1.7
	h-0.9L199.6,21.3z"/>
<path class="st5" d="M194.4,10.9V12h-4.9v-0.9l2.3-2.5c0.2-0.3,0.4-0.5,0.5-0.7s0.2-0.4,0.3-0.5c0.1-0.2,0.1-0.3,0.1-0.5
	s0-0.4-0.1-0.6s-0.2-0.3-0.3-0.4s-0.3-0.1-0.5-0.1s-0.4,0.1-0.6,0.2c-0.2,0.1-0.3,0.2-0.4,0.4c-0.1,0.2-0.1,0.4-0.1,0.6h-1.4
	c0-0.4,0.1-0.8,0.3-1.2s0.5-0.6,0.9-0.8c0.4-0.2,0.8-0.3,1.3-0.3s0.9,0.1,1.3,0.2c0.3,0.2,0.6,0.4,0.8,0.7c0.2,0.3,0.3,0.7,0.3,1.1
	c0,0.2,0,0.5-0.1,0.7s-0.2,0.4-0.3,0.7c-0.1,0.2-0.3,0.4-0.5,0.7c-0.2,0.2-0.4,0.5-0.6,0.7l-1.2,1.4
	C191.5,10.9,194.4,10.9,194.4,10.9z"/>
<path class="st3" d="M317.5,16c4.1,0,7.5-3.4,7.5-7.5S321.6,1,317.5,1S310,4.4,310,8.5S313.4,16,317.5,16z"/>
<path class="st4" d="M290.3,30.5c-0.1,1-0.5,1.6-1,2.1c-0.6,0.5-1.4,0.7-2.4,0.7c-1,0-1.9-0.4-2.5-1.1s-1-1.7-1-3v-0.9
	c0-0.9,0.1-1.5,0.5-2.1c0.2-0.6,0.7-1.1,1.2-1.5c0.5-0.4,1.1-0.5,1.9-0.5c1,0,1.7,0.2,2.2,0.7c0.6,0.5,0.9,1.2,1,2.1h-1.1
	c-0.1-0.7-0.4-1.2-0.6-1.5c-0.4-0.4-0.7-0.5-1.4-0.5c-0.7,0-1.4,0.2-1.7,0.9c-0.4,0.5-0.6,1.4-0.6,2.4v0.9c0,1,0.2,1.7,0.6,2.2
	c0.4,0.6,1,0.9,1.7,0.9c0.6,0,1.1-0.1,1.5-0.5c0.4-0.2,0.6-0.7,0.7-1.5h0.9V30.5z M298.7,29.3c0,0.9-0.1,1.6-0.5,2.2
	c-0.2,0.6-0.7,1.1-1.2,1.5s-1.1,0.5-1.9,0.5s-1.4-0.1-1.9-0.5c-0.5-0.4-1-0.9-1.2-1.5c-0.2-0.6-0.5-1.4-0.5-2.2v-0.6
	c0-0.9,0.1-1.6,0.5-2.2c0.2-0.6,0.7-1.1,1.2-1.5c0.5-0.4,1.1-0.5,1.9-0.5s1.4,0.1,1.9,0.5s1,0.9,1.2,1.5c0.2,0.6,0.5,1.4,0.5,2.2
	V29.3z M297.6,28.7c0-1-0.2-1.9-0.6-2.4c-0.4-0.6-1-0.9-1.7-0.9c-0.7,0-1.4,0.2-1.7,0.9c-0.4,0.5-0.6,1.4-0.6,2.4v0.6
	c0,1,0.2,1.9,0.6,2.4c0.4,0.6,1,0.9,1.7,0.9c0.7,0,1.4-0.2,1.7-0.9c0.4-0.5,0.6-1.4,0.6-2.4V28.7z M307.3,33.4h-1.1l-4.5-6.9v6.9
	h-1.1v-8.9h1.1l4.5,6.9v-6.9h1.1V33.4z M316,30.5c-0.1,1-0.5,1.6-1,2.1c-0.6,0.5-1.4,0.7-2.4,0.7c-1,0-1.9-0.4-2.5-1.1
	c-0.6-0.7-1-1.7-1-3v-0.9c0-0.9,0.1-1.5,0.5-2.1c0.2-0.6,0.7-1.1,1.2-1.5c0.5-0.4,1.1-0.5,1.9-0.5c1,0,1.7,0.2,2.2,0.7
	c0.6,0.5,0.9,1.2,1,2.1h-1.1c-0.1-0.7-0.4-1.2-0.6-1.5c-0.4-0.4-0.7-0.5-1.4-0.5c-0.7,0-1.4,0.2-1.7,0.9c-0.4,0.5-0.6,1.4-0.6,2.4
	v0.9c0,1,0.2,1.7,0.6,2.2c0.4,0.6,1,0.9,1.7,0.9c0.6,0,1.1-0.1,1.5-0.5c0.4-0.2,0.6-0.7,0.7-1.5h0.9V30.5z M318.7,32.4h4.2v1h-5.4
	v-8.9h1.1V32.4z M330.2,24.5v6c0,0.9-0.2,1.5-0.7,2c-0.5,0.5-1.2,0.9-2.1,0.9h-0.2c-1,0-1.7-0.2-2.4-0.7c-0.6-0.5-0.9-1.2-0.9-2.1
	v-6h1.1v6c0,0.6,0.1,1.1,0.5,1.5c0.4,0.4,0.9,0.5,1.5,0.5s1.1-0.1,1.5-0.5c0.4-0.4,0.5-0.9,0.5-1.5v-6
	C328.9,24.5,330.2,24.5,330.2,24.5z M333.3,33.4h-1.1v-8.9h1.1V33.4z M333.2,22h1.4l-1.6,1.7h-0.9L333.2,22z M335.4,33.4v-8.9h2.5
	c0.7,0,1.5,0.1,2,0.5c0.6,0.4,1,0.9,1.4,1.5c0.4,0.6,0.5,1.4,0.5,2.1v0.6c0,0.9-0.1,1.6-0.5,2.2c-0.4,0.6-0.7,1.1-1.4,1.5
	c-0.6,0.4-1.2,0.5-2.1,0.5h-2.4V33.4z M336.6,25.5v7h1.2c0.9,0,1.6-0.2,2.1-0.9c0.5-0.5,0.7-1.4,0.7-2.4v-0.5c0-1-0.2-1.7-0.7-2.4
	c-0.5-0.5-1.1-0.9-2-0.9H336.6z M350.4,29.3c0,0.9-0.1,1.6-0.5,2.2c-0.2,0.6-0.7,1.1-1.2,1.5s-1.1,0.5-1.9,0.5s-1.4-0.1-1.9-0.5
	c-0.5-0.4-1-0.9-1.2-1.5c-0.2-0.6-0.5-1.4-0.5-2.2v-0.6c0-0.9,0.1-1.6,0.5-2.2c0.2-0.6,0.7-1.1,1.2-1.5c0.5-0.4,1.1-0.5,1.9-0.5
	s1.4,0.1,1.9,0.5s1,0.9,1.2,1.5c0.2,0.6,0.5,1.4,0.5,2.2V29.3z M349.3,28.7c0-1-0.2-1.9-0.6-2.4c-0.4-0.6-1-0.9-1.7-0.9
	s-1.4,0.2-1.7,0.9c-0.4,0.5-0.6,1.4-0.6,2.4v0.6c0,1,0.2,1.9,0.6,2.4c0.4,0.6,1,0.9,1.7,0.9s1.4-0.2,1.7-0.9
	c0.4-0.5,0.6-1.4,0.6-2.4V28.7z"/>
<path class="st5" d="M316.1,7.9h0.8c0.4,0,0.6-0.1,0.8-0.3c0.2-0.2,0.3-0.4,0.3-0.7c0-0.3-0.1-0.5-0.3-0.7C317.5,6,317.3,6,317,6
	s-0.5,0.1-0.7,0.2S316,6.5,316,6.8h-1.4c0-0.4,0.1-0.7,0.3-1c0.2-0.3,0.5-0.5,0.8-0.7c0.4-0.2,0.8-0.2,1.2-0.2
	c0.8,0,1.3,0.2,1.8,0.5c0.4,0.4,0.6,0.9,0.6,1.5c0,0.3-0.1,0.6-0.3,0.9c-0.2,0.3-0.5,0.5-0.8,0.6c0.4,0.1,0.7,0.4,0.9,0.6
	c0.2,0.3,0.3,0.6,0.3,1c0,0.6-0.2,1.1-0.7,1.5s-1.1,0.6-1.8,0.6c-0.7,0-1.3-0.2-1.7-0.6c-0.4-0.4-0.7-0.9-0.7-1.5h1.4
	c0,0.3,0.1,0.5,0.3,0.7c0.2,0.2,0.4,0.3,0.7,0.3c0.3,0,0.6-0.1,0.8-0.3c0.2-0.2,0.3-0.4,0.3-0.7c0-0.7-0.4-1.1-1.2-1.1h-0.7
	L316.1,7.9L316.1,7.9z"/>
<path class="st3" d="M46.5,16c4.1,0,7.5-3.4,7.5-7.5S50.6,1,46.5,1S39,4.4,39,8.5S42.4,16,46.5,16z"/>
<path class="st4" d="M19.5,29.4c-1-0.2-1.7-0.6-2.2-1c-0.5-0.4-0.6-1-0.6-1.5c0-0.7,0.2-1.2,0.9-1.7c0.5-0.5,1.2-0.7,2.1-0.7
	c0.6,0,1.1,0.1,1.6,0.4c0.5,0.2,0.9,0.5,1.1,1c0.2,0.4,0.4,0.9,0.4,1.4h-1.1c0-0.5-0.1-1-0.5-1.2c-0.4-0.2-0.9-0.5-1.5-0.5
	c-0.6,0-1,0.1-1.4,0.4c-0.4,0.2-0.5,0.6-0.5,1s0.1,0.6,0.5,0.9c0.2,0.2,0.9,0.5,1.6,0.6c0.7,0.2,1.4,0.4,1.7,0.7
	c0.4,0.2,0.7,0.5,0.9,0.9c0.2,0.4,0.2,0.7,0.2,1.1c0,0.7-0.2,1.2-0.9,1.7c-0.5,0.4-1.2,0.6-2.2,0.6c-0.6,0-1.1-0.1-1.7-0.4
	c-0.5-0.2-1-0.5-1.2-1c-0.2-0.4-0.4-0.9-0.4-1.4h1.1c0,0.5,0.2,1,0.6,1.2c0.4,0.2,0.9,0.5,1.6,0.5c0.6,0,1.1-0.1,1.4-0.4
	c0.4-0.2,0.5-0.6,0.5-1c0-0.4-0.1-0.7-0.5-1C20.9,29.9,20.4,29.7,19.5,29.4z M31.2,29.3c0,0.9-0.1,1.6-0.5,2.2
	c-0.2,0.6-0.7,1.1-1.2,1.5s-1.1,0.5-1.9,0.5s-1.4-0.1-1.9-0.5c-0.5-0.4-1-0.9-1.2-1.5c-0.2-0.6-0.5-1.4-0.5-2.2v-0.6
	c0-0.9,0.1-1.6,0.5-2.2c0.2-0.6,0.7-1.1,1.2-1.5c0.5-0.4,1.1-0.5,1.9-0.5s1.4,0.1,1.9,0.5s1,0.9,1.2,1.5c0.2,0.6,0.5,1.4,0.5,2.2
	V29.3z M30,28.7c0-1-0.2-1.9-0.6-2.4c-0.4-0.6-1-0.9-1.7-0.9s-1.4,0.2-1.7,0.9c-0.4,0.5-0.6,1.4-0.6,2.4v0.6c0,1,0.2,1.9,0.6,2.4
	c0.4,0.6,1,0.9,1.7,0.9s1.4-0.2,1.7-0.9c0.4-0.5,0.6-1.4,0.6-2.4V28.7z M34.2,32.4h4.2v1H33v-8.9h1.1V32.4z M40.9,33.4h-1.1v-8.9
	h1.1V33.4z M49.7,30.5c-0.1,1-0.5,1.6-1,2.1c-0.6,0.5-1.4,0.7-2.4,0.7c-1,0-1.9-0.4-2.5-1.1s-1-1.7-1-3v-0.9c0-0.9,0.1-1.5,0.5-2.1
	c0.2-0.6,0.7-1.1,1.2-1.5c0.5-0.4,1.1-0.5,1.9-0.5c1,0,1.7,0.2,2.2,0.7c0.6,0.5,0.9,1.2,1,2.1h-1.2c-0.1-0.7-0.4-1.2-0.6-1.5
	c-0.4-0.4-0.7-0.5-1.4-0.5c-0.7,0-1.4,0.2-1.7,0.9c-0.4,0.5-0.6,1.4-0.6,2.4v0.9c0,1,0.2,1.7,0.6,2.2c0.4,0.6,1,0.9,1.7,0.9
	c0.6,0,1.1-0.1,1.5-0.5c0.4-0.2,0.6-0.7,0.7-1.5h1V30.5z M52.5,33.4h-1.1v-8.9h1.1V33.4z M60.5,25.5h-2.9v7.9h-1.1v-7.9h-2.9v-1h6.9
	V25.5z M66.3,31h-3.7l-0.7,2.4h-1.2l3.4-8.9h1l3.5,8.9h-1.2L66.3,31z M62.9,30.2h3l-1.5-4.2L62.9,30.2z M76,30.5
	c-0.1,1-0.5,1.6-1,2.1c-0.6,0.5-1.4,0.7-2.4,0.7s-1.9-0.4-2.5-1.1c-0.6-0.7-1-1.7-1-3v-0.9c0-0.9,0.1-1.5,0.5-2.1
	c0.2-0.6,0.7-1.1,1.2-1.5c0.5-0.4,1.1-0.5,1.9-0.5c1,0,1.7,0.2,2.2,0.7c0.6,0.5,0.9,1.2,1,2.1h-1.1c-0.1-0.7-0.4-1.2-0.6-1.5
	c-0.4-0.4-0.7-0.5-1.4-0.5c-0.7,0-1.4,0.2-1.7,0.9c-0.4,0.5-0.6,1.4-0.6,2.4v0.9c0,1,0.2,1.7,0.6,2.2c0.4,0.6,1,0.9,1.7,0.9
	c0.6,0,1.1-0.1,1.5-0.5c0.4-0.2,0.6-0.7,0.7-1.5H76V30.5z M73,33.4l-0.1,0.4c0.6,0.1,0.9,0.5,0.9,1c0,0.4-0.1,0.7-0.5,0.9
	c-0.4,0.2-0.7,0.4-1.4,0.4v-0.6c0.4,0,0.6,0,0.7-0.1c0.1-0.1,0.2-0.2,0.2-0.5c0-0.1-0.1-0.2-0.2-0.4c-0.1-0.1-0.4-0.1-0.7-0.1
	l0.2-0.9C72.2,33.4,73,33.4,73,33.4z M82.5,31h-3.7L78,33.4h-1.2l3.4-8.9h1l3.5,8.9h-1.2L82.5,31z M79.2,30.2h3l-1.5-4.2L79.2,30.2z
	 M82.9,22.3c0,0.5-0.1,0.7-0.4,1.1c-0.2,0.2-0.5,0.4-0.9,0.4c-0.1,0-0.2,0-0.4,0c-0.1,0-0.2-0.1-0.5-0.2c-0.2-0.1-0.4-0.2-0.4-0.2
	c-0.1,0-0.1,0-0.2,0s-0.2,0.1-0.4,0.2c-0.1,0.1-0.1,0.2-0.1,0.5h-0.7c0-0.4,0.1-0.7,0.4-1.1c0.2-0.2,0.5-0.4,1-0.4
	c0.1,0,0.2,0,0.4,0c0.1,0,0.2,0.1,0.5,0.2c0.2,0.1,0.4,0.2,0.5,0.2s0.2,0,0.4,0c0.1,0,0.4-0.1,0.4-0.2c0.1-0.1,0.1-0.2,0.1-0.5H82.9
	z M92.5,29.3c0,0.9-0.1,1.6-0.5,2.2c-0.2,0.6-0.7,1.1-1.2,1.5c-0.5,0.4-1.1,0.5-1.9,0.5c-0.7,0-1.4-0.1-1.9-0.5
	c-0.5-0.4-1-0.9-1.2-1.5c-0.2-0.6-0.5-1.4-0.5-2.2v-0.6c0-0.9,0.1-1.6,0.5-2.2c0.2-0.6,0.7-1.1,1.2-1.5c0.5-0.4,1.1-0.5,1.9-0.5
	c0.7,0,1.4,0.1,1.9,0.5c0.5,0.4,1,0.9,1.2,1.5c0.2,0.6,0.5,1.4,0.5,2.2V29.3z M91.4,28.7c0-1-0.2-1.9-0.6-2.4
	c-0.4-0.6-1-0.9-1.7-0.9s-1.4,0.2-1.7,0.9c-0.4,0.5-0.6,1.4-0.6,2.4v0.6c0,1,0.2,1.9,0.6,2.4c0.4,0.6,1,0.9,1.7,0.9s1.4-0.2,1.7-0.9
	c0.4-0.5,0.6-1.4,0.6-2.4V28.7z"/>
<polyline class="st6" points="43,8 45.9,11 50.3,6.6 "/>
</svg>
