<?xml version="1.0" encoding="utf-8"?>
<!-- Generator: Adobe Illustrator 28.1.0, SVG Export Plug-In . SVG Version: 6.00 Build 0)  -->
<svg version="1.1" id="Camada_1" xmlns="http://www.w3.org/2000/svg" xmlns:xlink="http://www.w3.org/1999/xlink" x="0px" y="0px"
	 viewBox="0 0 369 50" style="enable-background:new 0 0 369 50;" xml:space="preserve">
<style type="text/css">
	.st0{fill:#F7F8FC;stroke:#E6E6E6;stroke-width:2;stroke-linecap:round;}
	.st1{fill:#FFFFFF;}
	.st2{fill:#FF4445;}
	.st3{fill-rule:evenodd;clip-rule:evenodd;fill:#FFFFFF;stroke:#FF4445;stroke-width:2;}
	.st4{fill:none;stroke:#FF4445;stroke-miterlimit:10;}
	.st5{fill:#353B46;}
</style>
<path class="st0" d="M5.9,7.9h357c2.8,0,5,2.2,5,5v31c0,2.8-2.2,5-5,5H5.9c-2.8,0-5-2.2-5-5v-31C0.9,10.1,3.1,7.9,5.9,7.9z"/>
<path class="st1" d="M45,9c0-2.8,2.2-5,5-5h267c2.8,0,5,2.2,5,5s-2.2,5-5,5H50C47.2,14,45,11.8,45,9z"/>
<path class="st2" d="M43.2,9c0-2.8,4.1-5,9.2-5h259.5c5.1,0,9.2,2.2,9.2,5s-4.1,5-9.2,5H52.4C47.3,14,43.2,11.8,43.2,9z"/>
<path class="st2" d="M44,8.5C44,7.1,45.1,6,46.5,6h5C52.9,6,54,7.1,54,8.5S52.9,11,51.5,11h-5C45.1,11,44,9.9,44,8.5z"/>
<path class="st3" d="M191.5,16c4.1,0,7.5-3.4,7.5-7.5S195.6,1,191.5,1S184,4.4,184,8.5S187.4,16,191.5,16z"/>
<path class="st3" d="M317.5,16c4.1,0,7.5-3.4,7.5-7.5S321.6,1,317.5,1S310,4.4,310,8.5S313.4,16,317.5,16z"/>
<path class="st3" d="M46.5,16c4.1,0,7.5-3.4,7.5-7.5S50.6,1,46.5,1S39,4.4,39,8.5S42.4,16,46.5,16z"/>
<polyline class="st4" points="43,8 45.9,11 50.3,6.6 "/>
<polyline class="st4" points="187.8,8 190.8,11 195.2,6.6 "/>
<polyline class="st4" points="313.9,8 316.9,11 321.2,6.6 "/>
<path class="st5" d="M163.2,32.4v1h-4.7v-1H163.2z M158.8,24.5v8.9h-1.1v-8.9H158.8z M162.5,28.3v1h-4.1v-1H162.5z M163.2,24.5v1
	h-4.6v-1C158.6,24.5,163.2,24.5,163.2,24.5z M165,24.5h1.1l2.9,7.2l2.9-7.2h1.1l-3.6,8.9h-0.9C168.5,33.4,165,24.5,165,24.5z
	 M164.7,24.5h1l0.1,5.4v3.5h-1.1V24.5L164.7,24.5z M172.5,24.5h1v8.9h-1.1v-3.5C172.4,29.9,172.5,24.5,172.5,24.5z M182,25.3l-3,8.1
	h-1.2l3.4-8.9h0.7C181.9,24.5,182,25.3,182,25.3z M184.4,33.4l-3-8.1v-0.7h0.7l3.4,8.9L184.4,33.4L184.4,33.4L184.4,33.4L184.4,33.4
	z M184.3,30.2v1h-5v-1H184.3z M193.6,24.5v8.9h-1.1l-4.5-6.9v6.9h-1.1v-8.9h1.1l4.5,6.9v-6.9H193.6z M199.1,25.3l-3,8.1h-1.2
	l3.4-8.9h0.7C199,24.5,199.1,25.3,199.1,25.3z M201.6,33.4l-3-8.1v-0.7h0.7l3.4,8.9L201.6,33.4L201.6,33.4L201.6,33.4L201.6,33.4z
	 M201.5,30.2v1h-5v-1H201.5z M209.4,32.4v1h-4.5v-1H209.4z M205.1,24.5v8.9H204v-8.9H205.1z M212,24.5v8.9h-1.1v-8.9H212z
	 M218.9,31.2c0-0.2,0-0.4-0.1-0.5c0-0.1-0.1-0.2-0.4-0.5c-0.1-0.1-0.4-0.2-0.6-0.4c-0.2-0.1-0.6-0.2-1-0.4c-0.5-0.1-0.9-0.2-1.2-0.4
	c-0.4-0.1-0.6-0.4-0.9-0.5c-0.2-0.2-0.5-0.5-0.6-0.7c-0.1-0.2-0.2-0.6-0.2-0.9c0-0.4,0.1-0.6,0.2-1c0.1-0.2,0.4-0.5,0.6-0.7
	s0.6-0.4,1-0.5s0.7-0.1,1.2-0.1c0.6,0,1.2,0.1,1.7,0.4c0.5,0.2,0.9,0.6,1.1,1c0.2,0.4,0.4,0.9,0.4,1.2H219c0-0.4-0.1-0.6-0.2-0.9
	c-0.1-0.2-0.4-0.5-0.6-0.6s-0.6-0.2-1.1-0.2c-0.4,0-0.7,0.1-1,0.2s-0.5,0.2-0.6,0.5c-0.1,0.2-0.2,0.5-0.2,0.7c0,0.1,0,0.4,0.1,0.5
	c0.1,0.1,0.2,0.2,0.4,0.4c0.1,0.1,0.4,0.2,0.6,0.4s0.6,0.2,1,0.4c0.5,0.1,1,0.2,1.2,0.5c0.2,0.3,0.6,0.4,0.9,0.6
	c0.3,0.2,0.4,0.5,0.5,0.7c0.1,0.2,0.1,0.6,0.1,0.9c0,0.4-0.1,0.7-0.2,1c-0.1,0.2-0.4,0.5-0.6,0.7c-0.2,0.2-0.6,0.4-1,0.5
	c-0.4,0.1-0.7,0.1-1.2,0.1c-0.4,0-0.9,0-1.2-0.1c-0.3-0.1-0.7-0.2-1.1-0.5c-0.4-0.2-0.6-0.5-0.7-0.9c-0.2-0.4-0.2-0.7-0.2-1.1h1.1
	c0,0.2,0,0.6,0.1,0.7c0.1,0.2,0.2,0.4,0.5,0.5c0.2,0.1,0.5,0.2,0.7,0.4c0.2,0.1,0.5,0.1,0.9,0.1s0.7,0,1-0.1
	c0.2-0.1,0.5-0.2,0.6-0.5C218.8,31.7,218.9,31.4,218.9,31.2z M227.3,32.4v1h-4.7v-1H227.3z M222.8,24.5v8.9h-1.2v-8.9H222.8z
	 M226.6,28.3v1h-4.1v-1H226.6z M227.1,24.5v1h-4.6v-1C222.5,24.5,227.1,24.5,227.1,24.5z M199.6,21.3h1.4l-1.6,1.7h-0.9L199.6,21.3z
	"/>
<path class="st5" d="M290.3,30.5c-0.1,1-0.5,1.6-1,2.1c-0.6,0.5-1.4,0.7-2.4,0.7s-1.9-0.4-2.5-1.1c-0.6-0.7-1-1.7-1-3v-0.9
	c0-0.9,0.1-1.5,0.5-2.1c0.2-0.6,0.7-1.1,1.2-1.5s1.1-0.5,1.9-0.5c1,0,1.7,0.2,2.2,0.7c0.6,0.5,0.9,1.2,1,2.1h-1.1
	c-0.1-0.7-0.4-1.2-0.6-1.5c-0.4-0.4-0.7-0.5-1.4-0.5s-1.4,0.2-1.7,0.9c-0.4,0.5-0.6,1.4-0.6,2.4v0.9c0,1,0.2,1.7,0.6,2.2
	c0.4,0.6,1,0.9,1.7,0.9c0.6,0,1.1-0.1,1.5-0.5c0.4-0.2,0.6-0.7,0.7-1.5h0.9L290.3,30.5L290.3,30.5L290.3,30.5L290.3,30.5z
	 M298.7,29.3c0,0.9-0.1,1.6-0.5,2.2c-0.2,0.6-0.7,1.1-1.2,1.5c-0.5,0.4-1.1,0.5-1.9,0.5s-1.4-0.1-1.9-0.5c-0.5-0.4-1-0.9-1.2-1.5
	c-0.2-0.6-0.5-1.4-0.5-2.2v-0.6c0-0.9,0.1-1.6,0.5-2.2c0.2-0.6,0.7-1.1,1.2-1.5s1.1-0.5,1.9-0.5s1.4,0.1,1.9,0.5s1,0.9,1.2,1.5
	s0.5,1.4,0.5,2.2C298.7,28.7,298.7,29.3,298.7,29.3z M297.6,28.7c0-1-0.2-1.9-0.6-2.4c-0.4-0.6-1-0.9-1.7-0.9s-1.4,0.2-1.7,0.9
	c-0.4,0.5-0.6,1.4-0.6,2.4v0.6c0,1,0.2,1.9,0.6,2.4c0.4,0.6,1,0.9,1.7,0.9s1.4-0.2,1.7-0.9c0.4-0.5,0.6-1.4,0.6-2.4
	C297.6,29.3,297.6,28.7,297.6,28.7z M307.3,33.4h-1.1l-4.5-6.9v6.9h-1.1v-8.9h1.1l4.5,6.9v-6.9h1.1
	C307.3,24.5,307.3,33.4,307.3,33.4z M316,30.5c-0.1,1-0.5,1.6-1,2.1c-0.6,0.5-1.4,0.7-2.4,0.7s-1.9-0.4-2.5-1.1s-1-1.7-1-3v-0.9
	c0-0.9,0.1-1.5,0.5-2.1c0.2-0.6,0.7-1.1,1.2-1.5s1.1-0.5,1.9-0.5c1,0,1.7,0.2,2.2,0.7c0.6,0.5,0.9,1.2,1,2.1h-1.1
	c-0.1-0.7-0.4-1.2-0.6-1.5c-0.4-0.4-0.7-0.5-1.4-0.5s-1.4,0.2-1.7,0.9c-0.4,0.5-0.6,1.4-0.6,2.4v0.9c0,1,0.2,1.7,0.6,2.2
	c0.4,0.6,1,0.9,1.7,0.9c0.6,0,1.1-0.1,1.5-0.5c0.4-0.2,0.6-0.7,0.7-1.5h0.9L316,30.5L316,30.5L316,30.5L316,30.5z M318.7,32.4h4.2v1
	h-5.4v-8.9h1.1L318.7,32.4L318.7,32.4L318.7,32.4L318.7,32.4z M330.2,24.5v6c0,0.9-0.2,1.5-0.7,2s-1.2,0.9-2.1,0.9h-0.2
	c-1,0-1.7-0.2-2.4-0.7c-0.6-0.5-0.9-1.2-0.9-2.1v-6h1.1v6c0,0.6,0.1,1.1,0.5,1.5c0.4,0.4,0.9,0.5,1.5,0.5s1.1-0.1,1.5-0.5
	c0.4-0.4,0.5-0.9,0.5-1.5v-6C328.9,24.5,330.2,24.5,330.2,24.5z M333.3,33.4h-1.1v-8.9h1.1C333.3,24.5,333.3,33.4,333.3,33.4z
	 M333.2,22h1.4l-1.6,1.7h-0.9C332.1,23.7,333.2,22,333.2,22z M335.4,33.4v-8.9h2.5c0.7,0,1.5,0.1,2,0.5c0.6,0.4,1,0.9,1.4,1.5
	s0.5,1.4,0.5,2.1v0.6c0,0.9-0.1,1.6-0.5,2.2c-0.4,0.6-0.7,1.1-1.4,1.5c-0.6,0.4-1.2,0.5-2.1,0.5C337.8,33.4,335.4,33.4,335.4,33.4z
	 M336.6,25.5v7h1.2c0.9,0,1.6-0.2,2.1-0.9c0.5-0.5,0.7-1.4,0.7-2.4v-0.5c0-1-0.2-1.7-0.7-2.4c-0.5-0.5-1.1-0.9-2-0.9h-1.3
	L336.6,25.5L336.6,25.5L336.6,25.5z M350.4,29.3c0,0.9-0.1,1.6-0.5,2.2c-0.2,0.6-0.7,1.1-1.2,1.5c-0.5,0.4-1.1,0.5-1.9,0.5
	s-1.4-0.1-1.9-0.5c-0.5-0.4-1-0.9-1.2-1.5c-0.2-0.6-0.5-1.4-0.5-2.2v-0.6c0-0.9,0.1-1.6,0.5-2.2c0.2-0.6,0.7-1.1,1.2-1.5
	s1.1-0.5,1.9-0.5s1.4,0.1,1.9,0.5s1,0.9,1.2,1.5s0.5,1.4,0.5,2.2C350.4,28.7,350.4,29.3,350.4,29.3z M349.3,28.7
	c0-1-0.2-1.9-0.6-2.4c-0.4-0.6-1-0.9-1.7-0.9s-1.4,0.2-1.7,0.9c-0.4,0.5-0.6,1.4-0.6,2.4v0.6c0,1,0.2,1.9,0.6,2.4
	c0.4,0.6,1,0.9,1.7,0.9s1.4-0.2,1.7-0.9c0.4-0.5,0.6-1.4,0.6-2.4C349.3,29.3,349.3,28.7,349.3,28.7z"/>
<path class="st5" d="M19.5,29.4c-1-0.2-1.7-0.6-2.2-1c-0.5-0.4-0.6-1-0.6-1.5c0-0.7,0.2-1.2,0.9-1.7c0.5-0.5,1.2-0.7,2.1-0.7
	c0.6,0,1.1,0.1,1.6,0.4c0.5,0.2,0.9,0.5,1.1,1c0.2,0.4,0.4,0.9,0.4,1.4h-1.1c0-0.5-0.1-1-0.5-1.2s-0.9-0.5-1.5-0.5s-1,0.1-1.4,0.4
	c-0.4,0.2-0.5,0.6-0.5,1c0,0.4,0.1,0.6,0.5,0.9c0.2,0.2,0.9,0.5,1.6,0.6c0.7,0.2,1.4,0.4,1.7,0.7c0.4,0.2,0.7,0.5,0.9,0.9
	c0.2,0.4,0.2,0.7,0.2,1.1c0,0.7-0.2,1.2-0.9,1.7c-0.5,0.4-1.2,0.6-2.2,0.6c-0.6,0-1.1-0.1-1.7-0.4c-0.5-0.2-1-0.5-1.2-1
	c-0.2-0.4-0.4-0.9-0.4-1.4h1.1c0,0.5,0.2,1,0.6,1.2c0.4,0.2,0.9,0.5,1.6,0.5c0.6,0,1.1-0.1,1.4-0.4c0.4-0.2,0.5-0.6,0.5-1
	s-0.1-0.7-0.5-1C20.9,29.9,20.4,29.7,19.5,29.4z M31.2,29.3c0,0.9-0.1,1.6-0.5,2.2c-0.2,0.6-0.7,1.1-1.2,1.5
	c-0.5,0.4-1.1,0.5-1.9,0.5s-1.4-0.1-1.9-0.5c-0.5-0.4-1-0.9-1.2-1.5c-0.2-0.6-0.5-1.4-0.5-2.2v-0.6c0-0.9,0.1-1.6,0.5-2.2
	c0.2-0.6,0.7-1.1,1.2-1.5s1.1-0.5,1.9-0.5s1.4,0.1,1.9,0.5s1,0.9,1.2,1.5c0.2,0.6,0.5,1.4,0.5,2.2C31.2,28.7,31.2,29.3,31.2,29.3z
	 M30,28.7c0-1-0.2-1.9-0.6-2.4c-0.4-0.6-1-0.9-1.7-0.9c-0.7,0-1.4,0.2-1.7,0.9c-0.4,0.5-0.6,1.4-0.6,2.4v0.6c0,1,0.2,1.9,0.6,2.4
	c0.4,0.6,1,0.9,1.7,0.9c0.7,0,1.4-0.2,1.7-0.9c0.4-0.5,0.6-1.4,0.6-2.4C30,29.3,30,28.7,30,28.7z M34.2,32.4h4.2v1H33v-8.9h1.1v7.9
	H34.2z M40.9,33.4h-1.1v-8.9h1.1C40.9,24.5,40.9,33.4,40.9,33.4z M49.7,30.5c-0.1,1-0.5,1.6-1,2.1c-0.6,0.5-1.4,0.7-2.4,0.7
	s-1.9-0.4-2.5-1.1c-0.6-0.7-1-1.7-1-3v-0.9c0-0.9,0.1-1.5,0.5-2.1c0.2-0.6,0.7-1.1,1.2-1.5s1.1-0.5,1.9-0.5c1,0,1.7,0.2,2.2,0.7
	c0.6,0.5,0.9,1.2,1,2.1h-1.2c-0.1-0.7-0.4-1.2-0.6-1.5c-0.4-0.4-0.7-0.5-1.4-0.5c-0.7,0-1.4,0.2-1.7,0.9c-0.4,0.5-0.6,1.4-0.6,2.4
	v0.9c0,1,0.2,1.7,0.6,2.2c0.4,0.6,1,0.9,1.7,0.9c0.6,0,1.1-0.1,1.5-0.5c0.4-0.2,0.6-0.7,0.7-1.5h1L49.7,30.5
	C49.6,30.5,49.7,30.5,49.7,30.5z M52.5,33.4h-1.1v-8.9h1.1C52.5,24.5,52.5,33.4,52.5,33.4z M60.5,25.5h-2.9v7.9h-1.1v-7.9h-2.9v-1
	h6.9C60.5,24.5,60.5,25.5,60.5,25.5z M66.3,31h-3.7l-0.7,2.4h-1.2l3.4-8.9h1l3.5,8.9h-1.2C67.4,33.4,66.3,31,66.3,31z M62.9,30.2h3
	L64.4,26L62.9,30.2z M76,30.5c-0.1,1-0.5,1.6-1,2.1c-0.6,0.5-1.4,0.7-2.4,0.7s-1.9-0.4-2.5-1.1s-1-1.7-1-3v-0.9
	c0-0.9,0.1-1.5,0.5-2.1c0.2-0.6,0.7-1.1,1.2-1.5s1.1-0.5,1.9-0.5c1,0,1.7,0.2,2.2,0.7c0.6,0.5,0.9,1.2,1,2.1h-1.1
	c-0.1-0.7-0.4-1.2-0.6-1.5c-0.4-0.4-0.7-0.5-1.4-0.5c-0.7,0-1.4,0.2-1.7,0.9c-0.4,0.5-0.6,1.4-0.6,2.4v0.9c0,1,0.2,1.7,0.6,2.2
	c0.4,0.6,1,0.9,1.7,0.9c0.6,0,1.1-0.1,1.5-0.5c0.4-0.2,0.6-0.7,0.7-1.5h1C76,30.3,76,30.5,76,30.5z M73,33.4l-0.1,0.4
	c0.6,0.1,0.9,0.5,0.9,1c0,0.4-0.1,0.7-0.5,0.9s-0.7,0.4-1.4,0.4v-0.6c0.4,0,0.6,0,0.7-0.1c0.1-0.1,0.2-0.2,0.2-0.5
	c0-0.1-0.1-0.2-0.2-0.4c-0.1-0.1-0.4-0.1-0.7-0.1l0.2-0.9C72.2,33.4,73,33.4,73,33.4z M82.5,31h-3.7L78,33.4h-1.2l3.4-8.9h1l3.5,8.9
	h-1.2C83.5,33.4,82.5,31,82.5,31z M79.2,30.2h3L80.7,26L79.2,30.2z M82.9,22.3c0,0.5-0.1,0.7-0.4,1.1c-0.2,0.2-0.5,0.4-0.9,0.4h-0.4
	c-0.1,0-0.2-0.1-0.5-0.2c-0.2-0.1-0.4-0.2-0.4-0.2h-0.2c-0.1,0-0.2,0.1-0.4,0.2c-0.1,0.1-0.1,0.2-0.1,0.5h-0.7
	c0-0.4,0.1-0.7,0.4-1.1c0.2-0.2,0.5-0.4,1-0.4h0.4c0.1,0,0.2,0.1,0.5,0.2c0.2,0.1,0.4,0.2,0.5,0.2h0.4c0.1,0,0.4-0.1,0.4-0.2
	c0.1-0.1,0.1-0.2,0.1-0.5H82.9z M92.5,29.3c0,0.9-0.1,1.6-0.5,2.2c-0.2,0.6-0.7,1.1-1.2,1.5c-0.5,0.4-1.1,0.5-1.9,0.5
	c-0.7,0-1.4-0.1-1.9-0.5c-0.5-0.4-1-0.9-1.2-1.5c-0.2-0.6-0.5-1.4-0.5-2.2v-0.6c0-0.9,0.1-1.6,0.5-2.2c0.2-0.6,0.7-1.1,1.2-1.5
	s1.1-0.5,1.9-0.5c0.7,0,1.4,0.1,1.9,0.5s1,0.9,1.2,1.5s0.5,1.4,0.5,2.2C92.5,28.7,92.5,29.3,92.5,29.3z M91.4,28.7
	c0-1-0.2-1.9-0.6-2.4c-0.4-0.6-1-0.9-1.7-0.9s-1.4,0.2-1.7,0.9c-0.4,0.5-0.6,1.4-0.6,2.4v0.6c0,1,0.2,1.9,0.6,2.4
	c0.4,0.6,1,0.9,1.7,0.9s1.4-0.2,1.7-0.9c0.4-0.5,0.6-1.4,0.6-2.4C91.4,29.3,91.4,28.7,91.4,28.7z"/>
</svg>
