<svg width="91" height="33" viewBox="0 0 91 33" fill="none" xmlns="http://www.w3.org/2000/svg">
<path fill-rule="evenodd" clip-rule="evenodd" d="M78.6866 19.4018C78.7388 18.8877 78.9137 18.4442 79.2049 18.0763C79.563 17.6159 80.027 17.3772 80.5975 17.3772C81.2238 17.3772 81.6892 17.6179 81.9922 18.0906C82.2298 18.4619 82.3406 18.8972 82.3308 19.4018H78.6866ZM80.7278 16.1931C79.5734 16.1931 78.656 16.6032 77.9725 17.4248C77.326 18.1974 77 19.1604 77 20.3227C77 21.502 77.3511 22.4432 78.0471 23.1437C78.7437 23.8449 79.7023 24.1931 80.9208 24.1931C81.9386 24.1931 82.8206 24.0387 83.5632 23.7204L83.2873 22.5323C82.6492 22.7785 81.9442 22.8996 81.1653 22.8996C80.4624 22.8996 79.8911 22.7193 79.4487 22.3602C78.9611 21.9604 78.7068 21.3823 78.6866 20.624H83.9366C83.9777 20.4097 84 20.1513 84 19.848C84 18.8877 83.7666 18.0804 83.3033 17.4248C82.7223 16.6032 81.8647 16.1931 80.7278 16.1931Z" fill="#5A5D67"/>
<path fill-rule="evenodd" clip-rule="evenodd" d="M60.9863 15.1931L59.1979 15.6599V16.9579H58V18.1379H59.1979V21.7144C59.1979 22.6091 59.3998 23.2471 59.8088 23.6241C60.2127 24.0062 60.78 24.1931 61.497 24.1931C62.0825 24.1931 62.5547 24.1341 62.9157 24.0181L62.8642 22.8249C62.6477 22.8725 62.3804 22.8932 62.0542 22.8932C61.3437 22.8932 60.9863 22.4591 60.9863 21.5846V18.1379H63V16.9579H60.9863V15.1931Z" fill="#5A5D67"/>
<path fill-rule="evenodd" clip-rule="evenodd" d="M55.5724 17.8852C54.8954 17.59 54.427 17.3166 54.1679 17.0636C53.8716 16.7848 53.7229 16.435 53.7229 16.015C53.7229 15.636 53.8525 15.3128 54.1105 15.0449C54.4184 14.7565 54.8473 14.6031 55.3934 14.6031C56.0845 14.6031 56.7035 14.7687 57.249 15.0946L57.6402 13.699C57.0558 13.3636 56.3234 13.1931 55.444 13.1931C54.4573 13.1931 53.6662 13.474 53.0676 14.0324C52.469 14.5928 52.1734 15.3128 52.1734 16.1909C52.1734 17.532 53.0207 18.5527 54.7121 19.2488C55.3348 19.5044 55.7766 19.7765 56.0469 20.0724C56.3129 20.3703 56.4468 20.7351 56.4468 21.1626C56.4468 21.6548 56.2839 22.0427 55.9605 22.3325C55.6353 22.6209 55.1817 22.7682 54.5955 22.7682C53.784 22.7682 53.0386 22.5439 52.3598 22.1021L52 23.5284C52.6294 23.9709 53.4637 24.1931 54.5066 24.1931C55.6316 24.1931 56.5091 23.8836 57.1422 23.2591C57.7118 22.6911 58 21.9487 58 21.0392C58 20.3001 57.8025 19.6838 57.4113 19.1867C57.0176 18.6883 56.4079 18.2527 55.5724 17.8852Z" fill="#5A5D67"/>
<path fill-rule="evenodd" clip-rule="evenodd" d="M68.9097 21.9824C68.5682 22.6061 68.0907 22.913 67.4867 22.913C66.8663 22.913 66.3856 22.6095 66.046 22.0014C65.7582 21.4991 65.6172 20.897 65.6172 20.1911C65.6172 19.4662 65.7582 18.8546 66.046 18.3523C66.3774 17.7428 66.8631 17.44 67.4987 17.44C68.1173 17.44 68.591 17.7428 68.9287 18.3523C69.2121 18.8546 69.3531 19.4594 69.3531 20.1612C69.3531 20.8631 69.2064 21.4733 68.9097 21.9824ZM67.5563 16.1931C66.4685 16.1931 65.6058 16.5671 64.9626 17.3273C64.32 18.0842 64 19.0589 64 20.2467C64 21.3816 64.3105 22.3272 64.9322 23.0725C65.5539 23.8205 66.3926 24.1931 67.4437 24.1931C68.529 24.1931 69.4012 23.8042 70.0608 23.0277C70.6888 22.2674 71 21.3036 71 20.1212C71 18.9754 70.6952 18.036 70.0893 17.3144C69.4518 16.5637 68.6093 16.1931 67.5563 16.1931Z" fill="#5A5D67"/>
<path fill-rule="evenodd" clip-rule="evenodd" d="M26.0193 20.0248L26.9055 17.4133C27.1395 16.5813 27.3062 15.9541 27.4129 15.5292H27.4429C27.7054 16.5162 27.8863 17.1447 27.9836 17.4133L28.8814 20.0248H26.0193ZM26.4287 14.1931L23 24.1931H24.7691L25.72 21.2581H29.1841L30.1799 24.1931H32L28.5509 14.1931H26.4287Z" fill="#5A5D67"/>
<path fill-rule="evenodd" clip-rule="evenodd" d="M73.5542 17.8515H73.5092L73.447 16.3506H72C72.0298 17.0952 72.045 17.9188 72.045 18.8175V24.1931H73.7071V20.0783C73.7071 19.4496 73.8454 18.941 74.1228 18.5309C74.4418 18.0701 74.8926 17.8384 75.4764 17.8384C75.6604 17.8384 75.8365 17.8515 76 17.8828V16.2223C75.8795 16.2021 75.7399 16.1931 75.587 16.1931C75.1567 16.1931 74.7549 16.3291 74.3856 16.6115C74.0036 16.921 73.7276 17.3367 73.5542 17.8515Z" fill="#5A5D67"/>
<path fill-rule="evenodd" clip-rule="evenodd" d="M9.06373 22.7062H17.937V9.68606H9.06373V22.7062ZM13.4993 25.2705C13.0014 25.2705 12.5959 24.8682 12.5959 24.3735C12.5959 23.8789 13.0014 23.4745 13.4993 23.4745C13.9993 23.4745 14.4034 23.8789 14.4034 24.3735C14.4034 24.8682 13.9993 25.2705 13.4993 25.2705ZM12.6305 7.95003H14.3688C14.4829 7.95003 14.5753 8.04236 14.5753 8.15693C14.5753 8.26475 14.4829 8.35775 14.3688 8.35775H12.6305C12.5198 8.35775 12.4247 8.26475 12.4247 8.15693C12.4247 8.04236 12.5198 7.95003 12.6305 7.95003ZM17.2502 6.19312H9.75114C8.78591 6.19312 8 6.97082 8 7.92712V24.4605C8 25.4174 8.78591 26.1931 9.75114 26.1931H17.2502C18.2141 26.1931 19 25.4174 19 24.4605V7.92712C19 6.97082 18.2141 6.19312 17.2502 6.19312Z" fill="#5A5D67"/>
<path fill-rule="evenodd" clip-rule="evenodd" d="M37.8457 22.1433C37.5074 22.6424 37.0302 22.8895 36.4238 22.8895C35.9061 22.8895 35.4842 22.6956 35.1608 22.3126C34.8347 21.9263 34.6759 21.4511 34.6759 20.8899V19.6051C34.6759 19.4666 34.7003 19.2932 34.7498 19.0808C34.8495 18.6255 35.0604 18.2575 35.3852 17.9735C35.7106 17.693 36.0701 17.5537 36.4682 17.5537C37.0572 17.5537 37.5248 17.8124 37.8752 18.3176C38.1949 18.8037 38.3524 19.4235 38.3524 20.1731C38.3524 20.9903 38.1846 21.6464 37.8457 22.1433ZM36.9936 16.1931C35.8958 16.1931 35.0791 16.6532 34.5383 17.5708H34.51L34.4206 16.3481H33C33.0412 17.2151 33.0624 18.0589 33.0624 18.8842V27.1931H34.6759V23.1414C35.0958 23.8746 35.7859 24.2385 36.7505 24.2385C37.6418 24.2385 38.3904 23.8999 38.9904 23.2254C39.6643 22.4615 40 21.4286 40 20.1124C40 18.9388 39.7125 17.9899 39.1408 17.2711C38.5646 16.5502 37.8508 16.1931 36.9936 16.1931Z" fill="#5A5D67"/>
<path fill-rule="evenodd" clip-rule="evenodd" d="M46.8459 22.1433C46.5069 22.6424 46.0335 22.8895 45.4225 22.8895C44.906 22.8895 44.4841 22.6956 44.1612 22.3126C43.8351 21.9263 43.6755 21.4511 43.6755 20.8899V19.6051C43.6755 19.4666 43.6993 19.2932 43.7489 19.0808C43.8492 18.6255 44.0621 18.2575 44.3863 17.9735C44.7118 17.693 45.0687 17.5537 45.4694 17.5537C46.0567 17.5537 46.5256 17.8124 46.8774 18.3176C47.1958 18.8037 47.356 19.4235 47.356 20.1731C47.356 20.9903 47.1862 21.6464 46.8459 22.1433ZM45.9924 16.1931C44.8957 16.1931 44.0808 16.6532 43.5385 17.5708H43.5109L43.4176 16.3481H42C42.0392 17.2151 42.0598 18.0589 42.0598 18.8842V27.1931H43.6755V23.1414C44.0956 23.8746 44.787 24.2385 45.7492 24.2385C46.6427 24.2385 47.3881 23.8999 47.9902 23.2254C48.6642 22.4615 49 21.4286 49 20.1124C49 18.9388 48.7138 17.9899 48.1394 17.2711C47.5663 16.5502 46.8504 16.1931 45.9924 16.1931Z" fill="#5A5D67"/>
<path fill-rule="evenodd" clip-rule="evenodd" d="M89.8705 27.8849C89.8705 29.6446 88.4199 31.0763 86.6375 31.0763H4.36246C2.58011 31.0763 1.13017 29.6446 1.13017 27.8849V4.50658C1.13017 2.7436 2.58011 1.30994 4.36246 1.30994H86.6375C88.4199 1.30994 89.8705 2.7436 89.8705 4.50658V27.8849ZM86.6375 0.193115H4.36246C1.95719 0.193115 0 2.12767 0 4.50658V27.8849C0 30.2605 1.95719 32.1931 4.36246 32.1931H86.6375C89.0435 32.1931 91 30.2605 91 27.8849V4.50658C91 2.12767 89.0435 0.193115 86.6375 0.193115Z" fill="#5A5D67"/>
<path fill-rule="evenodd" clip-rule="evenodd" d="M24.7305 7.93697H25.6028C26.049 7.94858 26.2724 8.21429 26.2724 8.7341C26.2724 8.97454 26.2075 9.16169 26.0789 9.29694C25.9502 9.43219 25.7711 9.49981 25.5419 9.49981H24.7305V7.93697ZM24.7305 5.89393H25.4408C25.6907 5.89393 25.8756 5.94858 25.9939 6.05855C26.1122 6.16852 26.1713 6.3468 26.1713 6.59407C26.1713 6.8188 26.107 6.9923 25.9789 7.11456C25.8515 7.23683 25.6734 7.29831 25.4466 7.29831H24.7305V5.89393ZM26.6204 9.81538C26.8731 9.56333 27 9.20336 27 8.7341C27 8.44995 26.938 8.20678 26.8134 8.00391C26.6893 7.80104 26.5136 7.66374 26.2868 7.58997C26.4872 7.48956 26.6388 7.34749 26.7427 7.16443C26.8467 6.98137 26.8989 6.77508 26.8989 6.54626C26.8989 6.09749 26.7749 5.75937 26.5262 5.5326C26.2781 5.3065 25.9158 5.19312 25.4408 5.19312H24V10.1931H25.5327C26.0048 10.1931 26.3672 10.0674 26.6204 9.81538Z" fill="#5A5D67"/>
<path fill-rule="evenodd" clip-rule="evenodd" d="M29.3613 8.32836L29.997 6.25391L30.6327 8.32836H29.3613ZM29.6567 5.19312L28 10.1931H28.7921L29.1474 9.0285H30.8466L31.2049 10.1931H32L30.3403 5.19312H29.6567Z" fill="#5A5D67"/>
<path fill-rule="evenodd" clip-rule="evenodd" d="M33 10.1931H34V5.19312H33V10.1931Z" fill="#5A5D67"/>
<path fill-rule="evenodd" clip-rule="evenodd" d="M35.9676 10.1931L37 8.3591L38.0298 10.1931H39L37.5201 7.67262L38.9673 5.19312H38.0069L37 6.99913L35.9938 5.19312H35.0334L36.4838 7.67262L35 10.1931H35.9676Z" fill="#5A5D67"/>
<path fill-rule="evenodd" clip-rule="evenodd" d="M40.9967 6.25445L41.6323 8.32862H40.3611L40.9967 6.25445ZM40.1472 9.02866H41.8462L42.2044 10.1931H43L41.34 5.19312H40.6564L39 10.1931H39.792L40.1472 9.02866Z" fill="#5A5D67"/>
<path fill-rule="evenodd" clip-rule="evenodd" d="M44.921 5.89393H45.8942C46.2145 5.89803 46.4558 5.97385 46.6174 6.12071C46.7783 6.26689 46.8594 6.47454 46.8594 6.7423C46.8594 6.99844 46.7725 7.20063 46.5971 7.34817C46.4225 7.49571 46.179 7.56948 45.8688 7.56948H44.921V5.89393ZM44.921 8.2703H45.9486L47.013 10.1931H48V10.1487L46.808 8.06675C47.1145 7.94516 47.3529 7.77167 47.5246 7.54557C47.6957 7.32016 47.7812 7.04011 47.7812 6.70541C47.7812 6.21497 47.6152 5.84066 47.2826 5.58178C46.9493 5.3229 46.4768 5.19312 45.8652 5.19312H44V10.1931H44.921V8.2703Z" fill="#5A5D67"/>
<path fill-rule="evenodd" clip-rule="evenodd" d="M54 10.1931V5.19312H53.1307V8.75459L50.8762 5.19312H50V10.1931H50.8762V6.64598L53.1245 10.1931H54Z" fill="#5A5D67"/>
<path fill-rule="evenodd" clip-rule="evenodd" d="M56.9967 6.25445L57.6323 8.32862H56.3611L56.9967 6.25445ZM56.1472 9.02866H57.8462L58.2044 10.1931H59L57.34 5.19312H56.6564L55 10.1931H55.792L56.1472 9.02866Z" fill="#5A5D67"/>
</svg>
