<svg width="25" height="22" viewBox="0 0 25 22" fill="none" xmlns="http://www.w3.org/2000/svg">
<path d="M24.5008 16.4644L15.7795 1.82183C15.4268 1.26331 14.941 0.803669 14.3667 0.485279C13.7924 0.166889 13.1482 0 12.4934 0C11.8386 0 11.1944 0.166889 10.6201 0.485279C10.0458 0.803669 9.55992 1.26331 9.20727 1.82183L0.485987 16.4644C0.177903 16.9843 0.0104538 17.5772 0.000473791 18.1834C-0.00950619 18.7896 0.138335 19.3878 0.429134 19.9178C0.76534 20.5144 1.25198 21.01 1.83932 21.3538C2.42666 21.6976 3.09364 21.8774 3.7721 21.8748H21.2147C21.8887 21.8821 22.5526 21.7092 23.1396 21.3737C23.7265 21.0382 24.2157 20.5519 24.5576 19.9639C24.857 19.4283 25.0095 18.8216 24.9995 18.2063C24.9895 17.5911 24.8174 16.9897 24.5008 16.4644ZM22.5678 18.8242C22.4311 19.0621 22.2328 19.2575 21.9943 19.3894C21.7558 19.5213 21.4862 19.5846 21.2147 19.5725H3.7721C3.5006 19.5846 3.23099 19.5213 2.99248 19.3894C2.75398 19.2575 2.55565 19.0621 2.419 18.8242C2.3192 18.6492 2.26666 18.4507 2.26666 18.2487C2.26666 18.0466 2.3192 17.8481 2.419 17.6731L11.1516 3.01902C11.3086 2.80917 11.5114 2.63899 11.7442 2.52181C11.977 2.40463 12.2334 2.34365 12.4934 2.34365C12.7534 2.34365 13.0098 2.40463 13.2426 2.52181C13.4754 2.63899 13.6782 2.80917 13.8351 3.01902L22.5564 17.6616C22.6601 17.8369 22.7157 18.037 22.7177 18.2414C22.7197 18.4457 22.668 18.6469 22.5678 18.8242Z" fill="#E42722"/>
<path d="M12.4933 17.2705C13.1213 17.2705 13.6303 16.7551 13.6303 16.1194C13.6303 15.4836 13.1213 14.9682 12.4933 14.9682C11.8653 14.9682 11.3562 15.4836 11.3562 16.1194C11.3562 16.7551 11.8653 17.2705 12.4933 17.2705Z" fill="#E42722"/>
<path d="M12.4933 6.91022C12.1917 6.91022 11.9025 7.0315 11.6893 7.24738C11.476 7.46327 11.3562 7.75606 11.3562 8.06137V12.6659C11.3562 12.9713 11.476 13.264 11.6893 13.4799C11.9025 13.6958 12.1917 13.8171 12.4933 13.8171C12.7948 13.8171 13.0841 13.6958 13.2973 13.4799C13.5105 13.264 13.6303 12.9713 13.6303 12.6659V8.06137C13.6303 7.75606 13.5105 7.46327 13.2973 7.24738C13.0841 7.0315 12.7948 6.91022 12.4933 6.91022Z" fill="#E42722"/>
</svg>
