<svg width="14" height="12" viewBox="0 0 14 12" fill="none" xmlns="http://www.w3.org/2000/svg">
<path d="M13.744 1.98074L12.5703 0.765148C12.3997 0.588395 12.1968 0.5 11.9621 0.5C11.7276 0.5 11.5246 0.588395 11.3541 0.765148L5.45146 6.91439L2.64582 4.00829C2.47509 3.83142 2.27234 3.74314 2.03772 3.74314C1.80305 3.74314 1.60038 3.83142 1.42961 4.00829L0.256111 5.22372C0.0854201 5.40052 0 5.61051 0 5.85368C0 6.09673 0.0854201 6.30665 0.256111 6.48352L4.84351 11.2349C5.01424 11.4118 5.21699 11.5 5.45161 11.5C5.68624 11.5 5.88895 11.4118 6.05972 11.2349L13.7439 3.24038C13.9145 3.06362 14 2.85359 14 2.61054C14 2.36749 13.9147 2.15749 13.744 1.98074Z" fill="#FF4445"/>
</svg>
