<svg width="453" height="450" viewBox="0 0 453 450" fill="none" xmlns="http://www.w3.org/2000/svg">
<g clip-path="url(#clip0)">
<path d="M108.897 27.0481C93.6827 48.775 111.521 83.9972 88.946 100.334C66.97 116.245 39.9673 90.1686 19.2641 103.86C-11.4588 124.174 -5.84879 217.11 39.0699 274.853C52.5793 292.211 63.8653 298.975 68.8647 318.614C79.5997 360.786 41.8732 385.872 49.0477 406.729C65.2235 453.698 313.823 493.099 413.573 351.966C460.161 286.049 467.133 190.864 425.507 118.57C350.291 -12.0682 143.042 -21.695 108.897 27.0481Z" fill="#F4F7FA"/>
<path d="M145.892 239.543L138.619 239.482C138.046 236.232 137.187 233.039 136.053 229.939L142.36 226.374C142.77 226.141 143.129 225.83 143.417 225.458C143.705 225.085 143.917 224.66 144.039 224.206C144.162 223.752 144.193 223.278 144.13 222.812C144.068 222.346 143.914 221.896 143.677 221.49L137.458 210.685C136.983 209.855 136.2 209.245 135.278 208.987C134.355 208.73 133.368 208.846 132.531 209.31L126.141 212.898C124.008 210.359 121.663 208.006 119.129 205.864L122.835 199.538C123.313 198.708 123.442 197.723 123.194 196.799C122.945 195.874 122.34 195.085 121.511 194.604L110.658 188.219C110.251 187.974 109.799 187.812 109.328 187.742C108.858 187.672 108.378 187.695 107.917 187.811C107.455 187.926 107.021 188.131 106.64 188.414C106.258 188.697 105.936 189.052 105.692 189.46L101.958 195.805C98.8319 194.64 95.6111 193.747 92.3312 193.135V185.702C92.3254 184.735 91.9395 183.808 91.2563 183.121C90.5731 182.434 89.6471 182.042 88.6772 182.028L76.0216 181.816C75.5446 181.804 75.0699 181.887 74.6254 182.06C74.181 182.233 73.7757 182.493 73.4336 182.825C73.0915 183.157 72.8193 183.554 72.6332 183.992C72.4471 184.431 72.3507 184.902 72.3498 185.378V192.833C69.0516 193.347 65.8046 194.147 62.6459 195.225L58.8662 188.722C58.3745 187.879 57.5728 187.26 56.6313 186.997C55.6898 186.734 54.6826 186.847 53.8233 187.313L42.7532 193.42C42.3328 193.651 41.9632 193.963 41.6663 194.34C41.3694 194.716 41.1512 195.147 41.0247 195.609C40.8982 196.071 40.8659 196.553 40.9298 197.028C40.9937 197.502 41.1524 197.959 41.3966 198.371L45.1892 204.875C42.5963 206.977 40.1929 209.301 38.0067 211.821L31.4349 208.019C30.5903 207.521 29.583 207.375 28.6312 207.613C27.6795 207.85 26.8599 208.452 26.3501 209.289L19.9055 220.13C19.662 220.547 19.504 221.009 19.4409 221.487C19.3778 221.966 19.4107 222.452 19.5379 222.917C19.6651 223.383 19.8839 223.819 20.1815 224.199C20.4792 224.58 20.8498 224.897 21.2718 225.133L27.7969 228.888C26.6244 232.02 25.7363 235.251 25.1434 238.542L17.6081 238.479C17.1234 238.47 16.6417 238.556 16.1908 238.733C15.7399 238.911 15.3288 239.176 14.9813 239.513C14.6338 239.85 14.3568 240.253 14.1663 240.697C13.9759 241.142 13.8758 241.62 13.8718 242.103V254.727C13.8825 255.708 14.2811 256.644 14.981 257.333C15.6808 258.021 16.6251 258.406 17.6081 258.403L25.0838 258.443C25.6616 261.763 26.5367 265.025 27.6986 268.189L21.2718 271.798C20.8496 272.032 20.4784 272.347 20.1802 272.725C19.882 273.104 19.6628 273.538 19.5355 274.002C19.4081 274.466 19.3753 274.951 19.4389 275.429C19.5024 275.906 19.6611 276.365 19.9055 276.781L26.3501 287.709C26.8544 288.551 27.6687 289.162 28.6189 289.412C29.569 289.663 30.5797 289.533 31.4349 289.049L37.8134 285.445C40.016 288.033 42.442 290.423 45.0635 292.588L41.3982 298.823C41.1551 299.237 40.9973 299.695 40.934 300.17C40.8708 300.646 40.9032 301.129 41.0296 301.592C41.1559 302.055 41.3735 302.488 41.6698 302.866C41.966 303.244 42.3349 303.559 42.7548 303.793L53.8249 310.061C54.6737 310.542 55.6777 310.671 56.6208 310.421C57.564 310.17 58.3709 309.56 58.8678 308.722L62.4848 302.537C65.6935 303.68 68.9967 304.541 72.3563 305.108V312.237C72.3586 312.715 72.4555 313.188 72.6415 313.629C72.8274 314.069 73.0988 314.469 73.4399 314.804C73.7811 315.14 74.1853 315.405 74.6295 315.585C75.0736 315.764 75.5489 315.854 76.0281 315.85L88.6836 315.813C89.6492 315.814 90.5757 315.433 91.2605 314.753C91.9453 314.074 92.3326 313.152 92.3377 312.189V305.081C95.668 304.508 98.9411 303.643 102.119 302.496L105.692 308.621C106.179 309.45 106.974 310.053 107.904 310.298C108.835 310.544 109.825 310.412 110.658 309.931L121.509 303.695C121.92 303.46 122.281 303.146 122.57 302.772C122.86 302.397 123.072 301.969 123.195 301.513C123.318 301.056 123.349 300.579 123.287 300.111C123.225 299.642 123.071 299.19 122.833 298.781L119.252 292.619C121.812 290.482 124.179 288.125 126.326 285.575L132.529 289.143C133.357 289.62 134.34 289.751 135.264 289.506C136.188 289.26 136.976 288.659 137.456 287.834L143.675 277.116C144.152 276.292 144.281 275.312 144.034 274.393C143.787 273.474 143.185 272.69 142.359 272.213L136.145 268.616C137.271 265.51 138.118 262.31 138.676 259.054L145.89 259.094C146.361 259.098 146.828 259.008 147.264 258.831C147.7 258.654 148.097 258.392 148.431 258.062C148.765 257.731 149.031 257.337 149.212 256.904C149.393 256.47 149.486 256.005 149.486 255.536V243.161C149.486 242.207 149.108 241.292 148.435 240.615C147.762 239.938 146.848 239.552 145.892 239.543ZM82.3599 212.5C102.733 212.75 119.16 229.224 119.16 249.303C119.16 269.383 102.726 285.625 82.3599 285.593C61.8645 285.562 45.157 269.087 45.157 248.789C45.157 228.491 61.8645 212.249 82.3599 212.5Z" fill="url(#paint0_linear)"/>
<path d="M89.4471 235.154L70.8008 255.023" stroke="#9197A2" stroke-width="4" stroke-miterlimit="10" stroke-linecap="round"/>
<path d="M90.0837 254.389L70.165 235.789" stroke="#9197A2" stroke-width="4" stroke-miterlimit="10" stroke-linecap="round"/>
<path d="M234.457 74.0491L226.622 73.8338C225.999 70.4007 225.073 67.0295 223.852 63.7602L230.653 60.1554C231.092 59.924 231.478 59.6058 231.79 59.2201C232.101 58.8344 232.33 58.3894 232.463 57.9123C232.596 57.4352 232.63 56.9361 232.563 56.4455C232.495 55.9549 232.328 55.4831 232.072 55.0591L225.371 43.5777C224.298 41.7391 221.919 41.04 220.055 42.0172L213.152 45.6429C210.843 42.9191 208.311 40.3925 205.58 38.0893L209.582 31.5225C210.662 29.7547 210.02 27.4179 208.148 26.3041L196.408 19.3195C194.526 18.1945 192.116 18.7281 191.027 20.5007L186.981 27.09C183.59 25.7855 180.095 24.7641 176.534 24.0365V16.2081C176.534 14.1059 174.762 12.33 172.563 12.2432L158.796 11.6936C156.587 11.6052 154.795 13.2461 154.795 15.3579V23.2329C151.206 23.6921 147.663 24.4566 144.205 25.5182L140.081 18.5561C138.967 16.6773 136.501 15.9541 134.571 16.9393L122.461 23.1204C122.005 23.3472 121.601 23.6662 121.275 24.0572C120.949 24.4482 120.708 24.9026 120.568 25.3914C120.428 25.8803 120.391 26.393 120.46 26.8968C120.529 27.4006 120.702 27.8846 120.969 28.3179L125.121 35.2897C122.291 37.4403 119.659 39.8391 117.257 42.4575L110.052 38.279C108.101 37.154 105.602 37.694 104.473 39.5036L97.4014 50.842C96.2736 52.6581 96.9423 55.0463 98.903 56.1745L106.068 60.2968C104.781 63.5881 103.805 66.9925 103.155 70.4652L94.8832 70.2322C92.6147 70.1711 90.7732 71.8554 90.7732 73.9961V87.382C90.7732 89.5211 92.6147 91.2986 94.8832 91.3516L103.1 91.5397C103.737 95.0776 104.698 98.5497 105.971 101.912L98.9127 105.618C98.4527 105.849 98.0457 106.173 97.7174 106.569C97.3892 106.965 97.1468 107.424 97.0057 107.918C96.8646 108.412 96.8278 108.93 96.8975 109.439C96.9673 109.948 97.1422 110.437 97.4111 110.875L104.482 122.569C105.61 124.436 108.111 125.108 110.062 124.075L117.056 120.367C119.475 123.149 122.13 125.718 124.991 128.046L120.979 134.581C119.851 136.408 120.523 138.772 122.464 139.862L134.574 146.652C136.507 147.733 138.971 147.134 140.084 145.311L144.034 138.843C147.534 140.104 151.135 141.066 154.798 141.718V149.241C154.798 151.354 156.59 153.085 158.799 153.108L172.566 153.251C174.76 153.273 176.538 151.586 176.538 149.484V141.994C180.145 141.445 183.698 140.584 187.157 139.423L191.023 145.927C191.564 146.81 192.423 147.452 193.425 147.721C194.426 147.99 195.493 147.866 196.405 147.373L208.145 140.979C208.586 140.744 208.975 140.422 209.289 140.032C209.602 139.643 209.832 139.194 209.966 138.714C210.1 138.233 210.135 137.73 210.069 137.235C210.002 136.74 209.835 136.264 209.579 135.836L205.712 129.299C208.473 127.102 211.031 124.663 213.359 122.013L220.056 125.87C221.919 126.94 224.298 126.362 225.373 124.576L232.077 113.432C233.147 111.653 232.512 109.34 230.657 108.264L223.958 104.378C225.173 101.137 226.087 97.7917 226.688 94.3843L234.461 94.5627C236.599 94.6109 238.328 92.9684 238.328 90.8936V77.9127C238.327 75.8363 236.595 74.107 234.457 74.0491ZM165.69 44.2125C187.817 44.947 205.606 62.6448 205.606 83.7482C205.606 104.852 187.817 121.661 165.69 121.28C143.354 120.901 125.089 103.19 125.089 81.7281C125.089 60.2663 143.354 43.4716 165.69 44.2125Z" fill="#B4B7C1"/>
<path d="M61.173 141.647L57.9636 141.675C57.7106 140.295 57.3331 138.941 56.8358 137.629L59.6183 136.067C59.7971 135.971 59.9545 135.84 60.0812 135.682C60.2079 135.524 60.3012 135.341 60.3556 135.146C60.4099 134.951 60.4241 134.747 60.3973 134.546C60.3706 134.345 60.3034 134.152 60.1999 133.978L57.461 129.426C57.2395 129.073 56.8895 128.818 56.4842 128.716C56.0789 128.613 55.6495 128.671 55.2859 128.877L52.468 130.453C51.5251 129.387 50.4912 128.404 49.3779 127.516L51.0116 124.795C51.1161 124.621 51.184 124.427 51.2112 124.226C51.2383 124.025 51.2241 123.82 51.1693 123.625C51.1146 123.429 51.0205 123.247 50.8929 123.089C50.7652 122.931 50.6066 122.8 50.4267 122.705L45.6481 120.075C45.2799 119.872 44.8478 119.818 44.4408 119.923C44.0338 120.029 43.6828 120.286 43.4601 120.642L41.8184 123.374C40.4394 122.903 39.023 122.549 37.5843 122.317V119.157C37.5797 118.951 37.5344 118.747 37.4508 118.559C37.3673 118.37 37.2472 118.2 37.0976 118.057C36.9479 117.915 36.7715 117.804 36.5785 117.73C36.3856 117.655 36.1799 117.62 35.9732 117.625L30.4131 117.638C29.9949 117.63 29.5905 117.788 29.2886 118.077C28.9867 118.366 28.8117 118.762 28.802 119.179V122.345C27.3534 122.59 25.928 122.955 24.5405 123.437L22.8826 120.705C22.6553 120.347 22.2994 120.09 21.8879 119.986C21.4765 119.883 21.0408 119.94 20.6705 120.147L15.8194 122.826C15.6371 122.921 15.4763 123.053 15.3468 123.213C15.2173 123.372 15.1218 123.556 15.0661 123.754C15.0105 123.952 14.9958 124.159 15.0231 124.362C15.0504 124.566 15.1191 124.762 15.2249 124.938L16.8876 127.67C15.7516 128.574 14.6962 129.575 13.733 130.661L10.8555 129.099C10.4806 128.894 10.0418 128.84 9.62843 128.948C9.21505 129.055 8.85818 129.315 8.63047 129.676L5.8142 134.319C5.70784 134.495 5.63881 134.691 5.61139 134.894C5.58396 135.098 5.59872 135.305 5.65474 135.503C5.71076 135.701 5.80687 135.885 5.93711 136.044C6.06735 136.203 6.22895 136.334 6.41193 136.429L9.26687 137.972C8.75483 139.304 8.366 140.68 8.10524 142.083L4.81045 142.11C4.38697 142.104 3.97811 142.264 3.67236 142.557C3.36662 142.849 3.18857 143.25 3.17676 143.672V149.021C3.18173 149.229 3.2281 149.434 3.31319 149.624C3.39828 149.814 3.52037 149.985 3.67238 150.127C3.82439 150.27 4.00328 150.381 4.19866 150.454C4.39403 150.527 4.602 150.56 4.81045 150.552L8.07946 150.519C8.33242 151.922 8.71537 153.299 9.22337 154.631L6.41676 156.205C6.23392 156.301 6.07261 156.433 5.94267 156.593C5.81273 156.754 5.71687 156.939 5.66095 157.137C5.60502 157.336 5.5902 157.543 5.61738 157.748C5.64455 157.952 5.71317 158.149 5.81903 158.326L8.6353 162.916C8.8664 163.273 9.2262 163.528 9.64031 163.628C10.0544 163.728 10.4912 163.665 10.8603 163.453L13.654 161.884C14.6209 162.971 15.6831 163.97 16.828 164.869L15.2168 167.535C15.1105 167.71 15.0414 167.905 15.0139 168.108C14.9863 168.311 15.0009 168.517 15.0567 168.714C15.1124 168.911 15.2082 169.095 15.338 169.253C15.4678 169.412 15.6289 169.542 15.8113 169.636L20.6625 172.225C21.0387 172.423 21.4764 172.471 21.8871 172.36C22.2977 172.249 22.6507 171.986 22.8746 171.625L24.4616 168.983C25.8732 169.451 27.3227 169.797 28.7939 170.016V173.044C28.798 173.25 28.8432 173.452 28.9268 173.64C29.0105 173.828 29.1308 173.997 29.2809 174.138C29.4309 174.279 29.6076 174.389 29.8007 174.46C29.9937 174.532 30.1992 174.565 30.4051 174.557L35.9651 174.465C36.3844 174.465 36.7873 174.302 37.0882 174.011C37.389 173.719 37.5641 173.323 37.5763 172.904V169.883C39.0413 169.619 40.481 169.231 41.8796 168.723L43.4521 171.305C43.6779 171.658 44.0318 171.91 44.4397 172.008C44.8475 172.107 45.2777 172.044 45.64 171.832L50.4187 169.115C50.5981 169.018 50.7561 168.886 50.8832 168.727C51.0103 168.568 51.104 168.385 51.1586 168.189C51.2132 167.992 51.2276 167.787 51.201 167.586C51.1743 167.384 51.1072 167.19 51.0035 167.014L49.4246 164.416C50.5503 163.494 51.5939 162.476 52.5438 161.375L55.2827 162.853C55.652 163.051 56.083 163.1 56.4874 162.99C56.8918 162.881 57.2389 162.622 57.4577 162.265L60.1967 157.661C60.3012 157.488 60.3691 157.295 60.3963 157.095C60.4236 156.895 60.4095 156.691 60.3551 156.497C60.3006 156.302 60.2069 156.121 60.0796 155.963C59.9524 155.806 59.7943 155.677 59.6151 155.583L56.8761 154.093C57.372 152.767 57.7462 151.399 57.9943 150.006L61.1779 149.972C61.5924 149.975 61.9912 149.815 62.2882 149.526C62.5852 149.238 62.7564 148.844 62.7649 148.431V143.161C62.7613 142.957 62.7172 142.756 62.635 142.569C62.5528 142.382 62.4343 142.213 62.2862 142.072C62.1381 141.931 61.9635 141.821 61.7724 141.748C61.5813 141.675 61.3776 141.641 61.173 141.647ZM33.1891 130.616C42.1487 130.568 49.3811 137.449 49.3811 145.988C49.3811 154.527 42.1487 161.542 33.1891 161.661C24.1893 161.778 16.865 154.896 16.865 146.289C16.865 137.681 24.1893 130.661 33.1891 130.616Z" fill="url(#paint1_linear)"/>
<path d="M356.11 14.5593C373.8 15.4834 388.76 31.2735 389.519 49.8377C389.593 51.565 389.536 53.2955 389.348 55.0143C392.548 53.7735 395.978 53.2321 399.406 53.4264C414.006 54.1898 426.348 67.2221 426.974 82.5382C427.569 97.0989 417.374 108.474 403.83 108.915C403.12 108.934 402.401 108.931 401.673 108.894L280.666 102.158C273.848 100.498 268.472 94.0164 268.166 86.5464C267.822 78.1298 274.051 71.6418 282.083 72.0612C283.763 72.1519 285.415 72.5326 286.964 73.1862C286.255 70.5211 285.839 67.7867 285.724 65.0316C284.939 45.8471 299.127 31.0662 317.415 32.0225C320.776 32.2053 324.09 32.8963 327.243 34.0716C331.479 21.9666 342.641 13.8537 356.11 14.5593Z" fill="url(#paint2_linear)"/>
<path d="M365.694 0.054181C386.534 1.14278 404.158 19.7437 405.052 41.6141C405.137 43.649 405.07 45.6874 404.849 47.7122C408.618 46.2498 412.659 45.6119 416.697 45.8417C433.896 46.7409 448.435 62.093 449.173 80.1354C449.873 97.2861 437.865 110.686 421.909 111.205C421.072 111.228 420.226 111.226 419.37 111.18L276.824 103.248C268.79 101.292 262.456 93.6568 262.098 84.8552C261.691 74.9404 269.031 67.2975 278.49 67.7916C280.469 67.8994 282.415 68.3477 284.241 69.1169C283.407 65.9777 282.917 62.7573 282.781 59.5126C281.857 36.9113 298.568 19.4994 320.114 20.6259C324.073 20.8413 327.977 21.6552 331.691 23.0397C336.686 8.78002 349.833 -0.775048 365.694 0.054181Z" fill="#B4B7C1"/>
<path d="M332.512 139.671C331.657 139.668 330.837 139.327 330.233 138.723C329.629 138.119 329.29 137.3 329.29 136.447V126.375C329.309 125.532 329.657 124.731 330.261 124.142C330.865 123.553 331.676 123.223 332.521 123.223C333.366 123.223 334.177 123.553 334.781 124.142C335.385 124.731 335.733 125.532 335.752 126.375V136.447C335.752 136.871 335.668 137.291 335.505 137.682C335.342 138.074 335.104 138.43 334.803 138.729C334.502 139.029 334.144 139.266 333.751 139.428C333.358 139.589 332.937 139.672 332.512 139.671Z" fill="#F4E0F7"/>
<path d="M332.512 170.637C331.657 170.637 330.836 170.298 330.23 169.696C329.624 169.093 329.283 168.276 329.28 167.422V151.938C329.299 151.095 329.648 150.294 330.252 149.705C330.856 149.116 331.667 148.786 332.511 148.786C333.356 148.786 334.167 149.116 334.771 149.705C335.375 150.294 335.724 151.095 335.743 151.938V167.422C335.74 168.276 335.399 169.093 334.794 169.696C334.188 170.298 333.368 170.637 332.512 170.637Z" fill="#F4E0F7"/>
<path d="M332.512 196.192C332.088 196.193 331.668 196.111 331.276 195.95C330.884 195.789 330.528 195.553 330.227 195.254C329.927 194.956 329.689 194.601 329.526 194.21C329.364 193.82 329.28 193.401 329.28 192.978V182.893C329.27 182.464 329.347 182.037 329.505 181.637C329.663 181.238 329.9 180.874 330.201 180.567C330.502 180.26 330.861 180.016 331.258 179.849C331.655 179.683 332.081 179.597 332.511 179.597C332.942 179.597 333.368 179.683 333.765 179.849C334.162 180.016 334.521 180.26 334.822 180.567C335.123 180.874 335.359 181.238 335.518 181.637C335.676 182.037 335.752 182.464 335.742 182.893V192.965C335.744 193.389 335.662 193.809 335.5 194.201C335.338 194.593 335.101 194.949 334.8 195.249C334.5 195.549 334.143 195.787 333.751 195.949C333.358 196.11 332.937 196.193 332.512 196.192Z" fill="#413974"/>
<path d="M150.505 178.633C149.65 178.63 148.83 178.289 148.226 177.685C147.622 177.081 147.283 176.262 147.283 175.409V165.337C147.302 164.494 147.65 163.693 148.254 163.104C148.858 162.514 149.669 162.185 150.514 162.185C151.359 162.185 152.17 162.514 152.774 163.104C153.378 163.693 153.726 164.494 153.745 165.337V175.409C153.745 175.833 153.661 176.252 153.498 176.644C153.335 177.036 153.097 177.392 152.796 177.691C152.495 177.991 152.137 178.228 151.744 178.389C151.351 178.551 150.93 178.634 150.505 178.633Z" fill="#F4E0F7"/>
<path d="M150.505 209.599C149.65 209.597 148.83 209.256 148.226 208.652C147.622 208.048 147.283 207.23 147.283 206.376V190.892C147.302 190.049 147.65 189.248 148.254 188.659C148.858 188.07 149.669 187.74 150.514 187.74C151.359 187.74 152.17 188.07 152.774 188.659C153.378 189.248 153.726 190.049 153.745 190.892V206.376C153.745 206.8 153.661 207.22 153.498 207.612C153.335 208.003 153.096 208.359 152.795 208.658C152.494 208.957 152.137 209.194 151.744 209.356C151.351 209.517 150.93 209.6 150.505 209.599Z" fill="#F4E0F7"/>
<path d="M150.505 235.154C149.65 235.154 148.831 234.815 148.226 234.213C147.622 233.61 147.283 232.792 147.283 231.94V221.868C147.273 221.438 147.349 221.011 147.507 220.612C147.666 220.213 147.902 219.849 148.203 219.542C148.504 219.235 148.863 218.991 149.26 218.824C149.657 218.658 150.083 218.572 150.514 218.572C150.944 218.572 151.37 218.658 151.767 218.824C152.164 218.991 152.523 219.235 152.824 219.542C153.125 219.849 153.362 220.213 153.52 220.612C153.678 221.011 153.755 221.438 153.745 221.868V231.94C153.745 232.363 153.661 232.783 153.498 233.174C153.335 233.565 153.096 233.92 152.795 234.219C152.494 234.518 152.136 234.754 151.743 234.914C151.35 235.075 150.93 235.156 150.505 235.154Z" fill="#F4E0F7"/>
<path d="M244.346 125.825C243.922 125.825 243.502 125.742 243.111 125.58C242.719 125.418 242.364 125.18 242.065 124.881C241.765 124.581 241.528 124.226 241.367 123.835C241.205 123.444 241.123 123.026 241.124 122.603V112.531C241.114 112.101 241.19 111.675 241.349 111.275C241.507 110.876 241.743 110.512 242.044 110.205C242.345 109.898 242.704 109.654 243.101 109.487C243.498 109.321 243.924 109.235 244.355 109.235C244.785 109.235 245.211 109.321 245.608 109.487C246.005 109.654 246.364 109.898 246.665 110.205C246.966 110.512 247.203 110.876 247.361 111.275C247.519 111.675 247.595 112.101 247.586 112.531V122.603C247.587 123.027 247.504 123.447 247.341 123.839C247.179 124.231 246.94 124.588 246.639 124.887C246.337 125.187 245.98 125.424 245.586 125.585C245.193 125.746 244.771 125.827 244.346 125.825Z" fill="#F4E0F7"/>
<path d="M244.346 156.793C243.49 156.791 242.671 156.45 242.066 155.845C241.462 155.241 241.123 154.423 241.123 153.569V138.086C241.142 137.244 241.491 136.442 242.095 135.853C242.699 135.264 243.51 134.934 244.354 134.934C245.199 134.934 246.01 135.264 246.614 135.853C247.218 136.442 247.567 137.244 247.586 138.086V153.569C247.586 153.993 247.502 154.413 247.339 154.805C247.176 155.196 246.937 155.552 246.636 155.852C246.335 156.151 245.978 156.389 245.585 156.55C245.192 156.712 244.771 156.794 244.346 156.793Z" fill="#F4E0F7"/>
<path d="M244.346 182.348C243.492 182.346 242.674 182.007 242.07 181.404C241.466 180.802 241.126 179.986 241.124 179.134V169.062C241.114 168.633 241.19 168.206 241.349 167.806C241.507 167.407 241.743 167.043 242.044 166.736C242.345 166.429 242.704 166.185 243.101 166.018C243.498 165.852 243.924 165.766 244.355 165.766C244.785 165.766 245.211 165.852 245.608 166.018C246.005 166.185 246.364 166.429 246.665 166.736C246.966 167.043 247.203 167.407 247.361 167.806C247.519 168.206 247.595 168.633 247.586 169.062V179.134C247.583 179.989 247.24 180.807 246.633 181.41C246.025 182.013 245.203 182.35 244.346 182.348Z" fill="#413974"/>
<path d="M82.7466 292.364C81.8894 292.364 81.0674 292.024 80.4613 291.419C79.8552 290.815 79.5146 289.995 79.5146 289.14V279.068C79.5335 278.225 79.8822 277.424 80.4861 276.835C81.09 276.246 81.9011 275.916 82.7458 275.916C83.5905 275.916 84.4016 276.246 85.0055 276.835C85.6094 277.424 85.9581 278.225 85.9769 279.068V289.14C85.9769 289.994 85.6367 290.814 85.0309 291.419C84.4251 292.023 83.6035 292.363 82.7466 292.364Z" fill="#413974"/>
<path d="M328.552 402.061L52.1448 399.711V406.665C52.1448 408.552 53.3499 410.158 54.9836 410.444L133.143 424.137C134.068 424.3 135.011 424.343 135.947 424.265L325.549 408.653C327.242 408.513 328.552 406.903 328.552 404.965V402.061Z" fill="#26264F"/>
<path d="M228.246 390.917L55.0029 403.639C51.903 403.867 49.3816 401.448 49.3816 398.236V269.547C49.3816 266.333 51.903 263.731 55.0029 263.731H228.246C230.799 263.731 232.865 266.085 232.865 268.989V385.321C232.865 388.225 230.799 390.73 228.246 390.917Z" fill="#26264F"/>
<path d="M231.011 390.917L57.7644 403.639C54.6646 403.867 52.1448 401.448 52.1448 398.236V269.547C52.1448 266.333 54.6646 263.731 57.7644 263.731H231.011C233.564 263.731 235.63 266.085 235.63 268.989V385.321C235.626 388.225 233.561 390.73 231.011 390.917Z" fill="url(#paint3_linear)"/>
<path d="M225.61 382.716L64.2571 393.766C61.7341 393.938 59.6831 391.953 59.6831 389.331V276.67C59.6831 274.047 61.7341 271.913 64.2571 271.901L225.613 271.207C227.72 271.199 229.425 273.128 229.425 275.516V378.135C229.422 380.519 227.717 382.571 225.61 382.716Z" fill="white"/>
<path d="M150.505 267.25C150.505 268.446 149.612 269.418 148.512 269.422C147.411 269.425 146.514 268.457 146.514 267.258C146.514 266.059 147.41 265.089 148.512 265.087C149.614 265.086 150.505 266.055 150.505 267.25Z" fill="white"/>
<path d="M237.913 390.214L52.1479 403.605L133.147 417.796C134.072 417.959 135.014 418.002 135.95 417.925L328.556 402.064L240.871 390.306C239.891 390.174 238.899 390.143 237.913 390.214Z" fill="url(#paint4_linear)"/>
<path d="M79.2505 403.718L233.909 392.403L281.774 398.771L128.448 410.865L79.2505 403.718Z" fill="#26264F"/>
<path d="M129.36 389.118L63.5354 393.536C63.0788 393.567 62.6207 393.504 62.1895 393.351C61.7582 393.198 61.3631 392.959 61.0284 392.647C60.6937 392.336 60.4267 391.959 60.2438 391.541C60.0609 391.122 59.966 390.671 59.9651 390.214V275.209C59.9655 274.328 60.3154 273.482 60.9384 272.857C61.5614 272.232 62.4069 271.878 63.2905 271.873L129.347 271.607L129.36 389.118Z" fill="#D8DEE8"/>
<path d="M214.366 326.408L145.012 328.839V321.843L214.366 319.675V326.408Z" fill="#D8DEE8"/>
<path d="M214.366 337.438L145.012 340.298V333.304L214.366 330.705V337.438Z" fill="#D8DEE8"/>
<path d="M122.571 327.665L82.7466 329.018V323.79L122.571 322.546V327.665Z" fill="white"/>
<path d="M122.571 336.051L82.7466 337.584V332.356L122.571 330.932V336.051Z" fill="white"/>
<path d="M122.571 344.437L82.7466 346.148V340.92L122.571 339.318V344.437Z" fill="white"/>
<path d="M122.571 352.823L82.7466 354.714V349.485L122.571 347.704V352.823Z" fill="white"/>
<path d="M175.66 350.304L145.012 351.759V344.763L175.66 343.424V350.304Z" fill="#D8DEE8"/>
<path d="M170.725 295.489V306C170.725 309.038 173.286 311.434 176.438 311.352L184.25 311.149C187.365 311.068 189.879 308.565 189.879 305.56V295.163L170.725 295.489ZM177.92 306.352L179.37 301.963C179.057 301.806 178.794 301.565 178.609 301.267C178.425 300.97 178.327 300.627 178.326 300.277C178.337 299.747 178.555 299.243 178.933 298.871C179.311 298.499 179.82 298.289 180.351 298.286C180.61 298.276 180.869 298.318 181.112 298.409C181.354 298.5 181.576 298.639 181.765 298.817C181.953 298.995 182.103 299.209 182.207 299.446C182.311 299.683 182.366 299.938 182.37 300.197C182.366 300.551 182.268 300.897 182.086 301.201C181.903 301.504 181.642 301.753 181.331 301.923L182.781 306.24L177.92 306.352Z" fill="#D8DEE8"/>
<path d="M187.659 294.249C187.466 294.256 187.274 294.224 187.093 294.155C186.912 294.087 186.747 293.983 186.607 293.85C186.467 293.717 186.355 293.557 186.278 293.38C186.201 293.203 186.16 293.013 186.158 292.82C186.158 289.731 183.557 287.251 180.358 287.293C177.158 287.335 174.516 289.897 174.516 293.005C174.507 293.402 174.342 293.781 174.058 294.059C173.773 294.338 173.39 294.494 172.992 294.495C172.796 294.502 172.6 294.471 172.416 294.401C172.233 294.332 172.065 294.227 171.923 294.092C171.781 293.958 171.667 293.796 171.588 293.616C171.51 293.437 171.468 293.244 171.466 293.048C171.466 288.318 175.466 284.424 180.358 284.369C185.223 284.315 189.163 288.082 189.163 292.767C189.157 293.161 188.996 293.538 188.715 293.815C188.434 294.092 188.055 294.248 187.659 294.249Z" fill="#D8DEE8"/>
<g style="mix-blend-mode:soft-light" opacity="0.48">
<path d="M57.7644 403.639L230.131 390.981L231.007 390.917C232.184 390.809 233.275 390.259 234.059 389.377C221.653 388.7 213.952 384.31 208.981 379.773C198.992 370.66 200.732 361.676 189.97 355.685C176.546 348.213 165.991 357.681 155.804 348.34C149.629 342.677 152.661 338.453 145.061 329.99C136.644 320.617 131.165 323.767 122.706 315.331C112.012 304.665 117.361 296.367 108.148 288.706C96.9716 279.415 84.9202 288.015 74.2803 279.103C69.6917 275.26 67.1735 269.674 65.8588 263.731H57.7661C54.6646 263.731 52.1448 266.334 52.1448 269.547V398.236C52.1448 401.447 54.6646 403.865 57.7644 403.639Z" fill="white"/>
</g>
<path d="M262.283 402.347C257.473 402.498 252.72 401.271 248.588 398.811C236.082 391.333 217.604 378.984 200.98 362.819C179.884 342.305 167.765 321.454 165.113 300.979L165.071 300.658L164.557 213.29C164.557 196.023 175.846 182.007 197.043 172.79C214.556 165.182 237.767 161.412 262.294 162.121C286.53 162.82 308.957 167.808 325.557 176.12C345.289 186.001 355.642 199.885 355.642 216.349L355.173 299.829L355.134 300.136C352.718 319.743 341.561 340.01 321.85 360.505C306.041 376.943 288.177 389.97 275.906 398.041C271.856 400.714 267.137 402.205 262.283 402.347Z" fill="#B17BED"/>
<path d="M267.1 402.347C262.345 402.498 257.648 401.269 253.579 398.811C241.238 391.333 223.005 378.984 206.6 362.819C185.782 342.305 173.823 321.454 171.206 300.979L171.164 300.658L170.657 213.29C170.657 196.023 181.798 182.007 202.719 172.79C220 165.182 242.905 161.412 267.103 162.121C291.019 162.82 313.149 167.808 329.528 176.12C349.001 186.001 359.217 199.885 359.217 216.349L358.753 299.829L358.716 300.136C356.325 319.743 345.321 340.01 325.871 360.505C310.27 376.942 292.641 389.97 280.535 398.041C276.552 400.709 271.895 402.201 267.1 402.347Z" fill="#CD85E4"/>
<path d="M266.44 391.207C255.32 384.375 235.55 371.191 218.299 354.251C199.453 335.746 188.545 317.996 185.982 301.568L185.397 201.71C185.414 194.819 191.765 188.492 204.223 182.997C220.075 175.995 242.791 172.303 266.44 172.834C289.862 173.359 311.94 177.974 327.112 185.461C338.9 191.279 344.864 197.625 344.88 204.344L344.332 300.947C341.926 316.886 331.649 334.319 313.649 352.856C296.947 370.068 277.508 383.907 266.44 391.207Z" fill="#F3E0F8"/>
<path d="M295.693 264.896L240.693 265.378C236.466 265.415 233.021 268.703 233.021 272.719V307.871C233.021 311.863 236.453 314.958 240.666 314.782L295.47 312.543C299.369 312.382 302.53 309.168 302.551 305.349L302.725 271.77C302.745 267.945 299.605 264.857 295.693 264.896Z" fill="url(#paint5_linear)"/>
<path d="M275.719 285.054C275.731 281.171 272.391 278.102 268.308 278.359C264.696 278.587 261.702 281.496 261.498 284.987C261.423 286.258 261.717 287.523 262.346 288.631C262.975 289.739 263.911 290.642 265.042 291.232C265.499 291.481 265.865 291.869 266.087 292.339C266.308 292.809 266.374 293.337 266.275 293.847L264.686 302.726C264.483 303.851 265.381 304.853 266.566 304.816L270.594 304.674C271.77 304.634 272.665 303.581 272.471 302.471L270.933 293.675C270.749 292.626 271.292 291.586 272.246 291.012C274.319 289.768 275.711 287.549 275.719 285.054Z" fill="#F4F7FA"/>
<path d="M294.921 261.41C294.532 261.416 294.146 261.345 293.784 261.2C293.423 261.056 293.094 260.842 292.817 260.57C292.54 260.297 292.319 259.973 292.169 259.615C292.018 259.257 291.941 258.873 291.94 258.485L291.974 250.829C292.008 243.138 285.634 236.811 277.69 236.732L259.738 236.556C251.522 236.474 244.755 242.868 244.755 250.801V258.7C244.755 260.378 243.322 261.754 241.553 261.754C239.784 261.754 238.342 260.41 238.344 258.726V250.793C238.344 239.455 248.029 230.349 259.758 230.513L277.719 230.762C288.997 230.922 298.019 239.922 297.961 250.827L297.924 258.454C297.914 259.242 297.593 259.994 297.031 260.548C296.469 261.101 295.711 261.411 294.921 261.41Z" fill="url(#paint6_linear)"/>
<path d="M330.711 63.2854L335.939 57.988L348.781 70.9901L377.893 41.9307L383.306 47.5894L349.167 81.64L330.711 63.2854Z" fill="white"/>
<path d="M386.416 162.494C386.416 162.494 409.456 186.326 410.538 195.289C411.621 204.252 399.51 218.25 399.51 218.25L386.416 162.494Z" fill="url(#paint7_linear)"/>
<path d="M376.026 409.436C376.026 409.436 375.22 422.073 372.768 422.243C372.446 422.264 360.335 422.243 360.335 422.243L344.879 422.116C344.879 422.116 344.986 418.399 349.499 417.634C354.011 416.869 361.592 413.704 364.337 407.756C367.211 401.492 376.026 409.436 376.026 409.436Z" fill="#41434B"/>
<path d="M410.43 409.521C410.43 409.521 409.625 422.158 407.173 422.328C406.85 422.349 394.739 422.328 394.739 422.328L379.284 422.201C379.284 422.201 379.39 418.484 383.903 417.719C388.416 416.954 395.996 413.79 398.743 407.843C401.638 401.575 410.43 409.521 410.43 409.521Z" fill="#41434B"/>
<path d="M359.187 273.536C359.187 273.536 363.168 299.343 378.155 345.158C393.141 390.973 395.144 410.812 395.144 410.812L411.325 410.389C411.325 410.389 411.581 360.346 404.682 337.322C397.783 314.298 403.362 254.314 403.362 254.314L359.187 273.536Z" fill="url(#paint8_linear)"/>
<path d="M351.372 255.611C351.372 255.611 350.712 294.482 357.355 342.209C363.997 389.936 361.656 410.191 361.656 410.191L377.794 410.765C377.794 410.765 387.544 363.033 384.841 339.163C382.137 315.294 398.231 257.218 398.231 257.218L351.372 255.611Z" fill="url(#paint9_linear)"/>
<path d="M382.817 164.732L374.196 170.34L361.761 168.003C361.932 167.005 362.762 162.86 363.533 159.104C363.577 158.892 363.619 158.657 363.662 158.445C364.307 155.231 364.875 152.499 364.875 152.499L376.5 147.423L380.85 145.533C380.829 145.596 380.51 149.08 380.466 149.59C379.603 158.587 382.817 164.732 382.817 164.732Z" fill="#FFB27D"/>
<path d="M364.977 161.857C365.21 161.751 379.96 157.46 381.562 158C383.163 158.54 384.095 161.61 384.095 161.61L359.995 166.982C359.995 166.982 361.89 163.125 364.977 161.857Z" fill="#ED7D2B"/>
<path d="M404.427 260.518C401.914 271.882 360.356 273.136 349.669 262.792C348.455 261.624 348.413 256.144 348.882 248.773C349.818 234.372 352.734 212.706 352.884 201.62C352.948 196.266 353.689 190.809 354.693 185.838C355.976 179.418 357.749 173.106 359.995 166.955C359.995 166.955 380.305 160.456 384.095 161.581C402.362 166.997 406.947 249.177 404.427 260.518Z" fill="url(#paint10_linear)"/>
<path d="M348.861 248.773C349.797 234.371 352.713 212.705 352.863 201.619C352.927 196.266 353.668 190.808 354.672 185.837L366.893 183.713C366.893 183.735 378.709 232.393 348.861 248.773Z" fill="url(#paint11_linear)"/>
<path d="M379.558 149.728C377.002 154.04 367.485 157.737 363.527 159.096C363.569 158.884 363.611 158.649 363.654 158.437C364.299 155.223 364.867 152.491 364.867 152.491L376.492 147.414C379.074 147.375 380.624 147.944 379.558 149.728Z" fill="#FCA56B"/>
<path d="M360.506 151.768C360.506 151.768 379.195 157.63 382.669 145.969C386.143 134.307 390.908 127.193 379.113 122.966C367.318 118.739 363.678 122.498 361.571 126.109C359.464 129.721 355.713 149.947 360.506 151.768Z" fill="#FFB27D"/>
<path d="M376.878 137.26C376.763 137.254 376.651 137.223 376.55 137.17C376.448 137.116 376.359 137.042 376.288 136.952C376.217 136.861 376.167 136.757 376.14 136.645C376.113 136.534 376.11 136.418 376.132 136.305C376.454 134.84 377.005 131.908 376.666 129.657C376.666 129.657 377.964 127.914 371.3 128.744C364.637 129.573 354.651 130.74 350.776 126.28C346.987 121.925 347.093 107.333 358.761 114.533C358.864 114.598 358.981 114.638 359.102 114.652C359.223 114.665 359.346 114.651 359.46 114.61C359.575 114.569 359.679 114.503 359.764 114.416C359.85 114.329 359.914 114.224 359.953 114.109C360.612 111.963 362.678 107.227 368.149 107.566C373.281 107.888 374.984 110.901 375.536 112.537C375.573 112.652 375.635 112.756 375.719 112.842C375.802 112.929 375.904 112.995 376.017 113.036C376.131 113.077 376.251 113.092 376.371 113.079C376.491 113.066 376.606 113.026 376.707 112.962C378.773 111.708 383.946 109.35 388.503 113.854C392.25 117.571 391.867 120.604 391.121 122.307C391.066 122.432 391.045 122.569 391.059 122.705C391.073 122.841 391.122 122.97 391.202 123.081C391.281 123.192 391.388 123.281 391.512 123.339C391.635 123.397 391.772 123.422 391.909 123.411C393.52 123.305 395.89 123.837 396.976 127.32C398.487 132.12 393.059 133.692 391.483 134.054C391.356 134.083 391.237 134.142 391.137 134.226C391.037 134.309 390.959 134.416 390.908 134.536C390.164 136.447 386.629 144.661 380.626 147.747C380.504 147.808 380.369 147.838 380.232 147.834C380.096 147.829 379.963 147.79 379.846 147.72C379.728 147.65 379.631 147.551 379.563 147.433C379.494 147.315 379.457 147.182 379.454 147.046L379.198 138.147C379.189 137.951 379.109 137.765 378.972 137.624C378.834 137.483 378.65 137.397 378.454 137.382L376.878 137.26Z" fill="#41434B"/>
<path d="M295.382 206.261L289.611 199.98C288.146 198.246 286.414 196.756 284.479 195.565C279.836 192.726 273.446 191.332 272.491 192.954C271.405 194.794 277.474 200.245 279.54 202.044L288.1 208.246L295.382 206.261Z" fill="url(#paint12_linear)"/>
<path d="M292.187 201.772C289.313 203.78 287.771 206.505 286.97 208.246C289.085 213.196 293.88 222.389 303.803 229.16C320.076 240.266 343.935 240.639 360.554 227.973C380.408 212.842 383.725 183.827 375.386 171.402C374.42 169.972 371.27 165.269 366.364 164.729C363.27 164.388 359.059 165.661 352.403 173.432C338.538 189.627 343.436 199.738 335.245 204.475C322.966 211.579 304.713 193.029 292.187 201.772Z" fill="url(#paint13_linear)"/>
<path d="M140.116 84.5988C141.749 82.9466 143.379 81.2945 145.008 79.6423L157.02 91.81L184.263 64.6011L189.33 69.8966L157.383 101.761L140.116 84.5988Z" fill="#B4B7C1"/>
<path d="M39.8063 138.968L26.4419 153.209" stroke="#FE867F" stroke-width="4" stroke-miterlimit="10" stroke-linecap="round"/>
<path d="M40.2624 152.754L25.9861 139.423" stroke="#FE867F" stroke-width="4" stroke-miterlimit="10" stroke-linecap="round"/>
</g>
<defs>
<linearGradient id="paint0_linear" x1="156.398" y1="294.08" x2="-83.9122" y2="148.128" gradientUnits="userSpaceOnUse">
<stop stop-color="#757D89"/>
<stop offset="1" stop-color="#B4B7C1"/>
</linearGradient>
<linearGradient id="paint1_linear" x1="38.066" y1="116.491" x2="20.958" y2="216.181" gradientUnits="userSpaceOnUse">
<stop stop-color="#B4B7C1"/>
<stop offset="1" stop-color="#B4B7C1"/>
</linearGradient>
<linearGradient id="paint2_linear" x1="268.153" y1="61.7209" x2="426.999" y2="61.7209" gradientUnits="userSpaceOnUse">
<stop stop-color="#F7F8FC"/>
<stop offset="1" stop-color="#9571F6"/>
</linearGradient>
<linearGradient id="paint3_linear" x1="52.1448" y1="333.693" x2="235.626" y2="333.693" gradientUnits="userSpaceOnUse">
<stop stop-color="#444B8C"/>
<stop offset="1" stop-color="#26264F"/>
</linearGradient>
<linearGradient id="paint4_linear" x1="213666" y1="82888.1" x2="687871" y2="82888.1" gradientUnits="userSpaceOnUse">
<stop stop-color="#444B8C"/>
<stop offset="1" stop-color="#26264F"/>
</linearGradient>
<linearGradient id="paint5_linear" x1="132356" y1="112949" x2="162513" y2="112949" gradientUnits="userSpaceOnUse">
<stop stop-color="#444B8C"/>
<stop offset="1" stop-color="#26264F"/>
</linearGradient>
<linearGradient id="paint6_linear" x1="115208" y1="62296.3" x2="137269" y2="62296.3" gradientUnits="userSpaceOnUse">
<stop stop-color="#444B8C"/>
<stop offset="1" stop-color="#26264F"/>
</linearGradient>
<linearGradient id="paint7_linear" x1="69271" y1="-115265" x2="72903" y2="-115265" gradientUnits="userSpaceOnUse">
<stop stop-color="#FF928E"/>
<stop offset="1" stop-color="#FE7062"/>
</linearGradient>
<linearGradient id="paint8_linear" x1="359.187" y1="332.566" x2="411.326" y2="332.566" gradientUnits="userSpaceOnUse">
<stop stop-color="#40447E"/>
<stop offset="1" stop-color="#3C3B6B"/>
</linearGradient>
<linearGradient id="paint9_linear" x1="351.355" y1="333.193" x2="398.231" y2="333.193" gradientUnits="userSpaceOnUse">
<stop stop-color="#444B8C"/>
<stop offset="1" stop-color="#3E4177"/>
</linearGradient>
<linearGradient id="paint10_linear" x1="147873" y1="-207315" x2="167658" y2="-207315" gradientUnits="userSpaceOnUse">
<stop stop-color="#FF928E"/>
<stop offset="1" stop-color="#FE7062"/>
</linearGradient>
<linearGradient id="paint11_linear" x1="348.861" y1="216.243" x2="369.2" y2="216.243" gradientUnits="userSpaceOnUse">
<stop stop-color="#E1473D"/>
<stop offset="1" stop-color="#E9605A"/>
</linearGradient>
<linearGradient id="paint12_linear" x1="272.596" y1="186.225" x2="302.835" y2="224.365" gradientUnits="userSpaceOnUse">
<stop stop-color="#FFC444"/>
<stop offset="1" stop-color="#F36F56"/>
</linearGradient>
<linearGradient id="paint13_linear" x1="191948" y1="140550" x2="627449" y2="-75925.9" gradientUnits="userSpaceOnUse">
<stop stop-color="#FF928E"/>
<stop offset="1" stop-color="#FE7062"/>
</linearGradient>
<clipPath id="clip0">
<rect width="453" height="450" fill="white"/>
</clipPath>
</defs>
</svg>
