<svg width="97" height="33" viewBox="0 0 97 33" fill="none" xmlns="http://www.w3.org/2000/svg">
<path fill-rule="evenodd" clip-rule="evenodd" d="M95.865 27.4602C95.865 29.4536 94.2189 31.0754 92.1954 31.0754H4.80527C2.78175 31.0754 1.13501 29.4536 1.13501 27.4602V4.92535C1.13501 2.93193 2.78175 1.31088 4.80527 1.31088H92.1954C94.2189 1.31088 95.865 2.93193 95.865 4.92535V27.4602ZM92.1954 0.193115H4.80527C2.15579 0.193115 0 2.31614 0 4.92535V27.4602C0 30.0701 2.15579 32.1931 4.80527 32.1931H92.1954C94.8449 32.1931 97 30.0701 97 27.4602V4.92535C97 2.31614 94.8449 0.193115 92.1954 0.193115Z" fill="#5A5D67"/>
<path fill-rule="evenodd" clip-rule="evenodd" d="M34.6245 16.8585V18.0083H37.8562C37.7904 18.8369 37.5415 19.4836 37.1113 19.9476C36.4474 20.6602 35.6189 21.0172 34.6245 21.0172C33.6874 21.0172 32.8781 20.6629 32.1938 19.9538C31.5102 19.2454 31.1687 18.3248 31.1687 17.1928C31.1687 16.0608 31.5102 15.1409 32.1938 14.4324C32.8781 13.7233 33.6874 13.3691 34.6245 13.3691C35.6604 13.3691 36.473 13.748 37.0609 14.5059L37.844 13.6636C37.4962 13.218 37.0315 12.8611 36.4519 12.594C35.8717 12.3263 35.2628 12.1931 34.6245 12.1931C33.3396 12.1931 32.2474 12.6716 31.3487 13.6299C30.4494 14.5883 30 15.7759 30 17.1928C30 18.6097 30.4494 19.798 31.3487 20.7556C32.2474 21.7146 33.3396 22.1931 34.6245 22.1931C35.9674 22.1931 37.057 21.7208 37.8938 20.7762C38.6311 19.9833 39 18.9179 39 17.5806C39 17.3486 38.9796 17.1083 38.9381 16.8585H34.6245Z" fill="#5A5D67"/>
<path fill-rule="evenodd" clip-rule="evenodd" d="M44.0625 20.4159C43.6225 20.8497 43.1019 21.0666 42.5007 21.0666C41.8981 21.0666 41.3768 20.8497 40.9375 20.4159C40.4976 19.9821 40.2779 19.4085 40.2779 18.6931C40.2779 17.9777 40.4976 17.4034 40.9375 16.9696C41.3768 16.5358 41.8981 16.3189 42.5007 16.3189C43.1019 16.3189 43.6225 16.5358 44.0625 16.9696C44.5024 17.4034 44.7228 17.9777 44.7228 18.6931C44.7228 19.4085 44.5024 19.9821 44.0625 20.4159ZM42.5007 15.1931C41.4817 15.1931 40.6437 15.5257 39.9862 16.1922C39.3288 16.8581 39 17.6912 39 18.6931C39 19.6943 39.3288 20.5282 39.9862 21.194C40.6437 21.8598 41.4817 22.1931 42.5007 22.1931C43.5183 22.1931 44.3563 21.8598 45.0145 21.194C45.6712 20.5282 46 19.6943 46 18.6931C46 17.6912 45.6712 16.8581 45.0145 16.1922C44.3563 15.5257 43.5183 15.1931 42.5007 15.1931Z" fill="#5A5D67"/>
<path fill-rule="evenodd" clip-rule="evenodd" d="M51.0626 20.4159C50.6227 20.8497 50.1015 21.0666 49.5004 21.0666C48.8985 21.0666 48.3773 20.8497 47.9381 20.4159C47.4981 19.9821 47.2778 19.4085 47.2778 18.6931C47.2778 17.9777 47.4981 17.4034 47.9381 16.9696C48.3773 16.5358 48.8985 16.3189 49.5004 16.3189C50.1015 16.3189 50.6227 16.5358 51.0626 16.9696C51.5019 17.4034 51.7222 17.9777 51.7222 18.6931C51.7222 19.4085 51.5019 19.9821 51.0626 20.4159ZM49.5004 15.1931C48.4814 15.1931 47.6443 15.5257 46.9869 16.1922C46.3294 16.8581 46 17.6912 46 18.6931C46 19.6943 46.3294 20.5282 46.9869 21.194C47.6443 21.8598 48.4814 22.1931 49.5004 22.1931C50.5186 22.1931 51.3564 21.8598 52.0139 21.194C52.6713 20.5282 53 19.6943 53 18.6931C53 17.6912 52.6713 16.8581 52.0139 16.1922C51.3564 15.5257 50.5186 15.1931 49.5004 15.1931Z" fill="#5A5D67"/>
<path fill-rule="evenodd" clip-rule="evenodd" d="M58.3715 20.9489C58.0015 21.339 57.5519 21.5344 57.0241 21.5344C56.5038 21.5344 56.0568 21.3371 55.683 20.9426C55.3086 20.5482 55.122 20.0266 55.122 19.376C55.122 18.7254 55.3086 18.2038 55.683 17.8086C56.0568 17.4142 56.5038 17.2175 57.0241 17.2175C57.5519 17.2175 58.0015 17.4123 58.3715 17.803C58.7415 18.1931 58.9262 18.7172 58.9262 19.376C58.9262 20.0341 58.7415 20.5588 58.3715 20.9489ZM58.9262 17.2175H58.878C58.682 16.9245 58.4059 16.6809 58.0484 16.4855C57.6903 16.2908 57.2883 16.1931 56.8413 16.1931C56.0687 16.1931 55.4025 16.4981 54.8415 17.1073C54.2805 17.7172 54 18.4736 54 19.376C54 20.2783 54.2805 21.0341 54.8415 21.644C55.4025 22.2539 56.0687 22.5588 56.8413 22.5588C57.2883 22.5588 57.6903 22.4617 58.0484 22.2664C58.4059 22.071 58.682 21.8268 58.878 21.5344H58.9262V22.108C58.9262 22.7416 58.7497 23.2438 58.3959 23.6133C58.0422 23.9833 57.5563 24.1687 56.939 24.1687C56.5483 24.1687 56.2008 24.0591 55.8965 23.8393C55.5916 23.6202 55.3825 23.3472 55.2685 23.0228L54.2436 23.4492C54.4389 23.9038 54.7595 24.309 55.2071 24.6627C55.6542 25.0165 56.2314 25.1931 56.939 25.1931C57.7923 25.1931 58.5155 24.9264 59.1097 24.3941C59.7026 23.8612 60 23.0835 60 22.0585V16.3879H58.9262V17.2175Z" fill="#5A5D67"/>
<path fill-rule="evenodd" clip-rule="evenodd" d="M61 22.1931H62V13.1931H61V22.1931Z" fill="#5A5D67"/>
<path fill-rule="evenodd" clip-rule="evenodd" d="M64.2253 17.9019C64.3421 17.4193 64.5565 17.035 64.8691 16.7486C65.1816 16.4621 65.5501 16.3196 65.9756 16.3196C66.5584 16.3196 66.9981 16.489 67.294 16.8292C67.5899 17.1693 67.7503 17.526 67.7754 17.9019H64.2253ZM66.0006 15.1931C65.1252 15.1931 64.4063 15.5374 63.844 16.2253C63.2811 16.9139 63 17.736 63 18.6931C63 19.7032 63.2895 20.5399 63.8691 21.2009C64.448 21.8626 65.2009 22.1931 66.1252 22.1931C66.792 22.1931 67.3543 22.021 67.8126 21.6767C68.2709 21.3331 68.6001 20.9055 68.8004 20.3966L67.7754 19.9401C67.4833 20.6907 66.9249 21.0666 66.1001 21.0666C65.5918 21.0666 65.1476 20.8745 64.7689 20.4896C64.3896 20.1061 64.1836 19.5827 64.1502 18.921H68.9878L69 18.6931C69 17.6293 68.7272 16.7803 68.181 16.1454C67.6354 15.5105 66.9089 15.1931 66.0006 15.1931Z" fill="#5A5D67"/>
<path fill-rule="evenodd" clip-rule="evenodd" d="M77.3458 16.9512C77.047 17.2778 76.6487 17.4417 76.1537 17.4417H74.1796V14.2993H76.1537C76.6487 14.2993 77.047 14.4626 77.3458 14.7898C77.6453 15.1164 77.7954 15.4765 77.7954 15.8702C77.7954 16.2645 77.6453 16.6247 77.3458 16.9512ZM76.128 13.1931H73V22.1931H74.1796V18.5473H76.128C76.9061 18.5473 77.5788 18.2943 78.1476 17.787C78.7156 17.2804 79 16.6414 79 15.8702C79 15.0996 78.7156 14.4613 78.1476 13.9534C77.5788 13.4468 76.9061 13.1931 76.128 13.1931Z" fill="#5A5D67"/>
<path fill-rule="evenodd" clip-rule="evenodd" d="M80 22.1931H81V13.1931H80V22.1931Z" fill="#5A5D67"/>
<path fill-rule="evenodd" clip-rule="evenodd" d="M85.1493 20.4966C84.7225 20.876 84.2477 21.0667 83.7241 21.0667C83.358 21.0667 83.0316 20.9724 82.7482 20.7851C82.4627 20.5972 82.3214 20.3424 82.3214 20.0209C82.3214 19.6718 82.4776 19.3682 82.7892 19.1086C83.1008 18.8498 83.5644 18.7196 84.1791 18.7196C84.895 18.7196 85.4313 18.8628 85.7888 19.1486C85.7888 19.6677 85.5761 20.1166 85.1493 20.4966ZM84.0004 15.1931C83.2478 15.1931 82.6415 15.3611 82.1836 15.6957C81.7243 16.031 81.4169 16.3959 81.2615 16.7891L82.4175 17.271C82.5277 16.9763 82.7312 16.7443 83.0302 16.5742C83.3276 16.4049 83.6612 16.3195 84.0279 16.3195C84.5233 16.3195 84.9402 16.4648 85.2801 16.7553C85.6192 17.0459 85.7888 17.4321 85.7888 17.9148V18.1027C85.3119 17.8349 84.702 17.7006 83.958 17.7006C83.1241 17.7006 82.4224 17.9044 81.8536 18.3113C81.2841 18.7182 81 19.2787 81 19.994C81 20.655 81.241 21.1872 81.7222 21.5893C82.2041 21.9914 82.8026 22.1931 83.5177 22.1931C84.4908 22.1931 85.2292 21.8172 85.7344 21.0667H85.7888V21.9783H87V18.0098C87 17.1154 86.7159 16.4228 86.1471 15.9312C85.5776 15.4396 84.8624 15.1931 84.0004 15.1931Z" fill="#5A5D67"/>
<path fill-rule="evenodd" clip-rule="evenodd" d="M90.0368 20.6807H90.0123L88.2241 16.1931H87L89.4734 22.0441L88.0777 25.1931H89.2408L93 16.1931H91.7759L90.0368 20.6807Z" fill="#5A5D67"/>
<path fill-rule="evenodd" clip-rule="evenodd" d="M17.8973 17.2704C16.5494 15.9663 15.2077 14.6562 13.8646 13.3467C11.7921 11.3242 9.71816 9.30231 7.65044 7.27516C7.52345 7.15057 7.44822 7.17907 7.3447 7.28576C7.07691 7.55945 7.00376 7.89013 7.00445 8.25262C7.00652 11.2036 7.00583 14.1552 7.00583 17.1068H7.00031C7.00031 18.3433 6.99962 19.5792 7.00031 20.8152C7.00169 22.5633 7.00514 24.3115 7.00445 26.0596C7.00445 26.4745 7.13903 26.8231 7.49101 27.0828C7.68288 27.2246 7.82436 27.2452 8.02451 27.0523C11.3104 23.894 14.6045 20.7436 17.9007 17.5958C18.0394 17.464 18.0277 17.397 17.8973 17.2704Z" fill="#5A5D67"/>
<path fill-rule="evenodd" clip-rule="evenodd" d="M17.8764 16.3226C18.0071 16.454 18.0668 16.3985 18.1647 16.3021C19.0719 15.4081 19.9798 14.5148 20.8945 13.628C21.0393 13.4874 21.0433 13.4293 20.8549 13.3263C16.7619 11.0741 12.6723 8.81602 8.5827 6.55923C8.4164 6.46745 8.24408 6.39812 8 6.4001C8.05565 6.46745 8.07778 6.4998 8.1046 6.52687C11.3628 9.79123 14.6216 13.0543 17.8764 16.3226Z" fill="#5A5D67"/>
<path fill-rule="evenodd" clip-rule="evenodd" d="M18.5596 18.3306C18.3907 18.1616 18.3028 18.1371 18.1147 18.3207C15.0822 21.2835 12.0401 24.237 9 27.1931C9.03364 27.1726 9.09337 27.1165 9.15791 27.0828C13.0575 25.0236 16.9565 22.9623 20.8595 20.9077C21.0462 20.8086 21.0346 20.7545 20.8966 20.621C20.1118 19.8635 19.3299 19.102 18.5596 18.3306Z" fill="#5A5D67"/>
<path fill-rule="evenodd" clip-rule="evenodd" d="M25.3901 16.1952C24.3076 15.5455 23.2232 14.9 22.1439 14.2449C22.0097 14.1639 21.9328 14.1768 21.8259 14.2919C20.9177 15.2697 20.0044 16.2428 19.0873 17.2105C18.9696 17.3344 18.9722 17.4018 19.0873 17.5258C19.8747 18.3722 20.6589 19.2241 21.4348 20.0828C21.5569 20.2176 21.644 20.2217 21.7909 20.1339C22.8817 19.4822 23.9775 18.8414 25.0708 18.1945C25.2546 18.0855 25.441 17.9759 25.6095 17.8424C25.8372 17.6626 25.9879 17.4229 26 17.0811C25.986 16.6562 25.7252 16.396 25.3901 16.1952Z" fill="#5A5D67"/>
<path fill-rule="evenodd" clip-rule="evenodd" d="M30.7306 7.93697H31.6031C32.0494 7.94858 32.2728 8.21429 32.2728 8.7341C32.2728 8.97454 32.2079 9.16169 32.0793 9.29694C31.95 9.43219 31.7714 9.49981 31.5416 9.49981H30.7306V7.93697ZM30.7306 5.89393H31.4406C31.691 5.89393 31.8754 5.94858 31.9937 6.05855C32.112 6.16852 32.1717 6.3468 32.1717 6.59407C32.1717 6.8188 32.1074 6.9923 31.9793 7.11456C31.8512 7.23683 31.6737 7.29831 31.4469 7.29831H30.7306V5.89393ZM32.6203 9.81538C32.8736 9.56333 33 9.20336 33 8.7341C33 8.44995 32.9385 8.20678 32.8139 8.00391C32.6898 7.80104 32.5141 7.66374 32.2872 7.58997C32.4877 7.48956 32.6393 7.34749 32.7433 7.16443C32.8472 6.98137 32.8989 6.77508 32.8989 6.54626C32.8989 6.09749 32.7754 5.75937 32.5267 5.5326C32.278 5.3065 31.9161 5.19312 31.4406 5.19312H30V10.1931H31.533C32.0052 10.1931 32.3676 10.0674 32.6203 9.81538Z" fill="#5A5D67"/>
<path fill-rule="evenodd" clip-rule="evenodd" d="M35.9973 6.25445L36.6329 8.32862H35.3611L35.9973 6.25445ZM35.1478 9.02866H36.8468L37.205 10.1931H38L36.3406 5.19312H35.657L34 10.1931H34.792L35.1478 9.02866Z" fill="#5A5D67"/>
<path fill-rule="evenodd" clip-rule="evenodd" d="M39 10.1931H40V5.19312H39V10.1931Z" fill="#5A5D67"/>
<path fill-rule="evenodd" clip-rule="evenodd" d="M41.9676 10.1931L43 8.3591L44.0298 10.1931H45L43.5201 7.67262L44.9673 5.19312H44.0069L43 6.99913L41.9938 5.19312H41.0334L42.4838 7.67262L41 10.1931H41.9676Z" fill="#5A5D67"/>
<path fill-rule="evenodd" clip-rule="evenodd" d="M47.9967 6.25445L48.6323 8.32862H47.3611L47.9967 6.25445ZM47.1472 9.02866H48.8462L49.2044 10.1931H50L48.34 5.19312H47.6564L46 10.1931H46.792L47.1472 9.02866Z" fill="#5A5D67"/>
<path fill-rule="evenodd" clip-rule="evenodd" d="M52.8688 7.56948H51.921V5.89393H52.8942C53.2152 5.89803 53.4565 5.97385 53.6174 6.12003C53.779 6.26689 53.8594 6.47385 53.8594 6.7423C53.8594 6.99844 53.7725 7.19995 53.5978 7.34817C53.4232 7.49571 53.1797 7.56948 52.8688 7.56948ZM54.5246 7.54557C54.6957 7.32016 54.7819 7.04011 54.7819 6.70541C54.7819 6.21497 54.6152 5.84066 54.2826 5.58178C53.9493 5.32221 53.4775 5.19312 52.8652 5.19312H51V10.1931H51.921V8.2703H52.9486L54.013 10.1931H55V10.1487L53.8087 8.06675C54.1152 7.94516 54.3536 7.77167 54.5246 7.54557Z" fill="#5A5D67"/>
<path fill-rule="evenodd" clip-rule="evenodd" d="M59.8756 6.64598L62.1244 10.1931H63V5.19312H62.1306V8.75459L59.8756 5.19312H59V10.1931H59.8756V6.64598Z" fill="#5A5D67"/>
<path fill-rule="evenodd" clip-rule="evenodd" d="M65.9967 6.25445L66.6323 8.32862H65.3611L65.9967 6.25445ZM66.8462 9.02866L67.2044 10.1931H68L66.34 5.19312H65.6564L64 10.1931H64.792L65.1472 9.02866H66.8462Z" fill="#5A5D67"/>
</svg>
