<svg width="16" height="16" viewBox="0 0 16 16" fill="none" xmlns="http://www.w3.org/2000/svg">
<path d="M12.9773 16C9.641 16 6.30675 16 2.97046 16C2.9479 15.9951 2.92535 15.9886 2.90279 15.9853C1.75241 15.8841 0.800944 15.2114 0.550773 14.3118C0.507711 14.1535 0.495408 13.9902 0.46875 13.8286C0.46875 12.1094 0.46875 10.3886 0.46875 8.66939C0.474902 8.6351 0.481053 8.60082 0.485155 8.5649C0.546672 7.64571 1.33204 6.85714 2.44141 6.60408C2.52548 6.58449 2.54599 6.56 2.54394 6.49469C2.53368 5.79592 2.52548 5.09714 2.52138 4.39837C2.51728 3.62775 2.73874 2.89796 3.22268 2.2302C4.08803 1.04 5.36759 0.311837 7.06957 0.0620408C7.26027 0.0342857 7.45303 0.0195918 7.64578 0C7.8652 0 8.08256 0 8.30197 0C8.43116 0.0114286 8.55829 0.0228571 8.68748 0.0359184C9.80505 0.16 10.7893 0.517551 11.6219 1.1249C12.6451 1.87102 13.2541 2.7951 13.3833 3.89714C13.4428 4.40816 13.4202 4.92408 13.4202 5.43837C13.4202 5.64408 13.289 5.80245 13.0593 5.90041C12.6 6.09469 12.0689 5.83347 12.0607 5.41061C12.0545 5.07102 12.0586 4.7298 12.0586 4.3902C12.0586 3.53143 11.7059 2.77714 10.978 2.14531C9.70047 1.03673 7.7114 0.754286 6.05453 1.47592C4.6868 2.07184 3.95679 3.01878 3.89937 4.26286C3.86656 4.99429 3.90552 5.72571 3.91168 6.45878C3.91168 6.47347 3.91783 6.4898 3.92193 6.50939C3.97524 6.50939 4.02241 6.50939 4.06957 6.50939C6.93423 6.50939 9.79684 6.50775 12.6615 6.51102C12.8789 6.51102 13.1003 6.52245 13.3115 6.56C14.5932 6.78694 15.4585 7.63918 15.4626 8.68898C15.4708 10.4 15.4708 12.1127 15.4626 13.8237C15.4585 14.7902 14.7141 15.5984 13.574 15.8955C13.3813 15.9445 13.1762 15.9657 12.9773 16ZM7.97388 14.9159C9.52207 14.9159 11.0703 14.9159 12.6184 14.9159C12.6943 14.9159 12.7681 14.9143 12.844 14.9094C13.5433 14.8718 14.1031 14.4049 14.1031 13.8449C14.1072 12.1176 14.1072 10.3902 14.1031 8.66122C14.101 8.07347 13.4899 7.59347 12.7517 7.59347C9.56718 7.59184 6.38263 7.59184 3.19602 7.59347C2.45781 7.59347 1.84674 8.07347 1.84469 8.66122C1.84059 10.3886 1.84264 12.1159 1.84469 13.8449C1.84469 14.0833 1.94107 14.2988 2.12562 14.4882C2.4209 14.7886 2.81461 14.9176 3.2883 14.9159C4.85084 14.9143 6.41338 14.9159 7.97388 14.9159Z" fill="#F94343"/>
<path d="M7.29513 10.8376C7.29513 10.4751 7.29308 10.1143 7.29513 9.75184C7.29718 9.49224 7.53095 9.2751 7.84879 9.22775C8.15638 9.18204 8.47217 9.31102 8.59315 9.54449C8.62801 9.61306 8.65057 9.69143 8.65057 9.7649C8.65467 10.4865 8.65467 11.2065 8.65262 11.9282C8.65057 12.2367 8.34913 12.4735 7.97183 12.4735C7.59452 12.4718 7.29924 12.2335 7.29718 11.9233C7.29308 11.5608 7.29513 11.2 7.29513 10.8376Z" fill="#F94343"/>
</svg>
