<svg width="19" height="15" viewBox="0 0 19 15" fill="none" xmlns="http://www.w3.org/2000/svg">
<g clip-path="url(#clip0)">
<path d="M0.0037117 5.43083C0.00556755 4.13119 0.00556564 2.78731 0 1.46371C-0.00185585 0.965973 0.209669 0.63415 0.387793 0.44243C0.616016 0.19725 0.92959 0.0423996 1.24502 0.0129042C1.24687 0.0129042 1.24873 0.0110608 1.25059 0.0110608C1.25801 0.0092173 1.26357 0.00553038 1.271 0.00368692L1.28955 0H17.703L17.7142 0.00184346C17.909 0.0368692 18.1131 0.0811122 18.3042 0.19725C18.6901 0.435057 18.9184 0.779783 18.9814 1.22037C18.9833 1.23327 18.987 1.24987 18.9907 1.26461C18.9926 1.27383 18.9944 1.28305 18.9963 1.29227L19 1.30333V12.7475L18.9944 12.7641C18.9796 12.8139 18.9666 12.8655 18.9536 12.9208C18.9239 13.0443 18.8924 13.1734 18.8293 13.2913C18.5714 13.7817 18.1465 14.0416 17.5991 14.0416C14.5784 14.0435 11.5243 14.0453 8.50176 14.0453C7.00254 14.0453 5.51074 14.0453 4.0375 14.0453H1.39902C0.629004 14.0453 0.00185585 13.4112 0.00185585 12.6314C0.00185585 11.2986 0.00185585 9.96574 0.00185585 8.63477V7.03649C0.00370979 6.4982 0.0037117 5.96544 0.0037117 5.43083ZM1.20977 2.66933V12.2092L7.32168 7.68538L1.20977 2.66933ZM17.5694 1.19272C17.562 1.19272 17.5527 1.19272 17.5453 1.19272H15.4189C10.8434 1.19272 6.11006 1.19272 1.45654 1.19088C1.39717 1.19088 1.35449 1.19825 1.31738 1.21484L1.45283 1.32729C1.62724 1.46924 1.79795 1.61118 1.97051 1.75313C3.66455 3.14494 5.36045 4.53491 7.05449 5.92488C7.19365 6.03917 7.33096 6.15163 7.47012 6.26592C7.82822 6.55903 8.19746 6.8632 8.56299 7.16184C9.12705 7.62086 9.88594 7.61718 10.4519 7.15262C11.6152 6.19403 12.8009 5.22252 13.9457 4.2842C14.4467 3.87311 14.9495 3.46202 15.4505 3.05093C16.1945 2.43705 16.9404 1.82503 17.6863 1.213C17.6659 1.20194 17.6418 1.19641 17.6158 1.19272C17.601 1.19272 17.5861 1.19272 17.5694 1.19272ZM16.4673 12.7125L15.5396 12.0267C13.9494 10.8506 12.3055 9.63392 10.6894 8.43567C10.6745 8.42461 10.6689 8.42277 10.6689 8.42277C10.6671 8.42277 10.6597 8.42461 10.6411 8.43199C9.8748 8.7804 9.10107 8.77856 8.34033 8.42461C8.33477 8.42277 8.33291 8.42092 8.3292 8.42092C8.32734 8.42277 8.32549 8.42277 8.32363 8.42461C6.5999 9.70213 4.84834 10.9999 3.1543 12.2535L2.34902 12.8489H16.651C16.5879 12.801 16.5285 12.7567 16.4673 12.7125ZM11.6783 7.68538L17.7939 12.2129V2.66564L11.6783 7.68538Z" fill="#E42722"/>
</g>
<defs>
<clipPath id="clip0">
<rect width="19" height="14.0435" fill="white" transform="matrix(-1 0 0 1 19 0)"/>
</clipPath>
</defs>
</svg>
