<svg width="31" height="21" viewBox="0 0 31 21" fill="none" xmlns="http://www.w3.org/2000/svg">
<path fill-rule="evenodd" clip-rule="evenodd" d="M24.7477 7.55137C23.8806 3.27226 20.1643 0 15.5809 0C11.9885 0 8.89163 2.0137 7.28124 5.03425C3.56497 5.41182 0.71582 8.68407 0.71582 12.5856C0.71582 16.7389 4.06047 20.137 8.14837 20.137H24.2522C27.7208 20.137 30.446 17.3682 30.446 13.8442C30.446 10.5719 27.9685 7.80308 24.7477 7.55137ZM24.2522 17.6199H8.14837C5.4231 17.6199 3.19334 15.3545 3.19334 12.5856C3.19334 9.94264 5.05148 7.80308 7.65287 7.55137L9.0155 7.42551L9.51101 6.29281C10.6259 4.0274 12.9795 2.51712 15.5809 2.51712C18.8017 2.51712 21.6508 4.90839 22.2702 8.05479L22.6419 9.94264L24.5 10.0685C26.482 10.1943 27.9685 11.8305 27.9685 13.8442C27.9685 15.8579 26.2343 17.6199 24.2522 17.6199ZM10.6259 11.3271H13.8467V15.1027H17.4391V11.3271H20.536L15.5809 6.29281L10.6259 11.3271Z" fill="#FF4445"/>
</svg>
