<svg width="16" height="28" viewBox="0 0 16 28" fill="none" xmlns="http://www.w3.org/2000/svg">
<g clip-path="url(#clip0)">
<path d="M13.5 2H2C0.9 2 0 2.9 0 4V25.4C0 26.5 0.9 27.4 2 27.4H13.5C14.6 27.4 15.5 26.5 15.5 25.4V4C15.5 2.9 14.6 2 13.5 2ZM4.9 3.2H10.6C10.7 3.2 10.9 3.4 10.9 3.7C10.9 4 10.8 4.2 10.6 4.2H4.9C4.8 4.2 4.7 4 4.7 3.7C4.7 3.4 4.8 3.2 4.9 3.2ZM7.8 25.5C7.1 25.5 6.5 24.9 6.5 24.2C6.5 23.5 7.1 22.9 7.8 22.9C8.5 22.9 9.1 23.5 9.1 24.2C9.1 24.9 8.5 25.5 7.8 25.5ZM14 21.1H1.5V5.4H14V21.1Z" fill="#FF4445"/>
</g>
<defs>
<clipPath id="clip0">
<rect width="15.5" height="27.4" fill="white"/>
</clipPath>
</defs>
</svg>
