<svg width="17" height="14" viewBox="0 0 17 14" fill="none" xmlns="http://www.w3.org/2000/svg">
<path d="M15.5084 12.9301C10.7764 12.9301 6.07223 12.9301 1.31326 12.9301C1.41061 12.5208 1.47057 12.1205 1.60234 11.7387C2.2501 9.85957 3.61335 8.52654 5.66877 7.73312C5.83089 7.6704 5.96155 7.66296 6.13034 7.74832C6.91764 8.14696 7.77564 8.32414 8.68213 8.27726C10.6669 8.17477 12.3429 7.0367 12.9418 5.39522C13.655 3.43916 12.6227 1.33146 10.5136 0.42165C8.42451 -0.479755 5.85606 0.105447 4.53945 1.78249C3.32759 3.326 3.41273 5.28659 4.7534 6.73892C4.79893 6.78807 4.83964 6.84044 4.88036 6.88829C4.5165 7.07614 4.14969 7.242 3.81101 7.44375C1.91216 8.57504 0.731389 10.1295 0.289065 12.0992C0.191346 12.5344 0.169878 12.9844 0.139896 13.4293C0.118057 13.752 0.390855 13.9734 0.765443 13.9734C5.87383 13.9738 10.9822 13.9738 16.0906 13.9734C16.4796 13.9734 16.7254 13.7594 16.7202 13.4157C16.6932 11.6663 16.0454 10.115 14.751 8.77775C14.4931 8.51134 14.2062 8.26433 13.9141 8.02572C13.6265 7.79099 13.2579 7.81007 13.0313 8.04674C12.8144 8.27306 12.8607 8.58635 13.1409 8.80653C14.4061 9.80073 15.1719 11.0345 15.454 12.4988C15.4799 12.6362 15.4891 12.7759 15.5084 12.9301ZM11.982 4.13688C11.9775 5.8498 10.4144 7.22422 8.49409 7.24233C6.47347 7.2614 4.87481 5.87567 4.87369 4.13785C4.87258 2.44593 6.47088 1.03627 8.39008 1.03627C10.3826 1.03627 11.982 2.41683 11.982 4.13688Z" fill="#FF4445"/>
</svg>
