<svg width="472" height="466" viewBox="0 0 472 466" fill="none" xmlns="http://www.w3.org/2000/svg">
<path d="M310.497 24.8565C277.211 17.7794 242.586 14.3732 208.755 16.5393C178.76 18.4574 144.764 23.699 120.622 42.4335C109.114 51.3625 95.406 67.4182 91.636 81.5889C91.636 81.5889 71.8268 156.146 32.2249 172.119C-7.39359 188.109 -34.8917 460.759 265.488 434.137C265.488 434.137 441.919 427.159 452.534 226.173C455.097 177.626 453.659 124.25 422.92 83.6558C399.357 52.5531 366.353 38.7296 328.421 29.0399C322.501 27.5352 316.515 26.1297 310.497 24.8565Z" fill="#F7F8FC"/>
<path d="M471.401 422.761L5.07422 418.66V430.78C5.07422 434.071 7.10805 436.865 9.86944 437.378L141.738 461.255C143.309 461.536 144.896 461.618 146.467 461.486L466.341 434.253C469.202 434.005 471.401 431.21 471.401 427.82V422.761Z" fill="url(#paint0_linear)"/>
<path d="M302.179 403.101L9.90244 425.291C4.6773 425.688 0.427734 421.471 0.427734 415.866V191.433C0.427734 185.828 4.6773 181.297 9.90244 181.297H302.179C306.495 181.297 309.967 185.398 309.967 190.474V393.361C309.967 398.405 306.479 402.77 302.179 403.101Z" fill="url(#paint1_linear)"/>
<path d="M306.843 403.1L14.5665 425.291C9.34132 425.688 5.0918 421.471 5.0918 415.866V191.433C5.0918 185.827 9.34132 181.297 14.5665 181.297H306.843C311.159 181.297 314.632 185.397 314.632 190.474V393.361C314.632 398.404 311.143 402.77 306.843 403.1Z" fill="url(#paint2_linear)"/>
<path d="M297.733 388.797L25.513 408.061C21.2634 408.358 17.791 404.903 17.791 400.322V203.851C17.791 199.27 21.2469 195.55 25.513 195.533L297.733 194.326C301.288 194.31 304.165 197.666 304.165 201.833V380.794C304.165 384.961 301.288 388.549 297.733 388.797Z" fill="#B4B7C1"/>
<path d="M171.023 187.431C171.023 189.515 169.518 191.218 167.666 191.218C165.814 191.218 164.293 189.531 164.293 187.448C164.293 185.364 165.798 183.661 167.666 183.661C169.518 183.661 171.023 185.348 171.023 187.431Z" fill="white"/>
<path d="M318.483 402.092L5.07422 425.439L141.721 450.193C143.292 450.474 144.88 450.556 146.451 450.424L471.401 422.761L323.46 402.257C321.823 402.026 320.153 401.976 318.483 402.092Z" fill="url(#paint3_linear)"/>
<path opacity="0.3" d="M50.8105 426.035L311.737 406.308L392.478 417.403L133.817 438.502L50.8105 426.035Z" fill="url(#paint4_linear)"/>
<g opacity="0.75">
<path opacity="0.75" d="M73.3319 210.961L43.3535 211.077V201.371H73.3319V210.961Z" fill="white"/>
<path opacity="0.75" d="M230.401 210.415L92.3809 210.895V201.37H230.401V210.415Z" fill="white"/>
<path opacity="0.75" d="M121.301 226.901L92.3809 227.182V217.641L121.301 217.476V226.901Z" fill="white"/>
<path opacity="0.75" d="M273.094 225.462L139.688 226.735V217.36L273.094 216.566V225.462Z" fill="white"/>
<path opacity="0.75" d="M121.301 243.006L92.3809 243.453V233.928L121.301 233.581V243.006Z" fill="white"/>
<path opacity="0.75" d="M273.094 240.675L139.688 242.725V233.366L273.094 231.762V240.675Z" fill="white"/>
<path opacity="0.75" d="M73.3319 260.137L43.3535 260.781V251.075L73.3319 250.546V260.137Z" fill="white"/>
<path opacity="0.75" d="M230.401 256.78L92.3809 259.74V250.199L230.401 247.735V256.78Z" fill="white"/>
<path opacity="0.75" d="M121.301 275.217L92.3809 276.011V266.486L121.301 265.792V275.217Z" fill="white"/>
<path opacity="0.75" d="M273.094 271.066L139.688 274.721V265.345L273.094 262.17V271.066Z" fill="white"/>
<path opacity="0.75" d="M121.301 291.322L92.3809 292.281V282.757L121.301 281.897V291.322Z" fill="white"/>
<path opacity="0.75" d="M273.094 286.262L139.688 290.71V281.351L273.094 277.366V286.262Z" fill="white"/>
<path opacity="0.75" d="M121.301 307.427L92.3809 308.568V299.044L121.301 298.002V307.427Z" fill="white"/>
<path opacity="0.75" d="M273.094 301.475L139.688 306.716V297.341L273.094 292.579V301.475Z" fill="white"/>
<path opacity="0.75" d="M168.063 321.416L140.135 322.689V313.314L168.063 312.156V321.416Z" fill="white"/>
<path opacity="0.75" d="M293.448 315.745L185.82 320.622V311.412L293.448 306.915V315.745Z" fill="white"/>
<path opacity="0.75" d="M73.3319 342.102L43.3535 343.64V333.933L73.3319 332.495V342.102Z" fill="white"/>
<path opacity="0.75" d="M230.401 334.049L92.3809 341.126V331.602L230.401 325.004V334.049Z" fill="white"/>
<path opacity="0.75" d="M121.301 355.743L92.3809 357.397V347.873L121.301 346.318V355.743Z" fill="white"/>
<path opacity="0.75" d="M273.094 347.079L139.688 354.702V345.326L273.094 338.166V347.079Z" fill="white"/>
<path opacity="0.75" d="M121.301 371.849L92.3809 373.684V364.143L121.301 362.424V371.849Z" fill="white"/>
<path opacity="0.75" d="M273.094 362.275L139.688 370.691V361.332L273.094 353.379V362.275Z" fill="white"/>
<path opacity="0.75" d="M73.3319 391.278L43.3535 393.345V383.638L73.3319 381.671V391.278Z" fill="white"/>
<path opacity="0.75" d="M230.401 380.43L92.3809 389.955V380.43L230.401 371.369V380.43Z" fill="white"/>
</g>
<path d="M335.052 70.4111L79.9133 62.0278C71.3646 61.7467 64.3867 68.493 64.3867 77.1079V325.781C64.3867 334.396 71.3481 341.077 79.9133 340.713L335.052 329.816C342.427 329.502 348.396 322.805 348.396 314.852V85.2432C348.396 77.2898 342.427 70.6592 335.052 70.4111Z" fill="url(#paint5_linear)"/>
<path opacity="0.74" d="M79.9128 335.752C74.0924 336 69.3633 331.453 69.3633 325.6V77.2402C69.3633 71.3867 74.0924 66.7899 79.9128 66.9718L335.052 75.0079C340.078 75.1732 344.146 79.6874 344.146 85.0944V314.984C344.146 320.407 340.078 324.955 335.052 325.17L79.9128 335.752Z" fill="white"/>
<path d="M335.052 70.4111L79.9133 62.0278C71.3646 61.7467 64.3867 68.493 64.3867 77.1079V88.2857L348.396 95.5612V85.2432C348.396 77.2898 342.427 70.6592 335.052 70.4111Z" fill="url(#paint6_linear)"/>
<path d="M91.984 76.3971C91.984 79.1916 89.7352 81.3908 86.9573 81.3246C84.1794 81.242 81.9141 78.9105 81.9141 76.116C81.9141 73.305 84.1794 71.1059 86.9573 71.1885C89.7352 71.2712 91.984 73.6027 91.984 76.3971Z" fill="white"/>
<path d="M109.545 76.9097C109.545 79.6876 107.313 81.8868 104.568 81.8041C101.807 81.7214 99.5742 79.4065 99.5742 76.612C99.5742 73.8176 101.807 71.6349 104.568 71.7176C107.313 71.8003 109.545 74.1152 109.545 76.9097Z" fill="white"/>
<path d="M126.956 77.4056C126.956 80.1836 124.741 82.3662 122.012 82.2835C119.284 82.2009 117.068 79.9025 117.068 77.1246C117.068 74.3466 119.284 72.164 122.012 72.2467C124.741 72.3293 126.956 74.6443 126.956 77.4056Z" fill="white"/>
<path d="M217.239 119.405L82.4766 116.974V124.895L217.239 127.028V119.405Z" fill="white"/>
<path d="M318.566 121.224V128.632L332.82 128.863V121.472L318.566 121.224Z" fill="white"/>
<path d="M110.967 144.29L82.4766 143.976V135.808L110.967 136.172V144.29Z" fill="white"/>
<path d="M263.174 145.911L129.156 144.473V136.403L263.174 138.14V145.911Z" fill="white"/>
<path d="M156.935 158.445L129.156 158.263V150.194L156.935 150.442V158.445Z" fill="white"/>
<path d="M305.422 159.47L174.678 158.577V150.607L305.422 151.781V159.47Z" fill="white"/>
<path d="M156.935 172.119L129.156 172.037V163.968L156.935 164.116V172.119Z" fill="white"/>
<path d="M305.422 172.582L174.678 172.186V164.216L305.422 164.91V172.582Z" fill="white"/>
<path d="M110.967 185.827L82.4766 185.843V177.675L110.967 177.725V185.827Z" fill="white"/>
<path d="M263.174 185.728L129.156 185.81V177.758L263.174 177.956V185.728Z" fill="white"/>
<path d="M156.935 199.469L129.156 199.601V191.532L156.935 191.466V199.469Z" fill="white"/>
<path d="M305.422 198.807L174.678 199.403V191.433L305.422 191.135V198.807Z" fill="white"/>
<path d="M156.935 213.143L129.156 213.375V205.305L156.935 205.14V213.143Z" fill="white"/>
<path d="M305.422 211.92L174.678 213.011V205.041L305.422 204.247V211.92Z" fill="white"/>
<path d="M156.935 226.818L129.156 227.165V219.096L156.935 218.815V226.818Z" fill="white"/>
<path d="M305.422 225.032L174.678 226.62V218.65L305.422 217.36V225.032Z" fill="white"/>
<path d="M202.176 239.782L175.107 240.211V232.241L202.176 231.878V239.782Z" fill="white"/>
<path d="M325.712 237.83L219.473 239.517V231.646L325.712 230.191V237.83Z" fill="white"/>
<path d="M110.967 255.077L82.4766 255.639V247.47L110.967 246.974V255.077Z" fill="white"/>
<path d="M263.174 252.084L129.156 254.729V246.66L263.174 244.312V252.084Z" fill="white"/>
<path d="M156.935 267.858L129.156 268.503V260.434L156.935 259.839V267.858Z" fill="white"/>
<path d="M305.422 264.37L174.678 267.429V259.475L305.422 256.697V264.37Z" fill="white"/>
<path d="M156.935 281.533L129.156 282.277V274.225L156.935 273.53V281.533Z" fill="white"/>
<path d="M305.422 277.482L174.678 281.037V273.084L305.422 269.81V277.482Z" fill="white"/>
<path d="M110.967 296.63L82.4766 297.506V289.338L110.967 288.528V296.63Z" fill="white"/>
<path d="M263.174 291.901L129.156 296.068V287.998L263.174 284.146V291.901Z" fill="white"/>
<path d="M156.935 308.882L129.156 309.841V301.772L156.935 300.879V308.882Z" fill="white"/>
<path d="M305.422 303.707L174.678 308.254V300.301L305.422 296.035V303.707Z" fill="white"/>
<path d="M350.594 455.534C350.594 455.534 335.713 462.346 335.481 463.421C335.233 464.496 345.055 463.041 349.073 463.189C353.091 463.338 356.382 462.148 356.018 460.445C355.654 458.741 354.232 454.475 354.232 454.475L350.594 455.534Z" fill="#41434B"/>
<path d="M350.033 450.044L350.959 456.741C350.959 456.741 353.324 457.567 354.895 456.575L355.556 449.217L350.033 450.044Z" fill="url(#paint7_linear)"/>
<path d="M420.192 450.044L421.928 452.822C422.408 453.599 422.557 454.541 422.325 455.418C421.73 457.733 420.523 462.247 419.994 463.421C419.283 465.025 409.643 466 409.643 466C409.643 466 408.783 464.793 410.784 463.322C412.784 461.85 414.074 461.618 414.769 459.469C415.463 457.319 415.926 451.218 415.926 451.218L420.192 450.044Z" fill="#41434B"/>
<path d="M412.965 442.983C413.593 443.479 416.718 452.871 416.718 452.871C416.718 452.871 417.727 454.145 419.629 452.26C421.53 450.358 420.488 451.416 420.488 451.416L420.108 442.173L412.965 442.983Z" fill="url(#paint8_linear)"/>
<path d="M341.517 315.315C340.773 335.322 340.806 357.066 342.013 380.282C343.369 406.424 346.031 430.582 349.371 452.491C350.595 452.524 351.868 452.524 353.207 452.491C354.117 452.458 354.993 452.425 355.836 452.359C357.523 447.812 359.524 441.826 361.309 434.699C363.194 427.192 364.319 420.462 365.113 414.014C367.924 391.344 364.567 389.376 366.849 372.576C368.883 357.694 371.809 357.116 375.199 335.984C378.886 313.066 376.092 309.627 374.736 308.386C368.965 303.128 355.456 306.749 341.517 315.315Z" fill="url(#paint9_linear)"/>
<path opacity="0.3" d="M374.736 308.403C369.23 303.376 356.679 306.452 343.451 314.19C358.746 330.626 360.433 341.324 358.614 348.269C356.564 356.107 350.28 358.389 350.33 366.954C350.379 377.487 359.904 380.265 359.722 391.41C359.606 398.784 355.423 398.718 354.464 407.829C353.323 418.61 358.796 422.298 357.043 430.284C356.299 433.707 354.133 438.204 347.965 442.834C348.412 446.108 348.891 449.349 349.371 452.524C350.594 452.557 351.868 452.557 353.207 452.524C354.116 452.491 354.993 452.458 355.836 452.392C357.523 447.844 359.523 441.859 361.309 434.732C363.194 427.225 364.319 420.495 365.112 414.046C367.923 391.377 364.567 389.409 366.849 372.609C368.882 357.727 371.809 357.149 375.199 336.017C378.87 313.066 376.092 309.626 374.736 308.403Z" fill="url(#paint10_linear)"/>
<path d="M350.959 314.967C364.138 334.148 378.358 358.042 391.107 386.631C400.73 408.243 407.725 428.532 412.867 446.638C413.561 446.952 415.182 447.597 417.265 447.316C420.093 446.935 421.796 445.116 422.242 444.62C424.293 431.64 424.028 420.644 423.301 412.724C422.838 407.647 422.011 399.198 418.753 388.764C415.099 377.074 412.602 376.429 407.84 364.061C402.896 351.229 404.087 348.021 399.341 331.966C397.39 325.368 394.133 315.546 388.775 303.806C376.175 307.494 363.575 311.23 350.959 314.967Z" fill="url(#paint11_linear)"/>
<path d="M297.418 287.883C297.55 292.546 305.222 296.663 311.39 297.92C325.842 300.863 342.575 290.379 350.529 278.755C352.083 276.473 353.819 273.712 354.249 273.927C355.192 274.406 346.511 288.676 342.741 304.914C340.823 313.215 341.319 317.1 337.714 322.64C336.904 323.896 335.895 325.203 336.242 326.674C337.135 330.378 345.618 331.354 351.488 332.015C357.705 332.726 363.492 332.66 369.23 332.561C378.407 332.429 379.118 331.949 381.218 332.974C387.601 336.099 387.171 343.606 391.966 344.599C396.001 345.442 400.085 340.944 401.375 339.506C408.121 332.081 407.757 323.152 408.948 314.124C411.726 293.157 423.119 270.173 434.263 255.639C437.636 251.224 440.001 248.909 440.133 244.808C440.563 232.771 421.498 219.493 405.624 217.955C401.275 217.542 393.487 217.674 386.179 218.352C383.252 218.633 380.16 219.03 376.82 219.609C368.718 221.031 363.079 222.006 357.325 224.635C334.142 235.234 339.202 258.847 314.118 275.167C305.52 280.822 297.285 283.005 297.418 287.883Z" fill="url(#paint12_linear)"/>
<path opacity="0.3" d="M317.69 287.172C328.157 284.807 332.341 284.89 337.516 280.723C346.148 273.778 347.437 263.196 352.447 263.328C354.812 263.394 356.747 265.808 358.103 268.173C356.846 270.14 355.573 272.125 354.316 274.092C354.316 274.01 354.3 273.96 354.25 273.944C353.837 273.729 352.1 276.49 350.529 278.772C342.576 290.38 325.826 300.879 311.391 297.936C307.24 297.093 302.445 294.96 299.684 292.248C306.827 289.834 312.912 288.246 317.69 287.172Z" fill="url(#paint13_linear)"/>
<path d="M300.625 298.845C300.625 298.845 294.722 298.25 291.2 296.746C287.678 295.241 285.396 297.407 285.727 298.895C286.058 300.4 291.845 302.483 294.16 302.549C296.475 302.649 300.625 298.845 300.625 298.845Z" fill="url(#paint14_linear)"/>
<path d="M427.914 327.435C434.263 327.997 448.55 328.262 458.653 318.919C475.469 303.36 467.135 273.745 461.265 261.013C454.552 246.412 443.87 238.244 437.372 233.267C429.319 227.099 424.408 223.346 418.489 224.189C403.194 226.371 392.594 257.722 400.994 266.684C403.739 269.628 406.468 267.958 414.421 270.488C417.017 271.314 436.347 277.465 439.72 291.719C442.085 301.689 436.082 313.363 425.4 321.201C426.244 323.285 427.071 325.351 427.914 327.435Z" fill="url(#paint15_linear)"/>
<path opacity="0.3" d="M356.795 322.276C363.971 317.729 365.046 313.132 373.082 310.023C383.533 305.989 388.559 311.115 393.735 306.981C399.902 302.053 394.446 293.455 399.059 278.557C399.836 276.027 405.789 256.813 419.447 254.366C425.813 253.225 434.213 255.655 437.454 261.062C439.984 265.279 437.619 268.437 440.711 273.084C443.787 277.746 447.474 276.606 451.41 280.491C457.643 286.659 458.603 299.656 452.964 307.014C450.335 310.437 446.929 311.793 440.513 314.356C436.594 315.91 432.94 316.885 429.815 317.497C437.669 309.957 441.753 300.218 439.752 291.719C437.652 282.839 429.352 277.102 422.771 273.844C416.173 286.246 410.799 300.615 408.997 314.157C407.806 323.185 408.153 332.114 401.424 339.539C400.134 340.961 396.033 345.458 392.015 344.632C387.22 343.639 387.65 336.132 381.267 333.007C379.167 331.982 378.456 332.462 369.279 332.594C363.558 332.677 357.754 332.743 351.537 332.048C346.295 331.453 339.02 330.626 336.854 327.832C346.279 327.551 352.579 324.938 356.795 322.276Z" fill="url(#paint16_linear)"/>
<path d="M423.748 332.429L424.492 330.246C425.666 326.774 423.731 323.086 420.159 321.995L280.321 279.4L276.055 293.835L415.182 336.695C418.737 337.786 422.574 335.885 423.748 332.429Z" fill="#757D89"/>
<path d="M141.375 240.278C152.073 198.047 193.957 172.582 235.394 184.521C277.592 196.674 301.75 242.378 288.919 285.485C276.402 327.567 233.476 350.27 193.411 337.29C154.041 324.525 130.925 281.55 141.375 240.278ZM276.749 281.748C287.348 245.685 267.126 207.488 231.889 197.237C197.181 187.133 161.928 208.332 152.834 243.8C143.905 278.59 163.4 314.835 196.636 325.517C230.384 336.348 266.365 317.1 276.749 281.748Z" fill="#757D89"/>
<path opacity="0.3" d="M280.321 279.4L298.146 284.824C299.369 290.512 301.751 293.769 304.148 295.754C313.16 303.211 325.181 295.076 341.948 303.823C350.364 308.221 348.76 311.016 356.664 314.075C369.71 319.134 375.68 312.123 387.221 316.737C398.895 321.4 400.053 331.486 406.667 331.122C409.494 330.974 413.148 328.907 417.216 321.086L420.143 321.978C423.714 323.07 425.649 326.757 424.475 330.23L423.731 332.396C422.557 335.851 418.721 337.753 415.182 336.662L276.055 293.802L280.321 279.4Z" fill="#757D89"/>
<path d="M138.663 243.899C149.361 201.668 191.245 176.204 232.682 188.142C274.88 200.296 299.038 245.999 286.207 289.106C273.69 331.189 230.764 353.892 190.699 340.911C151.345 328.146 128.213 285.171 138.663 243.899ZM274.037 285.369C284.636 249.306 264.413 211.11 229.177 200.858C194.469 190.755 159.216 211.953 150.122 247.421C141.193 282.211 160.688 318.457 193.924 329.138C227.672 339.969 263.653 320.722 274.037 285.369Z" fill="#4F545B"/>
<path d="M142.715 245.139C152.851 205.306 192.403 181.363 231.443 192.64C271.161 204.115 293.93 247.173 281.892 287.767C270.136 327.468 229.657 348.964 191.841 336.744C154.637 324.723 132.81 284.129 142.715 245.139ZM274.038 285.369C284.637 249.306 264.414 211.11 229.178 200.858C194.47 190.755 159.217 211.953 150.123 247.421C141.194 282.211 160.689 318.456 193.925 329.138C227.673 339.969 263.654 320.722 274.038 285.369Z" fill="#757D89"/>
<path d="M427.368 326.096L425.962 322.59C425.962 322.59 423.647 322.739 421.762 321.367C420.737 320.622 418.902 320.407 418.373 320.556C417.843 320.705 415.826 320.622 418.125 321.714C420.406 322.805 420.39 323.615 419.447 324.508C418.488 325.401 414.867 327.336 413.561 327.435C412.255 327.534 414.619 329.551 415.942 329.816C417.265 330.081 419.431 330.395 422.093 328.824C423.036 328.245 427.368 326.096 427.368 326.096Z" fill="url(#paint17_linear)"/>
<path d="M402.416 206.413L402.747 221.063C402.763 221.741 402.35 222.337 401.705 222.568C399.39 223.362 393.553 224.619 387.253 220.121C386.526 219.608 386.195 218.699 386.36 217.839L388.642 205.785L402.416 206.413Z" fill="url(#paint18_linear)"/>
<path d="M381.664 188.919C381.664 188.919 379.796 203.503 383.996 209.29C388.196 215.094 399.588 214.731 406.054 205.124L403.954 185.099L381.664 188.919Z" fill="url(#paint19_linear)"/>
<path d="M401.54 197.021C401.093 197.038 400.729 196.658 400.796 196.211C400.961 194.855 401.176 192.16 400.68 190.143C400.68 190.143 401.705 188.44 395.769 189.796C389.833 191.151 380.953 193.103 377.051 189.415C373.248 185.827 372.024 172.649 383.186 178.089C383.615 178.304 384.128 178.056 384.211 177.593C384.608 175.592 386.046 171.127 391.007 170.945C395.653 170.764 397.472 173.343 398.117 174.765C398.299 175.178 398.828 175.327 399.208 175.046C400.944 173.723 405.409 171.127 409.906 174.782C413.61 177.808 413.561 180.585 413.032 182.173C412.866 182.685 413.296 183.198 413.842 183.099C415.297 182.867 417.463 183.115 418.769 186.158C420.572 190.358 415.826 192.276 414.421 192.722C414.189 192.805 414.007 192.97 413.941 193.202C413.445 194.988 411.014 202.743 405.872 206.066C405.425 206.347 404.83 206.066 404.764 205.537L403.722 197.518C403.673 197.137 403.342 196.873 402.978 196.889L401.54 197.021Z" fill="#41434B"/>
<path d="M401.077 198.46C401.077 198.46 404.979 191.465 407.112 194.673C409.245 197.881 404.235 202.28 400.746 202.412L401.077 198.46Z" fill="url(#paint20_linear)"/>
<path d="M301.334 28.1303C302.426 27.1051 303.897 26.609 305.369 26.7413C321.243 28.1633 350.841 20.524 370.187 0.731362C371.527 -0.641064 373.974 0.136096 375.528 1.27703C397.04 17.3658 432.724 20.6894 445.108 21.3674C447.671 21.5162 449.755 23.5004 450.019 26.0468C461.28 134.816 390.459 174.219 375.776 181.18C374.172 181.941 372.287 181.825 370.766 180.899C297.564 135.312 300.69 76.0163 299.681 32.0657C299.648 30.5775 300.26 29.1554 301.334 28.1303Z" fill="url(#paint21_linear)"/>
<path opacity="0.61" d="M373.79 173.293C373.459 173.293 373.129 173.194 372.848 173.012C344.787 155.071 326.499 133.625 316.925 107.45C308.377 84.0691 307.963 60.2583 307.6 39.2585L307.55 36.4641C307.533 36.0011 307.715 35.5546 308.046 35.2239C308.377 34.8932 308.823 34.7114 309.286 34.7114C326.665 34.7114 352.757 27.039 371.889 9.89195C372.484 9.36282 373.344 9.29668 374.005 9.74313C395.021 23.6989 425.016 27.75 441.022 28.9405C441.866 29.0067 442.544 29.6681 442.626 30.5114C446.347 72.9574 437.517 108.839 416.385 137.18C400.61 158.345 381.892 169.374 374.584 173.128C374.336 173.227 374.071 173.293 373.79 173.293ZM374.253 172.466L374.418 172.781L374.253 172.466C381.529 168.73 400.114 157.767 415.806 136.717C436.822 108.525 445.603 72.8086 441.899 30.5445C441.849 30.0484 441.452 29.6516 440.956 29.6185C424.884 28.428 394.757 24.3437 373.608 10.3053C373.228 10.0408 372.715 10.0904 372.368 10.388C353.088 27.6508 326.813 35.3893 309.303 35.3893C309.005 35.3893 308.74 35.505 308.559 35.7035C308.36 35.9019 308.261 36.1499 308.261 36.431L308.311 39.2255C308.674 60.1756 309.088 83.9202 317.603 107.185C327.111 133.212 345.3 154.542 373.228 172.4C373.542 172.599 373.939 172.632 374.253 172.466Z" fill="white"/>
<path opacity="0.61" d="M399.388 69.1872H396.081C394.444 69.1872 393.105 67.8478 393.105 66.2108V54.9007C393.105 50.8496 389.815 47.5756 385.78 47.5756H365.276C361.225 47.5756 357.951 50.8661 357.951 54.9007V66.2108C357.951 67.8478 356.612 69.1872 354.975 69.1872H351.668C350.031 69.1872 348.691 67.8478 348.691 66.2108V54.9007C348.691 45.7402 356.116 38.2993 365.293 38.2993H385.796C394.957 38.2993 402.398 45.7236 402.398 54.9007V66.2108C402.365 67.8478 401.025 69.1872 399.388 69.1872Z" fill="white"/>
<path opacity="0.61" d="M403.488 71.8491H347.533C344.11 71.8491 341.332 74.627 341.332 78.0498V120.992C341.332 124.415 344.11 127.193 347.533 127.193H403.488C406.911 127.193 409.689 124.415 409.689 120.992V78.0664C409.689 74.6436 406.911 71.8491 403.488 71.8491ZM383.513 113.369C383.861 114.808 382.769 116.213 381.281 116.213H369.74C368.251 116.213 367.16 114.824 367.507 113.369L370.203 102.158C367.028 100.257 364.944 96.7016 365.159 92.6835C365.44 87.4749 369.657 83.2254 374.849 82.8947C380.884 82.5143 385.878 87.293 385.878 93.2457C385.878 97.0323 383.844 100.339 380.818 102.158L383.513 113.369Z" fill="white"/>
<defs>
<linearGradient id="paint0_linear" x1="202.044" y1="440.725" x2="169.282" y2="454.485" gradientUnits="userSpaceOnUse">
<stop stop-color="#40447E"/>
<stop offset="0.9964" stop-color="#3C3B6B"/>
</linearGradient>
<linearGradient id="paint1_linear" x1="148.739" y1="295.081" x2="114.771" y2="309.348" gradientUnits="userSpaceOnUse">
<stop stop-color="#40447E"/>
<stop offset="0.9964" stop-color="#3C3B6B"/>
</linearGradient>
<linearGradient id="paint2_linear" x1="5.07946" y1="303.305" x2="314.631" y2="303.305" gradientUnits="userSpaceOnUse">
<stop stop-color="#40447E"/>
<stop offset="0.9964" stop-color="#3C3B6B"/>
</linearGradient>
<linearGradient id="paint3_linear" x1="5.07842" y1="426.26" x2="471.405" y2="426.26" gradientUnits="userSpaceOnUse">
<stop stop-color="#40447E"/>
<stop offset="0.9964" stop-color="#3C3B6B"/>
</linearGradient>
<linearGradient id="paint4_linear" x1="50.8095" y1="422.404" x2="392.484" y2="422.404" gradientUnits="userSpaceOnUse">
<stop stop-color="#40447E"/>
<stop offset="0.9964" stop-color="#3C3B6B"/>
</linearGradient>
<linearGradient id="paint5_linear" x1="301.61" y1="5.5704" x2="25.0946" y2="558.601" gradientUnits="userSpaceOnUse">
<stop offset="0.00359712" stop-color="#E38DDD"/>
<stop offset="1" stop-color="#9571F6"/>
</linearGradient>
<linearGradient id="paint6_linear" x1="182.017" y1="-11.7008" x2="230.062" y2="180.482" gradientUnits="userSpaceOnUse">
<stop offset="0.00359712" stop-color="#E38DDD"/>
<stop offset="1" stop-color="#9571F6"/>
</linearGradient>
<linearGradient id="paint7_linear" x1="352.935" y1="458.268" x2="352.145" y2="409.49" gradientUnits="userSpaceOnUse">
<stop stop-color="#FFC444"/>
<stop offset="0.9964" stop-color="#F36F56"/>
</linearGradient>
<linearGradient id="paint8_linear" x1="417.022" y1="457.23" x2="416.232" y2="408.45" gradientUnits="userSpaceOnUse">
<stop stop-color="#FFC444"/>
<stop offset="0.9964" stop-color="#F36F56"/>
</linearGradient>
<linearGradient id="paint9_linear" x1="341.103" y1="379.273" x2="377.17" y2="379.186" gradientUnits="userSpaceOnUse">
<stop stop-color="#444B8C"/>
<stop offset="0.9964" stop-color="#3E4177"/>
</linearGradient>
<linearGradient id="paint10_linear" x1="341.103" y1="379.274" x2="377.169" y2="379.188" gradientUnits="userSpaceOnUse">
<stop stop-color="#444B8C"/>
<stop offset="0.9964" stop-color="#3E4177"/>
</linearGradient>
<linearGradient id="paint11_linear" x1="351.108" y1="375.694" x2="423.714" y2="375.519" gradientUnits="userSpaceOnUse">
<stop stop-color="#444B8C"/>
<stop offset="0.9964" stop-color="#3E4177"/>
</linearGradient>
<linearGradient id="paint12_linear" x1="246.455" y1="422.085" x2="476.936" y2="175.925" gradientUnits="userSpaceOnUse">
<stop stop-color="#FF928E"/>
<stop offset="1" stop-color="#FE7062"/>
</linearGradient>
<linearGradient id="paint13_linear" x1="299.691" y1="280.879" x2="358.102" y2="280.879" gradientUnits="userSpaceOnUse">
<stop stop-color="#FFC444"/>
<stop offset="0.9964" stop-color="#F36F56"/>
</linearGradient>
<linearGradient id="paint14_linear" x1="294.311" y1="296.203" x2="273.144" y2="339.124" gradientUnits="userSpaceOnUse">
<stop stop-color="#FEBBBA"/>
<stop offset="1" stop-color="#FF928E"/>
</linearGradient>
<linearGradient id="paint15_linear" x1="272.551" y1="446.519" x2="503.032" y2="200.359" gradientUnits="userSpaceOnUse">
<stop stop-color="#FF928E"/>
<stop offset="1" stop-color="#FE7062"/>
</linearGradient>
<linearGradient id="paint16_linear" x1="336.829" y1="299.406" x2="456.668" y2="299.406" gradientUnits="userSpaceOnUse">
<stop stop-color="#FFC444"/>
<stop offset="0.9964" stop-color="#F36F56"/>
</linearGradient>
<linearGradient id="paint17_linear" x1="416.651" y1="336.196" x2="422.693" y2="320.611" gradientUnits="userSpaceOnUse">
<stop stop-color="#FEBBBA"/>
<stop offset="1" stop-color="#FF928E"/>
</linearGradient>
<linearGradient id="paint18_linear" x1="393.804" y1="224.258" x2="396.594" y2="206.717" gradientUnits="userSpaceOnUse">
<stop stop-color="#FEBBBA"/>
<stop offset="1" stop-color="#FF928E"/>
</linearGradient>
<linearGradient id="paint19_linear" x1="387.801" y1="206.636" x2="403.698" y2="181.436" gradientUnits="userSpaceOnUse">
<stop stop-color="#FEBBBA"/>
<stop offset="1" stop-color="#FF928E"/>
</linearGradient>
<linearGradient id="paint20_linear" x1="395.715" y1="211.629" x2="411.613" y2="186.429" gradientUnits="userSpaceOnUse">
<stop stop-color="#FEBBBA"/>
<stop offset="1" stop-color="#FF928E"/>
</linearGradient>
<linearGradient id="paint21_linear" x1="534.116" y1="-82.2826" x2="473.278" y2="-22.7678" gradientUnits="userSpaceOnUse">
<stop stop-color="#FF928E"/>
<stop offset="1" stop-color="#FE7062"/>
</linearGradient>
</defs>
</svg>
