<svg width="458" height="458" viewBox="0 0 458 458" fill="none" xmlns="http://www.w3.org/2000/svg">
<g clip-path="url(#clip0)">
<path d="M428.804 313.305C386.532 414.245 273.923 470.791 176.287 455.53C160.396 453.044 116.832 445.65 78.2752 410.777C4.00933 343.631 -11.865 210.68 48.032 116.97C91.6129 48.7771 169.757 10.1252 244.007 12.0553C259.996 12.4643 321.3 15.0323 375.158 60.0799C383.063 66.6882 400.525 82.4238 416.252 107.352C453.172 165.927 456.347 247.516 428.804 313.305Z" fill="#F7F8FC"/>
<path d="M5.17205 293.415C12.3892 262.63 35.988 238.454 66.0347 231.061C86.6877 225.974 106.506 228.706 123.264 236.933C128.812 239.665 135.424 236.573 136.962 230.456C151.773 171.636 203.88 128.175 265.904 128.175C339.45 128.175 399.069 189.269 399.069 264.642C399.069 266.638 399.036 269.369 399.004 272.003C399.266 277.646 401.671 280.034 405.255 280.64C434.075 283.715 456.708 308.054 457.968 338.086C459.408 372.567 432.029 401.126 398.365 401.126H86.8841C33.5659 401.126 -8.18206 350.354 5.17205 293.415Z" fill="url(#paint0_linear)"/>
<path opacity="0.74" d="M28.7871 290.323C35.235 262.827 56.2972 241.252 83.1363 234.643C101.58 230.112 119.271 232.533 134.229 239.894C139.188 242.331 145.079 239.567 146.454 234.12C159.677 181.597 206.204 142.798 261.584 142.798C327.242 142.798 380.478 197.349 380.478 264.642C380.478 266.425 380.445 268.862 380.412 271.218C380.642 276.256 382.785 278.382 385.993 278.922C411.719 281.67 431.947 303.409 433.06 330.218C434.353 361.002 409.903 386.503 379.84 386.503H101.744C54.137 386.503 16.8731 341.161 28.7871 290.323Z" fill="white"/>
<path d="M60.7483 439.058C60.7483 441.577 62.8103 443.638 65.3469 443.638H313.773C316.293 443.638 318.371 441.577 318.371 439.058L320.433 296.375C320.433 293.856 317.455 288.933 312.005 289.293L69.2255 283.011C66.0506 282.93 62.9903 284.156 60.7483 286.381C58.5062 288.622 57.2788 291.681 57.3443 294.838L60.7483 439.058Z" fill="url(#paint1_linear)"/>
<path d="M65.2815 434.658C65.2815 437.047 67.2453 439.009 69.6346 439.009H307.783C310.172 439.009 312.136 437.047 312.136 434.658L314.083 305.126C313.854 297.324 307.014 294.527 302.873 294.69L70.1911 288.458C67.9654 288.393 65.8052 289.26 64.2341 290.83C62.663 292.4 61.7957 294.56 61.8448 296.784L65.2815 434.658Z" fill="#B4B7C1"/>
<path d="M309.534 373.123C309.174 373.123 308.896 372.828 308.896 372.469L309.043 361.967C309.043 361.624 309.337 361.346 309.681 361.346C310.041 361.346 310.319 361.64 310.319 362L310.172 372.501C310.172 372.845 309.894 373.123 309.534 373.123Z" fill="white"/>
<path d="M309.926 347.377C309.926 347.377 309.91 347.377 309.926 347.377C309.566 347.377 309.288 347.082 309.288 346.722L309.877 306.484C309.861 304.096 309.141 302.182 307.717 300.824C305.066 298.289 300.86 298.42 300.68 298.42L226.3 296.424C225.956 296.408 225.678 296.13 225.678 295.77C225.694 295.426 225.956 295.116 226.332 295.148L300.664 297.144C301.122 297.111 305.606 297.046 308.601 299.892C310.286 301.495 311.137 303.719 311.154 306.484L310.565 346.739C310.548 347.099 310.27 347.377 309.926 347.377Z" fill="white"/>
<path d="M41.5188 455.497H332.543C333.051 455.497 333.476 455.089 333.476 454.565V443.884C333.476 443.377 333.067 442.952 332.543 442.952H41.5188C41.0114 442.952 40.5859 443.36 40.5859 443.884V454.565C40.5859 455.072 41.0114 455.497 41.5188 455.497Z" fill="url(#paint2_linear)"/>
<path opacity="0.21" d="M168.596 432.679H76.9009C73.5133 432.679 70.7803 429.948 70.7803 426.562V306.942C70.7803 303.474 73.6606 300.694 77.13 300.825L168.825 304.325C172.114 304.456 174.716 307.155 174.716 310.443V426.562C174.716 429.948 171.983 432.679 168.596 432.679Z" fill="#EAEAEA"/>
<path opacity="0.51" d="M150.364 355.817H89.6164C89.1418 355.817 88.749 355.424 88.749 354.95V348.62C88.749 348.146 89.1418 347.753 89.6164 347.753H150.348C150.823 347.753 151.215 348.146 151.215 348.62V354.95C151.232 355.424 150.839 355.817 150.364 355.817Z" fill="#F7F8FC"/>
<path opacity="0.51" d="M150.479 368.706H89.7473C89.2727 368.706 88.8799 368.314 88.8799 367.839V361.509C88.8799 361.035 89.2727 360.642 89.7473 360.642H150.479C150.954 360.642 151.346 361.035 151.346 361.509V367.839C151.346 368.314 150.97 368.706 150.479 368.706Z" fill="#F7F8FC"/>
<path opacity="0.51" d="M150.839 381.857H90.1076C89.633 381.857 89.2402 381.465 89.2402 380.991V374.66C89.2402 374.186 89.633 373.793 90.1076 373.793H150.839C151.314 373.793 151.707 374.186 151.707 374.66V380.991C151.723 381.465 151.33 381.857 150.839 381.857Z" fill="#F7F8FC"/>
<path opacity="0.51" d="M150.97 394.747H90.2385C89.7639 394.747 89.3711 394.354 89.3711 393.88V387.55C89.3711 387.075 89.7639 386.683 90.2385 386.683H150.97C151.445 386.683 151.838 387.075 151.838 387.55V393.88C151.838 394.354 151.445 394.747 150.97 394.747Z" fill="#F7F8FC"/>
<path opacity="0.51" d="M283.562 355.817H195.484C195.009 355.817 194.616 355.424 194.616 354.95V348.62C194.616 348.146 195.009 347.753 195.484 347.753H283.562C284.036 347.753 284.429 348.146 284.429 348.62V354.95C284.429 355.424 284.036 355.817 283.562 355.817Z" fill="#F7F8FC"/>
<path opacity="0.51" d="M283.84 368.706H195.762C195.287 368.706 194.895 368.314 194.895 367.839V361.509C194.895 361.035 195.287 360.642 195.762 360.642H283.84C284.315 360.642 284.707 361.035 284.707 361.509V367.839C284.707 368.314 284.315 368.706 283.84 368.706Z" fill="#F7F8FC"/>
<path opacity="0.51" d="M247.231 381.857H195.745C195.271 381.857 194.878 381.465 194.878 380.991V374.66C194.878 374.186 195.271 373.793 195.745 373.793H247.231C247.705 373.793 248.098 374.186 248.098 374.66V380.991C248.098 381.465 247.722 381.857 247.231 381.857Z" fill="#F7F8FC"/>
<g opacity="0.51">
<path opacity="0.51" d="M242.288 317.672H240.914C240.226 317.672 239.686 317.116 239.686 316.445V311.767C239.686 310.099 238.328 308.741 236.659 308.741H228.181C226.512 308.741 225.154 310.099 225.154 311.767V316.445C225.154 317.132 224.597 317.672 223.926 317.672H222.552C221.864 317.672 221.324 317.116 221.324 316.445V311.767C221.324 307.972 224.401 304.914 228.181 304.914H236.659C240.455 304.914 243.516 307.989 243.516 311.767V316.445C243.516 317.132 242.959 317.672 242.288 317.672Z" fill="#F7F8FC"/>
<path opacity="0.51" d="M243.974 318.784H220.85C219.426 318.784 218.28 319.929 218.28 321.352V339.084C218.28 340.507 219.426 341.652 220.85 341.652H243.974C245.398 341.652 246.543 340.507 246.543 339.084V321.336C246.543 319.929 245.398 318.784 243.974 318.784ZM235.726 335.927C235.873 336.532 235.415 337.104 234.809 337.104H230.047C229.425 337.104 228.983 336.532 229.13 335.927L230.243 331.298C228.934 330.512 228.067 329.04 228.165 327.388C228.279 325.245 230.014 323.479 232.174 323.348C234.662 323.201 236.74 325.164 236.74 327.617C236.74 329.188 235.906 330.545 234.646 331.298L235.726 335.927Z" fill="#F7F8FC"/>
</g>
<path d="M309.617 110.541C309.518 110.541 309.436 110.525 309.355 110.476C309.093 110.329 308.995 109.985 309.142 109.724C309.502 109.086 309.846 108.448 310.173 107.793C310.32 107.515 310.648 107.417 310.909 107.564C311.188 107.712 311.286 108.039 311.138 108.301C310.795 108.955 310.451 109.609 310.091 110.263C309.993 110.443 309.813 110.541 309.617 110.541Z" fill="#757D89"/>
<path d="M245.17 148.457C244.842 148.457 244.515 148.457 244.188 148.457C243.877 148.457 243.648 148.196 243.648 147.901C243.648 147.607 243.893 147.361 244.204 147.361C245.628 147.378 247.068 147.361 248.492 147.296C248.77 147.28 249.048 147.525 249.065 147.819C249.081 148.13 248.836 148.376 248.541 148.392C247.428 148.441 246.283 148.457 245.17 148.457ZM237.183 148.032C237.167 148.032 237.151 148.032 237.118 148.032C235.678 147.869 234.221 147.672 232.814 147.443C232.519 147.394 232.307 147.116 232.356 146.805C232.405 146.511 232.699 146.298 232.994 146.347C234.401 146.576 235.825 146.773 237.249 146.936C237.544 146.969 237.773 147.247 237.74 147.541C237.707 147.819 237.462 148.032 237.183 148.032ZM255.496 147.738C255.218 147.738 254.989 147.541 254.956 147.263C254.907 146.969 255.12 146.691 255.431 146.642C256.838 146.445 258.262 146.2 259.653 145.922C259.948 145.857 260.242 146.053 260.308 146.347C260.373 146.642 260.177 146.936 259.882 147.002C258.458 147.28 257.018 147.525 255.594 147.738C255.562 147.738 255.529 147.738 255.496 147.738ZM226.055 145.955C226.006 145.955 225.957 145.955 225.908 145.938C224.517 145.562 223.109 145.153 221.735 144.695C221.44 144.597 221.293 144.286 221.391 143.992C221.489 143.697 221.8 143.55 222.095 143.648C223.453 144.09 224.828 144.515 226.202 144.875C226.497 144.957 226.677 145.251 226.595 145.546C226.513 145.791 226.301 145.955 226.055 145.955ZM266.576 145.3C266.346 145.3 266.117 145.153 266.052 144.908C265.97 144.613 266.134 144.303 266.412 144.221C267.77 143.812 269.145 143.354 270.471 142.863C270.749 142.765 271.076 142.896 271.174 143.19C271.272 143.468 271.142 143.796 270.847 143.894C269.489 144.384 268.098 144.859 266.723 145.284C266.674 145.284 266.625 145.3 266.576 145.3ZM215.368 142.193C215.287 142.193 215.221 142.176 215.139 142.144C213.814 141.555 212.488 140.933 211.212 140.279C210.933 140.148 210.835 139.804 210.966 139.543C211.114 139.281 211.441 139.167 211.703 139.297C212.963 139.952 214.272 140.573 215.565 141.146C215.843 141.26 215.974 141.587 215.843 141.865C215.778 142.078 215.581 142.193 215.368 142.193ZM277.131 141.178C276.918 141.178 276.722 141.064 276.64 140.868C276.509 140.59 276.624 140.262 276.902 140.132C278.179 139.51 279.471 138.856 280.715 138.152C280.977 138.005 281.321 138.103 281.468 138.365C281.615 138.627 281.517 138.97 281.255 139.117C279.995 139.821 278.686 140.491 277.393 141.129C277.295 141.162 277.213 141.178 277.131 141.178ZM205.386 136.844C205.287 136.844 205.173 136.811 205.091 136.762C203.88 135.977 202.669 135.159 201.507 134.308C201.262 134.129 201.212 133.785 201.393 133.54C201.573 133.294 201.916 133.245 202.162 133.425C203.307 134.259 204.502 135.077 205.697 135.846C205.958 136.01 206.024 136.353 205.86 136.615C205.746 136.762 205.566 136.844 205.386 136.844ZM286.934 135.486C286.754 135.486 286.59 135.404 286.476 135.241C286.296 134.995 286.361 134.652 286.623 134.472C287.801 133.671 288.963 132.804 290.076 131.937C290.322 131.757 290.665 131.789 290.845 132.035C291.025 132.28 290.993 132.624 290.747 132.804C289.602 133.687 288.423 134.554 287.229 135.372C287.147 135.453 287.032 135.486 286.934 135.486ZM196.352 130.023C196.221 130.023 196.09 129.974 195.992 129.892C194.912 128.943 193.848 127.929 192.817 126.915C192.604 126.702 192.604 126.359 192.817 126.13C193.03 125.917 193.373 125.917 193.603 126.13C194.617 127.128 195.665 128.125 196.728 129.058C196.958 129.254 196.974 129.614 196.777 129.843C196.647 129.957 196.499 130.023 196.352 130.023ZM295.739 128.371C295.591 128.371 295.444 128.305 295.346 128.191C295.133 127.962 295.149 127.618 295.362 127.406C296.393 126.424 297.424 125.41 298.39 124.38C298.603 124.167 298.946 124.151 299.175 124.363C299.404 124.576 299.404 124.919 299.192 125.148C298.193 126.195 297.162 127.226 296.115 128.224C296.017 128.322 295.87 128.371 295.739 128.371ZM188.464 121.893C188.3 121.893 188.153 121.828 188.038 121.697C187.122 120.585 186.205 119.44 185.354 118.278C185.174 118.033 185.224 117.69 185.469 117.51C185.715 117.33 186.058 117.379 186.238 117.624C187.089 118.769 187.973 119.898 188.889 120.994C189.086 121.223 189.053 121.583 188.824 121.763C188.709 121.844 188.578 121.893 188.464 121.893ZM303.365 119.996C303.25 119.996 303.136 119.963 303.021 119.881C302.776 119.702 302.743 119.342 302.923 119.113C303.807 117.984 304.658 116.823 305.46 115.661C305.64 115.416 305.983 115.351 306.229 115.514C306.474 115.694 306.54 116.038 306.376 116.283C305.558 117.461 304.69 118.655 303.807 119.8C303.692 119.914 303.529 119.996 303.365 119.996ZM181.901 112.652C181.721 112.652 181.525 112.553 181.427 112.39C180.674 111.147 179.97 109.871 179.299 108.595C179.152 108.333 179.267 107.99 179.528 107.859C179.79 107.712 180.134 107.826 180.265 108.088C180.919 109.347 181.623 110.607 182.36 111.817C182.523 112.079 182.425 112.423 182.163 112.57C182.098 112.635 182 112.652 181.901 112.652ZM176.828 102.527C176.615 102.527 176.403 102.396 176.321 102.183C175.781 100.842 175.257 99.4677 174.799 98.1101C174.701 97.8157 174.848 97.5049 175.143 97.4067C175.421 97.3086 175.748 97.4558 175.846 97.7502C176.304 99.0915 176.812 100.449 177.335 101.774C177.45 102.052 177.319 102.379 177.025 102.494C176.975 102.51 176.894 102.527 176.828 102.527Z" fill="#757D89"/>
<path d="M173.392 91.6981C173.146 91.6981 172.917 91.5345 172.851 91.2728C172.688 90.5531 172.524 89.8334 172.377 89.1137C172.311 88.8192 172.508 88.5248 172.802 88.4594C173.097 88.394 173.392 88.5902 173.457 88.8847C173.604 89.6044 173.752 90.3077 173.932 91.0111C173.997 91.3055 173.817 91.6 173.522 91.6654C173.473 91.6981 173.424 91.6981 173.392 91.6981Z" fill="#757D89"/>
<path d="M182.72 35.5442C182.622 35.5442 182.523 35.5115 182.425 35.4624C182.163 35.2988 182.098 34.9553 182.245 34.71C182.638 34.0884 183.047 33.4668 183.456 32.8453C183.62 32.5999 183.964 32.5181 184.225 32.698C184.471 32.8616 184.553 33.2051 184.373 33.4668C183.964 34.072 183.571 34.6772 183.178 35.2988C183.08 35.4624 182.916 35.5442 182.72 35.5442Z" fill="#757D89"/>
<path d="M315.885 53.9949C315.639 53.9949 315.426 53.8314 315.361 53.6024C314.935 52.1629 314.461 50.7235 313.953 49.3168C313.855 49.0387 314.003 48.7116 314.281 48.6134C314.559 48.5153 314.886 48.6625 314.984 48.9406C315.508 50.3636 315.983 51.8358 316.408 53.2916C316.49 53.586 316.326 53.8968 316.032 53.9786C315.983 53.9786 315.934 53.9949 315.885 53.9949ZM311.613 42.8721C311.4 42.8721 311.204 42.7576 311.122 42.5613C310.468 41.2036 309.78 39.8624 309.044 38.5701C308.897 38.3084 308.995 37.9649 309.257 37.8177C309.518 37.6705 309.862 37.7686 310.009 38.0304C310.746 39.3553 311.466 40.7129 312.12 42.0869C312.251 42.365 312.137 42.6921 311.859 42.823C311.777 42.8557 311.695 42.8721 311.613 42.8721ZM305.591 32.5998C305.411 32.5998 305.247 32.518 305.133 32.3708C304.282 31.144 303.365 29.9336 302.432 28.7559C302.236 28.5105 302.285 28.167 302.514 27.9871C302.76 27.7908 303.103 27.8399 303.283 28.0689C304.232 29.2629 305.149 30.4897 306.016 31.7329C306.196 31.9782 306.131 32.3217 305.885 32.5016C305.82 32.5671 305.705 32.5998 305.591 32.5998ZM188.35 27.7908C188.219 27.7908 188.104 27.7417 188.006 27.6599C187.777 27.4636 187.744 27.1201 187.94 26.8911C188.906 25.7298 189.921 24.5684 190.968 23.4561C191.181 23.2271 191.524 23.2271 191.754 23.4234C191.983 23.6361 191.983 23.9796 191.786 24.2086C190.755 25.3045 189.757 26.4331 188.808 27.5781C188.661 27.7254 188.513 27.7908 188.35 27.7908ZM297.997 23.4234C297.85 23.4234 297.703 23.3744 297.604 23.2599C296.573 22.1966 295.477 21.1334 294.364 20.1193C294.135 19.9066 294.119 19.5631 294.331 19.3341C294.544 19.1051 294.888 19.0888 295.117 19.3014C296.246 20.3319 297.343 21.3951 298.406 22.4911C298.619 22.7037 298.619 23.0636 298.39 23.2762C298.275 23.3744 298.145 23.4234 297.997 23.4234ZM196.663 19.2687C196.516 19.2687 196.352 19.2033 196.254 19.0724C196.058 18.8434 196.074 18.4999 196.303 18.2873C197.449 17.2895 198.643 16.3081 199.838 15.3757C200.084 15.1958 200.427 15.2285 200.607 15.4739C200.787 15.7192 200.755 16.0627 200.509 16.2426C199.331 17.1586 198.152 18.1237 197.023 19.1051C196.925 19.2196 196.794 19.2687 196.663 19.2687ZM289.045 15.572C288.931 15.572 288.816 15.5393 288.718 15.4575C287.523 14.5579 286.28 13.7073 285.02 12.8894C284.758 12.7259 284.692 12.3824 284.856 12.1206C285.02 11.8589 285.363 11.7935 285.625 11.9571C286.902 12.7913 288.162 13.6582 289.373 14.5742C289.618 14.7541 289.667 15.0976 289.487 15.343C289.389 15.5066 289.225 15.572 289.045 15.572ZM206.237 12.1861C206.057 12.1861 205.877 12.0879 205.762 11.9244C205.599 11.6626 205.68 11.3191 205.942 11.1719C207.235 10.3704 208.561 9.60164 209.903 8.88193C210.165 8.73471 210.508 8.83286 210.656 9.11093C210.803 9.37264 210.705 9.71614 210.426 9.86336C209.101 10.5667 207.792 11.3355 206.531 12.1206C206.433 12.1534 206.335 12.1861 206.237 12.1861ZM278.948 9.2745C278.866 9.2745 278.784 9.25814 278.703 9.20907C277.377 8.52207 276.002 7.86779 274.628 7.26257C274.349 7.14807 274.218 6.82093 274.349 6.54286C274.464 6.26479 274.791 6.13393 275.069 6.26479C276.46 6.87 277.852 7.54064 279.193 8.22764C279.472 8.37486 279.57 8.702 279.423 8.96371C279.341 9.17636 279.144 9.2745 278.948 9.2745ZM216.825 6.72279C216.613 6.72279 216.4 6.59193 216.318 6.37929C216.203 6.10121 216.334 5.77407 216.613 5.65957C218.02 5.07071 219.444 4.53093 220.884 4.04021C221.178 3.94207 221.489 4.08929 221.588 4.38371C221.686 4.67814 221.538 4.98893 221.244 5.08707C219.82 5.57779 218.413 6.11757 217.022 6.69007C216.973 6.72279 216.907 6.72279 216.825 6.72279ZM267.951 4.6945C267.901 4.6945 267.836 4.67814 267.787 4.66179C266.363 4.20379 264.907 3.7785 263.466 3.40229C263.172 3.3205 262.992 3.02607 263.074 2.73164C263.155 2.43721 263.45 2.25729 263.745 2.33907C265.217 2.71529 266.69 3.14057 268.131 3.61493C268.425 3.71307 268.572 4.02386 268.491 4.30193C268.409 4.54729 268.196 4.6945 267.951 4.6945ZM228.166 3.05879C227.921 3.05879 227.692 2.89521 227.626 2.6335C227.561 2.33907 227.741 2.04464 228.036 1.96286C229.525 1.61936 231.03 1.30857 232.52 1.04686C232.831 0.997786 233.109 1.19407 233.158 1.4885C233.207 1.78293 233.011 2.07736 232.716 2.12643C231.243 2.37179 229.754 2.68257 228.297 3.02607C228.248 3.05879 228.216 3.05879 228.166 3.05879ZM256.364 1.96286C256.331 1.96286 256.315 1.96286 256.282 1.96286C254.809 1.73386 253.304 1.55393 251.814 1.42307C251.503 1.39036 251.291 1.12864 251.323 0.817857C251.356 0.507071 251.618 0.294429 251.929 0.327143C253.434 0.458 254.973 0.654286 256.478 0.883286C256.773 0.932357 256.986 1.21043 256.937 1.50486C256.871 1.76657 256.642 1.96286 256.364 1.96286ZM239.949 1.27586C239.655 1.27586 239.426 1.04686 239.393 0.768786C239.377 0.458 239.606 0.196286 239.9 0.179929C241.406 0.0654286 242.944 0.0163571 244.466 0C244.761 0 245.023 0.245357 245.023 0.539786C245.023 0.850571 244.777 1.09593 244.483 1.09593C242.977 1.11229 241.471 1.16136 239.982 1.27586C239.966 1.27586 239.966 1.27586 239.949 1.27586Z" fill="#757D89"/>
<path d="M317.98 63.3676C317.718 63.3676 317.472 63.1713 317.44 62.9096C317.325 62.1899 317.21 61.4701 317.063 60.7504C317.014 60.456 317.21 60.1616 317.505 60.1125C317.8 60.0634 318.094 60.2597 318.143 60.5541C318.274 61.2739 318.405 62.0099 318.52 62.746C318.569 63.0404 318.356 63.3349 318.061 63.3676C318.029 63.3676 318.012 63.3676 317.98 63.3676Z" fill="#757D89"/>
<path d="M301.745 72.5766C301.777 72.2004 301.565 71.8405 301.221 71.6933L291.336 67.4077C290.567 62.4352 289.012 57.5607 286.639 52.9644L292.089 43.6899C292.285 43.3627 292.236 42.9538 291.991 42.6594L283.595 32.8451C283.35 32.5507 282.957 32.4525 282.597 32.5997L272.582 36.5418C268.408 33.483 263.826 31.1767 259.031 29.6554L256.314 19.2359C256.216 18.8761 255.905 18.598 255.529 18.5817L242.649 17.5839C242.273 17.5512 241.913 17.7638 241.766 18.1073L237.478 27.987C232.503 28.7558 227.626 30.3097 223.027 32.6815L213.748 27.2346C213.421 27.0383 213.012 27.0874 212.717 27.3327L202.898 35.7239C202.604 35.9693 202.505 36.3619 202.653 36.7217L206.597 46.7323C203.536 50.9034 201.229 55.4834 199.707 60.276L189.282 62.9913C188.922 63.0894 188.66 63.4002 188.628 63.7764L187.629 76.6495C187.597 77.0257 187.809 77.3856 188.153 77.5328L198.038 81.8184C198.807 86.7909 200.362 91.6654 202.734 96.2617L197.285 105.536C197.088 105.863 197.138 106.272 197.383 106.567L205.778 116.381C206.024 116.675 206.417 116.774 206.777 116.626L216.792 112.684C220.965 115.743 225.548 118.049 230.343 119.571L233.059 129.99C233.158 130.35 233.469 130.628 233.845 130.644L246.724 131.642C247.101 131.675 247.461 131.462 247.608 131.119L251.896 121.239C256.871 120.47 261.748 118.916 266.346 116.545L275.626 121.992C275.953 122.188 276.362 122.139 276.657 121.893L286.476 113.502C286.77 113.257 286.869 112.864 286.721 112.504L282.777 102.494C285.838 98.3227 288.145 93.7427 289.667 88.9501L300.092 86.2348C300.452 86.1367 300.73 85.8259 300.746 85.4497L301.745 72.5766Z" fill="#757D89"/>
<path opacity="0.7" d="M244.679 86.9055C242.158 86.9055 239.704 86.1367 237.609 84.6482C232.077 80.7388 230.752 73.051 234.679 67.5223C236.578 64.8397 239.409 63.0568 242.649 62.5007C245.89 61.9445 249.146 62.6806 251.83 64.578C254.514 66.4754 256.298 69.3052 256.854 72.5439C257.411 75.7826 256.674 79.0377 254.776 81.7203C252.878 84.4028 250.046 86.1857 246.806 86.7419C246.086 86.84 245.382 86.9055 244.679 86.9055ZM244.728 63.9728C244.122 63.9728 243.517 64.0219 242.911 64.1364C240.113 64.6107 237.658 66.1647 236.021 68.471C232.634 73.2636 233.763 79.9046 238.558 83.3069C240.882 84.9426 243.697 85.5805 246.495 85.1062C249.294 84.6318 251.748 83.0779 253.385 80.7715C255.022 78.4488 255.66 75.6354 255.185 72.8383C254.711 70.0413 253.156 67.5877 250.848 65.952C249.032 64.6434 246.904 63.9728 244.728 63.9728Z" fill="white"/>
<path opacity="0.7" d="M244.483 106.599C243.648 106.599 242.797 106.567 241.946 106.501C233.42 105.831 225.679 101.905 220.115 95.411C215.107 89.5715 212.423 82.2926 212.423 74.6702C212.423 73.836 212.456 72.9854 212.521 72.1348C213.192 63.6127 217.12 55.8758 223.617 50.3144C230.114 44.7693 238.378 42.0704 246.905 42.741C255.431 43.4117 263.172 47.3374 268.736 53.8312C270.225 55.565 271.518 57.4461 272.598 59.4417L271.142 60.2268C270.127 58.3457 268.883 56.5464 267.476 54.9107C262.206 48.7604 254.858 45.0147 246.774 44.3931C238.689 43.7715 230.85 46.3232 224.697 51.5902C218.543 56.8572 214.796 64.2016 214.174 72.282C214.108 73.0835 214.076 73.885 214.076 74.6865C214.076 81.9 216.612 88.8027 221.358 94.3478C226.628 100.498 233.976 104.244 242.06 104.865C250.145 105.487 257.984 102.935 264.137 97.6683C268.31 94.1025 271.453 89.457 273.187 84.2718L274.758 84.7952C272.925 90.2585 269.636 95.1493 265.217 98.9115C259.375 103.917 252.092 106.599 244.483 106.599Z" fill="white"/>
<path d="M371.755 128.616C371.657 128.616 371.559 128.583 371.477 128.534C371.215 128.387 371.133 128.044 371.281 127.782C371.657 127.16 372.001 126.522 372.328 125.885C372.475 125.606 372.803 125.508 373.065 125.656C373.343 125.803 373.441 126.13 373.294 126.392C372.95 127.046 372.59 127.7 372.214 128.338C372.132 128.518 371.952 128.616 371.755 128.616Z" fill="#757D89"/>
<path d="M336.195 147.051C336.178 147.051 336.162 147.051 336.145 147.051C334.656 146.936 333.151 146.724 331.678 146.429C331.383 146.364 331.187 146.086 331.236 145.775C331.301 145.48 331.58 145.284 331.89 145.333C333.314 145.611 334.771 145.808 336.227 145.922C336.538 145.938 336.751 146.216 336.735 146.511C336.735 146.838 336.489 147.051 336.195 147.051ZM343.412 146.936C343.133 146.936 342.904 146.724 342.872 146.445C342.839 146.151 343.052 145.873 343.363 145.84C344.819 145.677 346.259 145.431 347.683 145.104C347.978 145.039 348.272 145.219 348.338 145.513C348.403 145.808 348.223 146.102 347.929 146.167C346.472 146.511 344.983 146.756 343.494 146.936C343.444 146.936 343.428 146.936 343.412 146.936ZM324.903 144.384C324.837 144.384 324.755 144.368 324.69 144.352C323.299 143.796 321.94 143.141 320.631 142.422C320.369 142.274 320.271 141.947 320.418 141.669C320.566 141.407 320.893 141.309 321.171 141.457C322.448 142.16 323.773 142.798 325.115 143.338C325.393 143.452 325.541 143.779 325.426 144.057C325.328 144.254 325.115 144.384 324.903 144.384ZM354.622 143.894C354.409 143.894 354.213 143.779 354.115 143.567C353.984 143.289 354.115 142.961 354.393 142.847C355.718 142.258 357.028 141.571 358.271 140.835C358.533 140.671 358.877 140.77 359.024 141.031C359.188 141.293 359.09 141.636 358.828 141.784C357.535 142.552 356.193 143.256 354.835 143.861C354.769 143.877 354.687 143.894 354.622 143.894ZM314.936 138.414C314.805 138.414 314.691 138.365 314.576 138.283C313.43 137.335 312.334 136.288 311.287 135.208C311.074 134.979 311.09 134.636 311.303 134.423C311.532 134.21 311.876 134.227 312.088 134.439C313.087 135.503 314.167 136.5 315.28 137.433C315.509 137.629 315.542 137.972 315.345 138.201C315.263 138.332 315.1 138.414 314.936 138.414ZM364.376 137.58C364.228 137.58 364.081 137.514 363.967 137.4C363.77 137.171 363.787 136.827 364.016 136.615L364.343 136.32C365.309 135.437 366.241 134.488 367.109 133.523C367.305 133.294 367.665 133.278 367.894 133.474C368.123 133.671 368.14 134.03 367.943 134.259C367.043 135.257 366.094 136.239 365.096 137.138L364.768 137.433C364.638 137.531 364.507 137.58 364.376 137.58ZM307.261 129.696C307.081 129.696 306.901 129.614 306.802 129.434C306.001 128.175 305.248 126.85 304.593 125.508C304.462 125.23 304.577 124.903 304.855 124.772C305.133 124.641 305.46 124.756 305.591 125.034C306.23 126.343 306.95 127.618 307.735 128.845C307.899 129.107 307.817 129.434 307.572 129.598C307.473 129.679 307.359 129.696 307.261 129.696Z" fill="#757D89"/>
<path d="M302.58 119.047C302.334 119.047 302.105 118.884 302.039 118.638C301.843 117.919 301.679 117.183 301.532 116.463C301.467 116.168 301.663 115.874 301.958 115.809C302.252 115.743 302.547 115.939 302.612 116.234C302.76 116.937 302.923 117.657 303.103 118.344C303.185 118.638 303.005 118.933 302.71 119.015C302.661 119.047 302.629 119.047 302.58 119.047Z" fill="#757D89"/>
<path d="M307.112 89.1627C307.014 89.1627 306.916 89.13 306.818 89.0809C306.556 88.9173 306.49 88.5738 306.638 88.3285C307.03 87.7069 307.456 87.069 307.882 86.4801C308.062 86.2348 308.405 86.1693 308.651 86.3493C308.896 86.5292 308.962 86.8727 308.782 87.118C308.356 87.7069 307.963 88.3121 307.571 88.9173C307.472 89.0809 307.292 89.1627 307.112 89.1627Z" fill="#757D89"/>
<path d="M374.047 94.5279C373.834 94.5279 373.621 94.397 373.539 94.1844C372.983 92.8758 372.345 91.5673 371.625 90.3241C371.477 90.0624 371.559 89.7189 371.837 89.5717C372.099 89.4245 372.443 89.5063 372.59 89.7843C373.327 91.0602 373.981 92.4015 374.554 93.7591C374.669 94.0372 374.538 94.3643 374.259 94.4788C374.178 94.5115 374.112 94.5279 374.047 94.5279ZM368.024 84.8118C367.861 84.8118 367.713 84.7463 367.599 84.6155C367.321 84.2883 367.026 83.9612 366.731 83.634C366.06 82.898 365.357 82.1783 364.62 81.5076C364.391 81.295 364.391 80.9515 364.588 80.7225C364.8 80.4935 365.144 80.4935 365.373 80.6898C366.126 81.3931 366.846 82.1292 367.55 82.8816C367.861 83.2088 368.155 83.5523 368.433 83.8958C368.63 84.1248 368.597 84.4683 368.368 84.6645C368.286 84.7627 368.155 84.8118 368.024 84.8118ZM312.988 81.982C312.84 81.982 312.693 81.9329 312.595 81.8184C312.382 81.6058 312.399 81.2459 312.611 81.0333C312.84 80.8206 313.053 80.608 313.282 80.3953C314.15 79.6102 315.05 78.8578 315.983 78.1544C316.228 77.9745 316.572 78.0235 316.752 78.2525C316.932 78.4979 316.883 78.8414 316.654 79.0213C315.753 79.7083 314.87 80.4444 314.035 81.1968C313.806 81.3931 313.593 81.6058 313.381 81.8184C313.266 81.9329 313.119 81.982 312.988 81.982ZM359.4 77.3202C359.302 77.3202 359.203 77.2875 359.105 77.2384C357.894 76.4696 356.634 75.7663 355.341 75.1611C355.063 75.0302 354.948 74.7031 355.079 74.425C355.21 74.1469 355.538 74.0324 355.816 74.1633C357.141 74.8012 358.451 75.5209 359.694 76.3061C359.956 76.4696 360.022 76.8131 359.858 77.0585C359.76 77.2221 359.58 77.3202 359.4 77.3202ZM322.332 75.4064C322.136 75.4064 321.94 75.2919 321.841 75.0956C321.71 74.8176 321.825 74.4904 322.087 74.3596C323.396 73.7053 324.771 73.1164 326.162 72.6257C326.456 72.5276 326.767 72.6748 326.866 72.9528C326.964 73.2309 326.816 73.558 326.538 73.6562C325.196 74.1469 323.854 74.7031 322.578 75.341C322.496 75.3901 322.414 75.4064 322.332 75.4064ZM348.926 72.7402C348.877 72.7402 348.828 72.7402 348.779 72.7238C347.404 72.364 345.98 72.0695 344.556 71.8569C344.262 71.8078 344.049 71.5298 344.098 71.2353C344.147 70.9409 344.425 70.7119 344.72 70.7773C346.177 70.99 347.633 71.2844 349.057 71.6606C349.351 71.7424 349.531 72.0368 349.45 72.3313C349.401 72.5766 349.171 72.7402 348.926 72.7402ZM333.215 71.9387C332.953 71.9387 332.708 71.7424 332.675 71.4807C332.626 71.1863 332.839 70.8918 333.133 70.8591C334.59 70.6301 336.063 70.4829 337.536 70.4175C337.847 70.4175 338.092 70.6465 338.108 70.9409C338.125 71.2517 337.879 71.4971 337.585 71.5134C336.145 71.5788 334.704 71.7097 333.297 71.9387C333.281 71.9387 333.248 71.9387 333.215 71.9387Z" fill="#757D89"/>
<path d="M376.583 103.459C376.321 103.459 376.076 103.263 376.043 103.001C375.929 102.297 375.798 101.578 375.65 100.874C375.585 100.58 375.781 100.286 376.076 100.22C376.37 100.155 376.665 100.351 376.73 100.645C376.894 101.365 377.025 102.101 377.14 102.837C377.189 103.132 376.976 103.426 376.681 103.459C376.649 103.459 376.616 103.459 376.583 103.459Z" fill="#757D89"/>
<path d="M368.254 107.924C368.27 107.728 368.156 107.548 367.976 107.466L362.902 105.258C362.51 102.706 361.708 100.204 360.48 97.832L363.279 93.0721C363.377 92.9086 363.361 92.6959 363.23 92.5487L358.909 87.5107C358.778 87.3635 358.582 87.3144 358.402 87.3798L353.263 89.4081C351.119 87.8378 348.763 86.6601 346.308 85.875L344.917 80.5262C344.868 80.3463 344.704 80.1991 344.508 80.1827L337.896 79.6756C337.7 79.6593 337.52 79.7738 337.438 79.9537L335.229 85.0244C332.676 85.417 330.172 86.2185 327.799 87.4453L323.037 84.6482C322.873 84.5501 322.66 84.5664 322.513 84.6973L317.472 89.0156C317.325 89.1464 317.276 89.3427 317.341 89.5226L319.371 94.6588C317.8 96.8016 316.621 99.157 315.836 101.611L310.484 103.001C310.304 103.05 310.157 103.214 310.141 103.41L309.633 110.018C309.617 110.214 309.732 110.394 309.912 110.476L314.985 112.684C315.378 115.236 316.18 117.739 317.407 120.11L314.608 124.87C314.51 125.034 314.527 125.247 314.658 125.394L318.978 130.432C319.109 130.579 319.305 130.628 319.485 130.563L324.624 128.534C326.768 130.105 329.124 131.282 331.579 132.068L332.97 137.416C333.019 137.596 333.183 137.743 333.379 137.76L339.991 138.267C340.187 138.283 340.367 138.169 340.449 137.989L342.659 132.918C345.212 132.526 347.715 131.724 350.088 130.497L354.851 133.294C355.014 133.392 355.227 133.376 355.374 133.245L360.415 128.927C360.562 128.796 360.611 128.6 360.546 128.42L358.517 123.284C360.088 121.141 361.266 118.786 362.051 116.332L367.403 114.942C367.583 114.893 367.73 114.729 367.747 114.533L368.254 107.924Z" fill="#757D89"/>
<path opacity="0.7" d="M338.944 115.678C337.569 115.678 336.227 115.252 335.081 114.435C332.054 112.292 331.334 108.104 333.478 105.078C334.509 103.606 336.063 102.641 337.831 102.347C339.598 102.036 341.382 102.445 342.839 103.492C344.312 104.522 345.277 106.076 345.572 107.843C345.883 109.609 345.474 111.392 344.426 112.848C343.395 114.32 341.84 115.285 340.073 115.58C339.697 115.645 339.32 115.678 338.944 115.678ZM338.96 103.901C337.373 103.901 335.802 104.637 334.82 106.043C333.199 108.317 333.756 111.49 336.031 113.093C337.127 113.878 338.485 114.173 339.811 113.944C341.153 113.715 342.315 112.979 343.084 111.883C343.87 110.787 344.164 109.429 343.935 108.104C343.706 106.763 342.97 105.602 341.873 104.833C340.989 104.211 339.975 103.901 338.96 103.901Z" fill="#D8D8D8"/>
<path opacity="0.7" d="M338.845 125.803C338.403 125.803 337.962 125.786 337.503 125.754C333.019 125.41 328.944 123.333 326.015 119.914C323.298 116.741 321.973 112.864 321.973 108.988C321.973 104.244 323.969 99.5168 327.864 96.1963C334.918 90.1605 345.572 90.9947 351.61 98.0447C351.659 98.0937 351.709 98.1592 351.758 98.2082C352.412 98.9934 353.001 99.8276 353.492 100.711C353.492 100.711 353.492 100.711 353.492 100.727C353.492 100.744 353.509 100.76 353.509 100.76C353.525 100.776 353.541 100.809 353.541 100.825C353.541 100.842 353.558 100.858 353.558 100.858C353.574 100.891 353.607 100.94 353.623 100.973L352.167 101.758C351.659 100.809 351.038 99.9094 350.334 99.0915C346.488 94.5933 340.547 92.9085 335.147 94.2334C332.921 94.7732 330.794 95.8364 328.928 97.4231C325.426 100.416 323.626 104.686 323.626 108.971C323.626 112.455 324.82 115.972 327.259 118.835C332.708 125.197 342.298 125.95 348.665 120.503C350.759 118.72 352.314 116.397 353.181 113.797L354.752 114.32C353.787 117.199 352.052 119.767 349.728 121.746C346.684 124.38 342.838 125.803 338.845 125.803Z" fill="#D8D8D8"/>
<path d="M231.554 184.885C232.912 183.609 234.745 182.988 236.61 183.151C256.445 184.934 293.447 175.381 317.619 150.649C319.304 148.932 322.365 149.897 324.279 151.336C351.168 171.423 395.747 175.578 411.228 176.428C414.436 176.608 417.022 179.078 417.365 182.268C431.439 318.114 342.936 367.349 324.59 376.035C322.577 376.983 320.221 376.852 318.339 375.675C226.857 318.719 230.768 244.654 229.508 189.776C229.442 187.944 230.195 186.144 231.554 184.885Z" fill="url(#paint3_linear)"/>
<path opacity="0.61" d="M322.086 366.188C321.677 366.188 321.268 366.073 320.908 365.844C285.837 343.435 262.975 316.642 251.028 283.944C240.358 254.746 239.834 224.993 239.376 198.756L239.31 195.256C239.294 194.667 239.523 194.127 239.932 193.702C240.341 193.276 240.898 193.047 241.487 193.047C263.204 193.047 295.803 183.462 319.713 162.051C320.45 161.396 321.53 161.314 322.364 161.854C348.631 179.275 386.107 184.345 406.106 185.817C407.17 185.899 408.004 186.717 408.102 187.797C412.75 240.81 401.72 285.629 375.323 321.026C355.602 347.459 332.216 361.231 323.084 365.926C322.774 366.106 322.43 366.188 322.086 366.188ZM322.675 365.157L322.872 365.55L322.675 365.157C331.758 360.495 354.997 346.804 374.619 320.519C400.885 285.302 411.866 240.679 407.235 187.895C407.186 187.273 406.679 186.783 406.057 186.733C385.976 185.261 348.32 180.158 321.89 162.623C321.399 162.296 320.761 162.345 320.335 162.738C296.245 184.313 263.4 193.963 241.536 193.963C241.16 193.963 240.832 194.094 240.603 194.356C240.358 194.601 240.227 194.928 240.243 195.272L240.309 198.772C240.767 224.944 241.291 254.599 251.912 283.666C263.793 316.168 286.541 342.813 321.432 365.124C321.775 365.337 322.266 365.37 322.675 365.157Z" fill="white"/>
<path opacity="0.61" d="M354.065 236.165H349.924C347.862 236.165 346.209 234.496 346.209 232.452V218.319C346.209 213.265 342.102 209.159 337.045 209.159H311.417C306.36 209.159 302.252 213.265 302.252 218.319V232.452C302.252 234.513 300.583 236.165 298.537 236.165H294.397C292.335 236.165 290.682 234.496 290.682 232.452V218.319C290.682 206.869 299.961 197.594 311.417 197.594H337.045C348.5 197.594 357.779 206.869 357.779 218.319V232.452C357.796 234.496 356.127 236.165 354.065 236.165Z" fill="white"/>
<path opacity="0.61" d="M359.203 239.501H289.274C284.986 239.501 281.517 242.969 281.517 247.255V300.89C281.517 305.175 284.986 308.643 289.274 308.643H359.203C363.49 308.643 366.96 305.175 366.96 300.89V247.255C366.96 242.969 363.49 239.501 359.203 239.501ZM334.246 291.337C334.688 293.137 333.313 294.887 331.447 294.887H317.029C315.164 294.887 313.805 293.153 314.231 291.337L317.602 277.336C313.625 274.964 311.04 270.531 311.301 265.509C311.645 259.016 316.915 253.683 323.412 253.291C330.94 252.816 337.208 258.787 337.208 266.213C337.208 270.94 334.671 275.078 330.891 277.336L334.246 291.337Z" fill="white"/>
<path d="M56.1821 221.966C56.1821 221.966 61.8445 222.261 62.5482 233.907C62.5482 233.907 49.4233 245.668 31.6833 248.481C30.3577 248.694 33.5489 239.387 34.0235 238.127C36.2983 232.14 43.499 228.28 56.1821 221.966Z" fill="#41434B"/>
<path d="M119.974 208.276H108.028C108.028 208.276 71.3531 167.792 47.2797 163.702C47.2797 163.702 30.538 185.065 48.1798 224.993C49.6036 228.199 53.564 229.638 56.5261 227.741C57.4098 227.168 58.0481 226.416 58.4409 225.467L57.0171 191.379C57.0171 191.379 88.3076 218.728 93.7409 224.011C99.1741 229.278 126.815 226.056 119.974 208.276Z" fill="url(#paint4_linear)"/>
<path d="M4.43563 293.283C9.44342 288.9 17.4297 283.976 28.9509 282.57L32.8458 284.958C32.8458 284.958 30.3583 288.622 25.8251 292.482C21.652 294.903 15.2204 298.191 9.86892 298.894C4.66475 299.581 3.89558 296.44 4.43563 293.283Z" fill="#41434B"/>
<path d="M34.0239 238.127C37.1169 239.125 38.4589 243.493 46.2979 240.597C53.875 237.8 59.5047 234.202 62.4014 232.124C62.4668 232.68 62.5159 233.269 62.565 233.907C62.565 233.907 48.72 247.075 30.98 249.872C29.6544 250.084 28.5906 248.76 29.0652 247.5C29.9162 245.243 31.4709 241.808 34.0239 238.127Z" fill="#CECECE"/>
<path d="M0.654802 297.029C1.63672 295.901 2.89685 294.625 4.43519 293.283C3.9115 296.44 4.68067 299.581 9.86848 298.894C15.2036 298.191 21.6515 294.903 25.8247 292.482C20.6041 296.931 12.6342 301.675 2.60228 301.397C0.360226 301.331 -0.818077 298.698 0.654802 297.029Z" fill="#CECECE"/>
<path d="M119.532 216.912L63.5625 217.517C63.5625 217.517 31.601 243.95 25.8077 284.254C25.8077 284.254 24.8421 287.215 30.6191 287.722C30.6191 287.722 49.9465 275.111 62.5478 252.8C77.9967 225.451 108.6 237.767 108.6 237.767C123.312 241.006 135.014 239.812 143.573 226.628L119.532 216.912Z" fill="url(#paint5_linear)"/>
<path d="M118.207 171.848C118.207 171.848 112.184 202.027 82.6613 213.968L72.1548 212.725L69.6836 216.667L94.3134 217.452C94.3134 217.452 115.376 209.11 126.52 186.406C126.897 185.67 133.05 172.993 118.207 171.848Z" fill="url(#paint6_linear)"/>
<path d="M114.983 216.421C114.983 216.421 121.84 197.807 123.313 179.716C123.313 179.716 118.305 175.414 115.163 173.549C114.148 172.944 113.772 171.668 114.279 170.621C116.587 165.845 130.514 147.132 131.561 146.871C137.24 145.464 160.495 134.407 176.877 156.799C183.914 166.417 175.486 196.008 143.59 226.645C133.312 228.297 123.722 225.352 114.983 216.421Z" fill="url(#paint7_linear)"/>
<path d="M141.381 183.789C141.381 183.789 122.348 206.313 98.0126 209.617C98.0126 209.617 91.7283 203.892 87.0478 205.936C82.3674 207.981 75.9521 217.01 75.9521 217.01H107.194C107.194 217.01 136.733 215.963 151.511 198.069C150.333 191.787 146.765 188.058 141.381 183.789Z" fill="url(#paint8_linear)"/>
<path d="M152.493 131.053L156.666 144.941C156.862 145.579 156.617 146.266 156.077 146.642C154.064 148.016 148.827 150.747 141.643 148.098C140.824 147.787 140.251 147.034 140.186 146.151L139.204 134.063L152.493 131.053Z" fill="url(#paint9_linear)"/>
<path d="M128.108 119.816C128.108 119.816 130.154 134.21 135.686 138.643C141.217 143.076 152.002 139.739 155.635 128.894L148.385 110.345L128.108 119.816Z" fill="url(#paint10_linear)"/>
<path d="M149.203 122.335C148.777 122.466 148.336 122.204 148.27 121.763C148.074 120.438 147.566 117.804 146.568 116.021C146.568 116.021 147.092 114.14 141.789 116.986C136.487 119.832 128.517 124.036 123.837 121.534C119.271 119.096 114.639 106.861 126.717 109.119C127.175 109.2 127.601 108.84 127.568 108.366C127.421 106.354 127.617 101.725 132.314 100.237C136.7 98.8462 139.106 100.825 140.104 102.02C140.398 102.379 140.938 102.363 141.217 102.003C142.526 100.286 146.11 96.638 151.363 98.9444C155.7 100.858 156.371 103.524 156.289 105.176C156.273 105.716 156.813 106.076 157.304 105.847C158.629 105.242 160.757 104.915 162.803 107.483C165.634 111.016 161.592 114.091 160.38 114.893C160.184 115.023 160.053 115.236 160.053 115.481C160.037 117.313 159.759 125.345 155.733 129.876C155.389 130.268 154.734 130.154 154.538 129.663L151.445 122.286C151.298 121.943 150.921 121.763 150.561 121.877L149.203 122.335Z" fill="#41434B"/>
<path d="M149.138 123.824C149.138 123.824 151.036 116.119 153.9 118.622C156.78 121.125 153.147 126.621 149.858 127.667L149.138 123.824Z" fill="url(#paint11_linear)"/>
<path d="M77.5222 218.76L63.4971 171.995C62.9243 170.082 61.2223 168.74 59.2421 168.593L40.2911 167.301C38.36 167.17 36.9362 169.051 37.5744 170.867L53.2524 215.522C53.7597 216.961 55.0526 217.975 56.5746 218.123L75.231 220.2L77.5222 218.76Z" fill="#41434B"/>
<path d="M51.649 187.845C52.6964 189.955 54.5129 191.199 55.6912 190.61C56.8695 190.021 56.9841 187.829 55.9367 185.719C54.8893 183.609 53.0728 182.366 51.8945 182.955C50.7162 183.543 50.6016 185.719 51.649 187.845Z" fill="#CECECE"/>
<path d="M75.2316 220.2C75.2644 220.2 75.2971 220.2 75.3298 220.2L115.081 218.188C116.063 218.139 116.816 217.305 116.767 216.323C116.718 215.342 115.883 214.573 114.901 214.638L75.1498 216.65C74.1679 216.699 73.4151 217.534 73.4642 218.515C73.5133 219.464 74.2988 220.2 75.2316 220.2Z" fill="#41434B"/>
<path d="M123.313 179.994C123.165 179.994 123.034 179.879 123.034 179.716C123.002 171.325 126.242 160.234 126.275 160.12C126.324 159.973 126.471 159.891 126.618 159.94C126.766 159.989 126.848 160.136 126.798 160.284C126.766 160.398 123.558 171.423 123.591 179.716C123.591 179.863 123.46 179.994 123.313 179.994Z" fill="url(#paint12_linear)"/>
<path d="M141.38 184.067C141.315 184.067 141.266 184.051 141.217 184.002C141.102 183.903 141.069 183.74 141.168 183.609C141.249 183.495 149.89 172.519 152.852 165.027C152.901 164.88 153.065 164.815 153.212 164.88C153.36 164.929 153.425 165.093 153.36 165.24C150.365 172.797 141.691 183.838 141.593 183.953C141.544 184.034 141.462 184.067 141.38 184.067Z" fill="url(#paint13_linear)"/>
<path d="M153.638 200.948L152.067 198.723C151.985 198.592 152.001 198.429 152.132 198.347C152.263 198.265 152.427 198.281 152.508 198.412L153.818 200.277C166.075 194.912 173.669 180.239 173.734 180.092C173.8 179.961 173.963 179.896 174.111 179.978C174.242 180.043 174.307 180.207 174.225 180.354C174.143 180.501 166.386 195.501 153.818 200.882L153.638 200.948Z" fill="url(#paint14_linear)"/>
</g>
<defs>
<linearGradient id="paint0_linear" x1="2.66041" y1="264.652" x2="458.004" y2="264.652" gradientUnits="userSpaceOnUse">
<stop offset="0.00359712" stop-color="#E38DDD"/>
<stop offset="1" stop-color="#9571F6"/>
</linearGradient>
<linearGradient id="paint1_linear" x1="57.3268" y1="363.329" x2="320.421" y2="363.329" gradientUnits="userSpaceOnUse">
<stop stop-color="#40447E"/>
<stop offset="0.9964" stop-color="#3C3B6B"/>
</linearGradient>
<linearGradient id="paint2_linear" x1="40.5881" y1="449.225" x2="333.47" y2="449.225" gradientUnits="userSpaceOnUse">
<stop stop-color="#40447E"/>
<stop offset="0.9964" stop-color="#3C3B6B"/>
</linearGradient>
<linearGradient id="paint3_linear" x1="522.447" y1="46.9665" x2="446.456" y2="121.342" gradientUnits="userSpaceOnUse">
<stop stop-color="#FF928E"/>
<stop offset="1" stop-color="#FE7062"/>
</linearGradient>
<linearGradient id="paint4_linear" x1="40.0946" y1="196.135" x2="121.057" y2="196.135" gradientUnits="userSpaceOnUse">
<stop stop-color="#444B8C"/>
<stop offset="0.9964" stop-color="#3E4177"/>
</linearGradient>
<linearGradient id="paint5_linear" x1="25.748" y1="252.316" x2="143.577" y2="252.316" gradientUnits="userSpaceOnUse">
<stop stop-color="#444B8C"/>
<stop offset="0.9964" stop-color="#3E4177"/>
</linearGradient>
<linearGradient id="paint6_linear" x1="85.9748" y1="181.538" x2="112.325" y2="212.89" gradientUnits="userSpaceOnUse">
<stop stop-color="#FEBBBA"/>
<stop offset="1" stop-color="#FF928E"/>
</linearGradient>
<linearGradient id="paint7_linear" x1="216.707" y1="104.404" x2="137.411" y2="187.046" gradientUnits="userSpaceOnUse">
<stop stop-color="#FF928E"/>
<stop offset="1" stop-color="#FE7062"/>
</linearGradient>
<linearGradient id="paint8_linear" x1="116.719" y1="210.052" x2="64.0521" y2="137.965" gradientUnits="userSpaceOnUse">
<stop stop-color="#FEBBBA"/>
<stop offset="1" stop-color="#FF928E"/>
</linearGradient>
<linearGradient id="paint9_linear" x1="148.958" y1="150.334" x2="147.019" y2="132.872" gradientUnits="userSpaceOnUse">
<stop stop-color="#FEBBBA"/>
<stop offset="1" stop-color="#FF928E"/>
</linearGradient>
<linearGradient id="paint10_linear" x1="138.604" y1="135.102" x2="147.153" y2="106.893" gradientUnits="userSpaceOnUse">
<stop stop-color="#FEBBBA"/>
<stop offset="1" stop-color="#FF928E"/>
</linearGradient>
<linearGradient id="paint11_linear" x1="147.467" y1="137.788" x2="156.015" y2="109.579" gradientUnits="userSpaceOnUse">
<stop stop-color="#FEBBBA"/>
<stop offset="1" stop-color="#FF928E"/>
</linearGradient>
<linearGradient id="paint12_linear" x1="132.022" y1="60.0031" x2="119.638" y2="250.805" gradientUnits="userSpaceOnUse">
<stop stop-color="#E1473D"/>
<stop offset="1" stop-color="#E9605A"/>
</linearGradient>
<linearGradient id="paint13_linear" x1="154.59" y1="61.468" x2="142.206" y2="252.27" gradientUnits="userSpaceOnUse">
<stop stop-color="#E1473D"/>
<stop offset="1" stop-color="#E9605A"/>
</linearGradient>
<linearGradient id="paint14_linear" x1="171.381" y1="62.5579" x2="158.997" y2="253.359" gradientUnits="userSpaceOnUse">
<stop stop-color="#E1473D"/>
<stop offset="1" stop-color="#E9605A"/>
</linearGradient>
<clipPath id="clip0">
<rect width="458" height="458" fill="white"/>
</clipPath>
</defs>
</svg>
