<svg width="453" height="432" viewBox="0 0 453 432" fill="none" xmlns="http://www.w3.org/2000/svg">
<g clip-path="url(#clip0)">
<path d="M290.637 61.7234C263.1 55.8604 234.482 53.0479 206.491 54.8436C181.68 56.4229 153.582 60.7498 133.616 76.2618C124.098 83.6609 112.764 96.9229 109.649 108.649C109.649 108.649 93.2739 170.307 60.5243 183.526C27.7747 196.745 5.01866 422.243 253.409 400.219C253.409 400.219 399.312 394.442 408.094 228.223C410.214 188.07 409.024 143.935 383.607 110.358C364.118 84.6344 336.841 73.1897 305.476 65.1849C300.565 63.9301 295.612 62.7835 290.637 61.7234Z" fill="#F4F7FA"/>
<path d="M453 399.462L61.9297 396.022V406.19C61.9297 408.959 63.6386 411.296 65.9531 411.707L176.532 431.74C177.851 431.978 179.171 432.043 180.49 431.935L448.738 409.111C451.139 408.916 452.978 406.558 452.978 403.724V399.462H453Z" fill="url(#paint0_linear)"/>
<path d="M311.078 382.976L65.9749 401.582C61.5838 401.906 58.0146 398.38 58.0146 393.685V205.442C58.0146 200.748 61.5838 196.94 65.9749 196.94H311.078C314.69 196.94 317.61 200.38 317.61 204.62V374.777C317.61 379.039 314.69 382.716 311.078 382.976Z" fill="url(#paint1_linear)"/>
<path d="M314.994 382.976L69.8909 401.582C65.4998 401.906 61.9307 398.38 61.9307 393.685V205.442C61.9307 200.748 65.4998 196.94 69.8909 196.94H314.994C318.606 196.94 321.526 200.38 321.526 204.62V374.777C321.526 379.039 318.606 382.716 314.994 382.976Z" fill="url(#paint2_linear)"/>
<path d="M307.357 370.99L79.0615 387.152C75.4923 387.411 72.5938 384.49 72.5938 380.661V215.87C72.5938 212.041 75.4923 208.904 79.0615 208.904L307.357 207.887C310.342 207.865 312.743 210.7 312.743 214.183V364.284C312.743 367.767 310.342 370.774 307.357 370.99Z" fill="#B4B7C1"/>
<path d="M201.105 202.089C201.105 203.841 199.85 205.269 198.293 205.269C196.735 205.269 195.459 203.863 195.459 202.111C195.459 200.358 196.735 198.93 198.293 198.93C199.828 198.93 201.105 200.337 201.105 202.089Z" fill="white"/>
<path d="M324.77 382.132L61.9512 401.712L176.553 422.459C177.873 422.697 179.192 422.762 180.512 422.654L453 399.462L328.945 382.262C327.56 382.089 326.154 382.046 324.77 382.132Z" fill="url(#paint3_linear)"/>
<g opacity="0.75">
<path opacity="0.75" d="M119.166 221.82L94.0303 221.928V213.771H119.166V221.82Z" fill="white"/>
<path opacity="0.75" d="M250.878 221.365L135.151 221.776V213.771H250.878V221.365Z" fill="white"/>
<path opacity="0.75" d="M159.4 235.19L135.151 235.428V227.445L159.4 227.293V235.19Z" fill="white"/>
<path opacity="0.75" d="M286.677 234L174.822 235.06V227.207L286.677 226.536V234Z" fill="white"/>
<path opacity="0.75" d="M159.4 248.711L135.151 249.079V241.096L159.4 240.793V248.711Z" fill="white"/>
<path opacity="0.75" d="M286.677 246.743L174.822 248.474V240.62L286.677 239.279V246.743Z" fill="white"/>
<path opacity="0.75" d="M119.166 263.077L94.0303 263.618V255.483L119.166 255.029V263.077Z" fill="white"/>
<path opacity="0.75" d="M250.878 260.264L135.151 262.731V254.748L250.878 252.671V260.264Z" fill="white"/>
<path opacity="0.75" d="M159.4 275.733L135.151 276.382V268.399L159.4 267.815V275.733Z" fill="white"/>
<path opacity="0.75" d="M286.677 272.25L174.822 275.3V267.447L286.677 264.786V272.25Z" fill="white"/>
<path opacity="0.75" d="M159.4 289.233L135.151 290.033V282.05L159.4 281.315V289.233Z" fill="white"/>
<path opacity="0.75" d="M286.677 284.993L174.822 288.714V280.861L286.677 277.529V284.993Z" fill="white"/>
<path opacity="0.75" d="M159.4 302.733L135.151 303.685V295.702L159.4 294.836V302.733Z" fill="white"/>
<path opacity="0.75" d="M286.677 297.735L174.822 302.127V294.274L286.677 290.271V297.735Z" fill="white"/>
<path opacity="0.75" d="M198.617 314.481L175.19 315.541V307.687L198.617 306.692V314.481Z" fill="white"/>
<path opacity="0.75" d="M303.766 309.721L213.499 313.81V306.086L303.766 302.322V309.721Z" fill="white"/>
<path opacity="0.75" d="M119.166 331.81L94.0303 333.108V324.973L119.166 323.762V331.81Z" fill="white"/>
<path opacity="0.75" d="M250.878 325.082L135.151 330.988V323.005L250.878 317.488V325.082Z" fill="white"/>
<path opacity="0.75" d="M159.4 343.255L135.151 344.661V336.656L159.4 335.358V343.255Z" fill="white"/>
<path opacity="0.75" d="M286.677 335.985L174.822 342.389V334.536L286.677 328.521V335.985Z" fill="white"/>
<path opacity="0.75" d="M159.4 356.776L135.151 358.312V350.308L159.4 348.858V356.776Z" fill="white"/>
<path opacity="0.75" d="M286.677 348.728L174.822 355.803V347.95L286.677 341.264V348.728Z" fill="white"/>
<path opacity="0.75" d="M119.166 373.067L94.0303 374.798V366.663L119.166 365.019V373.067Z" fill="white"/>
<path opacity="0.75" d="M250.878 363.959L135.151 371.964V363.959L250.878 356.365V363.959Z" fill="white"/>
</g>
<path d="M271.428 242.61C271.017 241.399 270.563 240.187 270.044 238.976L271.969 238.154C272.488 239.409 272.964 240.685 273.396 241.918L271.428 242.61ZM268.443 235.428C267.88 234.281 267.275 233.113 266.647 231.966L268.464 230.928C269.113 232.096 269.741 233.308 270.325 234.476L268.443 235.428ZM59.3127 233.394C57.9715 233.372 56.652 233.329 55.3542 233.243L55.484 231.122C56.7602 231.209 58.0581 231.252 59.3559 231.274L59.3127 233.394ZM63.2928 233.351L63.2279 231.231C64.5042 231.187 65.802 231.122 67.0999 231.014L67.2729 233.113C65.9318 233.243 64.5907 233.308 63.2928 233.351ZM51.3957 232.918C50.0762 232.767 48.7567 232.572 47.4588 232.356L47.8049 230.279C49.0595 230.495 50.3357 230.668 51.6336 230.82L51.3957 232.918ZM71.1882 232.745L70.9286 230.647C72.2048 230.495 73.4811 230.3 74.779 230.106L75.1034 232.204C73.8056 232.399 72.4861 232.594 71.1882 232.745ZM43.5652 231.577C42.2673 231.274 40.9694 230.949 39.7148 230.582L40.2989 228.548C41.5102 228.916 42.7865 229.24 44.0411 229.522L43.5652 231.577ZM79.0187 231.469L78.6077 229.392C79.8623 229.132 81.1385 228.851 82.3931 228.548L82.869 230.603C81.5928 230.928 80.2949 231.209 79.0187 231.469ZM86.7194 229.63L86.157 227.596C87.3899 227.25 88.6445 226.882 89.8775 226.493L90.5048 228.505C89.2502 228.894 87.974 229.284 86.7194 229.63ZM35.9077 229.348C34.6531 228.894 33.3985 228.397 32.2088 227.877L33.0308 225.93C34.1989 226.428 35.4102 226.925 36.6216 227.358L35.9077 229.348ZM264.657 228.635C263.965 227.553 263.251 226.449 262.494 225.389L264.203 224.156C264.96 225.238 265.717 226.363 266.431 227.488L264.657 228.635ZM94.2686 227.272L93.5765 225.281C94.7878 224.87 96.0208 224.416 97.2321 223.94L97.9676 225.909C96.7562 226.384 95.5016 226.839 94.2686 227.272ZM28.5964 226.147C27.4067 225.541 26.2386 224.87 25.1138 224.178L26.1953 222.36C27.2769 223.031 28.4017 223.659 29.5482 224.243L28.5964 226.147ZM101.667 224.437L100.866 222.49C102.056 221.993 103.246 221.473 104.435 220.954L105.279 222.88C104.089 223.421 102.856 223.94 101.667 224.437ZM260.18 222.252C259.379 221.235 258.557 220.219 257.714 219.245L259.293 217.86C260.158 218.877 261.002 219.916 261.824 220.954L260.18 222.252ZM21.761 221.971C20.6794 221.192 19.5978 220.37 18.5812 219.526L19.9223 217.904C20.8957 218.726 21.934 219.505 22.9723 220.262L21.761 221.971ZM108.891 221.214L108.004 219.31C109.151 218.747 110.341 218.163 111.509 217.579L112.46 219.461C111.249 220.067 110.059 220.651 108.891 221.214ZM115.921 217.622L114.926 215.762C116.051 215.156 117.198 214.507 118.344 213.858L119.382 215.697C118.236 216.346 117.068 216.995 115.921 217.622ZM15.5961 216.822C14.6443 215.892 13.6925 214.918 12.8273 213.901L14.3847 212.495C15.2283 213.447 16.1152 214.399 17.0454 215.286L15.5961 216.822ZM255.096 216.346C254.21 215.416 253.279 214.485 252.349 213.577L253.799 212.041C254.75 212.949 255.702 213.901 256.611 214.875L255.096 216.346ZM122.8 213.685L121.74 211.868L122.086 211.673C123.103 211.046 124.12 210.461 125.136 209.856L126.175 211.695C125.18 212.279 124.163 212.885 123.146 213.49L122.8 213.685ZM249.472 210.981C248.499 210.137 247.504 209.293 246.487 208.493L247.785 206.827C248.823 207.649 249.862 208.514 250.857 209.38L249.472 210.981ZM10.2964 210.808C9.49608 209.747 8.71736 208.622 8.00353 207.497L9.75566 206.351C10.4479 207.433 11.1833 208.493 11.9404 209.531L10.2964 210.808ZM129.571 209.769L128.554 207.909C129.701 207.26 130.869 206.632 132.015 206.026L132.988 207.909C131.864 208.493 130.696 209.12 129.571 209.769ZM243.394 206.156C242.356 205.399 241.274 204.663 240.193 203.971L241.317 202.197C242.421 202.911 243.545 203.668 244.605 204.447L243.394 206.156ZM136.471 206.091L135.541 204.209C136.731 203.603 137.92 203.019 139.088 202.457L139.975 204.36C138.807 204.923 137.639 205.507 136.471 206.091ZM5.99184 203.993C5.36453 202.803 4.78049 201.591 4.26134 200.358L6.18652 199.514C6.68403 200.704 7.24644 201.872 7.85212 202.997L5.99184 203.993ZM143.523 202.738L142.679 200.812C143.869 200.272 145.102 199.731 146.292 199.233L147.092 201.18C145.902 201.678 144.691 202.197 143.523 202.738ZM236.861 201.937C235.737 201.288 234.612 200.661 233.465 200.077L234.417 198.195C235.585 198.8 236.753 199.449 237.9 200.098L236.861 201.937ZM150.704 199.687L149.947 197.719C151.18 197.243 152.413 196.767 153.646 196.312L154.36 198.303C153.127 198.757 151.916 199.211 150.704 199.687ZM229.983 198.368C228.815 197.827 227.625 197.308 226.413 196.832L227.192 194.863C228.425 195.36 229.637 195.88 230.848 196.442L229.983 198.368ZM158.016 197.026L157.367 195.014C158.621 194.603 159.898 194.192 161.131 193.824L161.736 195.858C160.503 196.204 159.249 196.615 158.016 197.026ZM2.81205 196.572C2.37943 195.296 1.99007 193.997 1.6656 192.699L3.69893 192.18C4.0234 193.435 4.39113 194.69 4.80212 195.901L2.81205 196.572ZM222.779 195.49C221.568 195.079 220.335 194.668 219.081 194.3L219.665 192.267C220.941 192.635 222.195 193.046 223.45 193.478L222.779 195.49ZM165.478 194.776L164.938 192.743C166.214 192.397 167.512 192.072 168.766 191.769L169.242 193.824C168.009 194.106 166.733 194.43 165.478 194.776ZM215.36 193.284C214.105 192.981 212.829 192.699 211.574 192.44L211.985 190.363C213.283 190.622 214.581 190.904 215.857 191.228L215.36 193.284ZM173.049 192.959L172.638 190.882C173.936 190.622 175.234 190.363 176.532 190.147L176.878 192.223C175.602 192.461 174.326 192.699 173.049 192.959ZM207.767 191.769C206.513 191.574 205.215 191.401 203.917 191.272L204.133 189.173C205.453 189.303 206.772 189.476 208.07 189.671L207.767 191.769ZM180.707 191.683L180.426 189.584C181.723 189.411 183.065 189.26 184.362 189.13L184.557 191.228C183.281 191.358 181.983 191.51 180.707 191.683ZM200.067 190.947C198.79 190.86 197.493 190.817 196.195 190.774L196.238 188.654C197.557 188.675 198.899 188.74 200.197 188.827L200.067 190.947ZM188.429 190.925L188.299 188.805C189.619 188.719 190.96 188.675 192.258 188.654L192.301 190.774C191.025 190.796 189.727 190.86 188.429 190.925ZM0.821985 188.762C0.584042 187.442 0.410992 186.101 0.281205 184.76L2.3578 184.543C2.48758 185.841 2.66063 187.118 2.87695 188.394L0.821985 188.762ZM0.0216312 180.735C0 180.238 0 179.74 0 179.243C0 178.399 0.0216312 177.534 0.0648935 176.69L2.16312 176.776C2.11985 177.598 2.09822 178.421 2.09822 179.243C2.09822 179.719 2.09822 180.195 2.11985 180.671L0.0216312 180.735ZM2.44432 172.904L0.36773 172.666C0.519148 171.346 0.713829 170.005 0.951772 168.685L3.00673 169.053C2.79042 170.329 2.59574 171.627 2.44432 172.904ZM3.80709 165.245L1.77376 164.747C2.07659 163.471 2.44432 162.195 2.83368 160.918L4.84538 161.481L4.82375 161.567C4.45602 162.757 4.10992 164.012 3.80709 165.245ZM6.07836 157.76L4.10992 157.046C4.54255 155.791 5.01843 154.536 5.51595 153.303L7.46275 154.103C6.96524 155.315 6.51098 156.548 6.07836 157.76ZM78.413 155.812C77.0286 155.769 75.6658 155.639 74.368 155.423L74.7141 153.346C75.9254 153.541 77.18 153.671 78.4563 153.714L78.413 155.812ZM82.458 155.661L82.2633 153.562C83.4963 153.433 84.7726 153.238 86.0272 152.978L86.4598 155.055C85.097 155.336 83.7559 155.531 82.458 155.661ZM70.3878 154.406C69.0683 153.93 67.7921 153.346 66.6456 152.654L67.7056 150.836C68.7439 151.464 69.8687 151.983 71.08 152.394L70.3878 154.406ZM90.3318 154.017L89.7045 152.005C90.9158 151.615 92.1055 151.183 93.2952 150.663L94.1172 152.61C92.8626 153.151 91.608 153.606 90.3318 154.017ZM97.7296 150.858L96.7346 148.997C97.8594 148.392 98.9626 147.721 100.023 147.007L101.191 148.759C100.066 149.517 98.8977 150.231 97.7296 150.858ZM8.97694 150.512L7.07339 149.625C7.61417 148.413 8.19821 147.202 8.80389 146.012L10.6642 146.985C10.0801 148.154 9.51772 149.322 8.97694 150.512ZM63.3361 150.144C62.341 149.192 61.4325 148.089 60.6754 146.921L62.4276 145.774C63.0981 146.812 63.8985 147.764 64.7854 148.63L63.3361 150.144ZM104.414 146.38L103.094 144.735C104.089 143.913 105.041 143.048 105.928 142.161L107.399 143.654C106.469 144.606 105.452 145.514 104.414 146.38ZM12.5244 143.546L10.7074 142.485C11.3564 141.317 12.0486 140.171 12.7624 139.046L14.5361 140.171C13.8223 141.296 13.1518 142.421 12.5244 143.546ZM58.8152 143.199C58.3393 141.945 57.9715 140.603 57.7336 139.197L59.7886 138.808C60.0265 140.084 60.351 141.296 60.7836 142.442L58.8152 143.199ZM110.103 140.647L108.48 139.305C109.281 138.31 110.038 137.25 110.708 136.19L112.46 137.336C111.747 138.461 110.968 139.565 110.103 140.647ZM16.656 136.947L14.9471 135.735C15.7042 134.654 16.5046 133.55 17.3049 132.512L18.9705 133.81C18.1702 134.827 17.3915 135.887 16.656 136.947ZM57.2793 135.108C57.2577 134.74 57.2577 134.351 57.2577 133.983C57.2577 133.031 57.301 132.036 57.3875 131.041L59.4641 131.214C59.3776 132.166 59.3559 133.096 59.3559 133.983C59.3559 134.351 59.3559 134.697 59.3776 135.043L57.2793 135.108ZM114.451 133.767L112.569 132.836C113.131 131.69 113.607 130.5 114.018 129.288L116.008 129.981C115.554 131.279 115.035 132.555 114.451 133.767ZM21.3932 130.76L19.7925 129.397C20.6361 128.38 21.523 127.385 22.4315 126.411L23.9673 127.86C23.0805 128.791 22.2152 129.764 21.3932 130.76ZM59.9616 127.363L57.885 127.038C58.1013 125.697 58.3609 124.377 58.6421 123.079L60.6754 123.555C60.3942 124.788 60.1563 126.065 59.9616 127.363ZM117.068 126.043L115.013 125.61C115.273 124.377 115.446 123.101 115.554 121.824L117.63 121.997C117.544 123.36 117.349 124.723 117.068 126.043ZM26.6712 125.048L25.2003 123.534C26.1305 122.603 27.1039 121.673 28.0989 120.786L29.4833 122.365C28.5315 123.231 27.5797 124.139 26.6712 125.048ZM32.4468 119.834L31.1273 118.19C32.1439 117.346 33.2038 116.524 34.2638 115.723L35.5184 117.411C34.4801 118.19 33.4418 119.012 32.4468 119.834ZM61.6921 119.812L59.702 119.185C60.0914 117.909 60.5457 116.61 61.0432 115.377L62.99 116.156C62.5141 117.346 62.0815 118.579 61.6921 119.812ZM115.532 118.082C115.402 116.827 115.121 115.615 114.71 114.469L116.679 113.755C117.133 115.053 117.457 116.437 117.609 117.844L115.532 118.082ZM38.6549 115.161L37.4868 113.409C38.5684 112.673 39.6932 111.937 40.818 111.245L41.9212 113.041C40.818 113.711 39.7148 114.425 38.6549 115.161ZM64.5474 112.63L62.6655 111.678C63.2495 110.466 63.8985 109.276 64.5907 108.13L66.3861 109.233C65.7371 110.336 65.1098 111.483 64.5474 112.63ZM113.109 111.159C112.46 110.142 111.66 109.19 110.773 108.281L112.244 106.767C113.261 107.762 114.148 108.844 114.883 109.99L113.109 111.159ZM45.274 111.05L44.2574 109.211C45.4038 108.562 46.5935 107.935 47.7616 107.351L48.6918 109.233C47.5453 109.817 46.3989 110.423 45.274 111.05ZM52.196 107.567L51.3524 105.642C52.5637 105.101 53.7751 104.582 55.0081 104.084L55.7868 106.053C54.5754 106.507 53.3641 107.026 52.196 107.567ZM68.4843 106.01L66.7971 104.776C67.4893 103.824 68.2031 102.872 68.9602 101.942C68.2463 102.094 67.5325 102.267 66.8187 102.44L66.3212 100.385C67.5974 100.06 68.9169 99.7787 70.1932 99.5191L70.6041 101.596C70.2364 101.661 69.8903 101.747 69.5226 101.812L70.8421 102.959C70.0201 103.954 69.2414 104.971 68.4843 106.01ZM107.853 105.923C106.858 105.231 105.755 104.603 104.587 104.041L105.495 102.137C106.75 102.743 107.94 103.435 109.021 104.171L107.853 105.923ZM59.3992 104.69L58.707 102.699C59.9616 102.267 61.2162 101.856 62.4925 101.466L63.0765 103.5C61.8652 103.846 60.6322 104.257 59.3992 104.69ZM101.082 102.57C99.9144 102.159 98.6814 101.812 97.4052 101.488L97.9027 99.4326C99.2438 99.7571 100.542 100.147 101.775 100.558L101.082 102.57ZM74.4329 100.925L74.1949 99.3677C73.9353 99.6057 73.6974 99.8653 73.4378 100.103L71.9453 98.6105C72.8754 97.6585 73.8488 96.7499 74.8655 95.8412L76.2499 97.4422C75.774 97.8533 75.3197 98.2859 74.8655 98.7186C75.947 98.5672 77.007 98.4374 78.0669 98.3292L78.2616 100.428C77.007 100.579 75.7091 100.752 74.4329 100.925ZM93.663 100.752C92.43 100.558 91.1538 100.406 89.8343 100.298L90.0073 98.1994C91.3484 98.3076 92.6896 98.459 93.9658 98.6537L93.663 100.752ZM82.1336 100.19L82.047 98.0696C83.3882 98.0047 84.7293 97.9831 86.0272 98.0047L85.9839 100.125C84.7293 100.103 83.4314 100.125 82.1336 100.19ZM79.235 95.0191L77.9804 93.3316C79.0187 92.5311 80.1219 91.7523 81.2251 91.0167L82.3715 92.7691C81.3116 93.4831 80.2516 94.2403 79.235 95.0191ZM85.6594 90.7138L84.5995 88.8749C85.7243 88.2042 86.8924 87.5768 88.0821 86.9494L89.0339 88.8316C87.8875 89.4374 86.741 90.0648 85.6594 90.7138ZM92.5165 87.1658L91.6513 85.2403C92.841 84.6994 94.074 84.1802 95.3069 83.6826L96.0857 85.6513C94.8743 86.1273 93.6846 86.6465 92.5165 87.1658ZM99.7413 84.2883L99.0491 82.298C100.282 81.8653 101.537 81.4542 102.813 81.0648L103.419 83.0984C102.186 83.4446 100.931 83.8557 99.7413 84.2883ZM107.161 81.9951L106.62 79.9614C107.875 79.6369 109.173 79.3124 110.47 79.0095L110.946 81.0648C109.67 81.346 108.394 81.6706 107.161 81.9951ZM114.753 80.2427L114.364 78.1657C115.64 77.9061 116.96 77.6682 118.258 77.4518L118.604 79.5287C117.306 79.7667 116.03 80.0047 114.753 80.2427ZM122.454 78.9662L122.173 76.8677C123.471 76.6946 124.79 76.5432 126.11 76.3917L126.326 78.4903C125.028 78.6417 123.73 78.7932 122.454 78.9662ZM130.22 78.1441L130.068 76.0456C131.388 75.9374 132.729 75.8508 134.027 75.7859L134.135 77.9061C132.815 77.971 131.518 78.0576 130.22 78.1441ZM141.879 77.7763C141.879 77.7763 140.43 77.7114 138.007 77.7547L137.964 75.6345C140.473 75.5912 141.9 75.6561 141.965 75.6561L141.879 77.7763Z" fill="#757D89"/>
<path d="M402.167 161.524C402.167 161.524 425.572 185.798 426.675 194.928C427.778 204.058 415.47 218.315 415.47 218.315L402.167 161.524Z" fill="url(#paint4_linear)"/>
<path d="M391.61 413.048C391.61 413.048 390.788 425.921 388.301 426.094C387.976 426.115 375.668 426.094 375.668 426.094L359.964 425.964C359.964 425.964 360.072 422.178 364.658 421.399C369.244 420.598 376.944 417.397 379.735 411.339C382.655 404.957 391.61 413.048 391.61 413.048Z" fill="#41434B"/>
<path d="M426.566 413.135C426.566 413.135 425.744 426.007 423.257 426.18C422.932 426.202 410.624 426.18 410.624 426.18L394.92 426.051C394.92 426.051 395.028 422.265 399.614 421.486C404.2 420.685 411.9 417.483 414.691 411.426C417.633 405.043 426.566 413.135 426.566 413.135Z" fill="#41434B"/>
<path d="M374.5 274.63C374.5 274.63 378.545 300.916 393.773 347.582C409.002 394.248 411.035 414.454 411.035 414.454L427.475 414.022C427.475 414.022 427.734 363.051 420.726 339.599C413.717 316.125 419.385 255.051 419.385 255.051L374.5 274.63Z" fill="url(#paint5_linear)"/>
<path d="M366.561 256.37C366.561 256.37 365.891 295.962 372.64 344.575C379.389 393.188 377.009 413.827 377.009 413.827L393.406 414.411C393.406 414.411 403.313 365.798 400.566 341.481C397.819 317.142 414.172 258.015 414.172 258.015L366.561 256.37Z" fill="url(#paint6_linear)"/>
<path d="M398.51 163.796L389.75 169.507L377.117 167.127C377.29 166.111 378.134 161.892 378.913 158.063C378.956 157.846 378.999 157.608 379.042 157.392C379.691 154.125 380.275 151.334 380.275 151.334L392.086 146.164L396.499 144.238C396.477 144.303 396.153 147.851 396.109 148.37C395.244 157.543 398.51 163.796 398.51 163.796Z" fill="#FFB27D"/>
<path d="M380.384 160.875C380.622 160.767 395.612 156.397 397.235 156.938C398.857 157.479 399.809 160.616 399.809 160.616L375.322 166.089C375.322 166.089 377.247 162.173 380.384 160.875Z" fill="#ED7D2B"/>
<path d="M420.466 261.368C417.913 272.942 375.689 274.219 364.83 263.683C363.597 262.493 363.554 256.911 364.03 249.404C364.982 234.736 367.945 212.668 368.097 201.375C368.162 195.923 368.919 190.363 369.935 185.301C372.077 174.527 375.322 166.067 375.322 166.067C375.322 166.067 395.958 159.447 399.808 160.594C418.368 166.111 423.018 249.815 420.466 261.368Z" fill="url(#paint7_linear)"/>
<path d="M364.009 249.404C364.961 234.736 367.924 212.668 368.075 201.375C368.14 195.923 368.897 190.363 369.914 185.3L382.33 183.137C382.33 183.159 394.336 232.724 364.009 249.404Z" fill="url(#paint8_linear)"/>
<path d="M370.78 228.981C370.78 228.981 371.623 231.015 369.85 232.356C368.076 233.719 366.908 235.904 367.319 237.505C367.73 239.106 371.602 241.745 372.965 241.313C374.306 240.902 377.074 238.781 376.772 237.938C376.469 237.094 378.632 230.495 375.344 227.964C372.056 225.433 370.78 228.981 370.78 228.981Z" fill="#FFB27D"/>
<path d="M384.796 163.147C384.796 163.147 372.705 165.375 363.036 179.567C353.366 193.76 347.007 204.296 348.759 209.423C350.533 214.551 366.67 232.334 369.46 232.356C372.25 232.356 376.75 230.344 377.031 225.779C377.031 225.779 365.674 208.666 367.924 206.113C368.876 205.031 382.741 193.825 384.71 198.887C387.933 207.303 384.796 163.147 384.796 163.147Z" fill="url(#paint9_linear)"/>
<path d="M395.201 148.522C392.606 152.914 382.936 156.678 378.913 158.063C378.956 157.846 379 157.608 379.043 157.392C379.692 154.125 380.276 151.334 380.276 151.334L392.086 146.164C394.704 146.12 396.283 146.704 395.201 148.522Z" fill="#FCA56B"/>
<path d="M375.841 150.599C375.841 150.599 394.833 156.57 398.359 144.693C401.885 132.815 406.73 125.568 394.747 121.262C382.763 116.957 379.064 120.786 376.923 124.464C374.781 128.142 370.974 148.738 375.841 150.599Z" fill="#FFB27D"/>
<path d="M392.476 135.822C391.979 135.801 391.611 135.325 391.719 134.849C392.043 133.356 392.606 130.37 392.26 128.077C392.26 128.077 393.579 126.303 386.809 127.147C380.038 127.99 369.893 129.18 365.956 124.637C362.106 120.202 362.214 105.339 374.068 112.673C374.522 112.954 375.106 112.738 375.279 112.24C375.95 110.055 378.048 105.231 383.607 105.577C388.82 105.902 390.551 108.974 391.113 110.64C391.286 111.137 391.849 111.353 392.303 111.072C394.401 109.796 399.658 107.394 404.287 111.981C408.094 115.767 407.704 118.861 406.947 120.591C406.709 121.154 407.142 121.76 407.748 121.716C409.392 121.608 411.793 122.149 412.896 125.697C414.432 130.587 408.916 132.188 407.315 132.555C407.055 132.62 406.839 132.793 406.731 133.053C405.974 135 402.383 143.373 396.283 146.51C395.764 146.791 395.115 146.402 395.093 145.796L394.834 136.731C394.812 136.32 394.488 135.974 394.077 135.952L392.476 135.822Z" fill="#41434B"/>
<path d="M237.077 82.5794C229.874 84.3751 222.996 86.1058 216.571 87.1876C195.74 90.7573 179.647 87.815 172.703 60.0361C165.76 32.2573 178.587 22.089 198.639 15.4472C204.825 13.3919 211.704 11.6828 218.907 9.86545C234.309 6.01449 251.354 7.72362 264.917 12.1804C278.263 16.5722 288.257 23.6251 290.031 30.7212C292.042 38.7909 286.548 49.738 276.771 59.6467C266.842 69.7284 252.479 78.7284 237.077 82.5794Z" fill="url(#paint10_linear)"/>
<path d="M198.64 15.4471L174.975 0L137.64 7.96154L176.424 35.2212L198.64 15.4471Z" fill="#163560"/>
<path d="M216.506 86.971L202.878 111.743L166.17 122.279L187.606 79.9614L216.506 86.971Z" fill="#163560"/>
<path d="M216.55 87.1877C195.719 90.7574 179.625 87.8151 172.682 60.0362C165.738 32.2574 178.565 22.0891 198.617 15.4473L216.55 87.1877Z" fill="#163560"/>
<path d="M124.055 72.1946C124.055 72.1946 134.459 47.9638 152.651 51.685C171.211 55.4927 168.874 75.5047 154.944 77.3436C141.035 79.1826 132.188 70.1609 124.055 72.1946Z" fill="#F77D48"/>
<path d="M234.785 24.8797C244.411 22.4783 254.145 28.3196 256.546 37.947C258.947 47.5744 253.107 57.31 243.481 59.7114C233.855 62.1129 224.121 56.2715 221.72 46.6441C219.319 37.0384 225.181 27.2812 234.785 24.8797Z" fill="#163560"/>
<path d="M239.155 61.4639C230.567 61.4639 222.737 55.6442 220.574 46.947C218.021 36.6922 224.273 26.286 234.504 23.7331C244.736 21.1802 255.162 27.4326 257.714 37.6658C258.947 42.6201 258.19 47.7692 255.551 52.161C252.912 56.5528 248.737 59.6466 243.762 60.8797C242.226 61.2692 240.669 61.4639 239.155 61.4639ZM239.133 25.5504C237.792 25.5504 236.429 25.7019 235.066 26.048C230.719 27.1297 227.063 29.8341 224.77 33.685C222.477 37.5144 221.785 42.036 222.888 46.3629C225.138 55.3196 234.244 60.7932 243.2 58.5648C247.548 57.4831 251.203 54.7788 253.496 50.9278C255.789 47.0985 256.481 42.5769 255.378 38.2499C253.496 30.6346 246.661 25.5504 239.133 25.5504Z" fill="#BDD1F9"/>
<path opacity="0.74" d="M276.792 59.6469L264.938 12.2021C278.285 16.594 288.278 23.6469 290.052 30.743C292.064 38.8127 286.57 49.7382 276.792 59.6469Z" fill="white"/>
<path d="M144.129 168.317C145.081 167.409 146.4 166.976 147.698 167.084C161.758 168.339 187.954 161.589 205.107 144.043C206.297 142.832 208.46 143.524 209.823 144.541C228.88 158.776 260.461 161.74 271.428 162.346C273.7 162.476 275.538 164.228 275.776 166.5C285.748 262.817 223.039 297.714 210.039 303.88C208.611 304.55 206.946 304.464 205.605 303.62C140.798 263.25 143.566 210.721 142.658 171.822C142.636 170.481 143.177 169.204 144.129 168.317Z" fill="url(#paint11_linear)"/>
<path opacity="0.61" d="M208.287 296.87C208.005 296.87 207.703 296.784 207.465 296.632C182.61 280.752 166.43 261.757 157.951 238.565C150.38 217.861 150.012 196.767 149.688 178.161L149.645 175.673C149.645 175.262 149.796 174.873 150.077 174.57C150.38 174.267 150.769 174.115 151.18 174.115C166.56 174.115 189.662 167.322 206.599 152.135C207.119 151.659 207.897 151.615 208.481 152.005C227.106 164.358 253.647 167.95 267.816 169.01C268.573 169.075 269.157 169.659 269.222 170.416C272.51 207.995 264.701 239.776 245.99 264.873C232.016 283.608 215.447 293.387 208.979 296.719C208.762 296.805 208.525 296.87 208.287 296.87ZM208.698 296.135L208.849 296.416L208.698 296.135C215.144 292.824 231.605 283.111 245.492 264.483C264.095 239.517 271.882 207.887 268.594 170.459C268.551 170.005 268.205 169.659 267.751 169.637C253.517 168.599 226.846 164.964 208.114 152.546C207.767 152.308 207.313 152.351 207.01 152.632C189.943 167.928 166.668 174.764 151.18 174.764C150.921 174.764 150.683 174.851 150.51 175.046C150.337 175.219 150.25 175.457 150.25 175.695L150.293 178.183C150.618 196.745 150.986 217.774 158.513 238.37C166.928 261.411 183.043 280.32 207.767 296.113C208.07 296.264 208.416 296.286 208.698 296.135Z" fill="white"/>
<path opacity="0.61" d="M230.935 204.664H227.993C226.544 204.664 225.354 203.474 225.354 202.024V192.007C225.354 188.416 222.456 185.517 218.865 185.517H200.695C197.104 185.517 194.205 188.416 194.205 192.007V202.024C194.205 203.474 193.015 204.664 191.566 204.664H188.624C187.175 204.664 185.985 203.474 185.985 202.024V192.007C185.985 183.894 192.561 177.317 200.673 177.317H218.843C226.955 177.317 233.531 183.894 233.531 192.007V202.024C233.574 203.495 232.406 204.664 230.935 204.664Z" fill="white"/>
<path opacity="0.61" d="M234.569 207.043H185.033C182.005 207.043 179.539 209.51 179.539 212.538V250.572C179.539 253.601 182.005 256.067 185.033 256.067H234.59C237.619 256.067 240.085 253.601 240.085 250.572V212.538C240.063 209.488 237.619 207.043 234.569 207.043ZM216.896 243.8C217.199 245.077 216.226 246.31 214.906 246.31H204.696C203.377 246.31 202.403 245.077 202.706 243.8L205.085 233.87C202.273 232.183 200.435 229.046 200.629 225.476C200.867 220.868 204.61 217.103 209.217 216.8C214.56 216.476 218.994 220.695 218.994 225.973C218.994 229.327 217.199 232.269 214.517 233.87L216.896 243.8Z" fill="white"/>
</g>
<defs>
<linearGradient id="paint0_linear" x1="227.111" y1="414.537" x2="199.636" y2="426.074" gradientUnits="userSpaceOnUse">
<stop stop-color="#40447E"/>
<stop offset="0.9964" stop-color="#3C3B6B"/>
</linearGradient>
<linearGradient id="paint1_linear" x1="182.41" y1="292.381" x2="153.923" y2="304.344" gradientUnits="userSpaceOnUse">
<stop stop-color="#40447E"/>
<stop offset="0.9964" stop-color="#3C3B6B"/>
</linearGradient>
<linearGradient id="paint2_linear" x1="61.9376" y1="299.279" x2="321.526" y2="299.279" gradientUnits="userSpaceOnUse">
<stop stop-color="#40447E"/>
<stop offset="0.9964" stop-color="#3C3B6B"/>
</linearGradient>
<linearGradient id="paint3_linear" x1="61.9365" y1="402.405" x2="452.996" y2="402.405" gradientUnits="userSpaceOnUse">
<stop stop-color="#40447E"/>
<stop offset="0.9964" stop-color="#3C3B6B"/>
</linearGradient>
<linearGradient id="paint4_linear" x1="402.177" y1="189.918" x2="426.758" y2="189.918" gradientUnits="userSpaceOnUse">
<stop stop-color="#FF928E"/>
<stop offset="1" stop-color="#FE7062"/>
</linearGradient>
<linearGradient id="paint5_linear" x1="374.51" y1="334.751" x2="427.48" y2="334.751" gradientUnits="userSpaceOnUse">
<stop stop-color="#40447E"/>
<stop offset="0.9964" stop-color="#3C3B6B"/>
</linearGradient>
<linearGradient id="paint6_linear" x1="366.534" y1="335.394" x2="414.16" y2="335.394" gradientUnits="userSpaceOnUse">
<stop stop-color="#444B8C"/>
<stop offset="0.9964" stop-color="#3E4177"/>
</linearGradient>
<linearGradient id="paint7_linear" x1="363.731" y1="215.677" x2="421.105" y2="215.677" gradientUnits="userSpaceOnUse">
<stop stop-color="#FF928E"/>
<stop offset="1" stop-color="#FE7062"/>
</linearGradient>
<linearGradient id="paint8_linear" x1="364.016" y1="216.286" x2="384.674" y2="216.286" gradientUnits="userSpaceOnUse">
<stop stop-color="#E1473D"/>
<stop offset="1" stop-color="#E9605A"/>
</linearGradient>
<linearGradient id="paint9_linear" x1="348.456" y1="197.743" x2="386.159" y2="197.743" gradientUnits="userSpaceOnUse">
<stop stop-color="#FF928E"/>
<stop offset="1" stop-color="#FE7062"/>
</linearGradient>
<linearGradient id="paint10_linear" x1="170.8" y1="48.0775" x2="290.459" y2="48.0775" gradientUnits="userSpaceOnUse">
<stop offset="0.00359712" stop-color="#E38DDD"/>
<stop offset="1" stop-color="#9571F6"/>
</linearGradient>
<linearGradient id="paint11_linear" x1="350.241" y1="70.531" x2="296.364" y2="123.229" gradientUnits="userSpaceOnUse">
<stop stop-color="#FF928E"/>
<stop offset="1" stop-color="#FE7062"/>
</linearGradient>
<clipPath id="clip0">
<rect width="453" height="432" fill="white"/>
</clipPath>
</defs>
</svg>
