<svg width="11" height="12" viewBox="0 0 11 12" fill="none" xmlns="http://www.w3.org/2000/svg">
<path d="M3.41056 6.09106C3.36687 6.03296 3.33326 5.98854 3.29629 5.94753C2.27795 4.70696 1.25625 3.4664 0.241272 2.22242C-0.04104 1.87384 -0.00743146 1.42272 0.308489 1.16299C0.62441 0.903258 1.05796 0.957939 1.33355 1.29627C2.50313 2.71796 3.67271 4.14307 4.83893 5.56818C5.11452 5.9031 5.11116 6.24143 4.83893 6.5866C4.54317 6.96253 4.24405 7.33846 3.9483 7.71439C3.11817 8.76015 2.28803 9.80933 1.46126 10.8585C1.26969 11.1012 1.02771 11.2139 0.725236 11.149C0.204302 11.0362 -0.0107929 10.4347 0.31521 10.0007C0.668101 9.53251 1.04116 9.0814 1.40413 8.62003C2.06958 7.77932 2.73503 6.94203 3.41056 6.09106ZM8.41488 6.09106C8.35775 6.01929 8.30733 5.95778 8.25692 5.89626C7.25202 4.67279 6.24713 3.44931 5.24223 2.22242C4.95992 1.88067 4.99017 1.44323 5.30273 1.17324C5.60856 0.910094 6.0522 0.957939 6.32779 1.29286C7.50409 2.7248 8.67703 4.15332 9.84661 5.58527C10.1054 5.9031 10.1155 6.24485 9.86341 6.56268C8.7308 8.00146 7.59147 9.44024 6.45214 10.8722C6.37148 10.9747 6.25721 11.0636 6.13958 11.1182C5.85055 11.2515 5.50438 11.1456 5.31281 10.8927C5.1078 10.6193 5.11116 10.2673 5.33633 9.9802C5.76316 9.4334 6.19671 8.89343 6.6269 8.35005C7.21841 7.60161 7.80993 6.85317 8.41488 6.09106Z" fill="#E42722"/>
<path d="M3.41056 6.09106C2.73503 6.94203 2.06945 7.77926 1.404 8.61655C1.04103 9.0745 0.667976 9.52903 0.315086 9.99723C-0.0109176 10.4313 0.204178 11.0293 0.725111 11.1455C1.02759 11.2105 1.26957 11.0977 1.46114 10.855C2.28791 9.80585 3.11804 8.76009 3.94817 7.71091C4.24393 7.33498 4.54305 6.95905 4.8388 6.58312C5.11103 6.23795 5.11103 5.89962 4.8388 5.5647C3.67258 4.14301 2.50301 2.71791 1.33343 1.2928C1.05784 0.954463 0.624285 0.9032 0.308365 1.15951C-0.00755608 1.41925 -0.0411647 1.87378 0.241147 2.21895C1.25613 3.46293 2.27783 4.70349 3.29617 5.94405C3.33314 5.99189 3.36687 6.03638 3.41056 6.09106Z" fill="#E42722"/>
<path d="M8.41488 6.09106C7.80993 6.85317 7.21846 7.60152 6.62695 8.34654C6.19676 8.88993 5.76321 9.4299 5.33638 9.9767C5.1112 10.2638 5.10784 10.6158 5.31286 10.8892C5.50442 11.1421 5.85059 11.248 6.13963 11.1147C6.25726 11.0601 6.37153 10.9712 6.45219 10.8687C7.59488 9.43673 8.73085 7.99796 9.86682 6.55918C10.1155 6.24135 10.1088 5.8996 9.85002 5.58177C8.67708 4.15324 7.50414 2.72472 6.3312 1.29619C6.05561 0.961275 5.61197 0.910012 5.30613 1.17658C4.99357 1.44656 4.96333 1.88059 5.24564 2.22576C6.25054 3.45265 7.25543 4.67612 8.26033 5.8996C8.30738 5.95769 8.35775 6.01929 8.41488 6.09106Z" fill="#E42722"/>
</svg>
