<svg width="29" height="28" viewBox="0 0 29 28" fill="none" xmlns="http://www.w3.org/2000/svg">
<path d="M12.4606 16.5659L17.0403 13.9287L12.4606 11.2916V16.5659Z" fill="white"/>
<path d="M14.2137 0C6.52144 0 0.285156 6.23629 0.285156 13.9286C0.285156 21.6209 6.52144 27.8571 14.2137 27.8571C21.906 27.8571 28.1423 21.6209 28.1423 13.9286C28.1423 6.23629 21.906 0 14.2137 0ZM23.0129 13.9434C23.0129 13.9434 23.0129 16.7997 22.6489 18.1777C22.4446 18.9317 21.8503 19.526 21.0963 19.7303C19.7183 20.0943 14.21 20.0943 14.21 20.0943C14.21 20.0943 8.71659 20.0943 7.32373 19.7191C6.56973 19.5149 5.97544 18.9206 5.77116 18.1666C5.40716 16.8034 5.40716 13.9323 5.40716 13.9323C5.40716 13.9323 5.40716 11.076 5.77116 9.698C5.97544 8.944 6.58459 8.33486 7.32373 8.13057C8.70173 7.76657 14.21 7.76657 14.21 7.76657C14.21 7.76657 19.7183 7.76657 21.0963 8.14171C21.8503 8.346 22.4446 8.94029 22.6489 9.69429C23.0277 11.0723 23.0129 13.9434 23.0129 13.9434Z" fill="white"/>
</svg>
