<svg width="29" height="28" viewBox="0 0 29 28" fill="none" xmlns="http://www.w3.org/2000/svg">
<path d="M14.6434 0C6.95113 0 0.714844 6.23629 0.714844 13.9286C0.714844 21.6209 6.95113 27.8571 14.6434 27.8571C22.3357 27.8571 28.572 21.6209 28.572 13.9286C28.572 6.23629 22.3357 0 14.6434 0ZM20.252 11.7409C20.2557 11.8634 20.2594 11.986 20.2594 12.1123C20.2594 15.8971 17.4514 20.2651 12.3108 20.2651C10.7323 20.2651 9.26513 19.7897 8.02827 18.98C8.24742 19.006 8.47027 19.0209 8.69313 19.0209C10.0006 19.0209 11.2077 18.564 12.1623 17.7951C10.9403 17.7729 9.9077 16.9446 9.55113 15.808C9.72199 15.8414 9.89656 15.86 10.0786 15.86C10.3348 15.86 10.58 15.8266 10.814 15.7597C9.53627 15.496 8.57056 14.3409 8.57056 12.9517V12.9183C8.94942 13.13 9.38027 13.26 9.83713 13.2749C9.08684 12.7623 8.59284 11.882 8.59284 10.8903C8.59284 10.3666 8.73027 9.87257 8.9717 9.44914C10.3497 11.1837 12.4074 12.324 14.7326 12.4429C14.6843 12.2349 14.662 12.0157 14.662 11.7891C14.662 10.2069 15.9137 8.92543 17.4551 8.92543C18.2611 8.92543 18.9854 9.27457 19.4943 9.828C20.1331 9.70171 20.7311 9.46029 21.2697 9.13343C21.0617 9.802 20.6197 10.3629 20.0403 10.7194C20.6048 10.6489 21.1434 10.4966 21.6448 10.27C21.2734 10.8346 20.798 11.3397 20.252 11.7409Z" fill="white"/>
</svg>
