<svg width="28" height="28" viewBox="0 0 28 28" fill="none" xmlns="http://www.w3.org/2000/svg">
<path d="M15.7597 13.8469C15.7597 15.002 14.8423 15.938 13.7094 15.938C12.5766 15.938 11.6629 15.002 11.6629 13.8469C11.6629 12.6917 12.5803 11.7557 13.7131 11.7557C14.8423 11.7557 15.7597 12.6917 15.7597 13.8469ZM18.8946 11.0166V16.6771C18.8946 17.9734 17.8583 19.032 16.5917 19.032H10.8346C9.568 19.032 8.53171 17.9734 8.53171 16.6771V11.0166C8.53171 9.72029 9.568 8.66171 10.8346 8.66171H16.5917C17.8583 8.66171 18.8946 9.724 18.8946 11.0166ZM16.8851 13.8469C16.8851 12.0566 15.4626 10.6043 13.7094 10.6043C11.9563 10.6043 10.5337 12.0566 10.5337 13.8469C10.5337 15.6371 11.9563 17.0894 13.7094 17.0894C15.4626 17.0894 16.8851 15.6409 16.8851 13.8469ZM17.7729 10.4297C17.7729 10.0249 17.4534 9.698 17.056 9.698C16.6586 9.698 16.3391 10.0249 16.3391 10.4297C16.3391 10.8346 16.6586 11.1614 17.056 11.1614C17.4534 11.1651 17.7729 10.8346 17.7729 10.4297ZM27.8571 13.9286C27.8571 21.6209 21.6209 27.8571 13.9286 27.8571C6.23629 27.8571 0 21.6209 0 13.9286C0 6.23629 6.23629 0 13.9286 0C21.6209 0 27.8571 6.23629 27.8571 13.9286ZM20.0237 10.9311C20.0237 9.06286 18.5269 7.53257 16.6957 7.53257H10.7269C8.89571 7.53257 7.39886 9.06286 7.39886 10.9311V16.7589C7.39886 18.6271 8.89571 20.1574 10.7269 20.1574H16.6994C18.5306 20.1574 20.0274 18.6271 20.0274 16.7589V10.9311H20.0237Z" fill="white"/>
</svg>
