<svg width="29" height="28" viewBox="0 0 29 28" fill="none" xmlns="http://www.w3.org/2000/svg">
<path d="M14.3583 0C6.66597 0 0.429688 6.23629 0.429688 13.9286C0.429688 21.6209 6.66597 27.8571 14.3583 27.8571C22.0505 27.8571 28.2868 21.6209 28.2868 13.9286C28.2868 6.23629 22.0505 0 14.3583 0ZM17.2963 9.86514C16.7168 9.86514 16.1114 9.86514 15.5283 9.86514C15.2534 9.86514 15.0863 10.0174 15.0863 10.3071C15.0863 10.3591 15.0863 10.868 15.0863 11.6331H17.3L16.858 14.2889H15.09C15.09 17.1414 15.09 20.4806 15.09 20.4806H12.4491C12.4491 20.4806 12.4491 17.2009 12.4491 14.2889H11.1083V11.6331H12.4491C12.4491 10.6526 12.4491 9.96914 12.4491 9.88371C12.4491 9.53829 12.3823 7.20943 15.2645 7.20943C15.6508 7.20943 16.5311 7.20943 17.3037 7.20943C17.2963 8.22343 17.2963 9.54943 17.2963 9.86514Z" fill="white"/>
</svg>
