<svg width="29" height="28" viewBox="0 0 29 28" fill="none" xmlns="http://www.w3.org/2000/svg">
<path d="M14.786 0C7.09371 0 0.857422 6.23629 0.857422 13.9286C0.857422 21.6209 7.09371 27.8571 14.786 27.8571C22.4783 27.8571 28.7146 21.6209 28.7146 13.9286C28.7146 6.23629 22.4783 0 14.786 0ZM11.5917 19.5706H8.83942V10.8457H11.5917V19.5706ZM10.1469 9.75371H10.1283C9.13285 9.75371 8.48657 9.08514 8.48657 8.242C8.48657 7.38029 9.15142 6.72657 10.1691 6.72657C11.1869 6.72657 11.8109 7.37657 11.8294 8.23829C11.8257 9.08514 11.1794 9.75371 10.1469 9.75371ZM22.6083 19.5706H19.4846V15.054C19.4846 13.8729 18.998 13.0669 17.9209 13.0669C17.1 13.0669 16.6431 13.6129 16.4314 14.1366C16.3534 14.326 16.3646 14.586 16.3646 14.8497V19.5706H13.2706C13.2706 19.5706 13.3114 11.5737 13.2706 10.8457H16.3646V12.2163C16.5466 11.6183 17.5346 10.764 19.1131 10.764C21.0706 10.764 22.6083 12.0194 22.6083 14.7197V19.5706Z" fill="white"/>
</svg>
