<svg width="28" height="28" viewBox="0 0 28 28" fill="none" xmlns="http://www.w3.org/2000/svg">
<path d="M14.0711 27.8571C21.7594 27.8571 27.9997 21.6168 27.9997 13.9286C27.9997 6.24032 21.7594 0 14.0711 0C6.3829 0 0.142578 6.24032 0.142578 13.9286C0.142578 21.6168 6.3829 27.8571 14.0711 27.8571ZM19.7279 20.4935C18.7906 20.4935 15.8327 17.211 7.51717 18.9143C7.29834 18.9726 7.01021 19.0602 6.84974 19.0602C5.78841 19.0602 5.58417 17.47 6.72573 17.2293C11.3248 16.2154 16.026 16.3029 20.0379 18.7027C20.9898 19.3155 20.585 20.4935 19.7279 20.4935ZM21.2415 16.8135C21.1102 16.777 21.1503 16.8937 20.5485 16.5764C17.0363 14.4975 11.8026 13.6623 7.14881 14.9243C6.87892 14.9972 6.73303 15.0701 6.48137 15.0701C5.23769 15.0701 4.90944 13.1991 6.26254 12.8198C11.737 11.2807 17.6089 12.1779 21.6974 14.6106C22.1533 14.8805 22.332 15.2306 22.332 15.7157C22.3247 16.3211 21.8506 16.8135 21.2415 16.8135ZM5.42004 8.12226C10.672 6.5868 18.6155 7.07188 23.5575 9.95315C24.823 10.6826 24.327 12.5317 22.9812 12.5317C22.6894 12.5317 22.5071 12.4588 22.2554 12.3129C18.2581 9.92762 11.106 9.35501 6.48137 10.6461C6.27713 10.7008 6.02548 10.792 5.75558 10.792C5.01521 10.792 4.44625 10.2121 4.44625 9.46807C4.44625 8.70217 4.91673 8.26815 5.42004 8.12226Z" fill="white"/>
</svg>
