<svg width="164" height="61" viewBox="0 0 164 61" fill="none" xmlns="http://www.w3.org/2000/svg">
<path fill-rule="evenodd" clip-rule="evenodd" d="M42.395 2.40791L42.2818 2.36175C33.4613 16.9785 37.6232 22.0965 38.3518 23.9428C39.0903 25.8144 42.4016 30.3698 43.3358 31.7182C43.904 32.5337 44.3644 33.3854 44.8469 34.2503C47.7999 39.5321 41.9807 44.4293 37.9781 46.9306C32.4535 50.3815 25.4935 52.619 18.9006 52.0948C18.3247 52.0497 17.7521 51.9783 17.1829 51.8772C15.6245 51.5992 14.0276 50.8233 13.1495 49.4594C12.3451 48.2076 12.2451 46.6086 12.5363 45.1502C13.1781 41.9334 15.4871 39.3497 17.639 36.8748C20.1579 33.9778 22.5921 30.9819 24.5176 27.6607C26.4441 24.3396 27.8542 20.6656 28.1861 16.8422C28.5949 22.7779 26.0419 28.5267 22.9131 33.5876C20.9305 36.7956 18.6742 39.8882 17.3895 43.4336C17.0433 44.3897 16.7598 45.4997 17.0411 46.5086C17.3334 47.5581 18.2742 48.1571 19.2336 48.5604C24.3549 50.7134 30.5269 49.0418 35.0878 46.3053C37.077 45.1118 39.6135 43.3808 40.3608 41.0652C40.929 39.3024 40.4674 37.3968 39.8464 35.712C38.8255 32.9469 37.1165 30.5148 35.7801 27.9047C34.8922 26.1694 34.158 24.3297 33.9437 22.3789C33.9086 22.0657 33.8899 21.7514 33.8921 21.436C33.9404 13.4254 40.4333 4.58063 42.1939 2.32768L42.2236 2.33867L42.0851 2.28262C38.5134 0.81326 34.6031 0 30.5005 0C13.6551 0 0 13.6551 0 30.5005C0 47.3449 13.6551 61 30.5005 61C47.3438 61 61 47.3449 61 30.5005C61 17.8763 53.3301 7.04569 42.395 2.40791Z" fill="#E42722"/>
<path fill-rule="evenodd" clip-rule="evenodd" d="M73.8435 46.4542L72.7577 49.1973C72.6324 49.5248 72.484 50.0084 72.484 50.0084H72.4675C72.4675 50.0084 72.3115 49.5248 72.1873 49.1973L71.1004 46.4542H70.0222L69.5684 52.0031H70.5772L70.8113 48.9006C70.8344 48.5324 70.819 48.0335 70.819 48.0335H70.8344C70.8344 48.0335 71.007 48.5808 71.1399 48.9006L72.0301 51.0492H72.9137L73.8127 48.9006C73.9457 48.5808 74.1094 48.039 74.1094 48.039H74.1248C74.1248 48.039 74.1094 48.5324 74.1325 48.9006L74.3677 52.0031H75.3678L74.9216 46.4542H73.8435Z" fill="#020203"/>
<path fill-rule="evenodd" clip-rule="evenodd" d="M77.6111 49.6418H79.4794V48.7736H77.6111V47.3218H79.9245V46.4547H76.6033V52.0024H80.0497V51.1353H77.6111V49.6418Z" fill="#020203"/>
<path fill-rule="evenodd" clip-rule="evenodd" d="M82.9338 51.1358H82.1052V47.32H82.9338C84.0438 47.32 84.778 47.986 84.778 49.2213C84.778 50.472 84.0592 51.1358 82.9338 51.1358ZM82.9877 46.4529H81.0974V52.0029H82.9877C84.6999 52.0029 85.8176 50.972 85.8176 49.2213C85.8176 47.4695 84.6999 46.4529 82.9877 46.4529Z" fill="#020203"/>
<path fill-rule="evenodd" clip-rule="evenodd" d="M91.8133 51.1744C90.6561 51.1744 89.945 50.2447 89.945 49.1885C89.945 48.1577 90.633 47.2818 91.8045 47.2818C92.6892 47.2818 93.3212 47.8686 93.3212 47.8686L93.8047 47.1169C93.8047 47.1169 93.1101 46.3597 91.7584 46.3597C90.1253 46.3597 88.9054 47.595 88.9054 49.205C88.9054 50.837 90.078 52.0965 91.7738 52.0965C93.1893 52.0965 93.9542 51.1975 93.9542 51.1975L93.4234 50.47C93.4234 50.47 92.7738 51.1744 91.8133 51.1744Z" fill="#020203"/>
<path fill-rule="evenodd" clip-rule="evenodd" d="M86.8734 52.0024H87.8812V46.4536H86.8734V52.0024Z" fill="#020203"/>
<path fill-rule="evenodd" clip-rule="evenodd" d="M94.884 52.0024H95.8918V46.4536H94.884V52.0024Z" fill="#020203"/>
<path fill-rule="evenodd" clip-rule="evenodd" d="M100.832 49.659C100.832 49.9865 100.887 50.5162 100.887 50.5162H100.871C100.871 50.5162 100.621 49.9788 100.41 49.659L98.3079 46.4543H97.299V52.0032H98.3079V48.8073C98.3079 48.4787 98.2529 47.9457 98.2529 47.9457H98.2683C98.2683 47.9457 98.5189 48.4864 98.7299 48.8073L100.832 52.0032H101.832V46.4543H100.832V49.659Z" fill="#020203"/>
<path fill-rule="evenodd" clip-rule="evenodd" d="M104.294 49.7588L104.787 48.273C104.896 47.9619 105.022 47.4146 105.022 47.4146H105.037C105.037 47.4146 105.155 47.9619 105.256 48.273L105.748 49.7588H104.294ZM104.497 46.4541L102.544 52.003H103.583L104.052 50.5809H105.999L106.467 52.003H107.507L105.552 46.4541H104.497Z" fill="#020203"/>
<path fill-rule="evenodd" clip-rule="evenodd" d="M111.954 51.1357H111.127V47.32H111.954C113.064 47.32 113.798 47.986 113.798 49.2213C113.798 50.472 113.08 51.1357 111.954 51.1357ZM112.009 46.4529H110.118V52.0029H112.009C113.72 52.0029 114.838 50.972 114.838 49.2213C114.838 47.4695 113.72 46.4529 112.009 46.4529Z" fill="#020203"/>
<path fill-rule="evenodd" clip-rule="evenodd" d="M119.363 49.7588L119.856 48.273C119.966 47.9619 120.091 47.4146 120.091 47.4146H120.106C120.106 47.4146 120.223 47.9619 120.325 48.273L120.817 49.7588H119.363ZM119.567 46.4541L117.614 52.003H118.652L119.122 50.5809H121.067L121.536 52.003H122.576L120.622 46.4541H119.567Z" fill="#020203"/>
<path fill-rule="evenodd" clip-rule="evenodd" d="M126.32 49.9477H127.171V50.595C127.171 50.595 126.616 51.1742 125.781 51.1742C124.74 51.1742 123.92 50.3928 123.92 49.1894C123.92 48.1421 124.584 47.2816 125.827 47.2816C126.711 47.2816 127.303 47.8124 127.303 47.8124L127.804 47.0629C127.804 47.0629 127.101 46.3595 125.742 46.3595C124.093 46.3595 122.881 47.6102 122.881 49.2213C122.881 50.9621 124.139 52.0963 125.601 52.0963C126.633 52.0963 127.211 51.5028 127.211 51.5028H127.226C127.226 51.5028 127.219 51.6193 127.219 51.7369V52.0029H128.078V49.0795H126.32V49.9477Z" fill="#020203"/>
<path fill-rule="evenodd" clip-rule="evenodd" d="M132.729 49.659C132.729 49.9865 132.783 50.5162 132.783 50.5162H132.768C132.768 50.5162 132.518 49.9788 132.308 49.659L130.204 46.4543H129.196V52.0032H130.204V48.8073C130.204 48.4787 130.15 47.9457 130.15 47.9457H130.165C130.165 47.9457 130.415 48.4864 130.626 48.8073L132.729 52.0032H133.73V46.4543H132.729V49.659Z" fill="#020203"/>
<path fill-rule="evenodd" clip-rule="evenodd" d="M137.989 46.0862L138.81 45.0234H137.786L137.192 46.0862H137.989Z" fill="#020203"/>
<path fill-rule="evenodd" clip-rule="evenodd" d="M137.623 51.1744C136.606 51.1744 135.793 50.3304 135.793 49.1885C135.793 48.095 136.606 47.2829 137.623 47.2829C138.637 47.2829 139.452 48.095 139.452 49.1885C139.452 50.3304 138.637 51.1744 137.623 51.1744ZM137.623 46.3597C135.989 46.3597 134.755 47.6027 134.755 49.1885C134.755 50.8228 135.989 52.0976 137.623 52.0976C139.255 52.0976 140.49 50.8228 140.49 49.1885C140.49 47.6027 139.255 46.3597 137.623 46.3597Z" fill="#020203"/>
<path fill-rule="evenodd" clip-rule="evenodd" d="M145.172 47.3214H146.993V52.0032H148.001V47.3214H149.822V46.4532H145.172V47.3214Z" fill="#020203"/>
<path fill-rule="evenodd" clip-rule="evenodd" d="M150.557 52.0024H151.565V46.4536H150.557V52.0024Z" fill="#020203"/>
<path fill-rule="evenodd" clip-rule="evenodd" d="M155.496 51.1744C154.34 51.1744 153.629 50.2447 153.629 49.1885C153.629 48.1577 154.317 47.2818 155.489 47.2818C156.372 47.2818 157.005 47.8686 157.005 47.8686L157.49 47.1169C157.49 47.1169 156.794 46.3597 155.442 46.3597C153.809 46.3597 152.589 47.595 152.589 49.205C152.589 50.837 153.762 52.0965 155.458 52.0965C156.872 52.0965 157.638 51.1975 157.638 51.1975L157.107 50.47C157.107 50.47 156.458 51.1744 155.496 51.1744Z" fill="#020203"/>
<path fill-rule="evenodd" clip-rule="evenodd" d="M159.624 49.7588L160.116 48.273C160.226 47.9619 160.35 47.4146 160.35 47.4146H160.366C160.366 47.4146 160.483 47.9619 160.584 48.273L161.077 49.7588H159.624ZM159.826 46.4541L157.873 52.003H158.913L159.381 50.5809H161.327L161.796 52.003H162.836L160.882 46.4541H159.826Z" fill="#020203"/>
<path fill-rule="evenodd" clip-rule="evenodd" d="M115.805 52.0024H116.82V46.4536H115.805V52.0024Z" fill="#020203"/>
<path fill-rule="evenodd" clip-rule="evenodd" d="M142.226 47.9536C142.226 47.5645 142.594 47.2898 143.062 47.2898C143.758 47.2898 144.29 47.7745 144.29 47.7745L144.727 46.9546C144.727 46.9546 144.164 46.3611 143.07 46.3611C142.007 46.3611 141.21 47.048 141.21 47.9712C141.21 49.6735 143.828 49.5021 143.828 50.4945C143.828 50.9484 143.446 51.1671 143.024 51.1671C142.241 51.1671 141.64 50.5802 141.64 50.5802L141.093 51.3374C141.093 51.3374 141.773 52.0968 143.008 52.0968C144.164 52.0968 144.837 51.3539 144.837 50.4703C144.837 48.6965 142.226 48.9383 142.226 47.9536Z" fill="#020203"/>
<path fill-rule="evenodd" clip-rule="evenodd" d="M84.1187 30.7591C82.9284 29.8656 81.5371 29.3194 80.1941 28.7732C78.8522 28.2754 77.4126 27.7303 76.3191 27.2335C75.3267 26.7346 74.8299 26.1895 74.8299 25.296C74.8299 23.4574 76.618 22.4628 78.5555 22.4628C80.0458 22.4628 81.4876 22.9101 83.5252 24.053L85.2638 21.0231C82.8284 19.6307 80.6909 18.8372 78.4061 18.8372C74.4804 18.8372 70.457 21.222 70.457 25.7411C70.457 29.7645 73.5364 30.9592 76.618 32.1021C77.262 32.401 77.9588 32.6978 78.6061 32.9483C79.9952 33.444 81.7844 33.9891 81.8338 35.7772C81.8844 37.9631 79.649 39.0082 77.3631 39.0082C75.5245 39.0082 73.4869 38.3126 71.6483 36.8707L69.8613 39.8039C72.1945 41.592 74.7805 42.6338 77.4126 42.6338C81.5371 42.6338 86.2551 40.4479 86.3551 35.431C86.4046 33.1934 85.4133 31.7537 84.1187 30.7591Z" fill="#E42722"/>
<path fill-rule="evenodd" clip-rule="evenodd" d="M101.857 37.5678C101.209 38.1623 99.5707 39.0591 97.8321 39.0591C95.2989 39.0086 93.5086 36.9194 93.5086 34.7334C93.5086 32.4003 95.2483 30.9595 97.7321 30.9595L101.857 31.0089V37.5678ZM106.377 25.8392C106.377 21.4696 102.552 18.9859 98.8256 18.9859C95.7945 19.0364 93.7581 19.531 90.7281 21.1718L92.0184 24.1523C94.4054 22.9599 95.8934 22.462 97.931 22.462C100.018 22.462 101.957 23.9545 101.957 26.0382V27.5801H96.6891C92.3668 27.5801 88.8401 30.3133 88.739 34.8346C88.739 39.0086 92.1667 42.3363 96.2418 42.4352V42.3869C100.663 42.4869 104.141 40.7461 106.426 38.4602L106.377 25.8392Z" fill="#E42722"/>
<path fill-rule="evenodd" clip-rule="evenodd" d="M115.618 23.905C116.812 23.2577 118.848 22.3642 120.736 22.5126H120.786C124.909 22.762 125.654 26.736 125.654 30.4616C125.654 34.1389 124.61 38.9096 121.034 39.058C118.353 39.2075 116.214 38.114 115.618 37.6161V23.905ZM121.531 42.4869V42.4352C127.493 42.6342 130.575 36.5226 130.623 30.2133C130.623 24.649 127.839 19.0848 121.531 18.8859C119.345 18.8364 117.407 19.431 115.618 20.4256V6.46606L111.097 8.00466V38.3118C111.246 38.5624 114.128 42.2363 121.531 42.4869Z" fill="#E42722"/>
<path fill-rule="evenodd" clip-rule="evenodd" d="M137.678 9.49513C135.989 9.49513 134.647 10.837 134.647 12.5273H134.597C134.597 14.2164 135.938 15.5572 137.625 15.5572C139.316 15.5572 140.658 14.2164 140.658 12.5273C140.708 10.837 139.365 9.49513 137.678 9.49513Z" fill="#E42722"/>
<path fill-rule="evenodd" clip-rule="evenodd" d="M140.011 18.6884L135.342 20.2281L135.392 42.0377H140.011V18.6884Z" fill="#E42722"/>
<path fill-rule="evenodd" clip-rule="evenodd" d="M157.848 19.2352C155.164 18.6385 152.68 19.1352 150.892 19.6298C148.606 20.2782 146.918 21.3695 144.882 22.8608V42.0384H149.502V23.8543C150.546 23.1598 152.135 22.4641 153.774 22.4135C156.656 22.3663 158.494 23.9543 158.494 26.8854V42.0384H163.115V25.1468C163.115 21.8684 160.581 19.8287 157.848 19.2352Z" fill="#E42722"/>
</svg>
