<svg width="200" height="75" viewBox="0 0 200 75" fill="none" xmlns="http://www.w3.org/2000/svg">
<path fill-rule="evenodd" clip-rule="evenodd" d="M103.139 37.7147C101.68 36.6192 99.9741 35.9494 98.3275 35.2797C96.6822 34.6693 94.9169 34.0009 93.5762 33.3919C92.3594 32.7801 91.7503 32.1117 91.7503 31.0162C91.7503 28.7618 93.9427 27.5423 96.3183 27.5423C98.1455 27.5423 99.9135 28.0908 102.412 29.4922L104.544 25.7771C101.557 24.0698 98.9365 23.0969 96.1351 23.0969C91.3218 23.0969 86.3886 26.021 86.3886 31.562C86.3886 36.4952 90.1643 37.9599 93.9427 39.3613C94.7323 39.7278 95.5866 40.0917 96.3803 40.3989C98.0836 41.0066 100.277 41.675 100.338 43.8674C100.4 46.5476 97.6591 47.8291 94.8563 47.8291C92.6019 47.8291 90.1036 46.9761 87.8492 45.2082L85.6582 48.8047C88.519 50.997 91.6896 52.2745 94.9169 52.2745C99.9741 52.2745 105.759 49.5943 105.882 43.4429C105.942 40.6994 104.727 38.9342 103.139 37.7147Z" fill="white"/>
<path fill-rule="evenodd" clip-rule="evenodd" d="M124.889 46.0625C124.095 46.7915 122.086 47.8911 119.954 47.8911C116.848 47.8291 114.653 45.2675 114.653 42.5873C114.653 39.7265 116.786 37.96 119.832 37.96L124.889 38.0206V46.0625ZM130.431 31.682C130.431 26.3243 125.742 23.2789 121.172 23.2789C117.456 23.3409 114.959 23.9473 111.244 25.9591L112.826 29.6136C115.752 28.1515 117.577 27.5411 120.075 27.5411C122.634 27.5411 125.011 29.371 125.011 31.9259V33.8164H118.553C113.253 33.8164 108.929 37.1677 108.805 42.7113C108.805 47.8292 113.008 51.9094 118.004 52.0307V51.9714C123.425 52.094 127.69 49.9596 130.491 47.1567L130.431 31.682Z" fill="white"/>
<path fill-rule="evenodd" clip-rule="evenodd" d="M141.763 29.3101C143.226 28.5164 145.723 27.4209 148.038 27.6028H148.099C153.155 27.9087 154.068 32.7813 154.068 37.3493C154.068 41.8581 152.788 47.7076 148.403 47.8895C145.115 48.0728 142.493 46.732 141.763 46.1216V29.3101ZM149.013 52.094V52.0307C156.323 52.2745 160.102 44.7811 160.161 37.045C160.161 30.2226 156.748 23.4002 149.013 23.1563C146.333 23.0956 143.957 23.8246 141.763 25.0441V7.9281L136.22 9.81461V46.9748C136.403 47.282 139.936 51.7868 149.013 52.094Z" fill="white"/>
<path fill-rule="evenodd" clip-rule="evenodd" d="M168.812 11.6423C166.74 11.6423 165.095 13.2876 165.095 15.3601H165.033C165.033 17.4312 166.679 19.0752 168.747 19.0752C170.819 19.0752 172.465 17.4312 172.465 15.3601C172.527 13.2876 170.88 11.6423 168.812 11.6423Z" fill="white"/>
<path fill-rule="evenodd" clip-rule="evenodd" d="M171.671 22.9142L165.945 24.802L166.007 51.5433H171.671V22.9142Z" fill="white"/>
<path fill-rule="evenodd" clip-rule="evenodd" d="M193.541 23.5845C190.251 22.8529 187.205 23.4619 185.013 24.0683C182.21 24.8633 180.14 26.2014 177.644 28.03V51.544H183.308V29.2481C184.589 28.3965 186.537 27.5435 188.546 27.4815C192.081 27.4236 194.334 29.3707 194.334 32.9645V51.544H200V30.8328C200 26.8132 196.893 24.3122 193.541 23.5845Z" fill="white"/>
<path fill-rule="evenodd" clip-rule="evenodd" d="M51.9814 2.95239L51.8426 2.89579C41.0275 20.8176 46.1305 27.093 47.0239 29.3568C47.9295 31.6516 51.9895 37.237 53.1349 38.8904C53.8315 39.8902 54.3962 40.9346 54.9877 41.995C58.6085 48.4712 51.4734 54.4757 46.5658 57.5426C39.7919 61.7738 31.2581 64.5173 23.1744 63.8745C22.4683 63.8193 21.7663 63.7317 21.0683 63.6077C19.1575 63.2668 17.1996 62.3155 16.1229 60.6432C15.1365 59.1084 15.0139 57.1478 15.371 55.3596C16.158 51.4155 18.9891 48.2475 21.6275 45.2129C24.716 41.6609 27.7007 37.9876 30.0615 33.9154C32.4237 29.8432 34.1526 25.3385 34.5595 20.6505C35.0608 27.9284 31.9305 34.9772 28.0942 41.1825C25.6633 45.1159 22.8968 48.9078 21.3216 53.2548C20.8971 54.4271 20.5495 55.7881 20.8944 57.0251C21.2529 58.312 22.4063 59.0464 23.5827 59.5409C29.8621 62.1807 37.4297 60.1311 43.0218 56.7758C45.4608 55.3125 48.5709 53.1901 49.4872 50.3509C50.1838 48.1895 49.6179 45.853 48.8566 43.7872C47.6047 40.3969 45.5093 37.4149 43.8708 34.2145C42.782 32.0868 41.8819 29.8311 41.6191 27.4393C41.576 27.0552 41.5531 26.6699 41.5558 26.2831C41.6151 16.4611 49.5761 5.61641 51.7348 2.85402L51.7712 2.86749L51.6014 2.79877C47.222 0.997155 42.4276 0 37.3974 0C16.7428 0 0 16.7428 0 37.3974C0 58.0506 16.7428 74.7934 37.3974 74.7934C58.0492 74.7934 74.7934 58.0506 74.7934 37.3974C74.7934 21.9185 65.3891 8.63887 51.9814 2.95239Z" fill="white"/>
<path fill-rule="evenodd" clip-rule="evenodd" d="M90.5397 56.9584L89.2083 60.3218C89.0547 60.7233 88.8728 61.3162 88.8728 61.3162H88.8526C88.8526 61.3162 88.6612 60.7233 88.509 60.3218L87.1763 56.9584H85.8544L85.2979 63.7619H86.5349L86.8219 59.9579C86.8502 59.5065 86.8313 58.8947 86.8313 58.8947H86.8502C86.8502 58.8947 87.0617 59.5658 87.2248 59.9579L88.3163 62.5923H89.3997L90.5019 59.9579C90.665 59.5658 90.8657 58.9015 90.8657 58.9015H90.8846C90.8846 58.9015 90.8657 59.5065 90.894 59.9579L91.1824 63.7619H92.4086L91.8616 56.9584H90.5397Z" fill="white"/>
<path fill-rule="evenodd" clip-rule="evenodd" d="M95.1595 60.867H97.4503V59.8025H95.1595V58.0224H97.996V56.9592H93.9238V63.7614H98.1496V62.6983H95.1595V60.867Z" fill="white"/>
<path fill-rule="evenodd" clip-rule="evenodd" d="M101.685 62.6988H100.669V58.0203H101.685C103.046 58.0203 103.946 58.8369 103.946 60.3515C103.946 61.8849 103.064 62.6988 101.685 62.6988ZM101.751 56.9569H99.4336V63.7618H101.751C103.851 63.7618 105.221 62.4979 105.221 60.3513C105.221 58.2034 103.851 56.9569 101.751 56.9569Z" fill="white"/>
<path fill-rule="evenodd" clip-rule="evenodd" d="M112.572 62.7462C111.153 62.7462 110.282 61.6062 110.282 60.3113C110.282 59.0473 111.125 57.9733 112.562 57.9733C113.646 57.9733 114.421 58.6929 114.421 58.6929L115.014 57.7712C115.014 57.7712 114.162 56.8428 112.505 56.8428C110.503 56.8428 109.007 58.3574 109.007 60.3315C109.007 62.3325 110.445 63.8768 112.524 63.8768C114.259 63.8768 115.197 62.7745 115.197 62.7745L114.546 61.8824C114.546 61.8824 113.75 62.7462 112.572 62.7462Z" fill="white"/>
<mask id="mask0" mask-type="alpha" maskUnits="userSpaceOnUse" x="0" y="0" width="200" height="75">
<path fill-rule="evenodd" clip-rule="evenodd" d="M0 74.7934H200V0H0V74.7934Z" fill="white"/>
</mask>
<g mask="url(#mask0)">
<path fill-rule="evenodd" clip-rule="evenodd" d="M106.517 63.761H107.753V56.9574H106.517V63.761Z" fill="white"/>
<path fill-rule="evenodd" clip-rule="evenodd" d="M116.34 63.761H117.576V56.9574H116.34V63.761Z" fill="white"/>
<path fill-rule="evenodd" clip-rule="evenodd" d="M123.632 60.8877C123.632 61.2893 123.699 61.9388 123.699 61.9388H123.679C123.679 61.9388 123.373 61.2798 123.115 60.8877L120.537 56.9584H119.3V63.7619H120.537V59.8434C120.537 59.4405 120.469 58.7869 120.469 58.7869H120.488C120.488 58.7869 120.796 59.4499 121.054 59.8434L123.632 63.7619H124.858V56.9584H123.632V60.8877Z" fill="white"/>
<path fill-rule="evenodd" clip-rule="evenodd" d="M127.876 61.0101L128.481 59.1883C128.614 58.8069 128.768 58.1359 128.768 58.1359H128.787C128.787 58.1359 128.931 58.8069 129.055 59.1883L129.658 61.0101H127.876ZM128.126 56.958L125.731 63.7616H127.005L127.58 62.0179H129.967L130.541 63.7616H131.817L129.42 56.958H128.126Z" fill="white"/>
<path fill-rule="evenodd" clip-rule="evenodd" d="M137.268 62.6988H136.253V58.0203H137.268C138.629 58.0203 139.529 58.8369 139.529 60.3515C139.529 61.8849 138.647 62.6988 137.268 62.6988ZM137.336 56.9569H135.017V63.7618H137.336C139.434 63.7618 140.804 62.4979 140.804 60.3513C140.804 58.2034 139.434 56.9569 137.336 56.9569Z" fill="white"/>
<path fill-rule="evenodd" clip-rule="evenodd" d="M146.354 61.0101L146.958 59.1883C147.092 58.8069 147.246 58.1359 147.246 58.1359H147.265C147.265 58.1359 147.408 58.8069 147.533 59.1883L148.137 61.0101H146.354ZM146.603 56.958L144.208 63.7616H145.481L146.057 62.0179H148.442L149.017 63.7616H150.292L147.896 56.958H146.603Z" fill="white"/>
<path fill-rule="evenodd" clip-rule="evenodd" d="M154.881 61.242H155.926V62.0357C155.926 62.0357 155.245 62.7458 154.221 62.7458C152.945 62.7458 151.94 61.7878 151.94 60.3122C151.94 59.0281 152.754 57.973 154.278 57.973C155.361 57.973 156.087 58.6238 156.087 58.6238L156.702 57.7048C156.702 57.7048 155.839 56.8424 154.173 56.8424C152.151 56.8424 150.665 58.3759 150.665 60.3513C150.665 62.4858 152.208 63.8764 154 63.8764C155.265 63.8764 155.974 63.1487 155.974 63.1487H155.993C155.993 63.1487 155.984 63.2916 155.984 63.4358V63.7619H157.037V60.1775H154.881V61.242Z" fill="white"/>
<path fill-rule="evenodd" clip-rule="evenodd" d="M162.74 60.8877C162.74 61.2893 162.807 61.9388 162.807 61.9388H162.789C162.789 61.9388 162.481 61.2798 162.224 60.8877L159.645 56.9584H158.409V63.7619H159.645V59.8434C159.645 59.4405 159.579 58.7869 159.579 58.7869H159.596C159.596 58.7869 159.904 59.4499 160.162 59.8434L162.74 63.7619H163.968V56.9584H162.74V60.8877Z" fill="white"/>
<path fill-rule="evenodd" clip-rule="evenodd" d="M169.191 56.5073L170.197 55.2042H168.942L168.214 56.5073H169.191Z" fill="white"/>
<path fill-rule="evenodd" clip-rule="evenodd" d="M168.743 62.746C167.496 62.746 166.499 61.7111 166.499 60.3111C166.499 58.9703 167.496 57.9745 168.743 57.9745C169.987 57.9745 170.985 58.9703 170.985 60.3111C170.985 61.7111 169.987 62.746 168.743 62.746ZM168.742 56.8428C166.738 56.8428 165.225 58.3668 165.225 60.3113C165.225 62.315 166.738 63.8781 168.742 63.8781C170.743 63.8781 172.257 62.315 172.257 60.3113C172.257 58.3668 170.743 56.8428 168.742 56.8428Z" fill="white"/>
<path fill-rule="evenodd" clip-rule="evenodd" d="M177.997 58.0217H180.23V63.7621H181.466V58.0217H183.698V56.9572H177.997V58.0217Z" fill="white"/>
<path fill-rule="evenodd" clip-rule="evenodd" d="M184.601 63.761H185.837V56.9574H184.601V63.761Z" fill="white"/>
<path fill-rule="evenodd" clip-rule="evenodd" d="M190.656 62.7462C189.238 62.7462 188.367 61.6062 188.367 60.3113C188.367 59.0473 189.21 57.9733 190.647 57.9733C191.73 57.9733 192.506 58.6929 192.506 58.6929L193.1 57.7712C193.1 57.7712 192.247 56.8428 190.59 56.8428C188.588 56.8428 187.092 58.3574 187.092 60.3315C187.092 62.3325 188.53 63.8768 190.609 63.8768C192.343 63.8768 193.282 62.7745 193.282 62.7745L192.631 61.8824C192.631 61.8824 191.835 62.7462 190.656 62.7462Z" fill="white"/>
<path fill-rule="evenodd" clip-rule="evenodd" d="M195.717 61.0101L196.321 59.1883C196.456 58.8069 196.608 58.1359 196.608 58.1359H196.627C196.627 58.1359 196.771 58.8069 196.895 59.1883L197.499 61.0101H195.717ZM195.966 56.958L193.571 63.7616H194.846L195.42 62.0179H197.807L198.381 63.7616H199.657L197.261 56.958H195.966Z" fill="white"/>
<path fill-rule="evenodd" clip-rule="evenodd" d="M141.99 63.761H143.235V56.9574H141.99V63.761Z" fill="white"/>
<path fill-rule="evenodd" clip-rule="evenodd" d="M174.384 58.7968C174.384 58.3198 174.836 57.9829 175.41 57.9829C176.263 57.9829 176.915 58.5771 176.915 58.5771L177.451 57.5719C177.451 57.5719 176.761 56.8442 175.419 56.8442C174.116 56.8442 173.139 57.6864 173.139 58.8183C173.139 60.9056 176.349 60.6954 176.349 61.9122C176.349 62.4687 175.88 62.7369 175.363 62.7369C174.403 62.7369 173.666 62.0173 173.666 62.0173L172.995 62.9457C172.995 62.9457 173.829 63.8769 175.344 63.8769C176.761 63.8769 177.586 62.966 177.586 61.8826C177.586 59.7077 174.384 60.0041 174.384 58.7968Z" fill="white"/>
</g>
</svg>
