<svg width="28" height="28" viewBox="0 0 28 28" fill="none" xmlns="http://www.w3.org/2000/svg">
<path d="M25.9535 25.9089C17.9631 25.9089 10.0195 25.9089 1.98343 25.9089C2.14781 25.0887 2.24906 24.2867 2.47158 23.5216C3.56539 19.7563 5.86739 17.0852 9.33821 15.4954C9.61197 15.3697 9.83261 15.3548 10.1176 15.5258C11.4471 16.3246 12.8959 16.6796 14.4266 16.5857C17.778 16.3803 20.6082 14.0999 21.6195 10.8108C22.824 6.89127 21.0807 2.66794 17.5193 0.844888C13.9916 -0.961318 9.65447 0.211291 7.43123 3.57169C5.38486 6.66452 5.52862 10.5931 7.7925 13.5032C7.86938 13.6017 7.93813 13.7066 8.00688 13.8025C7.39248 14.1789 6.77307 14.5113 6.20116 14.9155C2.99473 17.1824 1.00087 20.2972 0.253956 24.2439C0.0889466 25.1159 0.0526947 26.0177 0.0020669 26.9092C-0.0348101 27.5557 0.42584 27.9995 1.05837 27.9995C9.68448 28.0002 18.3106 28.0002 26.9367 27.9995C27.5936 27.9995 28.0086 27.5706 27.9999 26.882C27.9542 23.3765 26.8604 20.2681 24.6747 17.5886C24.239 17.0547 23.7546 16.5598 23.2615 16.0817C22.7758 15.6113 22.1533 15.6496 21.7708 16.1238C21.4045 16.5773 21.4826 17.205 21.9558 17.6462C24.0921 19.6384 25.3853 22.1106 25.8616 25.0447C25.9054 25.32 25.921 25.5999 25.9535 25.9089ZM19.9988 8.28933C19.9913 11.7216 17.3518 14.4756 14.1091 14.5119C10.697 14.5502 7.99751 11.7735 7.99563 8.29127C7.99376 4.90108 10.6927 2.07645 13.9335 2.07645C17.298 2.07645 19.9988 4.84277 19.9988 8.28933Z" fill="#E42722"/>
</svg>
