<svg width="420" height="419" viewBox="0 0 420 419" fill="none" xmlns="http://www.w3.org/2000/svg">
<path d="M392.291 286.627C353.619 378.973 250.597 430.704 161.275 416.743C146.737 414.468 106.882 407.704 71.6085 375.8C3.66609 314.371 -10.8566 192.741 43.9405 107.01C83.8106 44.623 155.301 9.26217 223.229 11.028C237.856 11.4021 293.941 13.7515 343.213 54.9634C350.445 61.009 366.42 75.4048 380.808 98.2105C414.584 151.798 417.489 226.44 392.291 286.627Z" fill="#F7F8FC"/>
<path d="M4.72876 268.432C11.3314 240.269 32.9208 218.152 60.4092 211.388C79.3037 206.734 97.4347 209.233 112.766 216.76C117.841 219.259 123.89 216.431 125.297 210.834C138.847 157.022 186.517 117.262 243.261 117.262C310.544 117.262 365.087 173.154 365.087 242.11C365.087 243.935 365.057 246.434 365.027 248.844C365.267 254.006 367.468 256.191 370.746 256.745C397.112 259.558 417.818 281.825 418.971 309.3C420.288 340.845 395.24 366.973 364.443 366.973H79.4834C30.705 366.973 -7.4883 320.523 4.72876 268.432Z" fill="url(#paint0_linear_11376_6886)"/>
<path opacity="0.74" d="M26.3328 265.605C32.2317 240.449 51.5005 220.711 76.0544 214.666C92.9277 210.521 109.112 212.735 122.797 219.469C127.333 221.699 132.723 219.17 133.981 214.187C146.078 166.136 188.643 130.641 239.308 130.641C299.375 130.641 348.079 180.547 348.079 242.11C348.079 243.742 348.049 245.971 348.019 248.126C348.228 252.735 350.19 254.681 353.124 255.174C376.66 257.688 395.165 277.576 396.183 302.103C397.366 330.266 374.998 353.595 347.495 353.595H93.0774C49.5242 353.595 15.4332 312.114 26.3328 265.605Z" fill="white"/>
<path d="M55.5735 401.674C55.5735 403.978 57.4599 405.864 59.7806 405.864H287.054C289.359 405.864 291.261 403.978 291.261 401.674L293.147 271.14C293.147 268.835 290.422 264.331 285.437 264.66L63.3289 258.914C60.4244 258.839 57.6246 259.961 55.5735 261.996C53.5223 264.046 52.3994 266.845 52.4593 269.733L55.5735 401.674Z" fill="url(#paint1_linear_11376_6886)"/>
<path d="M59.7201 397.65C59.7201 399.834 61.5167 401.63 63.7026 401.63H281.573C283.759 401.63 285.556 399.834 285.556 397.65L287.338 279.146C287.128 272.008 280.87 269.449 277.082 269.599L64.2117 263.898C62.1755 263.838 60.1992 264.631 58.7619 266.068C57.3246 267.504 56.5311 269.479 56.576 271.515L59.7201 397.65Z" fill="#B4B7C1"/>
<path d="M283.175 341.352C282.845 341.352 282.591 341.083 282.591 340.754L282.726 331.147C282.726 330.832 282.995 330.578 283.309 330.578C283.639 330.578 283.893 330.847 283.893 331.177L283.759 340.784C283.759 341.098 283.504 341.352 283.175 341.352Z" fill="white"/>
<path d="M283.535 317.799C283.52 317.799 283.535 317.799 283.535 317.799C283.206 317.799 282.951 317.53 282.951 317.2L283.49 280.388C283.475 278.203 282.817 276.452 281.514 275.21C279.089 272.891 275.241 273.011 275.076 273.011L207.029 271.185C206.714 271.17 206.46 270.916 206.46 270.586C206.475 270.272 206.714 269.988 207.059 270.018L275.061 271.843C275.48 271.814 279.583 271.754 282.322 274.357C283.865 275.824 284.643 277.859 284.658 280.388L284.119 317.215C284.104 317.545 283.85 317.799 283.535 317.799Z" fill="white"/>
<path d="M37.9813 416.714H304.226C304.69 416.714 305.08 416.34 305.08 415.861V406.089C305.08 405.625 304.705 405.236 304.226 405.236H37.9813C37.5172 405.236 37.1279 405.61 37.1279 406.089V415.861C37.1279 416.325 37.5172 416.714 37.9813 416.714Z" fill="url(#paint2_linear_11376_6886)"/>
<path opacity="0.21" d="M154.237 395.837H70.3495C67.2503 395.837 64.75 393.338 64.75 390.24V280.806C64.75 277.633 67.385 275.089 70.5591 275.209L154.447 278.412C157.456 278.531 159.836 281 159.836 284.008V390.24C159.836 393.338 157.336 395.837 154.237 395.837Z" fill="#EAEAEA"/>
<path opacity="0.51" d="M137.561 325.52H81.9849C81.5507 325.52 81.1914 325.161 81.1914 324.727V318.936C81.1914 318.502 81.5507 318.143 81.9849 318.143H137.546C137.98 318.143 138.339 318.502 138.339 318.936V324.727C138.354 325.161 137.995 325.52 137.561 325.52Z" fill="#F7F8FC"/>
<path opacity="0.51" d="M137.666 337.313H82.105C81.6709 337.313 81.3115 336.954 81.3115 336.52V330.729C81.3115 330.295 81.6709 329.936 82.105 329.936H137.666C138.1 329.936 138.459 330.295 138.459 330.729V336.52C138.459 336.954 138.115 337.313 137.666 337.313Z" fill="#F7F8FC"/>
<path opacity="0.51" d="M137.994 349.344H82.4332C81.999 349.344 81.6396 348.985 81.6396 348.551V342.76C81.6396 342.326 81.999 341.967 82.4332 341.967H137.994C138.428 341.967 138.787 342.326 138.787 342.76V348.551C138.802 348.985 138.443 349.344 137.994 349.344Z" fill="#F7F8FC"/>
<path opacity="0.51" d="M138.114 361.135H82.5533C82.1191 361.135 81.7598 360.776 81.7598 360.342V354.551C81.7598 354.117 82.1191 353.758 82.5533 353.758H138.114C138.548 353.758 138.907 354.117 138.907 354.551V360.342C138.907 360.776 138.548 361.135 138.114 361.135Z" fill="#F7F8FC"/>
<path opacity="0.51" d="M259.415 325.52H178.836C178.402 325.52 178.043 325.161 178.043 324.727V318.936C178.043 318.502 178.402 318.143 178.836 318.143H259.415C259.849 318.143 260.209 318.502 260.209 318.936V324.727C260.209 325.161 259.849 325.52 259.415 325.52Z" fill="#F7F8FC"/>
<path opacity="0.51" d="M259.669 337.313H179.09C178.656 337.313 178.297 336.954 178.297 336.52V330.729C178.297 330.295 178.656 329.936 179.09 329.936H259.669C260.103 329.936 260.463 330.295 260.463 330.729V336.52C260.463 336.954 260.103 337.313 259.669 337.313Z" fill="#F7F8FC"/>
<path opacity="0.51" d="M226.177 349.344H179.076C178.642 349.344 178.282 348.985 178.282 348.551V342.76C178.282 342.326 178.642 341.967 179.076 341.967H226.177C226.611 341.967 226.971 342.326 226.971 342.76V348.551C226.971 348.985 226.626 349.344 226.177 349.344Z" fill="#F7F8FC"/>
<g opacity="0.51">
<path opacity="0.51" d="M221.657 290.623H220.399C219.77 290.623 219.276 290.115 219.276 289.501V285.221C219.276 283.695 218.033 282.453 216.506 282.453H208.751C207.224 282.453 205.981 283.695 205.981 285.221V289.501C205.981 290.13 205.472 290.623 204.858 290.623H203.6C202.972 290.623 202.478 290.115 202.478 289.501V285.221C202.478 281.75 205.292 278.951 208.751 278.951H216.506C219.98 278.951 222.779 281.764 222.779 285.221V289.501C222.779 290.13 222.27 290.623 221.657 290.623Z" fill="#F7F8FC"/>
<path opacity="0.51" d="M223.197 291.641H202.042C200.739 291.641 199.691 292.688 199.691 293.99V310.211C199.691 311.513 200.739 312.561 202.042 312.561H223.197C224.5 312.561 225.548 311.513 225.548 310.211V293.975C225.548 292.688 224.5 291.641 223.197 291.641ZM215.651 307.323C215.786 307.877 215.367 308.401 214.813 308.401H210.456C209.887 308.401 209.483 307.877 209.618 307.323L210.636 303.088C209.438 302.37 208.645 301.023 208.734 299.512C208.839 297.552 210.426 295.935 212.403 295.816C214.678 295.681 216.58 297.477 216.58 299.721C216.58 301.158 215.816 302.4 214.663 303.088L215.651 307.323Z" fill="#F7F8FC"/>
</g>
<path d="M283.252 101.13C283.162 101.13 283.087 101.115 283.012 101.07C282.773 100.935 282.683 100.621 282.818 100.381C283.147 99.7978 283.461 99.2142 283.761 98.6156C283.896 98.3612 284.195 98.2714 284.435 98.4061C284.689 98.5408 284.779 98.84 284.644 99.0795C284.33 99.6781 284.015 100.277 283.686 100.875C283.596 101.04 283.432 101.13 283.252 101.13Z" fill="#757D89"/>
<path d="M224.293 135.818C223.993 135.818 223.694 135.818 223.394 135.818C223.11 135.818 222.9 135.578 222.9 135.309C222.9 135.039 223.125 134.815 223.409 134.815C224.712 134.83 226.029 134.815 227.332 134.755C227.586 134.74 227.841 134.965 227.856 135.234C227.871 135.518 227.646 135.743 227.377 135.758C226.359 135.803 225.311 135.818 224.293 135.818ZM216.986 135.428C216.971 135.428 216.956 135.428 216.926 135.428C215.609 135.279 214.276 135.099 212.989 134.89C212.719 134.845 212.525 134.59 212.57 134.306C212.614 134.037 212.884 133.842 213.153 133.887C214.441 134.097 215.744 134.276 217.046 134.426C217.316 134.456 217.525 134.71 217.495 134.98C217.465 135.234 217.241 135.428 216.986 135.428ZM233.74 135.159C233.485 135.159 233.276 134.98 233.246 134.725C233.201 134.456 233.395 134.201 233.68 134.156C234.968 133.977 236.27 133.752 237.543 133.498C237.812 133.438 238.082 133.618 238.142 133.887C238.201 134.156 238.022 134.426 237.752 134.486C236.45 134.74 235.132 134.965 233.83 135.159C233.8 135.159 233.77 135.159 233.74 135.159ZM206.805 133.528C206.76 133.528 206.716 133.528 206.671 133.513C205.398 133.169 204.11 132.795 202.853 132.376C202.583 132.286 202.449 132.002 202.538 131.732C202.628 131.463 202.913 131.328 203.182 131.418C204.425 131.822 205.682 132.211 206.94 132.54C207.21 132.615 207.374 132.884 207.299 133.154C207.225 133.378 207.03 133.528 206.805 133.528ZM243.876 132.929C243.666 132.929 243.457 132.795 243.397 132.57C243.322 132.301 243.472 132.017 243.726 131.942C244.969 131.568 246.226 131.149 247.439 130.7C247.694 130.61 247.993 130.73 248.083 130.999C248.173 131.253 248.053 131.553 247.783 131.642C246.541 132.091 245.268 132.525 244.011 132.914C243.966 132.914 243.921 132.929 243.876 132.929ZM197.029 130.086C196.954 130.086 196.894 130.071 196.819 130.041C195.606 129.503 194.394 128.934 193.226 128.335C192.971 128.216 192.882 127.901 193.001 127.662C193.136 127.422 193.436 127.318 193.675 127.437C194.828 128.036 196.026 128.605 197.208 129.128C197.463 129.233 197.583 129.532 197.463 129.787C197.403 129.981 197.223 130.086 197.029 130.086ZM253.533 129.158C253.338 129.158 253.158 129.054 253.083 128.874C252.964 128.62 253.069 128.32 253.323 128.201C254.491 127.632 255.674 127.033 256.811 126.39C257.051 126.255 257.365 126.345 257.5 126.584C257.635 126.824 257.545 127.138 257.306 127.273C256.153 127.916 254.955 128.53 253.772 129.113C253.682 129.143 253.608 129.158 253.533 129.158ZM187.896 125.193C187.806 125.193 187.701 125.163 187.626 125.118C186.518 124.4 185.411 123.651 184.348 122.873C184.123 122.709 184.078 122.394 184.243 122.17C184.407 121.946 184.722 121.901 184.946 122.065C185.994 122.828 187.087 123.577 188.18 124.28C188.42 124.43 188.48 124.744 188.33 124.983C188.225 125.118 188.061 125.193 187.896 125.193ZM262.501 123.951C262.336 123.951 262.186 123.876 262.082 123.726C261.917 123.502 261.977 123.188 262.216 123.023C263.294 122.29 264.357 121.497 265.375 120.703C265.6 120.539 265.914 120.569 266.079 120.793C266.244 121.018 266.214 121.332 265.989 121.497C264.941 122.305 263.863 123.098 262.77 123.846C262.695 123.921 262.591 123.951 262.501 123.951ZM179.631 118.953C179.512 118.953 179.392 118.908 179.302 118.833C178.314 117.965 177.341 117.037 176.397 116.109C176.203 115.915 176.203 115.601 176.397 115.391C176.592 115.197 176.907 115.197 177.116 115.391C178.044 116.304 179.003 117.217 179.976 118.07C180.185 118.249 180.2 118.579 180.021 118.788C179.901 118.893 179.766 118.953 179.631 118.953ZM270.556 117.441C270.421 117.441 270.286 117.381 270.196 117.277C270.002 117.067 270.017 116.753 270.211 116.558C271.155 115.66 272.098 114.733 272.981 113.79C273.176 113.595 273.49 113.58 273.7 113.775C273.909 113.97 273.909 114.284 273.715 114.493C272.801 115.451 271.858 116.394 270.9 117.307C270.81 117.396 270.675 117.441 270.556 117.441ZM172.415 111.515C172.265 111.515 172.131 111.455 172.026 111.336C171.187 110.318 170.349 109.271 169.57 108.208C169.406 107.984 169.451 107.669 169.675 107.505C169.9 107.34 170.214 107.385 170.379 107.61C171.157 108.657 171.966 109.69 172.804 110.692C172.984 110.902 172.954 111.231 172.744 111.396C172.64 111.47 172.52 111.515 172.415 111.515ZM277.533 109.779C277.428 109.779 277.323 109.75 277.218 109.675C276.994 109.51 276.964 109.181 277.128 108.971C277.937 107.939 278.715 106.876 279.449 105.814C279.614 105.589 279.928 105.53 280.153 105.679C280.377 105.844 280.437 106.158 280.287 106.383C279.539 107.46 278.745 108.552 277.937 109.6C277.832 109.705 277.682 109.779 277.533 109.779ZM166.411 103.06C166.247 103.06 166.067 102.971 165.977 102.821C165.288 101.684 164.645 100.517 164.031 99.3493C163.896 99.1099 164.001 98.7956 164.24 98.6759C164.48 98.5412 164.794 98.646 164.914 98.8854C165.513 100.038 166.157 101.19 166.83 102.297C166.98 102.537 166.89 102.851 166.651 102.986C166.591 103.045 166.501 103.06 166.411 103.06ZM161.77 93.7975C161.575 93.7975 161.381 93.6778 161.306 93.4832C160.812 92.2562 160.333 90.9992 159.913 89.7571C159.824 89.4877 159.958 89.2034 160.228 89.1136C160.482 89.0239 160.782 89.1585 160.872 89.4279C161.291 90.655 161.755 91.897 162.234 93.1091C162.339 93.3635 162.219 93.6628 161.95 93.7676C161.905 93.7825 161.83 93.7975 161.77 93.7975Z" fill="#757D89"/>
<path d="M158.626 83.8905C158.402 83.8905 158.192 83.7409 158.132 83.5014C157.983 82.843 157.833 82.1846 157.698 81.5261C157.638 81.2568 157.818 80.9874 158.087 80.9275C158.357 80.8677 158.626 81.0473 158.686 81.3166C158.821 81.9751 158.956 82.6185 159.12 83.262C159.18 83.5314 159.016 83.8007 158.746 83.8606C158.701 83.8905 158.656 83.8905 158.626 83.8905Z" fill="#757D89"/>
<path d="M167.159 32.5169C167.069 32.5169 166.979 32.487 166.89 32.4421C166.65 32.2925 166.59 31.9782 166.725 31.7538C167.084 31.1851 167.459 30.6165 167.833 30.0478C167.983 29.8234 168.297 29.7485 168.536 29.9131C168.761 30.0628 168.836 30.377 168.671 30.6165C168.297 31.1702 167.938 31.7238 167.578 32.2925C167.488 32.4421 167.339 32.5169 167.159 32.5169Z" fill="#757D89"/>
<path d="M288.984 49.3975C288.76 49.3975 288.565 49.2478 288.505 49.0383C288.116 47.7215 287.682 46.4046 287.218 45.1177C287.128 44.8633 287.263 44.564 287.517 44.4742C287.772 44.3844 288.071 44.5191 288.161 44.7735C288.64 46.0754 289.074 47.4222 289.464 48.754C289.538 49.0234 289.389 49.3077 289.119 49.3825C289.074 49.3825 289.029 49.3975 288.984 49.3975ZM285.077 39.2217C284.882 39.2217 284.703 39.1169 284.628 38.9374C284.029 37.6953 283.4 36.4682 282.726 35.286C282.592 35.0466 282.681 34.7324 282.921 34.5977C283.16 34.463 283.475 34.5528 283.61 34.7922C284.283 36.0043 284.942 37.2464 285.541 38.5034C285.661 38.7578 285.556 39.0571 285.301 39.1768C285.227 39.2067 285.152 39.2217 285.077 39.2217ZM279.567 29.824C279.403 29.824 279.253 29.7492 279.148 29.6145C278.369 28.4922 277.531 27.3848 276.678 26.3074C276.498 26.0829 276.543 25.7687 276.752 25.6041C276.977 25.4245 277.291 25.4694 277.456 25.6789C278.325 26.7713 279.163 27.8936 279.956 29.0309C280.121 29.2554 280.061 29.5696 279.837 29.7343C279.777 29.7941 279.672 29.824 279.567 29.824ZM172.309 25.4245C172.189 25.4245 172.084 25.3796 171.994 25.3048C171.785 25.1252 171.755 24.811 171.934 24.6015C172.818 23.539 173.746 22.4765 174.704 21.4589C174.899 21.2494 175.213 21.2494 175.423 21.429C175.632 21.6236 175.632 21.9378 175.453 22.1473C174.51 23.1499 173.596 24.1825 172.728 25.23C172.593 25.3647 172.458 25.4245 172.309 25.4245ZM272.62 21.429C272.485 21.429 272.351 21.3841 272.261 21.2794C271.318 20.3067 270.315 19.334 269.296 18.4062C269.087 18.2117 269.072 17.8974 269.267 17.6879C269.461 17.4784 269.776 17.4635 269.985 17.658C271.018 18.6007 272.021 19.5734 272.995 20.576C273.189 20.7706 273.189 21.0998 272.98 21.2943C272.875 21.3841 272.755 21.429 272.62 21.429ZM179.914 17.6281C179.78 17.6281 179.63 17.5682 179.54 17.4485C179.36 17.239 179.375 16.9247 179.585 16.7302C180.633 15.8174 181.726 14.9195 182.819 14.0665C183.044 13.9019 183.358 13.9319 183.523 14.1563C183.687 14.3808 183.657 14.695 183.433 14.8596C182.355 15.6977 181.277 16.5806 180.244 17.4784C180.154 17.5832 180.034 17.6281 179.914 17.6281ZM264.431 14.2461C264.326 14.2461 264.221 14.2162 264.131 14.1414C263.038 13.3183 261.9 12.5402 260.748 11.7919C260.508 11.6423 260.448 11.328 260.598 11.0886C260.748 10.8492 261.062 10.7893 261.302 10.939C262.469 11.7022 263.622 12.4953 264.73 13.3333C264.955 13.4979 265 13.8121 264.835 14.0366C264.745 14.1862 264.595 14.2461 264.431 14.2461ZM188.673 11.1485C188.508 11.1485 188.344 11.0587 188.239 10.909C188.089 10.6696 188.164 10.3554 188.403 10.2207C189.586 9.48743 190.799 8.7841 192.027 8.12567C192.266 7.99099 192.581 8.08077 192.715 8.33517C192.85 8.5746 192.76 8.88885 192.506 9.02353C191.293 9.667 190.095 10.3703 188.942 11.0886C188.853 11.1185 188.763 11.1485 188.673 11.1485ZM255.193 8.48481C255.118 8.48481 255.043 8.46985 254.968 8.42496C253.756 7.79645 252.498 7.19788 251.24 6.64419C250.986 6.53944 250.866 6.24015 250.986 5.98576C251.091 5.73136 251.39 5.61165 251.645 5.73136C252.917 6.28505 254.19 6.89859 255.418 7.52709C255.672 7.66177 255.762 7.96106 255.627 8.20049C255.552 8.39503 255.373 8.48481 255.193 8.48481ZM198.36 6.15037C198.165 6.15037 197.97 6.03065 197.896 5.83611C197.791 5.58172 197.911 5.28243 198.165 5.17768C199.453 4.63896 200.755 4.14514 202.073 3.69621C202.342 3.60642 202.627 3.7411 202.717 4.01046C202.806 4.27982 202.672 4.56414 202.402 4.65393C201.1 5.10286 199.812 5.59668 198.539 6.12044C198.494 6.15037 198.435 6.15037 198.36 6.15037ZM245.132 4.29478C245.087 4.29478 245.027 4.27982 244.982 4.26485C243.68 3.84585 242.347 3.45678 241.03 3.11259C240.76 3.03777 240.595 2.76841 240.67 2.49905C240.745 2.2297 241.015 2.06509 241.284 2.13991C242.632 2.48409 243.979 2.87316 245.297 3.30713C245.566 3.39692 245.701 3.68124 245.626 3.93564C245.551 4.1601 245.356 4.29478 245.132 4.29478ZM208.735 2.79834C208.511 2.79834 208.301 2.6487 208.241 2.40927C208.181 2.13991 208.346 1.87055 208.615 1.79573C209.978 1.48148 211.355 1.19715 212.718 0.957721C213.002 0.912828 213.257 1.0924 213.302 1.36176C213.347 1.63112 213.167 1.90048 212.897 1.94537C211.55 2.16984 210.188 2.45416 208.855 2.76841C208.81 2.79834 208.78 2.79834 208.735 2.79834ZM234.532 1.79573C234.502 1.79573 234.487 1.79573 234.457 1.79573C233.109 1.58623 231.732 1.42162 230.37 1.3019C230.085 1.27197 229.891 1.03254 229.92 0.74822C229.95 0.463896 230.19 0.269359 230.474 0.299288C231.852 0.419003 233.259 0.598576 234.637 0.808077C234.906 0.852971 235.101 1.10737 235.056 1.37672C234.996 1.61615 234.786 1.79573 234.532 1.79573ZM219.515 1.16722C219.245 1.16722 219.036 0.957721 219.006 0.703327C218.991 0.419003 219.201 0.179573 219.47 0.164608C220.847 0.0598576 222.255 0.0149644 223.647 0C223.917 0 224.156 0.224466 224.156 0.493825C224.156 0.778149 223.932 1.00261 223.662 1.00261C222.285 1.01758 220.907 1.06247 219.545 1.16722C219.53 1.16722 219.53 1.16722 219.515 1.16722Z" fill="#757D89"/>
<path d="M290.902 57.9711C290.662 57.9711 290.438 57.7915 290.408 57.5521C290.303 56.8937 290.198 56.2352 290.064 55.5768C290.019 55.3075 290.198 55.0381 290.468 54.9932C290.737 54.9483 291.007 55.1279 291.052 55.3972C291.171 56.0557 291.291 56.7291 291.396 57.4025C291.441 57.6718 291.246 57.9412 290.977 57.9711C290.947 57.9711 290.932 57.9711 290.902 57.9711Z" fill="#757D89"/>
<path d="M276.05 66.3973C276.08 66.0531 275.886 65.7239 275.571 65.5892L266.528 61.6686C265.825 57.1194 264.402 52.66 262.231 48.455L267.217 39.9702C267.397 39.6709 267.352 39.2968 267.127 39.0274L259.447 30.0488C259.222 29.7794 258.863 29.6896 258.533 29.8243L249.37 33.4307C245.553 30.6324 241.361 28.5224 236.974 27.1307L234.488 17.5984C234.399 17.2692 234.114 17.0148 233.77 16.9998L221.987 16.087C221.643 16.0571 221.313 16.2516 221.178 16.5659L217.256 25.6044C212.704 26.3077 208.243 27.7293 204.036 29.8991L195.547 24.916C195.247 24.7364 194.873 24.7813 194.603 25.0058L185.62 32.6825C185.351 32.907 185.261 33.2661 185.396 33.5954L189.004 42.7536C186.204 46.5695 184.093 50.7595 182.701 55.1441L173.164 57.6282C172.834 57.718 172.595 58.0023 172.565 58.3465L171.651 70.1234C171.622 70.4676 171.816 70.7968 172.131 70.9315L181.174 74.8522C181.877 79.4014 183.3 83.8608 185.471 88.0658L180.485 96.5506C180.305 96.8499 180.35 97.224 180.575 97.4933L188.255 106.472C188.48 106.741 188.839 106.831 189.169 106.696L198.331 103.09C202.149 105.888 206.341 107.998 210.728 109.39L213.213 118.922C213.303 119.252 213.588 119.506 213.932 119.521L225.715 120.434C226.059 120.464 226.389 120.269 226.523 119.955L230.446 110.916C234.997 110.213 239.459 108.791 243.666 106.622L252.155 111.605C252.455 111.784 252.829 111.739 253.098 111.515L262.082 103.838C262.351 103.614 262.441 103.255 262.306 102.925L258.698 93.7672C261.498 89.9513 263.609 85.7612 265.001 81.3767L274.538 78.8926C274.868 78.8028 275.122 78.5185 275.137 78.1743L276.05 66.3973Z" fill="#757D89"/>
<path opacity="0.7" d="M223.843 79.5059C221.537 79.5059 219.291 78.8026 217.375 77.4409C212.314 73.8644 211.102 66.8311 214.695 61.7732C216.432 59.319 219.022 57.6879 221.986 57.1791C224.951 56.6703 227.93 57.3437 230.386 59.0796C232.841 60.8155 234.473 63.4043 234.982 66.3672C235.491 69.3302 234.817 72.3081 233.08 74.7622C231.344 77.2164 228.754 78.8475 225.789 79.3563C225.13 79.4461 224.487 79.5059 223.843 79.5059ZM223.888 58.5259C223.334 58.5259 222.78 58.5708 222.226 58.6756C219.666 59.1095 217.42 60.5311 215.923 62.6411C212.823 67.0257 213.857 73.1012 218.243 76.2138C220.369 77.7102 222.944 78.2938 225.505 77.8599C228.065 77.4259 230.311 76.0043 231.808 73.8943C233.305 71.7694 233.889 69.1955 233.455 66.6366C233.021 64.0777 231.598 61.833 229.487 60.3366C227.825 59.1394 225.879 58.5259 223.888 58.5259Z" fill="white"/>
<path opacity="0.7" d="M223.664 97.5229C222.9 97.5229 222.122 97.4929 221.343 97.4331C213.543 96.8195 206.461 93.2281 201.371 87.2872C196.789 81.9449 194.334 75.2858 194.334 68.3123C194.334 67.5492 194.364 66.771 194.424 65.9929C195.038 58.1964 198.631 51.1182 204.575 46.0303C210.519 40.9574 218.079 38.4883 225.88 39.1018C233.68 39.7154 240.762 43.3068 245.852 49.2477C247.215 50.8339 248.397 52.5548 249.386 54.3805L248.053 55.0988C247.125 53.3779 245.987 51.7318 244.699 50.2353C239.878 44.6087 233.156 41.1819 225.76 40.6132C218.364 40.0446 211.192 42.379 205.563 47.1976C199.933 52.0161 196.505 58.7351 195.936 66.1275C195.876 66.8608 195.846 67.5941 195.846 68.3273C195.846 74.9266 198.167 81.2416 202.509 86.3145C207.33 91.9411 214.052 95.368 221.448 95.9366C228.844 96.5053 236.016 94.1708 241.645 89.3523C245.463 86.09 248.338 81.8402 249.925 77.0965L251.362 77.5753C249.685 82.5734 246.676 87.0478 242.633 90.4896C237.288 95.0687 230.626 97.5229 223.664 97.5229Z" fill="white"/>
<path d="M340.098 117.663C340.009 117.663 339.919 117.634 339.844 117.589C339.604 117.454 339.529 117.14 339.664 116.9C340.009 116.332 340.323 115.748 340.622 115.164C340.757 114.91 341.057 114.82 341.296 114.955C341.551 115.09 341.64 115.389 341.506 115.628C341.191 116.227 340.862 116.825 340.518 117.409C340.443 117.574 340.278 117.663 340.098 117.663Z" fill="#757D89"/>
<path d="M307.565 134.529C307.55 134.529 307.535 134.529 307.52 134.529C306.157 134.424 304.78 134.229 303.432 133.96C303.163 133.9 302.983 133.646 303.028 133.361C303.088 133.092 303.343 132.912 303.627 132.957C304.93 133.212 306.262 133.391 307.595 133.496C307.879 133.511 308.074 133.765 308.059 134.035C308.059 134.334 307.834 134.529 307.565 134.529ZM314.167 134.424C313.913 134.424 313.703 134.229 313.673 133.975C313.643 133.706 313.838 133.451 314.122 133.421C315.455 133.272 316.772 133.047 318.075 132.748C318.344 132.688 318.614 132.853 318.674 133.122C318.734 133.391 318.569 133.661 318.3 133.72C316.967 134.035 315.605 134.259 314.242 134.424C314.197 134.424 314.182 134.424 314.167 134.424ZM297.234 132.089C297.174 132.089 297.099 132.074 297.039 132.059C295.767 131.551 294.524 130.952 293.326 130.294C293.087 130.159 292.997 129.86 293.132 129.605C293.267 129.366 293.566 129.276 293.82 129.411C294.988 130.054 296.201 130.638 297.429 131.132C297.683 131.236 297.818 131.536 297.713 131.79C297.623 131.97 297.429 132.089 297.234 132.089ZM324.423 131.64C324.228 131.64 324.049 131.536 323.959 131.341C323.839 131.087 323.959 130.787 324.213 130.683C325.426 130.144 326.624 129.516 327.762 128.842C328.001 128.692 328.316 128.782 328.45 129.022C328.6 129.261 328.51 129.575 328.271 129.71C327.088 130.413 325.86 131.057 324.618 131.611C324.558 131.625 324.483 131.64 324.423 131.64ZM288.116 126.627C287.996 126.627 287.892 126.582 287.787 126.508C286.739 125.64 285.736 124.682 284.777 123.694C284.583 123.485 284.598 123.171 284.792 122.976C285.002 122.782 285.316 122.796 285.511 122.991C286.424 123.964 287.412 124.877 288.431 125.73C288.64 125.909 288.67 126.223 288.49 126.433C288.416 126.553 288.266 126.627 288.116 126.627ZM333.346 125.864C333.212 125.864 333.077 125.804 332.972 125.7C332.792 125.49 332.807 125.176 333.017 124.981L333.316 124.712C334.2 123.904 335.053 123.036 335.847 122.153C336.026 121.944 336.356 121.929 336.565 122.108C336.775 122.288 336.79 122.617 336.61 122.826C335.787 123.739 334.918 124.637 334.005 125.46L333.706 125.73C333.586 125.819 333.466 125.864 333.346 125.864ZM281.094 118.651C280.93 118.651 280.765 118.577 280.675 118.412C279.942 117.26 279.253 116.048 278.654 114.82C278.534 114.566 278.639 114.267 278.893 114.147C279.148 114.027 279.447 114.132 279.567 114.386C280.151 115.584 280.81 116.751 281.529 117.873C281.678 118.113 281.603 118.412 281.379 118.562C281.289 118.636 281.184 118.651 281.094 118.651Z" fill="#757D89"/>
<path d="M276.812 108.91C276.587 108.91 276.377 108.76 276.317 108.536C276.138 107.877 275.988 107.204 275.853 106.546C275.793 106.276 275.973 106.007 276.243 105.947C276.512 105.887 276.782 106.067 276.841 106.336C276.976 106.98 277.126 107.638 277.291 108.267C277.365 108.536 277.201 108.805 276.931 108.88C276.886 108.91 276.856 108.91 276.812 108.91Z" fill="#757D89"/>
<path d="M280.959 81.5699C280.869 81.5699 280.779 81.54 280.689 81.4951C280.45 81.3455 280.39 81.0312 280.525 80.8067C280.884 80.2381 281.273 79.6545 281.663 79.1158C281.827 78.8913 282.142 78.8315 282.366 78.9961C282.591 79.1607 282.651 79.4749 282.486 79.6994C282.097 80.2381 281.737 80.7918 281.378 81.3455C281.288 81.4951 281.124 81.5699 280.959 81.5699Z" fill="#757D89"/>
<path d="M342.194 86.4794C341.999 86.4794 341.805 86.3597 341.73 86.1651C341.221 84.968 340.637 83.7708 339.978 82.6335C339.843 82.3941 339.918 82.0799 340.173 81.9452C340.412 81.8105 340.727 81.8853 340.861 82.1397C341.535 83.3069 342.134 84.534 342.658 85.7761C342.763 86.0305 342.643 86.3297 342.389 86.4345C342.314 86.4644 342.254 86.4794 342.194 86.4794ZM336.684 77.5905C336.535 77.5905 336.4 77.5307 336.295 77.411C336.041 77.1117 335.771 76.8124 335.502 76.5131C334.888 75.8397 334.244 75.1813 333.57 74.5677C333.361 74.3732 333.361 74.0589 333.54 73.8494C333.735 73.6399 334.049 73.6399 334.259 73.8195C334.948 74.463 335.606 75.1364 336.25 75.8247C336.535 76.124 336.804 76.4383 337.059 76.7525C337.238 76.962 337.208 77.2763 336.999 77.4559C336.924 77.5456 336.804 77.5905 336.684 77.5905ZM286.334 75.0017C286.199 75.0017 286.064 74.9568 285.975 74.8521C285.78 74.6575 285.795 74.3283 285.99 74.1338C286.199 73.9392 286.394 73.7447 286.603 73.5502C287.397 72.8319 288.22 72.1435 289.074 71.5C289.298 71.3354 289.613 71.3803 289.778 71.5898C289.942 71.8143 289.897 72.1285 289.688 72.2931C288.864 72.9217 288.056 73.595 287.292 74.2834C287.083 74.463 286.888 74.6575 286.693 74.8521C286.588 74.9568 286.454 75.0017 286.334 75.0017ZM328.794 70.7369C328.704 70.7369 328.615 70.7069 328.525 70.662C327.417 69.9587 326.264 69.3152 325.081 68.7615C324.827 68.6418 324.722 68.3425 324.842 68.0882C324.961 67.8338 325.261 67.729 325.515 67.8487C326.728 68.4323 327.926 69.0908 329.064 69.8091C329.303 69.9587 329.363 70.273 329.213 70.4974C329.124 70.6471 328.959 70.7369 328.794 70.7369ZM294.883 68.986C294.703 68.986 294.524 68.8813 294.434 68.7017C294.314 68.4473 294.419 68.148 294.658 68.0283C295.856 67.4297 297.114 66.891 298.386 66.4421C298.656 66.3523 298.94 66.487 299.03 66.7414C299.12 66.9958 298.985 67.295 298.731 67.3848C297.503 67.8338 296.275 68.3425 295.107 68.9262C295.033 68.9711 294.958 68.986 294.883 68.986ZM319.212 66.5468C319.167 66.5468 319.122 66.5468 319.077 66.5319C317.82 66.2026 316.517 65.9333 315.215 65.7387C314.945 65.6938 314.751 65.4395 314.795 65.1701C314.84 64.9007 315.095 64.6912 315.364 64.7511C316.697 64.9456 318.029 65.215 319.332 65.5592C319.601 65.634 319.766 65.9034 319.691 66.1727C319.646 66.3972 319.437 66.5468 319.212 66.5468ZM304.839 65.8136C304.6 65.8136 304.375 65.634 304.345 65.3946C304.3 65.1252 304.495 64.8558 304.764 64.8259C306.097 64.6164 307.444 64.4817 308.792 64.4219C309.076 64.4219 309.301 64.6314 309.316 64.9007C309.331 65.1851 309.106 65.4095 308.837 65.4245C307.519 65.4843 306.202 65.6041 304.914 65.8136C304.899 65.8136 304.869 65.8136 304.839 65.8136Z" fill="#757D89"/>
<path d="M344.513 94.6503C344.274 94.6503 344.049 94.4707 344.019 94.2313C343.915 93.5878 343.795 92.9294 343.66 92.2859C343.6 92.0165 343.78 91.7472 344.049 91.6873C344.319 91.6275 344.588 91.807 344.648 92.0764C344.798 92.7348 344.918 93.4082 345.022 94.0816C345.067 94.351 344.873 94.6203 344.603 94.6503C344.573 94.6503 344.543 94.6503 344.513 94.6503Z" fill="#757D89"/>
<path d="M336.894 98.7356C336.909 98.556 336.804 98.3914 336.64 98.3166L331.999 96.2964C331.639 93.9619 330.906 91.6724 329.783 89.5025L332.343 85.1479C332.433 84.9982 332.418 84.8037 332.298 84.669L328.345 80.06C328.226 79.9253 328.046 79.8804 327.881 79.9403L323.18 81.7959C321.219 80.3593 319.063 79.2818 316.817 78.5635L315.544 73.6702C315.5 73.5056 315.35 73.3709 315.17 73.3559L309.121 72.892C308.942 72.8771 308.777 72.9818 308.702 73.1464L306.681 77.7854C304.345 78.1445 302.055 78.8778 299.884 80.0001L295.527 77.4412C295.377 77.3514 295.183 77.3664 295.048 77.4861L290.437 81.4367C290.302 81.5564 290.257 81.736 290.317 81.9006L292.173 86.5994C290.736 88.5598 289.658 90.7146 288.939 92.9593L284.044 94.2313C283.879 94.2762 283.744 94.4258 283.729 94.6054L283.265 100.651C283.25 100.831 283.355 100.995 283.52 101.07L288.161 103.09C288.52 105.425 289.254 107.714 290.377 109.884L287.817 114.239C287.727 114.388 287.742 114.583 287.861 114.718L291.814 119.327C291.934 119.461 292.113 119.506 292.278 119.446L296.979 117.591C298.941 119.027 301.097 120.105 303.342 120.823L304.615 125.716C304.66 125.881 304.81 126.016 304.989 126.031L311.038 126.495C311.218 126.509 311.382 126.405 311.457 126.24L313.478 121.601C315.814 121.242 318.105 120.509 320.276 119.386L324.632 121.945C324.782 122.035 324.977 122.02 325.111 121.9L329.723 117.95C329.858 117.83 329.902 117.651 329.843 117.486L327.986 112.787C329.423 110.827 330.501 108.672 331.22 106.427L336.116 105.155C336.28 105.11 336.415 104.961 336.43 104.781L336.894 98.7356Z" fill="#757D89"/>
<path opacity="0.7" d="M310.08 105.83C308.823 105.83 307.595 105.441 306.547 104.693C303.777 102.732 303.118 98.9013 305.08 96.1329C306.023 94.7861 307.445 93.9032 309.062 93.6339C310.679 93.3495 312.311 93.7237 313.644 94.6814C314.991 95.6241 315.874 97.0457 316.144 98.6619C316.428 100.278 316.054 101.909 315.096 103.241C314.153 104.588 312.73 105.471 311.113 105.74C310.769 105.8 310.425 105.83 310.08 105.83ZM310.095 95.0555C308.643 95.0555 307.206 95.7289 306.307 97.0158C304.825 99.0959 305.334 101.999 307.415 103.465C308.418 104.184 309.661 104.453 310.874 104.244C312.101 104.034 313.164 103.361 313.868 102.358C314.587 101.355 314.856 100.113 314.647 98.9013C314.437 97.6743 313.763 96.6118 312.76 95.9085C311.952 95.3398 311.023 95.0555 310.095 95.0555Z" fill="#D8D8D8"/>
<path opacity="0.7" d="M309.991 115.093C309.586 115.093 309.182 115.078 308.763 115.048C304.661 114.734 300.933 112.833 298.253 109.706C295.767 106.803 294.555 103.256 294.555 99.7095C294.555 95.3698 296.381 91.0451 299.945 88.0073C306.397 82.4855 316.144 83.2487 321.669 89.6983C321.714 89.7432 321.759 89.803 321.804 89.8479C322.402 90.5662 322.941 91.3294 323.391 92.1375C323.391 92.1375 323.391 92.1375 323.391 92.1525C323.391 92.1674 323.406 92.1824 323.406 92.1824C323.421 92.1973 323.436 92.2273 323.436 92.2422C323.436 92.2572 323.45 92.2722 323.45 92.2722C323.465 92.3021 323.495 92.347 323.51 92.3769L322.178 93.0952C321.714 92.2273 321.145 91.4042 320.501 90.656C316.983 86.5408 311.548 84.9995 306.607 86.2116C304.571 86.7054 302.625 87.6781 300.918 89.1296C297.714 91.8681 296.067 95.7738 296.067 99.6945C296.067 102.882 297.16 106.099 299.391 108.718C304.376 114.539 313.15 115.228 318.974 110.244C320.89 108.613 322.313 106.488 323.106 104.109L324.543 104.588C323.66 107.222 322.073 109.571 319.947 111.382C317.162 113.791 313.644 115.093 309.991 115.093Z" fill="#D8D8D8"/>
<path d="M211.836 169.142C213.079 167.975 214.756 167.406 216.462 167.556C234.608 169.187 268.46 160.448 290.573 137.821C292.115 136.25 294.915 137.133 296.667 138.45C321.265 156.826 362.049 160.627 376.212 161.405C379.147 161.57 381.512 163.83 381.827 166.748C394.702 291.027 313.735 336.07 296.951 344.016C295.11 344.884 292.954 344.764 291.232 343.687C207.539 291.581 211.117 223.822 209.965 173.616C209.905 171.94 210.593 170.294 211.836 169.142Z" fill="url(#paint3_linear_11376_6886)"/>
<path opacity="0.61" d="M294.661 335.007C294.287 335.007 293.913 334.902 293.583 334.693C261.498 314.191 240.583 289.68 229.653 259.766C219.892 233.054 219.412 205.834 218.993 181.831L218.933 178.629C218.918 178.09 219.128 177.596 219.502 177.207C219.877 176.818 220.386 176.609 220.925 176.609C240.792 176.609 270.616 167.839 292.49 148.251C293.164 147.653 294.152 147.578 294.916 148.072C318.946 164.009 353.231 168.648 371.527 169.994C372.5 170.069 373.264 170.817 373.353 171.805C377.605 220.305 367.514 261.307 343.365 293.69C325.324 317.873 303.929 330.473 295.574 334.767C295.29 334.932 294.976 335.007 294.661 335.007ZM295.2 334.064L295.38 334.423L295.2 334.064C303.51 329.799 324.77 317.274 342.721 293.226C366.751 261.008 376.797 220.185 372.56 171.895C372.515 171.326 372.051 170.877 371.482 170.832C353.111 169.486 318.661 164.817 294.481 148.775C294.032 148.476 293.448 148.52 293.059 148.88C271.021 168.618 240.972 177.447 220.97 177.447C220.625 177.447 220.326 177.566 220.116 177.806C219.892 178.03 219.772 178.33 219.787 178.644L219.847 181.846C220.266 205.789 220.745 232.92 230.462 259.511C241.331 289.246 262.142 313.623 294.062 334.034C294.377 334.229 294.826 334.259 295.2 334.064Z" fill="white"/>
<path opacity="0.61" d="M323.915 216.056H320.127C318.24 216.056 316.728 214.529 316.728 212.659V199.729C316.728 195.105 312.97 191.349 308.344 191.349H284.898C280.272 191.349 276.514 195.105 276.514 199.729V212.659C276.514 214.544 274.987 216.056 273.115 216.056H269.327C267.441 216.056 265.929 214.529 265.929 212.659V199.729C265.929 189.254 274.418 180.77 284.898 180.77H308.344C318.824 180.77 327.313 189.254 327.313 199.729V212.659C327.328 214.529 325.801 216.056 323.915 216.056Z" fill="white"/>
<path opacity="0.61" d="M328.616 219.109H264.642C260.719 219.109 257.545 222.282 257.545 226.203V275.271C257.545 279.191 260.719 282.364 264.642 282.364H328.616C332.539 282.364 335.713 279.191 335.713 275.271V226.203C335.713 222.282 332.539 219.109 328.616 219.109ZM305.784 266.532C306.189 268.178 304.931 269.779 303.224 269.779H290.034C288.327 269.779 287.084 268.193 287.474 266.532L290.558 253.722C286.92 251.552 284.554 247.497 284.794 242.903C285.108 236.962 289.929 232.084 295.873 231.724C302.76 231.29 308.494 236.752 308.494 243.546C308.494 247.871 306.174 251.657 302.715 253.722L305.784 266.532Z" fill="white"/>
<path d="M51.397 203.066C51.397 203.066 56.5773 203.336 57.2211 213.99C57.2211 213.99 45.2137 224.75 28.9841 227.324C27.7714 227.518 30.6909 219.004 31.1251 217.851C33.2062 212.374 39.7938 208.843 51.397 203.066Z" fill="#41434B"/>
<path d="M109.756 190.542H98.8269C98.8269 190.542 65.2749 153.505 43.2513 149.764C43.2513 149.764 27.935 169.307 44.0747 205.835C45.3773 208.768 49.0005 210.085 51.7104 208.349C52.5189 207.826 53.1028 207.137 53.4621 206.269L52.1595 175.083C52.1595 175.083 80.7858 200.104 85.7564 204.937C90.7271 209.756 116.015 206.808 109.756 190.542Z" fill="url(#paint4_linear_11376_6886)"/>
<path d="M4.05597 268.311C8.63736 264.301 15.9436 259.797 26.4838 258.51L30.0472 260.695C30.0472 260.695 27.7714 264.047 23.6242 267.578C19.8064 269.793 13.9224 272.801 9.02663 273.444C4.26557 274.073 3.56189 271.2 4.05597 268.311Z" fill="#41434B"/>
<path d="M31.1241 217.851C33.9538 218.764 35.1815 222.76 42.353 220.111C49.285 217.552 54.4353 214.26 57.0854 212.359C57.1452 212.868 57.1902 213.407 57.2351 213.991C57.2351 213.991 44.5689 226.037 28.3394 228.596C27.1266 228.79 26.1535 227.578 26.5876 226.426C27.3662 224.361 28.7885 221.218 31.1241 217.851Z" fill="#CECECE"/>
<path d="M0.597262 271.738C1.49557 270.706 2.64841 269.538 4.05577 268.311C3.57667 271.2 4.28034 274.073 9.02643 273.444C13.9073 272.801 19.8062 269.793 23.624 267.578C18.848 271.648 11.5567 275.988 2.37892 275.734C0.327768 275.674 -0.750208 273.265 0.597262 271.738Z" fill="#CECECE"/>
<path d="M109.353 198.443L58.1493 198.997C58.1493 198.997 28.9092 223.18 23.6092 260.052C23.6092 260.052 22.7258 262.76 28.0109 263.224C28.0109 263.224 45.6927 251.687 57.2211 231.275C71.3545 206.255 99.3519 217.523 99.3519 217.523C112.812 220.486 123.517 219.394 131.347 207.332L109.353 198.443Z" fill="url(#paint5_linear_11376_6886)"/>
<path d="M108.14 157.217C108.14 157.217 102.63 184.826 75.6208 195.75L66.0088 194.613L63.748 198.219L86.2807 198.938C86.2807 198.938 105.55 191.306 115.745 170.535C116.09 169.862 121.719 158.264 108.14 157.217Z" fill="url(#paint6_linear_11376_6886)"/>
<path d="M105.191 197.993C105.191 197.993 111.464 180.963 112.812 164.413C112.812 164.413 108.23 160.477 105.356 158.771C104.428 158.217 104.083 157.05 104.547 156.092C106.658 151.723 119.399 134.604 120.358 134.364C125.553 133.077 146.828 122.961 161.815 143.448C168.253 152.247 160.542 179.317 131.362 207.346C121.96 208.857 113.186 206.163 105.191 197.993Z" fill="url(#paint7_linear_11376_6886)"/>
<path d="M129.34 168.141C129.34 168.141 111.928 188.747 89.6645 191.769C89.6645 191.769 83.9153 186.532 79.6334 188.402C75.3514 190.273 69.4824 198.533 69.4824 198.533H98.0638C98.0638 198.533 125.088 197.576 138.608 181.205C137.53 175.458 134.266 172.046 129.34 168.141Z" fill="url(#paint8_linear_11376_6886)"/>
<path d="M139.505 119.895L143.323 132.599C143.502 133.183 143.278 133.811 142.784 134.156C140.942 135.413 136.151 137.912 129.578 135.487C128.83 135.203 128.306 134.515 128.246 133.707L127.348 122.648L139.505 119.895Z" fill="url(#paint9_linear_11376_6886)"/>
<path d="M117.196 109.614C117.196 109.614 119.068 122.782 124.128 126.838C129.189 130.893 139.055 127.84 142.379 117.919L135.746 100.949L117.196 109.614Z" fill="url(#paint10_linear_11376_6886)"/>
<path d="M136.495 111.918C136.106 112.038 135.702 111.798 135.642 111.394C135.462 110.182 134.998 107.773 134.085 106.142C134.085 106.142 134.564 104.421 129.713 107.025C124.862 109.629 117.571 113.474 113.289 111.185C109.112 108.955 104.875 97.7618 115.924 99.8269C116.343 99.9018 116.732 99.5725 116.702 99.1386C116.568 97.298 116.747 93.063 121.044 91.7013C125.057 90.4293 127.258 92.24 128.171 93.3324C128.44 93.6616 128.934 93.6466 129.189 93.3174C130.387 91.7462 133.666 88.4091 138.471 90.5191C142.439 92.2699 143.053 94.7091 142.978 96.2205C142.963 96.7143 143.457 97.0436 143.906 96.8341C145.119 96.2804 147.065 95.9811 148.937 98.3305C151.527 101.563 147.829 104.376 146.721 105.109C146.541 105.229 146.422 105.424 146.422 105.648C146.407 107.324 146.152 114.672 142.469 118.817C142.155 119.176 141.556 119.071 141.376 118.622L138.546 111.873C138.412 111.559 138.067 111.394 137.738 111.499L136.495 111.918Z" fill="#41434B"/>
<path d="M136.436 113.281C136.436 113.281 138.172 106.232 140.792 108.522C143.427 110.812 140.104 115.84 137.094 116.797L136.436 113.281Z" fill="url(#paint11_linear_11376_6886)"/>
<path d="M70.9201 200.135L58.0892 157.351C57.5652 155.601 56.0081 154.374 54.1965 154.239L36.8591 153.057C35.0924 152.937 33.7899 154.658 34.3738 156.319L48.7168 197.172C49.181 198.489 50.3637 199.416 51.7561 199.551L68.8241 201.452L70.9201 200.135Z" fill="#41434B"/>
<path d="M47.249 171.85C48.2072 173.781 49.8691 174.918 50.9471 174.379C52.0251 173.841 52.1299 171.835 51.1717 169.905C50.2135 167.975 48.5516 166.837 47.4736 167.376C46.3956 167.915 46.2908 169.905 47.249 171.85Z" fill="#CECECE"/>
<path d="M68.8251 201.451C68.855 201.451 68.885 201.451 68.9149 201.451L105.282 199.61C106.18 199.565 106.869 198.802 106.824 197.904C106.779 197.006 106.015 196.303 105.117 196.363L68.7502 198.204C67.8519 198.248 67.1632 199.012 67.2081 199.909C67.253 200.777 67.9717 201.451 68.8251 201.451Z" fill="#41434B"/>
<path d="M112.81 164.668C112.676 164.668 112.556 164.563 112.556 164.414C112.526 156.737 115.49 146.591 115.52 146.486C115.565 146.352 115.7 146.277 115.835 146.322C115.97 146.367 116.044 146.501 115.999 146.636C115.97 146.741 113.035 156.827 113.065 164.414C113.065 164.548 112.945 164.668 112.81 164.668Z" fill="url(#paint12_linear_11376_6886)"/>
<path d="M129.341 168.395C129.281 168.395 129.236 168.38 129.191 168.335C129.086 168.245 129.056 168.096 129.146 167.976C129.221 167.871 137.126 157.83 139.836 150.976C139.881 150.842 140.03 150.782 140.165 150.842C140.3 150.886 140.36 151.036 140.3 151.171C137.56 158.084 129.625 168.185 129.535 168.29C129.49 168.365 129.415 168.395 129.341 168.395Z" fill="url(#paint13_linear_11376_6886)"/>
<path d="M140.555 183.836L139.118 181.801C139.043 181.682 139.058 181.532 139.178 181.457C139.298 181.382 139.447 181.397 139.522 181.517L140.72 183.223C151.934 178.315 158.881 164.892 158.941 164.757C159.001 164.637 159.15 164.577 159.285 164.652C159.405 164.712 159.465 164.862 159.39 164.996C159.315 165.131 152.218 178.853 140.72 183.777L140.555 183.836Z" fill="url(#paint14_linear_11376_6886)"/>
<defs>
<linearGradient id="paint0_linear_11376_6886" x1="2.43098" y1="242.119" x2="419.004" y2="242.119" gradientUnits="userSpaceOnUse">
<stop offset="0.00359712" stop-color="#E38DDD"/>
<stop offset="1" stop-color="#9571F6"/>
</linearGradient>
<linearGradient id="paint1_linear_11376_6886" x1="52.4433" y1="332.392" x2="293.136" y2="332.392" gradientUnits="userSpaceOnUse">
<stop stop-color="#40447E"/>
<stop offset="0.9964" stop-color="#3C3B6B"/>
</linearGradient>
<linearGradient id="paint2_linear_11376_6886" x1="37.1299" y1="410.976" x2="305.074" y2="410.976" gradientUnits="userSpaceOnUse">
<stop stop-color="#40447E"/>
<stop offset="0.9964" stop-color="#3C3B6B"/>
</linearGradient>
<linearGradient id="paint3_linear_11376_6886" x1="477.961" y1="42.9666" x2="408.44" y2="111.01" gradientUnits="userSpaceOnUse">
<stop stop-color="#FF928E"/>
<stop offset="1" stop-color="#FE7062"/>
</linearGradient>
<linearGradient id="paint4_linear_11376_6886" x1="36.6779" y1="179.434" x2="110.747" y2="179.434" gradientUnits="userSpaceOnUse">
<stop stop-color="#444B8C"/>
<stop offset="0.9964" stop-color="#3E4177"/>
</linearGradient>
<linearGradient id="paint5_linear_11376_6886" x1="23.5546" y1="230.833" x2="131.351" y2="230.833" gradientUnits="userSpaceOnUse">
<stop stop-color="#444B8C"/>
<stop offset="0.9964" stop-color="#3E4177"/>
</linearGradient>
<linearGradient id="paint6_linear_11376_6886" x1="78.6521" y1="166.082" x2="102.759" y2="194.764" gradientUnits="userSpaceOnUse">
<stop stop-color="#FEBBBA"/>
<stop offset="1" stop-color="#FF928E"/>
</linearGradient>
<linearGradient id="paint7_linear_11376_6886" x1="198.254" y1="95.5133" x2="125.709" y2="171.118" gradientUnits="userSpaceOnUse">
<stop stop-color="#FF928E"/>
<stop offset="1" stop-color="#FE7062"/>
</linearGradient>
<linearGradient id="paint8_linear_11376_6886" x1="106.778" y1="192.168" x2="58.5956" y2="126.218" gradientUnits="userSpaceOnUse">
<stop stop-color="#FEBBBA"/>
<stop offset="1" stop-color="#FF928E"/>
</linearGradient>
<linearGradient id="paint9_linear_11376_6886" x1="136.271" y1="137.534" x2="134.497" y2="121.558" gradientUnits="userSpaceOnUse">
<stop stop-color="#FEBBBA"/>
<stop offset="1" stop-color="#FF928E"/>
</linearGradient>
<linearGradient id="paint10_linear_11376_6886" x1="126.798" y1="123.598" x2="134.619" y2="97.7911" gradientUnits="userSpaceOnUse">
<stop stop-color="#FEBBBA"/>
<stop offset="1" stop-color="#FF928E"/>
</linearGradient>
<linearGradient id="paint11_linear_11376_6886" x1="134.907" y1="126.056" x2="142.727" y2="100.249" gradientUnits="userSpaceOnUse">
<stop stop-color="#FEBBBA"/>
<stop offset="1" stop-color="#FF928E"/>
</linearGradient>
<linearGradient id="paint12_linear_11376_6886" x1="120.778" y1="54.894" x2="109.449" y2="229.45" gradientUnits="userSpaceOnUse">
<stop stop-color="#E1473D"/>
<stop offset="1" stop-color="#E9605A"/>
</linearGradient>
<linearGradient id="paint13_linear_11376_6886" x1="141.425" y1="56.2346" x2="130.096" y2="230.79" gradientUnits="userSpaceOnUse">
<stop stop-color="#E1473D"/>
<stop offset="1" stop-color="#E9605A"/>
</linearGradient>
<linearGradient id="paint14_linear_11376_6886" x1="156.788" y1="57.2302" x2="145.458" y2="231.786" gradientUnits="userSpaceOnUse">
<stop stop-color="#E1473D"/>
<stop offset="1" stop-color="#E9605A"/>
</linearGradient>
</defs>
</svg>
