<svg width="155" height="59" viewBox="0 0 155 59" fill="none" xmlns="http://www.w3.org/2000/svg">
<g clip-path="url(#clip0_11954_426)">
<path fill-rule="evenodd" clip-rule="evenodd" d="M66.0352 38.4601L67.7277 35.6402C69.4667 37.0383 71.3912 37.7018 73.1301 37.7018C75.2864 37.7018 77.3964 36.6828 77.35 34.5738C77.3036 32.8439 75.611 32.3226 74.3126 31.8487C73.6866 31.6117 73.0374 31.3036 72.4345 31.0193C69.5131 29.9292 66.5916 28.7681 66.5916 24.8818C66.5916 20.5215 70.3942 18.1992 74.1039 18.1992C76.2835 18.1992 78.3006 18.9812 80.5961 20.3319L78.9499 23.2467C77.0254 22.1566 75.6574 21.7064 74.2663 21.7064C72.4345 21.7064 70.742 22.6779 70.742 24.4552C70.742 25.3083 71.2057 25.8533 72.1331 26.3273C73.0606 26.8012 74.5445 27.3225 75.7965 27.8202C77.0486 28.3178 78.3934 28.8628 79.5063 29.7396C80.2043 30.2456 80.7658 30.9237 81.1387 31.7108C81.5117 32.498 81.6839 33.3687 81.6395 34.242C81.5235 39.0999 77.0718 41.2089 73.1765 41.2089C70.6956 41.2089 68.2378 40.19 66.0352 38.4601Z" fill="#E42722"/>
<path fill-rule="evenodd" clip-rule="evenodd" d="M92.3729 29.9293C90.0311 29.9293 88.3848 31.3038 88.3848 33.5787C88.4027 34.6791 88.8384 35.7293 89.5999 36.5075C90.3613 37.2857 91.3889 37.731 92.4656 37.7493C93.8613 37.7086 95.2054 37.2008 96.2913 36.3038V29.9767L92.3729 29.9293ZM90.9817 41.0195C87.1096 40.9247 83.8867 37.7019 83.8867 33.6734C83.8867 29.645 87.3183 26.6592 91.399 26.6592H96.3841V25.1662C96.3841 23.152 94.5524 21.7065 92.5584 21.7065C90.5643 21.7065 89.2427 22.2041 86.9705 23.3416L85.7648 20.4743C88.6167 18.8866 90.5412 18.4126 93.4162 18.3652C96.9405 18.3652 100.558 20.7586 100.558 24.9767L100.604 37.1806C98.4476 39.3844 95.1552 41.0669 90.9817 40.9721V41.0195Z" fill="#E42722"/>
<path fill-rule="evenodd" clip-rule="evenodd" d="M114.122 21.7537C112.337 21.6115 110.412 22.4883 109.299 23.1044V36.351C109.856 36.8249 111.873 37.8913 114.4 37.7491C117.785 37.6069 118.782 32.986 118.782 29.4315C118.782 25.8769 118.064 21.9906 114.168 21.7537H114.122ZM114.887 41.0667C107.885 40.8297 105.149 37.2751 105.01 37.0382V7.74876L109.299 6.25586V19.7394C110.997 18.7383 112.927 18.2226 114.887 18.2465C120.846 18.4598 123.466 23.8153 123.466 29.1945C123.42 35.3083 120.521 41.2088 114.887 41.0193V41.0667Z" fill="#E42722"/>
<path fill-rule="evenodd" clip-rule="evenodd" d="M127.942 19.5493L132.347 18.0564V40.6159H127.988L127.942 19.5493ZM127.292 12.1085C127.289 11.7248 127.361 11.3444 127.503 10.9894C127.645 10.6343 127.855 10.3117 128.121 10.0404C128.386 9.76914 128.702 9.55457 129.049 9.40921C129.397 9.26385 129.769 9.19061 130.144 9.19377C130.519 9.18726 130.892 9.25838 131.24 9.40285C131.587 9.54733 131.903 9.76218 132.167 10.0345C132.431 10.3068 132.639 10.6309 132.777 10.9873C132.916 11.3437 132.982 11.7251 132.973 12.1085C132.976 12.4952 132.904 12.8788 132.76 13.2367C132.617 13.5946 132.405 13.9198 132.138 14.1933C131.87 14.4668 131.552 14.6831 131.202 14.8297C130.852 14.9762 130.476 15.0501 130.098 15.0469C129.719 15.0501 129.344 14.9762 128.994 14.8297C128.644 14.6831 128.326 14.4668 128.058 14.1933C127.79 13.9198 127.579 13.5946 127.435 13.2367C127.292 12.8788 127.22 12.4952 127.223 12.1085H127.292Z" fill="#E42722"/>
<path fill-rule="evenodd" clip-rule="evenodd" d="M149.829 25.9959C149.829 23.1523 148.09 21.612 145.354 21.6594C143.824 21.7068 142.317 22.394 141.32 23.0575V40.6169H136.961V22.1096C138.885 20.6641 140.485 19.5977 142.642 18.9816C144.334 18.5077 146.676 18.01 149.203 18.6025C151.731 19.1949 154.188 21.138 154.188 24.3134V40.6169H149.829V25.9959Z" fill="#E42722"/>
<path fill-rule="evenodd" clip-rule="evenodd" d="M40.0658 2.34626L39.973 2.29886C31.626 16.4222 35.5677 21.3512 36.2401 23.1522C36.9125 24.9531 40.0658 29.3608 40.97 30.6641C41.5033 31.4461 41.9207 32.2755 42.3844 33.1049C45.1899 38.1997 39.6716 42.9391 35.8923 45.3562C30.6754 48.6975 24.0905 50.8539 17.8534 50.3326C17.309 50.3045 16.7669 50.2412 16.2304 50.143C14.7696 49.8586 13.2625 49.124 12.4278 47.797C11.5931 46.47 11.5699 45.0481 11.8482 43.6263C12.451 40.522 14.6305 38.0338 16.6709 35.6405C19.0359 32.8442 21.3545 29.9532 23.163 26.7304C24.9716 23.5076 26.3164 19.9768 26.641 16.2801C27.0119 22.0147 24.6006 27.5835 21.6559 32.4651C19.7779 35.5694 17.6447 38.5552 16.439 41.9675C16.0913 42.8917 15.8362 43.9818 16.0913 44.9534C16.3463 45.9249 17.2737 46.541 18.178 46.9202C23.0239 49.0055 28.8437 47.3941 33.1563 44.7401C35.0344 43.6026 37.4457 41.9201 38.1413 39.6926C38.6746 37.9865 38.2573 36.1381 37.6544 34.503C36.7038 31.8489 35.0807 29.5029 33.8055 26.9674C32.9708 25.2849 32.2752 23.5076 32.0897 21.6356C32.0435 21.3298 32.0203 21.0208 32.0202 20.7114C32.0665 12.9862 38.2109 4.43159 39.8803 2.25147H39.9035L39.7875 2.18037C36.3044 0.732389 32.5808 -0.0158612 28.8205 -0.0234375C25.0318 -0.0234425 21.2803 0.740007 17.7806 2.22324C14.281 3.70647 11.1018 5.88037 8.42493 8.62056C5.7481 11.3608 3.62617 14.6135 2.18054 18.1926C0.734906 21.7718 -0.00605868 25.6071 3.73102e-05 29.4792C-0.00300911 33.3494 0.740206 37.1822 2.1872 40.7586C3.6342 44.335 5.75662 47.5849 8.43315 50.3226C11.1097 53.0603 14.2878 55.2321 17.786 56.7138C21.2842 58.1956 25.0338 58.9582 28.8205 58.9582C32.6083 58.9582 36.359 58.1957 39.8584 56.7143C43.3579 55.2328 46.5376 53.0614 49.216 50.324C51.8944 47.5867 54.019 44.3369 55.4685 40.7604C56.918 37.1838 57.6641 33.3505 57.6641 29.4792C57.6646 23.6896 55.9955 18.0281 52.8656 13.2024C49.7356 8.37664 45.2836 4.60065 40.0658 2.34626Z" fill="#E42722"/>
<path d="M66.8691 46.8242H68.7472C70.463 46.8242 71.576 47.8669 71.576 49.6442C71.576 51.4214 70.463 52.4878 68.7472 52.4878H66.8691V46.8242ZM68.7009 51.611C69.8138 51.611 70.5326 50.9238 70.5326 49.6442C70.5326 48.3645 69.8138 47.7247 68.7009 47.7247H67.8662V51.611H68.7009Z" fill="black"/>
<path d="M72.6191 46.8242H73.6393V52.4878H72.6191V46.8242Z" fill="black"/>
<path d="M77.7887 51.0423H75.8411L75.3774 52.4878H74.334L76.3048 46.8242H77.3482L79.2958 52.4878H78.2525L77.7887 51.0423ZM76.8149 47.8195C76.752 48.1155 76.6746 48.4082 76.583 48.6963L76.0961 50.2129H77.5337L77.0468 48.6963C76.954 48.3645 76.8381 47.8195 76.8381 47.8195H76.8149Z" fill="black"/>
<path d="M82.4731 46.7294C83.8179 46.7294 84.5135 47.4403 84.5135 47.4403L84.0266 48.2223C83.6048 47.8774 83.0828 47.6857 82.5427 47.6773C81.3138 47.6773 80.6414 48.5541 80.6414 49.6204C80.6414 50.6868 81.453 51.6584 82.4963 51.6584C83.0161 51.6449 83.5122 51.4336 83.8875 51.0659V50.4024H83.0296V49.502H84.7918V52.4878H83.9339V52.2271C83.9349 52.1476 83.9426 52.0683 83.9571 51.9901H83.9339C83.491 52.3836 82.9208 52.5948 82.334 52.5826C80.8733 52.5826 79.5981 51.4214 79.5981 49.6441C79.5917 49.2576 79.6619 48.8737 79.8044 48.5155C79.9469 48.1574 80.1588 47.8324 80.4274 47.5601C80.696 47.2879 81.0157 47.0739 81.3672 46.9312C81.7188 46.7884 82.095 46.7198 82.4731 46.7294Z" fill="black"/>
<path d="M85.9043 46.8242H86.9245L89.0112 50.0944C89.2199 50.4262 89.475 50.9712 89.475 50.9712H89.4982C89.4982 50.9712 89.4518 50.4262 89.4518 50.0944V46.8242H90.4488V52.4878H89.4518L87.3418 49.2413C87.1332 48.9096 86.8781 48.3645 86.8781 48.3645H86.8549C86.8935 48.6553 86.9167 48.948 86.9245 49.2413V52.4878H85.9043V46.8242Z" fill="black"/>
<path d="M94.3215 46.7296C94.6977 46.7201 95.0719 46.788 95.4219 46.9293C95.7719 47.0706 96.0905 47.2824 96.3588 47.5521C96.627 47.8219 96.8395 48.144 96.9834 48.4994C97.1273 48.8547 97.1998 49.2361 97.1966 49.6207C97.206 50.0103 97.1383 50.3978 96.9974 50.76C96.8566 51.1222 96.6455 51.4515 96.377 51.7282C96.1084 52.0049 95.7879 52.2232 95.4347 52.3701C95.0814 52.5169 94.7028 52.5893 94.3215 52.5828C93.9422 52.5861 93.5661 52.5113 93.2155 52.3631C92.865 52.2148 92.5473 51.9959 92.2812 51.7196C92.0151 51.4432 91.8062 51.115 91.6667 50.7544C91.5273 50.3938 91.4603 50.0083 91.4696 49.6207C91.4665 49.2381 91.5383 48.8588 91.6808 48.505C91.8233 48.1512 92.0336 47.8302 92.2993 47.5608C92.5651 47.2914 92.8809 47.0791 93.2282 46.9363C93.5755 46.7936 93.9472 46.7233 94.3215 46.7296ZM94.3215 51.6586C95.3417 51.6586 96.1532 50.7818 96.1532 49.6207C96.1626 49.3689 96.1221 49.1178 96.0343 48.8824C95.9464 48.647 95.813 48.4321 95.642 48.2507C95.4709 48.0693 95.2658 47.925 95.0389 47.8265C94.812 47.728 94.568 47.6773 94.3215 47.6775C94.077 47.6805 93.8355 47.7335 93.6113 47.8334C93.3871 47.9333 93.1848 48.0781 93.0162 48.2592C92.8476 48.4403 92.7163 48.6541 92.6298 48.8879C92.5434 49.1217 92.5037 49.3709 92.513 49.6207C92.513 50.7818 93.3245 51.6586 94.3215 51.6586ZM94.4838 45.3789H95.504L94.6925 46.4453H93.9042L94.4838 45.3789Z" fill="black"/>
<path d="M98.3321 51.043C98.7154 51.3981 99.2067 51.6073 99.7233 51.6354C100.141 51.6354 100.535 51.4221 100.535 50.9482C100.535 49.9292 97.9148 50.1188 97.9148 48.3889C97.9148 47.441 98.7031 46.7301 99.7697 46.7301C100.376 46.7074 100.967 46.9286 101.416 47.3462L100.975 48.1756C100.642 47.8718 100.216 47.6959 99.7697 47.678C99.2827 47.678 98.9349 47.9623 98.9349 48.3652C98.9349 49.3605 101.532 49.1235 101.532 50.9245C101.532 51.825 100.859 52.5833 99.7001 52.5833C99.35 52.5907 99.0019 52.5275 98.6757 52.3974C98.3494 52.2673 98.0515 52.0728 97.7988 51.825L98.3321 51.043Z" fill="black"/>
<path d="M103.689 47.7247H101.857V46.8242H106.518V47.7247H104.686V52.4878H103.689V47.7247Z" fill="black"/>
<path d="M107.236 46.8242H108.257V52.4878H107.236V46.8242Z" fill="black"/>
<path d="M112.128 46.7301C112.883 46.7045 113.617 46.9857 114.169 47.5121L113.682 48.2704C113.26 47.9035 112.728 47.6945 112.175 47.678C110.992 47.678 110.32 48.5785 110.32 49.6212C110.32 50.6638 111.015 51.6591 112.175 51.6591C112.788 51.6364 113.369 51.3734 113.798 50.9245L114.308 51.6828C114.022 51.9744 113.682 52.2045 113.307 52.3591C112.933 52.5138 112.532 52.59 112.128 52.5833C110.436 52.5833 109.276 51.3036 109.276 49.6449C109.267 49.2594 109.334 48.876 109.474 48.518C109.614 48.1599 109.824 47.8347 110.09 47.5621C110.357 47.2895 110.675 47.0751 111.026 46.9321C111.376 46.7891 111.751 46.7204 112.128 46.7301Z" fill="black"/>
<path d="M117.693 46.7294C118.069 46.7198 118.443 46.7877 118.793 46.9291C119.143 47.0704 119.462 47.2822 119.73 47.5519C119.998 47.8217 120.211 48.1438 120.354 48.4992C120.498 48.8545 120.571 49.2358 120.568 49.6204C120.577 50.01 120.509 50.3976 120.369 50.7598C120.228 51.1219 120.017 51.4513 119.748 51.728C119.479 52.0046 119.159 52.223 118.806 52.3698C118.453 52.5167 118.074 52.5891 117.693 52.5825C117.313 52.5858 116.937 52.5111 116.587 52.3628C116.236 52.2145 115.918 51.9957 115.652 51.7193C115.386 51.443 115.177 51.1147 115.038 50.7542C114.898 50.3936 114.831 50.008 114.841 49.6204C114.838 49.2379 114.909 48.8585 115.052 48.5048C115.194 48.151 115.405 47.83 115.67 47.5606C115.936 47.2912 116.252 47.0788 116.599 46.9361C116.947 46.7933 117.318 46.7231 117.693 46.7294ZM117.693 51.6584C118.713 51.6584 119.524 50.7816 119.524 49.6204C119.534 49.3687 119.493 49.1176 119.405 48.8822C119.318 48.6468 119.184 48.4319 119.013 48.2505C118.842 48.069 118.637 47.9248 118.41 47.8263C118.183 47.7278 117.939 47.6771 117.693 47.6773C117.446 47.6771 117.202 47.7278 116.975 47.8263C116.748 47.9248 116.543 48.069 116.372 48.2505C116.201 48.4319 116.068 48.6468 115.98 48.8822C115.892 49.1176 115.852 49.3687 115.861 49.6204C115.861 50.7816 116.672 51.6584 117.693 51.6584Z" fill="black"/>
<path d="M123.49 46.8242H126.806V47.7247H124.487V49.1939H126.365V50.0944H124.487V51.611H126.922V52.4878H123.49V46.8242Z" fill="black"/>
<path d="M129.982 51.043C130.366 51.3981 130.857 51.6073 131.374 51.6354C131.791 51.6354 132.185 51.4221 132.185 50.9482C132.185 49.9292 129.565 50.1188 129.565 48.3889C129.565 47.441 130.353 46.7301 131.42 46.7301C132.027 46.7074 132.618 46.9286 133.066 47.3462L132.626 48.1756C132.293 47.8718 131.866 47.6959 131.42 47.678C130.933 47.678 130.585 47.9623 130.585 48.3652C130.585 49.3605 133.182 49.1235 133.182 50.9245C133.182 51.825 132.51 52.5833 131.35 52.5833C131 52.5907 130.652 52.5275 130.326 52.3974C130 52.2673 129.702 52.0728 129.449 51.825L129.982 51.043Z" fill="black"/>
<path d="M136.937 51.0423H135.013L134.526 52.4878H133.506L135.453 46.8242H136.497L138.445 52.4878H137.424L136.937 51.0423ZM135.964 47.8195C135.901 48.1155 135.823 48.4082 135.732 48.6963L135.245 50.2129H136.706L136.195 48.6963C136.103 48.3645 135.987 47.8195 135.987 47.8195H135.964Z" fill="black"/>
<path d="M139.023 46.8244H140.044V50.45C140.044 51.2083 140.531 51.6586 141.249 51.6586C141.968 51.6586 142.501 51.2083 142.501 50.45V46.8244H143.498V50.45C143.498 51.7297 142.594 52.5828 141.272 52.5828C139.951 52.5828 139.023 51.7297 139.023 50.45V46.8244ZM141.435 45.3789H142.455L141.62 46.4453H140.832L141.435 45.3789Z" fill="black"/>
<path d="M144.82 46.8242H146.722C148.437 46.8242 149.55 47.8669 149.55 49.6442C149.55 51.4214 148.437 52.4878 146.722 52.4878H144.82V46.8242ZM146.652 51.611C147.788 51.611 148.507 50.9238 148.507 49.6442C148.507 48.3645 147.765 47.7247 146.652 47.7247H145.841V51.611H146.652Z" fill="black"/>
<path d="M150.594 46.8242H153.909V47.7247H151.614V49.1939H153.469V50.0944H151.614V51.611H154.048V52.4878H150.594V46.8242Z" fill="black"/>
</g>
<defs>
<clipPath id="clip0_11954_426">
<rect width="154.211" height="58.9343" fill="white"/>
</clipPath>
</defs>
</svg>
