<svg width="155" height="40" viewBox="0 0 155 40" fill="none" xmlns="http://www.w3.org/2000/svg">
<rect x="0.599609" width="154" height="40" rx="20" fill="#5A5D67"/>
<path d="M134.439 25.0776C133.818 25.2656 133.729 25.2062 133.599 24.4752C133.066 24.8422 132.517 25.138 131.883 25.2369C131.515 25.2943 131.14 25.317 130.776 25.231C129.777 24.9946 129.189 24.2181 129.302 23.306C129.439 22.1912 130.202 21.4849 131.33 21.4533C131.986 21.4345 132.644 21.4187 133.281 21.6343C133.505 21.7105 133.66 21.6788 133.631 21.3751C133.592 20.9399 133.672 20.4987 133.532 20.0665C133.377 19.5907 133.038 19.3463 132.543 19.2939C131.728 19.2069 130.931 19.3226 130.144 19.5214C130.002 19.557 129.836 19.6827 129.775 19.47C129.719 19.2741 129.677 19.009 129.947 18.922C131.093 18.554 132.25 18.3057 133.439 18.7825C134.044 19.0258 134.249 19.5422 134.439 20.0773V20.2732C134.323 20.3513 134.34 20.47 134.34 20.5818C134.34 21.9123 134.34 23.2427 134.34 24.5722C134.34 24.683 134.321 24.8027 134.439 24.8808V25.0776ZM133.625 23.2071C133.625 23.0202 133.61 22.9193 133.628 22.8253C133.711 22.4009 133.517 22.1813 133.087 22.1526C132.449 22.1091 131.814 21.9983 131.171 22.1338C130.416 22.2931 130.067 22.8114 130.161 23.6819C130.224 24.2655 130.652 24.586 131.379 24.586C131.913 24.586 132.392 24.3961 132.884 24.22C133.441 24.0202 133.803 23.7541 133.625 23.2081V23.2071Z" fill="white"/>
<path d="M134.439 24.8808C134.321 24.8036 134.34 24.684 134.34 24.5722C134.339 23.2417 134.34 21.9113 134.34 20.5818C134.34 20.47 134.323 20.3513 134.439 20.2732V24.8808Z" fill="white"/>
<path d="M66.9603 21.9024C66.9603 20.9716 66.9624 20.0418 66.9593 19.1109C66.9593 18.9022 66.9552 18.7153 67.2585 18.7103C67.519 18.7064 67.6828 18.7707 67.6777 19.0615C67.6706 19.5007 67.9005 19.2939 68.0806 19.1871C68.8764 18.7173 69.7128 18.4343 70.6683 18.5867C71.0946 18.6549 71.463 18.832 71.6685 19.1792C71.87 19.5195 72.0053 19.3978 72.2485 19.2445C73.0738 18.7252 73.9784 18.4373 74.9725 18.5798C75.8507 18.7064 76.392 19.287 76.4063 20.1437C76.4317 21.6937 76.4083 23.2447 76.4205 24.7958C76.4225 25.0876 76.2852 25.1608 76.0226 25.1588C75.7164 25.1568 75.6126 25.0084 75.6146 24.7275C75.6217 23.4703 75.6227 22.214 75.6136 20.9568C75.6105 20.6185 75.636 20.2802 75.5159 19.9428C75.3663 19.5195 75.0875 19.3038 74.6337 19.2791C74.1249 19.2514 73.6273 19.29 73.143 19.4611C72.1295 19.8182 72.0867 19.8756 72.0898 20.8855C72.0939 22.126 72.0898 23.3664 72.0918 24.6078C72.0918 24.8996 72.1081 25.1746 71.6634 25.1618C71.231 25.1489 71.2992 24.8601 71.2981 24.6068C71.2951 23.3496 71.3277 22.0923 71.288 20.8361C71.2412 19.3632 70.6856 19.0031 69.1592 19.377C69.1104 19.3889 69.0565 19.383 69.0087 19.3958C67.9555 19.6708 67.7632 19.9142 67.7632 20.9657C67.7632 22.1903 67.7591 23.4139 67.7662 24.6385C67.7683 24.9303 67.7398 25.1529 67.35 25.1628C66.9288 25.1736 66.9583 24.9174 66.9603 24.6444C66.9664 23.7304 66.9624 22.8164 66.9624 21.9024H66.9603Z" fill="white"/>
<path d="M64.4181 24.4624C63.716 24.9758 63.0037 25.2736 62.1795 25.2755C60.9848 25.2775 60.1779 24.6237 60.1515 23.6285C60.1179 22.3436 60.8678 21.5048 62.1215 21.4543C62.7788 21.4276 63.4371 21.4227 64.0762 21.6284C64.3031 21.7016 64.4659 21.6789 64.4303 21.3712C64.3814 20.9528 64.4893 20.5275 64.3519 20.11C64.18 19.5887 63.8584 19.3355 63.3059 19.288C62.5061 19.2198 61.7266 19.3286 60.9574 19.5264C60.8108 19.564 60.6419 19.6738 60.5819 19.472C60.5239 19.2781 60.4822 19.019 60.7579 18.926C61.8732 18.5501 63.0077 18.3434 64.1647 18.744C64.8668 18.9873 65.1985 19.5393 65.2148 20.2139C65.2514 21.7471 65.2291 23.2823 65.2362 24.8175C65.2372 25.0381 65.1487 25.1568 64.9187 25.1657C64.6908 25.1756 64.5198 25.1222 64.5117 24.8522C64.5086 24.7414 64.4618 24.6326 64.4201 24.4614L64.4181 24.4624ZM62.9884 22.1003C62.9884 22.1003 62.9884 22.0943 62.9884 22.0904C62.6689 22.1042 62.3453 22.0933 62.0299 22.1379C61.2698 22.2457 60.8912 22.7927 60.9635 23.6365C61.0144 24.2319 61.4692 24.589 62.1968 24.5831C62.9589 24.5762 63.6274 24.2824 64.2766 23.9302C64.3774 23.8758 64.4089 23.8096 64.4272 23.7057C64.6684 22.3644 64.4567 22.1171 63.0393 22.1003C63.022 22.1003 63.0057 22.1003 62.9884 22.1003Z" fill="white"/>
<path d="M111.662 24.4782C110.995 24.951 110.292 25.2705 109.468 25.2745C108.203 25.2824 107.425 24.6385 107.404 23.5622C107.379 22.304 108.172 21.478 109.441 21.4493C110.082 21.4345 110.723 21.4305 111.345 21.6304C111.537 21.6917 111.711 21.6976 111.682 21.4029C111.636 20.9518 111.741 20.4948 111.59 20.0447C111.429 19.565 111.083 19.3424 110.592 19.2919C109.793 19.2098 109.013 19.3256 108.241 19.5135C108.087 19.5511 107.903 19.7005 107.831 19.4542C107.779 19.2771 107.737 19.0209 107.983 18.9398C109.212 18.5352 110.457 18.2444 111.696 18.8844C112.296 19.194 112.474 19.7648 112.481 20.3731C112.498 21.8104 112.487 23.2467 112.49 24.684C112.49 24.9214 112.51 25.1489 112.159 25.1687C111.829 25.1865 111.766 24.9946 111.744 24.7433C111.737 24.6652 111.698 24.589 111.664 24.4782H111.662ZM111.679 23.2121C111.679 23.0162 111.657 22.8975 111.683 22.7887C111.78 22.3633 111.543 22.1883 111.161 22.1556C110.526 22.1022 109.892 21.9954 109.25 22.1319C108.545 22.2812 108.191 22.7402 108.215 23.5227C108.233 24.132 108.595 24.5267 109.233 24.5801C109.833 24.6296 110.382 24.4377 110.937 24.226C111.482 24.0182 111.864 23.77 111.68 23.2121H111.679Z" fill="white"/>
<path d="M82.0431 24.4671C81.4916 24.845 80.9208 25.1309 80.2706 25.2496C79.3629 25.4158 78.4359 25.1329 78.0238 24.48C77.5863 23.7866 77.6066 23.0575 78.035 22.3602C78.4003 21.7637 79.0098 21.5184 79.6824 21.461C80.3184 21.4066 80.9696 21.4017 81.5873 21.6025C81.9801 21.7311 82.0543 21.5866 82.0279 21.2503C82.0035 20.9417 82.0258 20.6301 82.0024 20.3215C81.9577 19.7309 81.5415 19.3452 80.931 19.2898C80.1322 19.2175 79.3517 19.3283 78.5825 19.5183C78.4166 19.5588 78.2436 19.6785 78.1683 19.449C78.09 19.2126 78.149 19.0019 78.4349 18.901C79.2357 18.6181 80.063 18.4816 80.9096 18.5538C82.1164 18.6567 82.8725 19.1928 82.8277 20.6252C82.786 21.9615 82.8206 23.2999 82.8155 24.6383C82.8155 24.8638 82.9162 25.1566 82.5 25.1694C82.0889 25.1823 82.094 24.9192 82.0981 24.6442C82.0981 24.6017 82.0727 24.5581 82.0452 24.4681L82.0431 24.4671ZM82.0228 23.2138C82.0228 23.016 82.0024 22.8983 82.0259 22.7895C82.1164 22.3681 81.8936 22.1841 81.5028 22.1554C80.8852 22.1109 80.2716 22.0001 79.6438 22.1257C78.9172 22.2711 78.4756 22.8231 78.5468 23.5719C78.6099 24.2347 79.0607 24.5928 79.834 24.5839C80.3459 24.5779 80.8089 24.3979 81.283 24.2287C81.8396 24.0309 82.2009 23.7628 82.0228 23.2129V23.2138Z" fill="white"/>
<path d="M119.304 22.2327C118.819 22.2713 118.261 22.2376 117.723 22.0863C117.434 22.0042 117.457 22.1357 117.456 22.3168C117.449 23.3851 117.977 24.5998 119.62 24.6067C120.231 24.6097 120.83 24.5761 121.417 24.397C121.589 24.3446 121.826 24.1794 121.917 24.4821C121.991 24.7304 121.883 24.9025 121.603 25.0054C120.914 25.2586 120.204 25.4109 119.478 25.3219C117.523 25.0825 116.707 24.1616 116.647 22.2406C116.617 21.3088 116.73 20.4264 117.314 19.643C118.191 18.4689 120.23 18.1404 121.441 19C122.106 19.4709 122.237 20.1594 122.118 20.8795C122.002 21.5808 121.469 21.9478 120.788 22.1318C120.325 22.2564 119.852 22.2376 119.304 22.2327ZM119.773 19.2671C118.506 19.2246 117.682 19.8972 117.489 21.1208C117.462 21.292 117.476 21.4087 117.676 21.4443C118.605 21.6075 119.534 21.7668 120.473 21.5333C121.082 21.382 121.355 21.0041 121.331 20.3978C121.301 19.642 120.833 19.3027 119.773 19.2671Z" fill="white"/>
<path d="M89.8977 21.6501C89.8794 21.1041 90.0087 20.3256 90.5144 19.647C91.3549 18.5214 92.5556 18.4155 93.8255 18.6282C94.8766 18.8043 95.7273 19.7776 95.9216 20.8904C96.0661 21.7204 96.0814 22.5444 95.8199 23.3535C95.3508 24.8076 94.1898 25.4466 92.7255 25.323C90.7932 25.1597 89.9089 24.0529 89.8967 21.6491L89.8977 21.6501ZM90.7403 21.9192C90.7403 22.1477 90.7291 22.3762 90.7423 22.6037C90.8105 23.7512 91.5197 24.5079 92.6116 24.6078C93.9456 24.7295 94.785 24.2042 95.0791 23.0518C95.131 22.847 95.1626 22.6363 95.1839 22.4266C95.2592 21.7045 95.1819 20.9913 94.8878 20.3266C94.5083 19.467 93.5182 19.0852 92.3551 19.2969C91.4648 19.4581 90.8186 20.2307 90.7433 21.2347C90.726 21.4612 90.7413 21.6907 90.7403 21.9192Z" fill="white"/>
<path d="M98.1909 19.4194C98.95 18.9653 99.7202 18.6478 100.588 18.5529C101.92 18.4075 102.777 18.9535 102.856 20.2246C102.952 21.7529 102.901 23.29 102.909 24.8233C102.911 25.1101 102.711 25.1645 102.462 25.1596C102.206 25.1556 102.115 25.0439 102.117 24.7956C102.126 23.5393 102.13 22.2821 102.119 21.0258C102.103 19.3135 101.521 19.0999 99.8363 19.3551C99.7528 19.3679 99.6694 19.3828 99.589 19.4065C98.2855 19.7982 98.2326 19.8675 98.2326 21.1811C98.2326 22.3394 98.2306 23.4988 98.2336 24.6571C98.2336 24.9242 98.2102 25.1458 97.8469 25.1616C97.4969 25.1764 97.4328 25.0102 97.4348 24.7125C97.446 23.113 97.4399 21.5135 97.4409 19.914C97.4409 19.6696 97.4379 19.4243 97.4419 19.18C97.445 18.9594 97.3778 18.7072 97.7645 18.7072C98.1359 18.7072 98.1705 18.9198 98.1603 19.1909C98.1583 19.2512 98.1746 19.3116 98.1888 19.4194H98.1909Z" fill="white"/>
<path d="M84.9273 24.4881C86.24 24.4881 87.458 24.4881 88.676 24.4881C88.8948 24.4881 89.1197 24.4436 89.1217 24.7868C89.1237 25.1172 88.9365 25.1608 88.6699 25.1608C87.3491 25.1588 86.0283 25.1627 84.7075 25.1568C84.4827 25.1558 84.1825 25.2547 84.0736 24.9847C83.9658 24.7156 84.0645 24.4505 84.2619 24.2141C84.8877 23.4653 85.4992 22.7056 86.1158 21.9489C86.7834 21.1289 87.4499 20.3078 88.1153 19.4888C88.0187 19.3236 87.866 19.3978 87.746 19.3968C86.6958 19.3899 85.6467 19.3869 84.5966 19.3968C84.3412 19.3988 84.1632 19.3632 84.1672 19.0684C84.1713 18.7875 84.33 18.7172 84.5946 18.7182C85.949 18.7251 87.3043 18.7331 88.6587 18.7153C89.083 18.7093 89.1471 18.92 89.0973 19.2385C89.0667 19.4364 88.9385 19.5897 88.8103 19.745C87.5323 21.301 86.2583 22.8599 84.9273 24.4881Z" fill="white"/>
<path d="M125.806 21.2098C126.349 20.4709 126.853 19.7824 127.359 19.0949C127.427 19.0019 127.484 18.8951 127.574 18.8259C127.792 18.6538 128.075 18.631 128.271 18.7942C128.465 18.9564 128.212 19.1137 128.118 19.2423C127.586 19.9763 127.046 20.7053 126.491 21.4235C126.307 21.6619 126.271 21.83 126.48 22.0981C127.127 22.932 127.732 23.7955 128.35 24.6512C128.439 24.7738 128.635 24.8896 128.495 25.0686C128.363 25.2358 128.148 25.1784 127.972 25.1527C127.757 25.121 127.641 24.9459 127.523 24.7837C126.941 23.9845 126.356 23.1882 125.742 22.3503C125.167 23.1605 124.618 23.9389 124.063 24.7135C123.949 24.8727 123.85 25.0587 123.645 25.125C123.452 25.1873 123.225 25.2437 123.079 25.0696C122.94 24.9024 123.136 24.7788 123.228 24.6551C123.845 23.8202 124.458 22.9804 125.091 22.1564C125.277 21.9141 125.308 21.7479 125.099 21.4858C124.533 20.7755 124.005 20.0376 123.477 19.3007C123.367 19.1464 123.069 18.9357 123.316 18.7754C123.547 18.6251 123.906 18.6211 124.127 18.9159C124.404 19.2849 124.675 19.6588 124.947 20.0307C125.219 20.4026 125.491 20.7746 125.808 21.2098H125.806Z" fill="white"/>
<path d="M114.173 20.0861C114.173 18.7962 114.177 17.5053 114.17 16.2154C114.169 15.9276 114.177 15.7149 114.589 15.7208C114.993 15.7268 114.959 15.9572 114.959 16.2065C114.959 18.7052 114.959 21.2048 114.959 23.7035C114.959 24.4365 114.962 24.4474 115.679 24.485C115.919 24.4978 116.022 24.5878 116.019 24.8045C116.017 25.0082 115.925 25.1339 115.699 25.1744C114.8 25.3357 114.194 24.8727 114.179 23.9577C114.158 22.6678 114.173 21.377 114.173 20.0871H114.171L114.173 20.0861Z" fill="white"/>
<path d="M134.439 20.2732V20.0773C134.249 19.5422 134.044 19.0258 133.439 18.7825C132.25 18.3057 131.093 18.554 129.947 18.922C129.677 19.009 129.719 19.2741 129.775 19.47C129.836 19.6827 130.002 19.557 130.144 19.5214C130.931 19.3226 131.728 19.2069 132.543 19.2939C133.038 19.3463 133.377 19.5907 133.532 20.0665C133.672 20.4987 133.592 20.9399 133.631 21.3751C133.66 21.6788 133.505 21.7105 133.281 21.6343C132.644 21.4187 131.986 21.4345 131.33 21.4533C130.202 21.4849 129.439 22.1912 129.302 23.306C129.189 24.2181 129.777 24.9946 130.776 25.231C131.14 25.317 131.515 25.2943 131.883 25.2369C132.517 25.138 133.066 24.8422 133.599 24.4752C133.729 25.2062 133.818 25.2656 134.439 25.0776V24.8808M134.439 20.2732C134.323 20.3513 134.34 20.47 134.34 20.5818M134.439 20.2732V24.8808M134.34 20.5818C134.34 21.9123 134.34 23.2427 134.34 24.5722M134.34 20.5818C134.34 21.9113 134.339 23.2417 134.34 24.5722M134.34 24.5722C134.34 24.683 134.321 24.8027 134.439 24.8808M134.34 24.5722C134.34 24.684 134.321 24.8036 134.439 24.8808M133.625 23.2071C133.625 23.0202 133.61 22.9193 133.628 22.8253C133.711 22.4009 133.517 22.1813 133.087 22.1526C132.449 22.1091 131.814 21.9983 131.171 22.1338C130.416 22.2931 130.067 22.8114 130.161 23.6819C130.224 24.2655 130.652 24.586 131.379 24.586C131.913 24.586 132.392 24.3961 132.884 24.22C133.441 24.0202 133.803 23.7541 133.625 23.2081V23.2071ZM66.9603 21.9024C66.9603 20.9716 66.9624 20.0418 66.9593 19.1109C66.9593 18.9022 66.9552 18.7153 67.2585 18.7103C67.519 18.7064 67.6828 18.7707 67.6777 19.0615C67.6706 19.5007 67.9005 19.2939 68.0806 19.1871C68.8764 18.7173 69.7128 18.4343 70.6683 18.5867C71.0946 18.6549 71.463 18.832 71.6685 19.1792C71.87 19.5195 72.0053 19.3978 72.2485 19.2445C73.0738 18.7252 73.9784 18.4373 74.9725 18.5798C75.8507 18.7064 76.392 19.287 76.4063 20.1437C76.4317 21.6937 76.4083 23.2447 76.4205 24.7958C76.4225 25.0876 76.2852 25.1608 76.0226 25.1588C75.7164 25.1568 75.6126 25.0084 75.6146 24.7275C75.6217 23.4703 75.6227 22.214 75.6136 20.9568C75.6105 20.6185 75.636 20.2802 75.5159 19.9428C75.3663 19.5195 75.0875 19.3038 74.6337 19.2791C74.1249 19.2514 73.6273 19.29 73.143 19.4611C72.1295 19.8182 72.0867 19.8756 72.0898 20.8855C72.0939 22.126 72.0898 23.3664 72.0918 24.6078C72.0918 24.8996 72.1081 25.1746 71.6634 25.1618C71.231 25.1489 71.2992 24.8601 71.2981 24.6068C71.2951 23.3496 71.3277 22.0923 71.288 20.8361C71.2412 19.3632 70.6856 19.0031 69.1592 19.377C69.1104 19.3889 69.0565 19.383 69.0087 19.3958C67.9555 19.6708 67.7632 19.9142 67.7632 20.9657C67.7632 22.1903 67.7591 23.4139 67.7662 24.6385C67.7683 24.9303 67.7398 25.1529 67.35 25.1628C66.9288 25.1736 66.9583 24.9174 66.9603 24.6444C66.9664 23.7304 66.9624 22.8164 66.9624 21.9024H66.9603ZM64.4181 24.4624C63.716 24.9758 63.0037 25.2736 62.1795 25.2755C60.9848 25.2775 60.1779 24.6237 60.1515 23.6285C60.1179 22.3436 60.8678 21.5048 62.1215 21.4543C62.7788 21.4276 63.4371 21.4227 64.0762 21.6284C64.3031 21.7016 64.4659 21.6789 64.4303 21.3712C64.3814 20.9528 64.4893 20.5275 64.3519 20.11C64.18 19.5887 63.8584 19.3355 63.3059 19.288C62.5061 19.2198 61.7266 19.3286 60.9574 19.5264C60.8108 19.564 60.6419 19.6738 60.5819 19.472C60.5239 19.2781 60.4822 19.019 60.7579 18.926C61.8732 18.5501 63.0077 18.3434 64.1647 18.744C64.8668 18.9873 65.1985 19.5393 65.2148 20.2139C65.2514 21.7471 65.2291 23.2823 65.2362 24.8175C65.2372 25.0381 65.1487 25.1568 64.9187 25.1657C64.6908 25.1756 64.5198 25.1222 64.5117 24.8522C64.5086 24.7414 64.4618 24.6326 64.4201 24.4614L64.4181 24.4624ZM62.9884 22.1003C62.9884 22.1003 62.9884 22.0943 62.9884 22.0904C62.6689 22.1042 62.3453 22.0933 62.0299 22.1379C61.2698 22.2457 60.8912 22.7927 60.9635 23.6365C61.0144 24.2319 61.4692 24.589 62.1968 24.5831C62.9589 24.5762 63.6274 24.2824 64.2766 23.9302C64.3774 23.8758 64.4089 23.8096 64.4272 23.7057C64.6684 22.3644 64.4567 22.1171 63.0393 22.1003C63.022 22.1003 63.0057 22.1003 62.9884 22.1003ZM111.662 24.4782C110.995 24.951 110.292 25.2705 109.468 25.2745C108.203 25.2824 107.425 24.6385 107.404 23.5622C107.379 22.304 108.172 21.478 109.441 21.4493C110.082 21.4345 110.723 21.4305 111.345 21.6304C111.537 21.6917 111.711 21.6976 111.682 21.4029C111.636 20.9518 111.741 20.4948 111.59 20.0447C111.429 19.565 111.083 19.3424 110.592 19.2919C109.793 19.2098 109.013 19.3256 108.241 19.5135C108.087 19.5511 107.903 19.7005 107.831 19.4542C107.779 19.2771 107.737 19.0209 107.983 18.9398C109.212 18.5352 110.457 18.2444 111.696 18.8844C112.296 19.194 112.474 19.7648 112.481 20.3731C112.498 21.8104 112.487 23.2467 112.49 24.684C112.49 24.9214 112.51 25.1489 112.159 25.1687C111.829 25.1865 111.766 24.9946 111.744 24.7433C111.737 24.6652 111.698 24.589 111.664 24.4782H111.662ZM111.679 23.2121C111.679 23.0162 111.657 22.8975 111.683 22.7887C111.78 22.3633 111.543 22.1883 111.161 22.1556C110.526 22.1022 109.892 21.9954 109.25 22.1319C108.545 22.2812 108.191 22.7402 108.215 23.5227C108.233 24.132 108.595 24.5267 109.233 24.5801C109.833 24.6296 110.382 24.4377 110.937 24.226C111.482 24.0182 111.864 23.77 111.68 23.2121H111.679ZM82.0431 24.4671C81.4916 24.845 80.9208 25.1309 80.2706 25.2496C79.3629 25.4158 78.4359 25.1329 78.0238 24.48C77.5863 23.7866 77.6066 23.0575 78.035 22.3602C78.4003 21.7637 79.0098 21.5184 79.6824 21.461C80.3184 21.4066 80.9696 21.4017 81.5873 21.6025C81.9801 21.7311 82.0543 21.5866 82.0279 21.2503C82.0035 20.9417 82.0258 20.6301 82.0024 20.3215C81.9577 19.7309 81.5415 19.3452 80.931 19.2898C80.1322 19.2175 79.3517 19.3283 78.5825 19.5183C78.4166 19.5588 78.2436 19.6785 78.1683 19.449C78.09 19.2126 78.149 19.0019 78.4349 18.901C79.2357 18.6181 80.063 18.4816 80.9096 18.5538C82.1164 18.6567 82.8725 19.1928 82.8277 20.6252C82.786 21.9615 82.8206 23.2999 82.8155 24.6383C82.8155 24.8638 82.9162 25.1566 82.5 25.1695C82.0889 25.1823 82.094 24.9192 82.0981 24.6442C82.0981 24.6017 82.0727 24.5581 82.0452 24.4681L82.0431 24.4671ZM82.0228 23.2138C82.0228 23.016 82.0024 22.8983 82.0258 22.7895C82.1164 22.3681 81.8936 22.1841 81.5028 22.1554C80.8852 22.1109 80.2716 22.0001 79.6438 22.1257C78.9172 22.2711 78.4756 22.8231 78.5468 23.5719C78.6099 24.2347 79.0607 24.5928 79.834 24.5839C80.3459 24.5779 80.8089 24.3979 81.283 24.2287C81.8396 24.0309 82.2009 23.7628 82.0228 23.2129V23.2138ZM119.304 22.2327C118.819 22.2713 118.261 22.2376 117.723 22.0863C117.434 22.0042 117.457 22.1357 117.456 22.3168C117.449 23.3851 117.977 24.5998 119.62 24.6067C120.231 24.6097 120.83 24.5761 121.417 24.397C121.589 24.3446 121.826 24.1794 121.917 24.4821C121.991 24.7304 121.883 24.9025 121.603 25.0054C120.914 25.2586 120.204 25.4109 119.478 25.3219C117.523 25.0825 116.707 24.1616 116.647 22.2406C116.617 21.3088 116.73 20.4264 117.314 19.643C118.191 18.4689 120.23 18.1404 121.441 19C122.106 19.4709 122.237 20.1594 122.118 20.8795C122.002 21.5808 121.469 21.9478 120.788 22.1318C120.325 22.2564 119.852 22.2376 119.304 22.2327ZM119.773 19.2671C118.506 19.2246 117.682 19.8972 117.489 21.1208C117.462 21.292 117.476 21.4087 117.676 21.4443C118.605 21.6075 119.534 21.7668 120.473 21.5333C121.082 21.382 121.355 21.0041 121.331 20.3978C121.301 19.642 120.833 19.3027 119.773 19.2671ZM89.8977 21.6501C89.8794 21.1041 90.0087 20.3256 90.5144 19.647C91.3549 18.5214 92.5556 18.4155 93.8255 18.6282C94.8766 18.8043 95.7273 19.7776 95.9216 20.8904C96.0661 21.7204 96.0814 22.5444 95.8199 23.3535C95.3508 24.8076 94.1898 25.4466 92.7255 25.323C90.7932 25.1598 89.9089 24.0529 89.8967 21.6491L89.8977 21.6501ZM90.7403 21.9192C90.7403 22.1477 90.7291 22.3762 90.7423 22.6037C90.8105 23.7512 91.5197 24.5079 92.6116 24.6078C93.9456 24.7295 94.785 24.2042 95.0791 23.0518C95.131 22.847 95.1626 22.6363 95.1839 22.4266C95.2592 21.7045 95.1819 20.9913 94.8878 20.3266C94.5083 19.467 93.5182 19.0852 92.3551 19.2969C91.4648 19.4581 90.8186 20.2307 90.7433 21.2347C90.726 21.4612 90.7413 21.6907 90.7403 21.9192ZM98.1909 19.4194C98.95 18.9653 99.7203 18.6478 100.588 18.5529C101.92 18.4075 102.777 18.9535 102.856 20.2246C102.952 21.7529 102.901 23.29 102.909 24.8233C102.911 25.1101 102.711 25.1645 102.462 25.1596C102.206 25.1556 102.115 25.0439 102.117 24.7956C102.126 23.5393 102.13 22.2821 102.119 21.0258C102.103 19.3135 101.521 19.0999 99.8363 19.3551C99.7528 19.3679 99.6694 19.3828 99.589 19.4065C98.2855 19.7982 98.2326 19.8675 98.2326 21.1811C98.2326 22.3394 98.2306 23.4988 98.2336 24.6571C98.2336 24.9242 98.2102 25.1458 97.8469 25.1616C97.4969 25.1764 97.4328 25.0102 97.4348 24.7125C97.446 23.113 97.4399 21.5135 97.4409 19.914C97.4409 19.6696 97.4379 19.4243 97.4419 19.18C97.445 18.9594 97.3778 18.7072 97.7645 18.7072C98.1359 18.7072 98.1705 18.9198 98.1603 19.1909C98.1583 19.2512 98.1746 19.3116 98.1888 19.4194H98.1909ZM84.9273 24.4881C86.24 24.4881 87.458 24.4881 88.676 24.4881C88.8948 24.4881 89.1197 24.4436 89.1217 24.7869C89.1237 25.1172 88.9365 25.1608 88.6699 25.1608C87.3491 25.1588 86.0283 25.1627 84.7075 25.1568C84.4827 25.1558 84.1825 25.2547 84.0736 24.9847C83.9658 24.7156 84.0645 24.4505 84.2619 24.2141C84.8877 23.4653 85.4992 22.7056 86.1158 21.9489C86.7834 21.1289 87.4499 20.3078 88.1153 19.4888C88.0187 19.3236 87.866 19.3978 87.746 19.3968C86.6958 19.3899 85.6468 19.3869 84.5966 19.3968C84.3412 19.3988 84.1632 19.3632 84.1672 19.0684C84.1713 18.7875 84.33 18.7172 84.5946 18.7182C85.949 18.7251 87.3043 18.7331 88.6587 18.7153C89.083 18.7093 89.1471 18.92 89.0973 19.2385C89.0667 19.4364 88.9385 19.5897 88.8103 19.745C87.5323 21.301 86.2583 22.8599 84.9273 24.4881ZM125.806 21.2098C126.349 20.4709 126.853 19.7824 127.359 19.0949C127.427 19.0019 127.484 18.8951 127.574 18.8259C127.792 18.6538 128.075 18.631 128.271 18.7942C128.465 18.9564 128.212 19.1137 128.118 19.2423C127.586 19.9763 127.046 20.7053 126.491 21.4235C126.307 21.6619 126.271 21.83 126.48 22.0981C127.127 22.932 127.732 23.7955 128.35 24.6512C128.439 24.7738 128.635 24.8896 128.495 25.0686C128.363 25.2358 128.148 25.1784 127.972 25.1527C127.757 25.121 127.641 24.9459 127.523 24.7837C126.941 23.9845 126.356 23.1882 125.742 22.3503C125.167 23.1605 124.618 23.9389 124.063 24.7135C123.949 24.8727 123.85 25.0587 123.645 25.125C123.452 25.1873 123.225 25.2437 123.079 25.0696C122.94 24.9024 123.136 24.7788 123.228 24.6551C123.845 23.8202 124.458 22.9804 125.091 22.1564C125.277 21.9141 125.308 21.7479 125.099 21.4858C124.533 20.7755 124.005 20.0376 123.477 19.3007C123.367 19.1464 123.069 18.9357 123.316 18.7754C123.547 18.6251 123.906 18.6211 124.127 18.9159C124.404 19.2849 124.675 19.6588 124.947 20.0307C125.219 20.4026 125.491 20.7746 125.808 21.2098H125.806ZM114.173 20.0861C114.173 18.7962 114.177 17.5053 114.17 16.2154C114.169 15.9276 114.177 15.7149 114.589 15.7208C114.993 15.7268 114.959 15.9572 114.959 16.2065C114.959 18.7052 114.959 21.2048 114.959 23.7035C114.959 24.4365 114.962 24.4474 115.679 24.485C115.919 24.4978 116.022 24.5878 116.019 24.8045C116.017 25.0082 115.925 25.1339 115.699 25.1744C114.8 25.3357 114.194 24.8727 114.179 23.9577C114.158 22.6678 114.173 21.377 114.173 20.0871H114.171L114.173 20.0861Z" stroke="white" stroke-width="0.5"/>
<path d="M40.214 9.64945C41.1122 9.64246 42.0087 9.63373 42.907 9.625C48.5805 10.3533 52.894 14.2863 53.6144 19.6811C54.2827 24.6794 51.9975 29.1818 47.2438 31.6355C40.6577 35.0341 32.3217 31.7333 30.0886 24.889C27.8591 18.0639 32.2211 11.0361 39.5025 9.7228C39.7361 9.68089 39.9768 9.67215 40.214 9.6477V9.64945ZM33.2128 21.19C33.2092 24.662 35.2142 27.5366 38.5629 28.8657C39.7864 29.3512 40.0325 29.6935 40.0343 30.9247C40.0343 31.2705 40.0595 31.6198 40.0289 31.9621C39.9732 32.5978 40.1098 32.7917 40.7889 32.4476C43.2429 31.2007 45.5066 29.7057 47.3139 27.6641C49.211 25.5177 50.368 23.1268 49.9368 20.1579C49.326 15.9349 45.5407 12.8507 40.9847 13.1686C36.2741 13.4986 33.1194 17.3251 33.2146 21.1865L33.2128 21.19Z" fill="white"/>
</svg>
