<svg width="134" height="40" viewBox="0 0 134 40" fill="none" xmlns="http://www.w3.org/2000/svg">
<rect width="133.6" height="40" rx="20" fill="#5A5D67"/>
<path d="M29.6103 12.1102C29.7809 12.1547 29.9442 12.0099 29.9466 11.8336C29.971 10.0917 30.5362 8.5803 31.9365 7.40488C32.0549 7.30557 32.1858 7.20821 32.326 7.11414C33.9042 6.0551 35.8708 7.3935 35.0463 9.10596C34.5262 10.1978 33.6857 11.1176 32.6294 11.7509C32.594 11.7712 32.6175 11.8094 32.6561 11.7962C34.3401 11.2234 36.0271 11.0816 37.7051 11.8238C38.5294 12.1887 39.2183 12.7115 39.7974 13.3736C40.1166 13.7384 40.0481 14.2897 39.6817 14.6071C38.8918 15.2937 38.2396 16.0736 37.8782 17.0551C37.4008 18.3531 37.5633 19.601 38.1754 20.8182C38.7558 21.9716 39.6399 22.7925 40.9179 23.1905C40.9943 23.2182 41.0266 23.3054 40.9962 23.3808C40.1836 25.3945 39.2243 27.3064 37.6209 28.8516C36.8133 29.6298 35.8551 30.1171 34.7019 29.9982C34.0421 29.9304 33.3934 29.7084 32.7541 29.5125C31.9842 29.2769 31.2119 29.0161 30.3996 29.1749C29.7215 29.3078 29.0575 29.5006 28.4159 29.7511C26.8166 30.3773 25.4528 30.03 24.2367 28.9182C22.9605 27.7494 22.137 26.2875 21.3948 24.7771C20.702 23.3675 20.2316 21.8902 20.0751 20.3366C19.8614 18.2142 20.0621 16.155 21.2241 14.2758C22.037 12.9607 23.1412 11.986 24.7199 11.6046C25.8913 11.32 27.0533 11.439 28.2046 11.7185C28.6755 11.8323 29.1417 11.9804 29.6103 12.1102Z" fill="white"/>
<path d="M73.7443 16.895C73.8922 16.895 74.0145 16.9954 74.0273 17.1427C74.0503 17.4063 74.4108 17.5253 74.6127 17.3544C75.0334 16.9985 75.5181 16.8081 76.0715 16.7372C76.6085 16.6728 77.1523 16.7758 77.629 17.0321C78.1056 17.2883 78.4921 17.6855 78.7358 18.1697C79.4405 19.5876 79.4251 21.0274 78.6041 22.3953C77.7955 23.7427 75.9025 24.1441 74.7104 23.2671C74.5195 23.1283 74.2538 23.2386 74.2538 23.4747V25.4279C74.2538 25.8934 73.8764 26.2709 73.4108 26.2709C72.9453 26.2709 72.5678 25.8934 72.5678 25.4279V17.6451C72.5678 17.2308 72.9037 16.895 73.3179 16.895H73.7443ZM77.2891 21.3518C77.5573 20.6472 77.5468 19.8324 77.2928 19.1226C77.2904 19.1159 77.288 19.1092 77.2855 19.1025C77.0308 18.4082 76.4074 18.0083 75.7693 18.0663C75.0419 18.133 74.4521 18.6203 74.3372 19.3615C74.2513 19.9032 74.2336 20.4535 74.2845 20.9995C74.3628 21.7906 74.927 22.3285 75.6405 22.4151C76.354 22.5017 77.0052 22.104 77.2891 21.3518Z" fill="white"/>
<path d="M64.5785 17.6281C64.5785 17.22 64.9094 16.8891 65.3175 16.8891H65.6072C65.8218 16.8891 66.0015 17.0515 66.0232 17.2649C66.0392 17.4221 66.0552 17.5789 66.0717 17.7389C66.0772 17.7928 66.1515 17.847 66.1818 17.8021C67.0804 16.4231 69.6115 16.1978 70.7187 18.1323C71.5456 19.581 71.2887 21.8273 70.1596 22.9354C69.7386 23.3476 69.1456 23.6164 68.5275 23.6933C67.6919 23.7973 66.293 24.5251 66.293 25.3672V25.4121C66.293 25.8856 65.9092 26.2694 65.4358 26.2694C64.9623 26.2694 64.5785 25.8856 64.5785 25.4121V17.6281ZM69.4229 20.8594C69.5031 20.4163 69.5028 19.9577 69.4169 19.5156C69.2479 18.6431 68.6207 18.0729 67.8334 18.0648C67.1067 18.0575 66.4291 18.6181 66.3077 19.4232C66.2345 19.9244 66.2681 20.4447 66.2784 20.9562C66.2901 21.5433 66.5923 21.9836 67.0958 22.2471C67.331 22.3787 67.598 22.4427 67.8672 22.432C68.1364 22.4212 68.3974 22.3362 68.6215 22.1862C69.1339 21.8583 69.3275 21.3858 69.4229 20.8594Z" fill="white"/>
<path d="M63.3557 23.3772C63.3747 23.484 63.2861 23.5739 63.1776 23.5744C62.6999 23.5765 62.2503 23.5841 61.803 23.5622C61.7056 23.557 61.5673 23.4154 61.5307 23.3126C61.2973 22.6353 61.0756 21.9521 60.8722 21.2637C60.8056 21.0377 60.7097 20.9547 60.4712 20.9592C59.6787 20.9731 58.8862 20.968 58.0944 20.9592C57.9041 20.9592 57.8244 21.0083 57.7695 21.205C57.5763 21.8948 57.3385 22.5722 57.1504 23.2635C57.0773 23.5174 56.9682 23.5893 56.7209 23.579C56.0239 23.5505 55.5236 22.8964 55.7324 22.2309C55.7686 22.1156 55.8048 22.0008 55.8413 21.886C56.6126 19.4789 57.3897 17.0741 58.1449 14.6604C58.2364 14.3669 58.3644 14.2839 58.6527 14.2979C59.165 14.3221 59.6772 14.2979 60.1894 14.314C60.2911 14.3177 60.4514 14.4109 60.4821 14.4975C61.448 17.455 62.4059 20.4149 63.3557 23.3772ZM60.1224 18.5422C59.8753 17.7221 58.7139 17.7216 58.4749 18.5442C58.3151 19.0944 58.7259 19.6507 59.2989 19.6507C59.8755 19.6507 60.2888 19.0944 60.1224 18.5422Z" fill="white"/>
<path d="M83.1271 23.0074C83.2665 22.3484 84.0259 22.0538 84.6818 22.207C85.105 22.3059 85.5336 22.338 85.9751 22.2955C86.2637 22.2728 86.5444 22.1898 86.7991 22.0519C87.5381 21.6255 87.5916 20.6333 86.9008 20.1233C86.6015 19.9031 86.2422 19.7563 85.9063 19.5934C85.4475 19.3733 84.9602 19.2001 84.5233 18.9432C83.6035 18.4031 83.1242 17.5959 83.2632 16.5031C83.3876 15.4999 83.9869 14.8336 84.8936 14.4674C86.09 13.9845 87.2989 14.074 88.4858 14.532C88.5721 14.5657 88.6724 14.7521 88.6512 14.8453C88.513 15.4476 87.8854 15.7932 87.2772 15.6839C87.0089 15.6357 86.7425 15.5931 86.4749 15.5638C86.21 15.5344 85.9195 15.6218 85.6583 15.7106C85.4688 15.7655 85.3 15.8757 85.1732 16.0272C85.0464 16.1786 84.9674 16.3645 84.9463 16.5611C84.9136 16.7568 84.9426 16.9577 85.0292 17.1361C85.1157 17.3144 85.2556 17.4613 85.4292 17.5562C85.8471 17.8006 86.3073 17.9716 86.7318 18.202C87.274 18.4956 87.874 18.7363 88.3197 19.1428C89.5512 20.2664 89.2907 22.2984 87.8616 23.1585C86.9154 23.7287 85.8741 23.786 84.8233 23.6554C84.3111 23.5915 83.8157 23.4007 83.3188 23.2466C83.2347 23.2202 83.1125 23.0727 83.1271 23.0074Z" fill="white"/>
<path d="M94.784 20.259C94.7562 18.7502 95.5158 17.521 96.8037 16.9934C98.1428 16.4437 99.7592 16.7262 100.653 17.7111C101.643 18.8009 101.751 20.1027 101.363 21.4472C101.008 22.6815 100.124 23.4176 98.8753 23.6488C96.6595 24.059 94.7877 22.7483 94.784 20.259ZM99.4621 21.6622C99.8472 20.7929 99.9575 19.7483 99.5354 18.8965C99.4998 18.8248 99.4607 18.7543 99.4175 18.6849C98.8153 17.7177 97.4842 17.7103 96.9186 18.7011C96.3602 19.6793 96.3749 20.7126 96.8842 21.7099C97.1447 22.2199 97.6027 22.5171 98.1896 22.5032C98.4613 22.5066 98.7277 22.4283 98.9545 22.2784C99.1813 22.1285 99.3582 21.9139 99.4621 21.6622Z" fill="white"/>
<path d="M113.322 19.2236C113.444 20.0169 112.735 20.6994 111.932 20.6994H111.113C109.898 20.6994 108.977 21.9944 110.145 22.3282C110.214 22.3479 110.285 22.3647 110.359 22.3784C111.045 22.5061 111.714 22.4188 112.381 22.2544C112.601 22.1988 112.824 22.333 112.872 22.5554C112.886 22.6232 112.901 22.6916 112.916 22.7612C112.984 23.0816 112.783 23.4029 112.466 23.4863C112.18 23.5614 111.895 23.6296 111.606 23.6458C110.943 23.6833 110.253 23.7133 109.615 23.568C107.724 23.1365 107.119 21.4692 107.282 19.8708C107.372 18.9748 107.689 18.1624 108.374 17.5416C109.297 16.7035 110.384 16.5251 111.535 16.8921C112.641 17.2451 113.151 18.1308 113.322 19.2236ZM110.489 19.5039C111.214 19.5039 111.897 18.8505 111.416 18.3082C111.213 18.0788 110.935 17.9311 110.61 17.9004C110.226 17.8639 109.888 17.9479 109.616 18.1379C108.926 18.6193 109.648 19.5039 110.489 19.5039Z" fill="white"/>
<path d="M91.3708 15.2339C91.8978 15.1166 92.3999 15.4998 92.3999 16.0397V16.0798C92.3999 16.5179 92.7551 16.873 93.1932 16.873H93.3494C93.7012 16.873 93.9864 17.1582 93.9864 17.51C93.9864 17.8618 93.7012 18.147 93.3494 18.147H92.8887C92.6212 18.147 92.4043 18.3638 92.4043 18.6313C92.4043 19.4254 92.4007 20.2194 92.408 21.0135C92.4109 21.2204 92.4322 21.4267 92.4717 21.6299C92.5712 22.1649 92.8514 22.3704 93.3981 22.3293C93.6953 22.3063 93.9508 22.5413 93.9512 22.8394C93.9514 23.0309 93.9497 23.2186 93.9418 23.4058C93.9341 23.4492 93.9159 23.49 93.8887 23.5246C93.8348 23.5931 93.7426 23.6119 93.6566 23.6264C93.0753 23.7239 92.4933 23.7756 91.9163 23.5666C91.093 23.2671 90.8296 22.5861 90.8003 21.8068C90.7608 20.7331 90.7864 19.6573 90.7842 18.5822C90.7842 18.3564 90.6012 18.1734 90.3755 18.1734H90.3166C90.0584 18.1734 89.849 17.9641 89.849 17.7058V17.3391C89.849 17.0821 90.0574 16.8737 90.3144 16.8737C90.5715 16.8737 90.7805 16.6654 90.782 16.4083C90.7834 16.1568 90.7839 15.9144 90.7762 15.6724C90.7696 15.4632 90.8076 15.3429 91.0499 15.2989C91.1572 15.2796 91.2639 15.2577 91.3708 15.2339Z" fill="white"/>
<path d="M102.931 17.6156C102.931 17.2152 103.256 16.8906 103.656 16.8906H104.008C104.19 16.8906 104.342 17.0509 104.355 17.2325C104.377 17.5352 104.733 17.6328 104.938 17.4089C105.062 17.2741 105.192 17.1445 105.334 17.0308C105.517 16.8845 105.723 16.7889 105.945 16.7463C106.359 16.6667 106.652 17.0737 106.652 17.4954V18.0363C106.652 18.197 106.532 18.3358 106.371 18.3319C105.238 18.2204 104.633 19.0416 104.62 20.0565C104.609 21.0839 104.62 22.1113 104.62 23.1387C104.62 23.3697 104.433 23.557 104.202 23.557H103.776C103.309 23.557 102.931 23.1789 102.931 22.7126V17.6156Z" fill="white"/>
</svg>
