<svg width="14" height="15" viewBox="0 0 14 15" fill="none" xmlns="http://www.w3.org/2000/svg">
<path d="M1.27894 14.9991C1.19274 14.9844 1.10537 14.9743 1.02058 14.954C0.763892 14.8925 0.531951 14.7594 0.354035 14.5715C0.176119 14.3836 0.0602048 14.1494 0.0209277 13.8983C0.00987428 13.8316 0.00382965 13.7643 0.00284148 13.6968C0.00284148 13.2347 -0.00514456 12.7727 0.00565992 12.3106C0.0258596 11.456 0.311004 10.6858 0.863442 10.0164C1.45346 9.30259 2.21541 8.83829 3.14295 8.63093C3.21882 8.61403 3.29562 8.60073 3.37924 8.58405C3.38042 8.60659 3.3823 8.62597 3.3823 8.64513C3.3823 9.3814 3.38276 10.1177 3.3837 10.854C3.3837 10.899 3.3682 10.9168 3.32475 10.9322C2.70748 11.1503 2.31829 11.5675 2.20414 12.1889C2.1116 12.6931 2.25511 13.1495 2.61494 13.5341C2.89962 13.8381 3.25687 14.0193 3.68059 14.0581C4.29692 14.1142 4.80379 13.9053 5.19158 13.4403C5.38839 13.2066 5.50912 12.9224 5.53873 12.6233C5.58359 12.1934 5.4638 11.8051 5.18782 11.4639C4.98676 11.2164 4.7135 11.0321 4.40285 10.9342C4.35587 10.9186 4.34131 10.899 4.34155 10.8519C4.34296 10.1063 4.34335 9.36067 4.34272 8.61493V8.55295C4.57983 8.57878 4.81324 8.62973 5.03867 8.70486C5.3801 8.81914 5.73299 8.89906 6.09164 8.94332C6.50542 8.99309 6.92386 8.99611 7.33838 8.95234C7.7567 8.90726 8.15929 8.80471 8.55741 8.67939C8.59781 8.66677 8.63962 8.6582 8.68401 8.64693C8.68401 8.66722 8.68636 8.68209 8.68636 8.69674C8.68636 9.09861 8.68635 9.50049 8.688 9.90236C8.688 9.94428 8.67508 9.96096 8.6328 9.96997C8.32448 10.0355 8.03313 10.1601 7.7762 10.3362C7.41748 10.5788 7.13527 10.9115 6.96046 11.2977C6.86019 11.5221 6.79528 11.7596 6.76786 12.0023C6.759 12.0864 6.75508 12.1709 6.75611 12.2554C6.75611 12.6556 6.75611 13.0556 6.75611 13.4556C6.75611 13.6921 6.88882 13.8776 7.09786 13.9253C7.2153 13.9519 7.3365 13.9643 7.45629 13.9803C7.67708 14.0104 7.89794 14.0385 8.11889 14.0646C8.25441 14.0811 8.36105 14.0096 8.39088 13.8798C8.42517 13.7296 8.45649 13.5788 8.48483 13.4277C8.49618 13.3688 8.4828 13.3079 8.4476 13.2584C8.4124 13.209 8.35824 13.1748 8.29693 13.1635C8.12523 13.1272 7.95236 13.0959 7.78019 13.0628C7.75928 13.0587 7.73885 13.0535 7.71489 13.0481C7.71489 12.9388 7.71372 12.832 7.71489 12.7251C7.71771 12.5092 7.70761 12.2922 7.72922 12.0778C7.77244 11.6444 7.96997 11.289 8.3634 11.0518C8.65183 10.8776 8.9708 10.8181 9.30738 10.8467C9.58924 10.8706 9.84925 10.9576 10.0757 11.1246C10.3782 11.348 10.5569 11.643 10.591 12.0064C10.6145 12.2563 10.6051 12.509 10.6093 12.7603C10.611 12.8541 10.6093 12.9476 10.6093 13.0468L10.1809 13.1295C10.1255 13.1403 10.0693 13.1489 10.0148 13.1628C9.88871 13.1953 9.81801 13.2945 9.83915 13.4171C9.86545 13.5704 9.89552 13.723 9.92934 13.8751C9.96082 14.0166 10.0806 14.0874 10.2283 14.0592L11.1535 13.8825C11.403 13.835 11.5648 13.6621 11.5672 13.4198C11.5712 12.9992 11.5719 12.5784 11.5632 12.1576C11.5565 11.6827 11.3909 11.2224 11.0908 10.8447C10.7423 10.3984 10.2861 10.1066 9.72053 9.97628C9.65759 9.96163 9.63809 9.93977 9.63856 9.87711C9.64185 9.4527 9.6402 9.02807 9.6402 8.60366V8.53041C9.81284 8.55047 9.9782 8.56309 10.1412 8.58968C11.082 8.74232 11.9359 9.21027 12.5509 9.91027C13.1659 10.6103 13.5022 11.4969 13.5 12.4125C13.5 12.8333 13.5 13.254 13.5 13.6747C13.5 14.0885 13.3372 14.4318 13.0093 14.6978C12.8037 14.8661 12.5484 14.9686 12.2791 14.9908C12.2639 14.993 12.249 14.9961 12.2342 15L1.27894 14.9991Z" fill="#5A5D67"/>
<path d="M10.3026 3.34892C10.3026 3.86551 10.3077 4.3821 10.3009 4.89847C10.2955 5.32897 10.1896 5.74121 10.0177 6.13812C9.84189 6.53884 9.58834 6.90384 9.2705 7.21368C9.05906 7.42263 8.81958 7.60363 8.55835 7.75191C8.2247 7.94509 7.85939 8.08272 7.4779 8.15896C7.02512 8.25117 6.55777 8.2563 6.10291 8.17406C5.3224 8.02914 4.66638 7.671 4.13203 7.10684C3.69377 6.64515 3.39494 6.07756 3.26767 5.4651C3.21847 5.22764 3.19486 4.98595 3.19721 4.74385C3.19721 3.76912 3.19721 2.79431 3.19721 1.81942C3.19721 1.40087 3.4086 1.10381 3.81635 0.954148C4.57549 0.675115 5.33493 0.397134 6.09469 0.120205C6.52922 -0.0375684 6.96586 -0.0413999 7.40109 0.116824C8.16837 0.395857 8.93564 0.676467 9.70292 0.958655C10.0956 1.10358 10.3047 1.39907 10.3059 1.80454C10.3073 2.31933 10.3059 2.8339 10.3059 3.34847L10.3026 3.34892ZM4.53814 4.34063C4.53814 4.48849 4.53814 4.62913 4.53814 4.76887C4.54119 5.3186 4.72604 5.80747 5.11125 6.21137C5.66862 6.7949 6.36644 7.03517 7.17819 6.8783C8.00732 6.71805 8.55435 6.22264 8.84584 5.46488C8.98536 5.10245 8.97291 4.7247 8.96328 4.34739C8.96328 4.34469 8.95858 4.34198 8.956 4.33883L4.53814 4.34063ZM6.38782 1.81243H6.31736C6.14707 1.81243 5.97678 1.81243 5.80649 1.81243C5.70103 1.81243 5.64936 1.86067 5.64818 1.95961C5.64646 2.0986 5.64646 2.23759 5.64818 2.37658C5.64818 2.47373 5.70385 2.52331 5.8072 2.52376C5.97748 2.52376 6.14777 2.52376 6.31806 2.52376H6.38453C6.38453 2.54833 6.38758 2.56659 6.38758 2.58484C6.38758 2.75749 6.38758 2.93037 6.38758 3.10324C6.38758 3.19137 6.44161 3.24321 6.53274 3.24366C6.67758 3.24366 6.82243 3.24366 6.96727 3.24366C7.06263 3.24366 7.11595 3.19272 7.11595 3.10121C7.11595 2.93037 7.11595 2.7593 7.11595 2.58845V2.52264H7.18641C7.35858 2.52264 7.53075 2.52376 7.70315 2.52264C7.80274 2.52264 7.85558 2.47215 7.85652 2.37658C7.85817 2.23955 7.8577 2.10251 7.85652 1.96525C7.85652 1.85593 7.80955 1.81063 7.69563 1.8104C7.52534 1.8104 7.35529 1.8104 7.185 1.8104H7.11877C7.11877 1.78584 7.11595 1.76735 7.11595 1.7491C7.11595 1.57825 7.11595 1.40741 7.11595 1.23656C7.11595 1.14032 7.06193 1.08758 6.96046 1.08713C6.81953 1.08713 6.6786 1.08758 6.53767 1.08848C6.44137 1.08848 6.38735 1.14393 6.38735 1.23724C6.38758 1.42702 6.38782 1.61477 6.38782 1.81221V1.81243Z" fill="#5A5D67"/>
</svg>
