<svg width="12" height="12" viewBox="0 0 12 12" fill="none" xmlns="http://www.w3.org/2000/svg">
<path fill-rule="evenodd" clip-rule="evenodd" d="M5.25 6.4395V0.750006C5.25 0.249007 5.49975 -0.0014933 6 6.69646e-06C6.50025 0.0015067 6.75 0.251257 6.75 0.750006V6.4395L9.21974 3.96975C9.28893 3.89812 9.37169 3.84099 9.46319 3.80168C9.55469 3.76237 9.65311 3.74168 9.75269 3.74082C9.85228 3.73995 9.95104 3.75893 10.0432 3.79664C10.1354 3.83435 10.2191 3.89004 10.2895 3.96046C10.36 4.03088 10.4156 4.11462 10.4534 4.20679C10.4911 4.29896 10.51 4.39772 10.5092 4.4973C10.5083 4.59689 10.4876 4.6953 10.4483 4.78681C10.409 4.87831 10.3519 4.96107 10.2802 5.03025L6.53025 8.78025C6.3896 8.92085 6.19887 8.99984 6 8.99984C5.80112 8.99984 5.61039 8.92085 5.46975 8.78025L1.719 5.0295C1.58238 4.88805 1.50678 4.6986 1.50849 4.50195C1.5102 4.30531 1.58908 4.1172 1.72814 3.97814C1.86719 3.83908 2.0553 3.76021 2.25195 3.7585C2.4486 3.75679 2.63805 3.83239 2.7795 3.969L5.25 6.4395ZM12 11.25C12 11.7495 11.7495 12 11.2492 12H0.75C0.24975 12 0 11.7495 0 11.25C0 10.7498 0.2505 10.5 0.75 10.5H11.25C11.7502 10.5 12 10.7498 12 11.25Z" fill="white"/>
</svg>
