<svg width="41" height="40" viewBox="0 0 41 40" fill="none" xmlns="http://www.w3.org/2000/svg">
<path d="M20.3711 0C9.32576 0 0.371094 8.95467 0.371094 20C0.371094 31.0453 9.32576 40 20.3711 40C31.4164 40 40.3711 31.0453 40.3711 20C40.3711 8.95467 31.4164 0 20.3711 0ZM24.5898 14.1653C23.7578 14.1653 22.8884 14.1653 22.0511 14.1653C21.6564 14.1653 21.4164 14.384 21.4164 14.8C21.4164 14.8747 21.4164 15.6053 21.4164 16.704H24.5951L23.9604 20.5173H21.4218C21.4218 24.6133 21.4218 29.408 21.4218 29.408H17.6298C17.6298 29.408 17.6298 24.6987 17.6298 20.5173H15.7044V16.704H17.6298C17.6298 15.296 17.6298 14.3147 17.6298 14.192C17.6298 13.696 17.5338 10.352 21.6724 10.352C22.2271 10.352 23.4911 10.352 24.6004 10.352C24.5898 11.808 24.5898 13.712 24.5898 14.1653Z" fill="#5A5D67"/>
</svg>
