<svg width="144" height="40" viewBox="0 0 144 40" fill="none" xmlns="http://www.w3.org/2000/svg">
<rect x="0.599609" width="143" height="40" rx="20" fill="#5A5D67"/>
<path d="M79.5567 19.2672C79.5744 19.1034 79.602 18.847 79.6334 18.579H81.1059V19.7672C81.1059 21.3477 81.1181 22.9281 81.0959 24.5043C81.0841 24.9332 81.0206 25.3595 80.9065 25.7751C80.589 26.9784 79.7055 27.6228 78.4401 27.8261C77.3557 28.0014 76.2851 27.9511 75.249 27.5553C74.9982 27.459 74.9177 27.3512 75.0189 27.0984C75.1409 26.8017 75.2122 26.487 75.2866 26.2428C75.9001 26.3714 76.4853 26.5531 77.0819 26.6077C78.5513 26.7428 79.3059 26.0876 79.3543 24.7025C79.3612 24.5287 79.3543 24.3548 79.3543 24.1278C78.4746 25.0955 77.4178 25.2995 76.256 24.88C75.0166 24.4332 74.4729 23.4712 74.3586 22.2845C74.2543 21.2018 74.456 20.1824 75.2728 19.3498C76.0895 18.5172 77.1072 18.2112 78.253 18.5208C78.7354 18.648 79.1395 19.0172 79.5567 19.2672ZM79.3696 21.7701H79.3397C79.3397 21.5424 79.3474 21.3146 79.3397 21.0876C79.3159 20.4676 78.8504 19.8829 78.2714 19.7349C77.9551 19.6536 77.6196 19.6672 77.3119 19.7736C77.0042 19.88 76.7398 20.074 76.5558 20.3283C75.9684 21.125 75.9714 22.4583 76.5719 23.2442C76.9684 23.7622 77.5413 23.9094 78.1663 23.7909C78.7423 23.6817 79.1441 23.3247 79.2638 22.7665C79.332 22.436 79.3358 22.0991 79.3696 21.7672V21.7701Z" fill="white"/>
<path d="M56.4521 16.3815L56.0741 17.7069C55.1048 17.3394 54.0453 17.2329 53.0149 17.3994C51.7226 17.6006 50.8069 18.4001 50.4841 19.5927C50.2622 20.3839 50.3089 21.2203 50.6175 21.9856C51.2142 23.4755 52.6882 23.9662 54.13 23.8398C55.038 23.7629 55.038 23.732 55.038 22.8649C55.038 22.4001 55.038 21.9353 55.038 21.4217H53.3669V20.1286H56.7413C56.752 20.2572 56.7712 20.385 56.7719 20.5122C56.7719 21.8053 56.7719 23.0984 56.7719 24.3915C56.7719 24.5589 56.7834 24.7004 56.538 24.7701C54.9482 25.2219 53.3462 25.3886 51.7203 24.9676C49.9564 24.5107 48.9365 23.3872 48.6021 21.7349C48.3521 20.4957 48.4794 19.2823 49.1865 18.1695C49.9396 16.9835 51.0961 16.3312 52.5072 16.0776C53.7395 15.8499 55.0135 15.9199 56.209 16.2809C56.2922 16.3096 56.3734 16.3432 56.4521 16.3815Z" fill="white"/>
<path d="M98.905 21.7679V25.0725H97.1327V24.7011C97.1327 21.9863 97.138 19.2715 97.1258 16.5567C97.1258 16.2471 97.1902 16.1063 97.556 16.1049C98.6749 16.1006 99.7969 16.0014 100.91 16.0632C102.32 16.1422 103.352 16.9971 103.572 18.1077C103.929 19.9195 102.886 21.3405 100.941 21.6365C100.285 21.7327 99.6036 21.7248 98.905 21.7679ZM98.905 20.4095C99.6412 20.4468 100.338 20.5165 100.996 20.2047C102.07 19.6961 102.203 18.1365 101.205 17.5467C100.49 17.1257 99.6995 17.2299 98.9042 17.3161L98.905 20.4095Z" fill="white"/>
<path d="M58.1347 21.806C58.1692 20.528 58.6378 19.3965 59.9807 18.7888C61.2929 18.1954 62.6265 18.2205 63.8612 19.0136C64.7562 19.5883 65.1074 20.472 65.2171 21.4375C65.2887 22.1064 65.168 22.781 64.8674 23.3915C64.3022 24.5797 63.2853 25.135 61.9608 25.2306C60.5282 25.3347 59.3533 24.8821 58.5987 23.6781C58.2475 23.1185 58.1455 22.4957 58.1347 21.806ZM63.3934 21.8412L63.4954 21.8103C63.3367 21.3283 63.2523 20.8096 63.0054 20.3735C62.4371 19.3628 60.9784 19.3678 60.3534 20.3527C60.0091 20.8958 59.9247 21.4957 59.9753 22.1135C60.0213 22.6717 60.1724 23.1968 60.6042 23.6149C61.276 24.2615 62.3274 24.1946 62.8957 23.464C63.2722 22.977 63.3972 22.4281 63.3972 21.8412H63.3934Z" fill="white"/>
<path d="M69.7395 25.2823C68.3001 25.2521 67.1842 24.6903 66.5952 23.4684C65.5699 21.3527 66.6819 18.4317 69.7978 18.4073C72.0142 18.3901 73.479 19.9346 73.3141 22.107C73.1814 23.852 72.0533 24.8175 70.7917 25.1199C70.4466 25.2025 70.0893 25.2298 69.7395 25.2823ZM69.7986 19.6322C69.1989 19.6322 68.6091 19.944 68.3737 20.4389C67.9902 21.2406 67.9082 22.074 68.2203 22.913C68.4887 23.6314 69.103 24.0625 69.8017 24.0567C70.4719 24.0517 71.0441 23.6049 71.314 22.8793C71.5636 22.2093 71.5708 21.481 71.3347 20.8067C71.0847 20.051 70.5187 19.6322 69.7986 19.6322Z" fill="white"/>
<path d="M115.074 18.5589C115.672 18.5589 116.234 18.5467 116.794 18.5704C116.894 18.5747 117.036 18.7141 117.075 18.8175C117.616 20.3003 118.144 21.7881 118.685 23.3096C118.746 23.0941 118.799 22.8951 118.861 22.6954C119.26 21.4023 119.664 20.1156 120.059 18.8247C120.115 18.6444 120.184 18.5438 120.417 18.5524C120.939 18.5718 121.463 18.5589 122.041 18.5589C121.782 19.2205 121.547 19.8563 121.286 20.4827C120.58 22.1796 119.889 23.8829 119.139 25.5625C118.739 26.4576 118.096 27.2025 117.169 27.6925C117.058 27.7514 116.946 27.8082 116.83 27.8563C116.063 28.1731 116.035 28.1623 115.814 27.431C115.742 27.1925 115.674 26.954 115.597 26.6939C116.349 26.4583 116.965 26.084 117.407 25.4727C117.653 25.1336 117.734 24.8319 117.55 24.4152C116.716 22.5208 115.923 20.6077 115.117 18.7062C115.104 18.6781 115.098 18.6437 115.074 18.5589Z" fill="white"/>
<path d="M112.386 20.8268C112.398 19.7493 111.688 19.5 110.711 19.5984C110.166 19.653 109.637 19.8405 109.07 19.9763C108.993 19.7428 108.88 19.4519 108.809 19.153C108.808 19.1009 108.821 19.0494 108.846 19.0031C108.872 18.9568 108.909 18.9172 108.955 18.8879C110.118 18.3894 111.322 18.227 112.56 18.6049C113.557 18.9102 114.064 19.6868 114.145 20.8814C114.208 21.811 114.152 22.7493 114.163 23.6832C114.169 24.1365 114.208 24.5898 114.233 25.0725H112.666C112.628 24.8613 112.589 24.653 112.568 24.523C112.053 24.7521 111.56 25.0574 111.019 25.1954C109.715 25.5265 108.479 24.7888 108.258 23.6228C108.059 22.5524 108.808 21.4526 110.001 21.1746C110.699 21.0115 111.428 20.959 112.143 20.8599C112.22 20.8477 112.294 20.8383 112.386 20.8268ZM112.426 21.9619C111.798 21.8513 110.995 21.9619 110.52 22.2256C109.87 22.5847 109.81 23.5625 110.415 23.926C110.93 24.2356 111.806 24.0373 112.165 23.5711C112.556 23.0625 112.428 22.5086 112.426 21.9619Z" fill="white"/>
<path d="M92.693 22.2995H87.9551C87.9306 23.3053 88.8117 23.8534 89.6055 23.9518C90.4169 24.0517 91.1999 23.931 92.0212 23.7169C92.1117 24.0876 92.1969 24.4403 92.3042 24.8814C91.7574 24.9906 91.2352 25.1573 90.7045 25.1846C90.038 25.2191 89.347 25.2176 88.6975 25.0926C87.4351 24.8491 86.656 24.0617 86.3684 22.8965C86.0424 21.5768 86.274 20.3441 87.2795 19.324C88.3017 18.2866 90.0748 18.0984 91.3441 18.8563C92.111 19.3125 92.4545 20.0266 92.5941 20.8261C92.6769 21.2895 92.6608 21.7686 92.693 22.2995ZM90.9752 21.1271C91.0427 20.2909 90.5419 19.6343 89.8056 19.5618C88.7972 19.4626 88.1484 19.9993 87.952 21.1271H90.9752Z" fill="white"/>
<path d="M105.056 15.5625H106.799V25.0811H105.056V15.5625Z" fill="white"/>
<path d="M84.7648 15.5654V25.0761H83.0346V15.5654H84.7648Z" fill="white"/>
<path d="M15.333 9.8391C15.333 9.95682 15.209 10.1922 15.209 10.31V31.4986C15.209 31.7341 15.209 31.9695 15.333 32.0872L27.1147 20.9043L15.333 9.8391Z" fill="white"/>
<path d="M27.8589 21.7283L16.2011 32.7935C16.5732 32.7935 16.8212 32.6758 17.1933 32.5581L31.2074 24.9066L27.8589 21.7283Z" fill="white"/>
<path d="M27.8589 20.198L31.2074 17.0197L17.0693 9.36824C16.8212 9.25053 16.4492 9.13281 16.0771 9.13281L27.8589 20.198Z" fill="white"/>
<path d="M37.6563 21.1397C37.6563 20.7866 37.4083 20.4334 36.9122 20.198L32.1995 17.6083L28.603 21.022L32.1995 24.5535L36.7882 22.1992C37.2843 21.846 37.5323 21.4929 37.6563 21.1397Z" fill="white"/>
</svg>
