<svg width="41" height="40" viewBox="0 0 41 40" fill="none" xmlns="http://www.w3.org/2000/svg">
<path d="M23.0004 19.8827C23.0004 21.5413 21.6831 22.8853 20.0564 22.8853C18.4298 22.8853 17.1178 21.5413 17.1178 19.8827C17.1178 18.224 18.4351 16.88 20.0618 16.88C21.6831 16.88 23.0004 18.224 23.0004 19.8827ZM27.5018 15.8187V23.9467C27.5018 25.808 26.0138 27.328 24.1951 27.328H15.9284C14.1098 27.328 12.6218 25.808 12.6218 23.9467V15.8187C12.6218 13.9573 14.1098 12.4373 15.9284 12.4373H24.1951C26.0138 12.4373 27.5018 13.9627 27.5018 15.8187ZM24.6164 19.8827C24.6164 17.312 22.5738 15.2267 20.0564 15.2267C17.5391 15.2267 15.4964 17.312 15.4964 19.8827C15.4964 22.4533 17.5391 24.5387 20.0564 24.5387C22.5738 24.5387 24.6164 22.4587 24.6164 19.8827ZM25.8911 14.976C25.8911 14.3947 25.4324 13.9253 24.8618 13.9253C24.2911 13.9253 23.8324 14.3947 23.8324 14.976C23.8324 15.5573 24.2911 16.0267 24.8618 16.0267C25.4324 16.032 25.8911 15.5573 25.8911 14.976ZM40.3711 20C40.3711 31.0453 31.4164 40 20.3711 40C9.32576 40 0.371094 31.0453 0.371094 20C0.371094 8.95467 9.32576 0 20.3711 0C31.4164 0 40.3711 8.95467 40.3711 20ZM29.1231 15.696C29.1231 13.0133 26.9738 10.816 24.3444 10.816H15.7738C13.1444 10.816 10.9951 13.0133 10.9951 15.696V24.064C10.9951 26.7467 13.1444 28.944 15.7738 28.944H24.3498C26.9791 28.944 29.1284 26.7467 29.1284 24.064V15.696H29.1231Z" fill="#5A5D67"/>
</svg>
