<svg width="41" height="40" viewBox="0 0 41 40" fill="none" xmlns="http://www.w3.org/2000/svg">
<path d="M20.3711 0C9.32576 0 0.371094 8.95467 0.371094 20C0.371094 31.0453 9.32576 40 20.3711 40C31.4164 40 40.3711 31.0453 40.3711 20C40.3711 8.95467 31.4164 0 20.3711 0ZM15.7844 28.1013H11.8324V15.5733H15.7844V28.1013ZM13.7098 14.0053H13.6831C12.2538 14.0053 11.3258 13.0453 11.3258 11.8347C11.3258 10.5973 12.2804 9.65867 13.7418 9.65867C15.2031 9.65867 16.0991 10.592 16.1258 11.8293C16.1204 13.0453 15.1924 14.0053 13.7098 14.0053ZM31.6031 28.1013H27.1178V21.616C27.1178 19.92 26.4191 18.7627 24.8724 18.7627C23.6938 18.7627 23.0378 19.5467 22.7338 20.2987C22.6218 20.5707 22.6378 20.944 22.6378 21.3227V28.1013H18.1951C18.1951 28.1013 18.2538 16.6187 18.1951 15.5733H22.6378V17.5413C22.8991 16.6827 24.3178 15.456 26.5844 15.456C29.3951 15.456 31.6031 17.2587 31.6031 21.136V28.1013Z" fill="#5A5D67"/>
</svg>
