<svg width="25" height="25" viewBox="0 0 25 25" fill="none" xmlns="http://www.w3.org/2000/svg">
<path fill-rule="evenodd" clip-rule="evenodd" d="M12.5 23.9577C6.25 21.1734 3.125 18.3956 3.125 15.6243V5.20768C3.125 4.40811 3.43187 4.22228 4.28117 3.70798C4.53832 3.55227 4.8452 3.36644 5.20833 3.12435C5.37687 3.01199 8.92001 1.04102 12.5 1.04102C15.6201 1.04102 18.2292 2.08268 19.7917 3.12435C20.1548 3.36644 20.4617 3.55226 20.7188 3.70797L20.7188 3.70798C21.5681 4.22228 21.875 4.40811 21.875 5.20768C21.8955 5.43397 21.8854 10.2463 21.879 13.3272C21.8768 14.3778 21.875 15.227 21.875 15.6243C21.875 18.4021 18.75 21.1799 12.5 23.9577ZM19.7917 15.6243C19.7917 15.3844 19.7923 14.9825 19.7936 14.3271L19.7978 12.2925C19.7991 11.6343 19.8002 11.0694 19.8011 10.5304C19.8049 8.20522 19.8039 6.20958 19.8016 5.59235L19.6585 5.50354L19.6584 5.50347C19.3216 5.29451 18.8826 5.02219 18.636 4.85779C17.0983 3.8326 14.8544 3.12435 12.5 3.12435C10.248 3.12435 7.3215 4.21943 6.36396 4.85779C6.11734 5.0222 5.67832 5.29456 5.34148 5.50353L5.34147 5.50353L5.20833 5.58616V15.6243C5.20833 17.1957 7.53032 19.3418 12.501 21.6681C17.471 19.347 19.7917 17.2017 19.7917 15.6243ZM15.9301 8.63778L11.4583 13.1095L9.0699 10.7211L7.59676 12.1943L11.4583 16.0558L17.4032 10.1109L15.9301 8.63778Z" fill="#E42722"/>
</svg>
