<svg width="11" height="11" viewBox="0 0 11 11" fill="none" xmlns="http://www.w3.org/2000/svg">
<path d="M3.41056 5.28662C3.36687 5.22852 3.33326 5.18409 3.29629 5.14308C2.27795 3.90252 1.25625 2.66196 0.241272 1.41798C-0.04104 1.06939 -0.00743146 0.618279 0.308489 0.358547C0.62441 0.0988151 1.05796 0.153495 1.33355 0.49183C2.50313 1.91352 3.67271 3.33863 4.83893 4.76374C5.11452 5.09865 5.11116 5.43699 4.83893 5.78216C4.54317 6.15809 4.24405 6.53401 3.9483 6.90994C3.11817 7.9557 2.28803 9.00488 1.46126 10.0541C1.26969 10.2967 1.02771 10.4095 0.725236 10.3446C0.204302 10.2318 -0.0107929 9.63029 0.31521 9.19627C0.668101 8.72807 1.04116 8.27695 1.40413 7.81559C2.06958 6.97487 2.73503 6.13758 3.41056 5.28662ZM8.41488 5.28662C8.35775 5.21485 8.30733 5.15333 8.25692 5.09182C7.25202 3.86835 6.24713 2.64487 5.24223 1.41798C4.95992 1.07623 4.99017 0.638784 5.30273 0.3688C5.60856 0.10565 6.0522 0.153495 6.32779 0.488413C7.50409 1.92036 8.67703 3.34888 9.84661 4.78082C10.1054 5.09865 10.1155 5.44041 9.86341 5.75824C8.7308 7.19701 7.59147 8.63579 6.45214 10.0677C6.37148 10.1703 6.25721 10.2591 6.13958 10.3138C5.85055 10.4471 5.50438 10.3411 5.31281 10.0882C5.1078 9.81484 5.11116 9.46283 5.33633 9.17576C5.76316 8.62896 6.19671 8.08899 6.6269 7.5456C7.21841 6.79716 7.80993 6.04873 8.41488 5.28662Z" fill="#E42722"/>
<path d="M3.41056 5.28662C2.73503 6.13758 2.06945 6.97481 1.404 7.81211C1.04103 8.27006 0.667976 8.72459 0.315086 9.19279C-0.0109176 9.62681 0.204178 10.2249 0.725111 10.3411C1.02759 10.406 1.26957 10.2932 1.46114 10.0506C2.28791 9.00141 3.11804 7.95564 3.94817 6.90646C4.24393 6.53054 4.54305 6.15461 4.8388 5.77868C5.11103 5.43351 5.11103 5.09518 4.8388 4.76026C3.67258 3.33857 2.50301 1.91346 1.33343 0.488354C1.05784 0.150019 0.624285 0.0987566 0.308365 0.355071C-0.00755608 0.614803 -0.0411647 1.06933 0.241147 1.4145C1.25613 2.65848 2.27783 3.89904 3.29617 5.1396C3.33314 5.18745 3.36687 5.23194 3.41056 5.28662Z" fill="#E42722"/>
<path d="M8.41488 5.28662C7.80993 6.04873 7.21846 6.79708 6.62695 7.5421C6.19676 8.08549 5.76321 8.62546 5.33638 9.17226C5.1112 9.45933 5.10784 9.81134 5.31286 10.0847C5.50442 10.3376 5.85059 10.4436 6.13963 10.3103C6.25726 10.2556 6.37153 10.1668 6.45219 10.0642C7.59488 8.63229 8.73085 7.19351 9.86682 5.75474C10.1155 5.43691 10.1088 5.09515 9.85002 4.77732C8.67708 3.3488 7.50414 1.92027 6.3312 0.491749C6.05561 0.156831 5.61197 0.105569 5.30613 0.372135C4.99357 0.64212 4.96333 1.07615 5.24564 1.42132C6.25054 2.64821 7.25543 3.87168 8.26033 5.09515C8.30738 5.15325 8.35775 5.21485 8.41488 5.28662Z" fill="#E42722"/>
</svg>
