<svg width="23" height="29" viewBox="0 0 23 29" fill="none" xmlns="http://www.w3.org/2000/svg">
<path fill-rule="evenodd" clip-rule="evenodd" d="M19.4444 21.7939V12.1942C19.4444 7.93034 17.875 4.36089 13.8889 3.41645V3.16645C13.8889 1.63232 12.6452 0.388672 11.1111 0.388672C9.57699 0.388672 8.33333 1.63232 8.33333 3.16645V3.41645C4.36111 4.36089 2.77778 7.91645 2.77778 12.1942V21.7939H2.20588C0.987607 21.7939 0 22.7815 0 23.9998H22.2222C22.2222 22.7815 21.2346 21.7939 20.0163 21.7939H19.4444ZM11.1111 28.1665C12.6389 28.1665 13.8889 26.9165 13.8889 25.3887H8.33333C8.33333 26.9165 9.58333 28.1665 11.1111 28.1665C12.6389 28.1665 11.1111 28.1665 11.1111 28.1665ZM4.57422 21.6301H17.6461V12.1938C17.6461 8.74938 15.2768 4.61621 11.1102 4.61621C6.9435 4.61621 4.57422 8.74938 4.57422 12.1938V21.6301Z" fill="#151517"/>
</svg>
