<svg width="25" height="25" viewBox="0 0 25 25" fill="none" xmlns="http://www.w3.org/2000/svg">
<path fill-rule="evenodd" clip-rule="evenodd" d="M12.4998 14.722C14.9544 14.722 16.9442 12.7322 16.9442 10.2776C16.9442 7.82296 14.9544 5.83312 12.4998 5.83312C10.0452 5.83312 8.05534 7.82296 8.05534 10.2776C8.05534 12.7322 10.0452 14.722 12.4998 14.722C14.9544 14.722 12.4998 14.722 12.4998 14.722ZM12.4998 12.4998C13.7271 12.4998 14.722 11.5049 14.722 10.2776C14.722 9.05026 13.7271 8.05534 12.4998 8.05534C11.2725 8.05534 10.2776 9.05026 10.2776 10.2776C10.2776 11.5049 11.2725 12.4998 12.4998 12.4998C13.7271 12.4998 12.4998 12.4998 12.4998 12.4998ZM19.0844 21.4506C21.8298 19.4275 23.6109 16.1717 23.6109 12.4998C23.6109 6.36329 18.6363 1.38867 12.4998 1.38867C6.36329 1.38867 1.38867 6.36329 1.38867 12.4998C1.38867 16.1717 3.1698 19.4275 5.91521 21.4506C5.96571 21.4878 6.01655 21.5246 6.0677 21.561C6.56642 21.9156 7.09567 22.2301 7.65075 22.4998C9.11604 23.2116 10.7613 23.6109 12.4998 23.6109C14.2383 23.6109 15.8835 23.2116 17.3488 22.4998C17.3786 22.4853 17.4083 22.4707 17.4379 22.456C18.0172 22.1681 18.5679 21.8312 19.0844 21.4506C21.8298 19.4275 19.0844 21.4506 19.0844 21.4506ZM18.3095 19.2275C20.1953 17.5976 21.3887 15.188 21.3887 12.4998C21.3887 7.59058 17.409 3.61089 12.4998 3.61089C7.59058 3.61089 3.61089 7.59058 3.61089 12.4998C3.61089 15.188 4.80424 17.5976 6.6901 19.2275C7.83385 17.2012 10.007 15.8331 12.4998 15.8331C14.9925 15.8331 17.1657 17.2012 18.3095 19.2275C20.1953 17.5976 18.3095 19.2275 18.3095 19.2275ZM16.4516 20.4641C15.7132 19.0334 14.2207 18.0553 12.4998 18.0553C10.7788 18.0553 9.28636 19.0335 8.54791 20.4641C9.73831 21.0559 11.0802 21.3887 12.4998 21.3887C13.9194 21.3887 15.2613 21.0559 16.4516 20.4641C16.4516 20.4641 15.7132 19.0334 16.4516 20.4641Z" fill="white"/>
</svg>
