<svg width="25" height="25" viewBox="0 0 25 25" fill="none" xmlns="http://www.w3.org/2000/svg">
<path fill-rule="evenodd" clip-rule="evenodd" d="M16.0565 1.04102H5.20833C4.05774 1.04102 3.125 1.97376 3.125 3.12435V21.8743C3.125 23.0249 4.05774 23.9577 5.20833 23.9577H19.7917C20.9423 23.9577 21.875 23.0249 21.875 21.8743V6.85954L16.0565 1.04102ZM5.20833 3.12435H13.5417V7.29102C13.5417 8.44161 14.4744 9.37435 15.625 9.37435H19.7917V21.8743H5.20833V3.12435ZM15.625 7.29102V3.55582L19.3602 7.29102H15.625ZM15.9301 11.7628L11.4583 16.2345L9.0699 13.8461L7.59676 15.3193L11.4583 19.1808L17.4032 13.2359L15.9301 11.7628Z" fill="white"/>
</svg>
