<?xml version="1.0" encoding="utf-8"?>
<!-- Generator: Adobe Illustrator 28.1.0, SVG Export Plug-In . SVG Version: 6.00 Build 0)  -->
<svg version="1.1" id="Camada_1" xmlns="http://www.w3.org/2000/svg" xmlns:xlink="http://www.w3.org/1999/xlink" x="0px" y="0px"
	 viewBox="0 0 81 80" style="enable-background:new 0 0 81 80;" xml:space="preserve">
<style type="text/css">
	.st0{fill-rule:evenodd;clip-rule:evenodd;fill:#E42722;}
	.st1{fill:#FFFFFF;filter:url(#Adobe_OpacityMaskFilter);}
	.st2{fill-rule:evenodd;clip-rule:evenodd;}
	.st3{mask:url(#path-1-outside-1_11376_6396_00000027573500343099575960000007321804926482684056_);fill:#FFFFFF;}
</style>
<path class="st0" d="M53.7,7.8l-0.1-0.1c-10.1,16.8-5.3,22.6-4.5,24.8c0.8,2.1,4.6,7.4,5.7,8.9c0.7,0.9,1.2,1.9,1.7,2.9
	c3.4,6.1-3.3,11.7-7.9,14.6c-6.3,4-14.3,6.5-21.9,5.9c-0.7-0.1-1.3-0.1-2-0.2c-1.8-0.3-3.6-1.2-4.6-2.8c-0.9-1.4-1-3.3-0.7-4.9
	c0.7-3.7,3.4-6.7,5.9-9.5c2.9-3.3,5.7-6.8,7.9-10.6c2.2-3.8,3.8-8,4.2-12.4c0.5,6.8-2.5,13.4-6.1,19.2c-2.3,3.7-4.9,7.2-6.3,11.3
	c-0.4,1.1-0.7,2.4-0.4,3.5c0.3,1.2,1.4,1.9,2.5,2.4c5.9,2.5,13,0.6,18.2-2.6c2.3-1.4,5.2-3.4,6.1-6c0.7-2,0.1-4.2-0.6-6.1
	c-1.2-3.2-3.1-6-4.7-9c-1-2-1.9-4.1-2.1-6.3c0-0.4-0.1-0.7-0.1-1.1c0.1-9.2,7.5-19.3,9.5-21.9l0,0l-0.2-0.1C49.3,5.9,44.8,5,40.1,5
	c-19.3,0-35,15.7-35,35c0,19.3,15.7,35,35,35c19.3,0,35-15.7,35-35C75.1,25.5,66.3,13.1,53.7,7.8z"/>
<defs>
	<filter id="Adobe_OpacityMaskFilter" filterUnits="userSpaceOnUse" x="14.3" y="4.6" width="48.2" height="65.3">
		<feColorMatrix  type="matrix" values="1 0 0 0 0  0 1 0 0 0  0 0 1 0 0  0 0 0 1 0"/>
	</filter>
</defs>
<mask maskUnits="userSpaceOnUse" x="14.3" y="4.6" width="48.2" height="65.3" id="path-1-outside-1_11376_6396_00000027573500343099575960000007321804926482684056_">
	<rect x="0.1" class="st1" width="80" height="80"/>
	<path class="st2" d="M53.7,7.8l-0.1-0.1c-10.1,16.8-5.3,22.6-4.5,24.8c0.8,2.1,4.6,7.4,5.7,8.9c0.7,0.9,1.2,1.9,1.7,2.9
		c3.4,6.1-3.3,11.7-7.9,14.6c-6.3,4-14.3,6.5-21.9,5.9c-0.7-0.1-1.3-0.1-2-0.2c-1.8-0.3-3.6-1.2-4.6-2.8c-0.9-1.4-1-3.3-0.7-4.9
		c0.7-3.7,3.4-6.7,5.9-9.5c2.9-3.3,5.7-6.8,7.9-10.6c2.2-3.8,3.8-8,4.2-12.4c0.5,6.8-2.5,13.4-6.1,19.2c-2.3,3.7-4.9,7.2-6.3,11.3
		c-0.4,1.1-0.7,2.4-0.4,3.5c0.3,1.2,1.4,1.9,2.5,2.4c5.9,2.5,13,0.6,18.2-2.6c2.3-1.4,5.2-3.4,6.1-6c0.7-2,0.1-4.2-0.6-6.1
		c-1.2-3.2-3.1-6-4.7-9c-1-2-1.9-4.1-2.1-6.3c0-0.4-0.1-0.7-0.1-1.1c0.1-9.2,7.5-19.3,9.5-21.9l0,0l-0.2-0.1C49.3,5.9,44.8,5,40.1,5
		c-19.3,0-35,15.7-35,35c0,19.3,15.7,35,35,35c19.3,0,35-15.7,35-35C75.1,25.5,66.3,13.1,53.7,7.8z"/>
</mask>
<path class="st3" d="M49.1,32.5l4.7-1.8v0L49.1,32.5z M54.8,41.4l-4.1,2.8l0,0L54.8,41.4z M56.6,44.3l-4.4,2.4l0,0L56.6,44.3z
	 M48.7,58.9l2.6,4.2l0,0L48.7,58.9z M26.8,64.8l0.4-5l0,0L26.8,64.8z M24.8,64.5l-0.9,4.9l0,0L24.8,64.5z M20.2,61.8L16,64.5l0,0
	L20.2,61.8z M19.5,56.8l4.9,1l0,0L19.5,56.8z M25.3,47.3L21.6,44l0,0L25.3,47.3z M33.2,36.7l-4.3-2.5l0,0L33.2,36.7z M37.4,24.3
	l5-0.3l-10-0.1L37.4,24.3z M31.4,43.5l-4.3-2.6l0,0L31.4,43.5z M25.1,54.8l-4.7-1.7l0,0L25.1,54.8z M24.7,58.4l4.8-1.3l0,0
	L24.7,58.4z M27.2,60.7l-1.9,4.6l0,0L27.2,60.7z M45.4,58.1l2.6,4.3L45.4,58.1z M51.4,52.1l4.8,1.5l0,0L51.4,52.1z M50.8,46l4.7-1.7
	l0,0L50.8,46z M46.2,37l-4.5,2.3l0,0L46.2,37z M44,30.7l5-0.5l0,0L44,30.7z M44,29.6l5,0v0L44,29.6z M53.4,7.6l-1.9,4.6l0,0l0,0
	L53.4,7.6z M49.3,5.1C44,14,42.2,20.6,42.3,25.6c0,2.6,0.5,4.6,1.1,6.2c0.3,0.8,0.6,1.4,0.8,1.9c0.2,0.4,0.1,0.3,0.3,0.5
	c0.1,0.1,0.1,0.2,0.1,0.1l9.3-3.7c-0.8-1.9-1.5-2.5-1.5-5.1c0-2.6,0.9-7.3,5.6-15.3L49.3,5.1z M44.5,34.3c0.7,1.7,2.2,4,3.3,5.6
	c1.2,1.8,2.5,3.6,3,4.3l8.2-5.7c-0.6-0.9-1.7-2.4-2.9-4.2c-0.6-0.9-1.1-1.7-1.5-2.4c-0.2-0.4-0.4-0.7-0.5-0.9
	c-0.1-0.1-0.1-0.2-0.2-0.3c0,0,0-0.1,0-0.1c0,0,0,0,0,0s0,0,0,0L44.5,34.3z M50.7,44.3c0.5,0.7,0.9,1.4,1.5,2.5l8.7-4.9
	c-0.5-0.9-1.2-2.1-2-3.3L50.7,44.3z M52.2,46.7c0.4,0.7,0.5,1.5-0.6,3.1c-1.3,1.7-3.4,3.5-5.5,4.8l5.3,8.5c2.5-1.6,6-4.1,8.3-7.4
	c2.5-3.4,4.2-8.5,1.3-13.8L52.2,46.7z M46,54.6c-5.7,3.5-12.6,5.7-18.8,5.2l-0.8,10c8.9,0.7,17.9-2.3,24.9-6.7L46,54.6z M27.2,59.8
	c-0.5,0-1-0.1-1.5-0.2l-1.7,9.8c0.8,0.1,1.6,0.2,2.5,0.3L27.2,59.8z M25.7,59.6c-0.4-0.1-0.8-0.2-1-0.3c-0.2-0.1-0.3-0.2-0.3-0.2
	L16,64.5c2,3.1,5.4,4.5,8,5L25.7,59.6z M24.4,59.1c0,0,0,0-0.1-0.3c0-0.2,0-0.6,0.1-1l-9.8-2c-0.5,2.4-0.5,5.7,1.4,8.6L24.4,59.1z
	 M24.4,57.8c0.4-2.1,2-4.1,4.7-7.2L21.6,44c-2.2,2.6-5.9,6.6-7,11.8L24.4,57.8z M29.1,50.6c2.9-3.4,6-7.1,8.4-11.3l-8.7-5
	c-2,3.4-4.5,6.5-7.3,9.8L29.1,50.6z M37.6,39.3C40,35,42,30.1,42.4,24.8l-10-0.9c-0.3,3.5-1.6,7-3.6,10.3L37.6,39.3z M32.5,24.7
	c0.4,5.2-1.9,10.7-5.3,16.2l8.5,5.3c3.8-6.1,7.4-13.8,6.8-22.2L32.5,24.7z M27.1,40.9c-2,3.2-5.1,7.5-6.8,12.2l9.4,3.4
	c1.2-3.4,3.3-6.2,5.9-10.4L27.1,40.9z M20.4,53.1c-0.4,1.2-1.3,3.8-0.5,6.6l9.6-2.7c0.1,0.3,0,0.4,0.1,0.3c0-0.1,0-0.2,0.1-0.3
	c0-0.1,0.1-0.3,0.2-0.5L20.4,53.1z M19.8,59.7c1,3.6,4,5,5.4,5.6l3.9-9.2C29,56.1,28.9,56,28.8,56c-0.1,0,0,0,0,0
	c0.1,0.1,0.2,0.2,0.3,0.3c0.1,0.2,0.2,0.4,0.3,0.7L19.8,59.7z M25.2,65.3c8,3.4,16.8,0.6,22.7-2.9l-5.1-8.6
	c-4.6,2.8-9.9,3.8-13.7,2.3L25.2,65.3z M47.9,62.4c1.2-0.7,2.8-1.8,4.3-3.1c1.4-1.3,3.1-3.2,3.9-5.7l-9.5-3.1c0,0.1-0.3,0.6-1.1,1.3
	c-0.8,0.7-1.7,1.3-2.8,2L47.9,62.4z M56.2,53.7c1.2-3.7,0.1-7.3-0.7-9.4l-9.4,3.5c0.3,0.8,0.5,1.4,0.5,2c0.1,0.5,0,0.8,0,0.9
	L56.2,53.7z M55.5,44.2c-0.7-2-1.7-3.7-2.5-5.3c-0.9-1.6-1.7-2.9-2.4-4.2l-8.9,4.6c0.8,1.6,1.8,3.3,2.6,4.6c0.8,1.4,1.4,2.6,1.9,3.8
	L55.5,44.2z M50.6,34.7c-0.9-1.8-1.4-3.2-1.6-4.6l-9.9,1.1c0.3,3.1,1.5,5.8,2.6,8.1L50.6,34.7z M49,30.1c0-0.2,0-0.3,0-0.5l-10-0.1
	c0,0.6,0,1.1,0.1,1.7L49,30.1z M49,29.6c0-3.4,1.5-7.4,3.4-11.1c1.9-3.7,4.1-6.6,5-7.7l-7.9-6.2c-1.1,1.4-3.7,4.9-6,9.2
	c-2.3,4.3-4.6,10-4.6,15.8L49,29.6z"/>
</svg>
