<svg width="41" height="40" viewBox="0 0 41 40" fill="none" xmlns="http://www.w3.org/2000/svg">
<path fill-rule="evenodd" clip-rule="evenodd" d="M20.3711 40C31.4168 40 40.3711 31.0457 40.3711 20C40.3711 8.9543 31.4168 0 20.3711 0C9.3254 0 0.371094 8.9543 0.371094 20C0.371094 31.0457 9.3254 40 20.3711 40ZM24.0169 23.5726C24.0169 27.1269 21.2461 30.0005 17.819 30.0005V29.9249C14.3919 29.9249 11.6211 27.0513 11.6211 23.497C11.6211 19.9427 14.3919 17.0691 17.8919 17.0691H18.2565V20.2452H17.8919C16.069 20.2452 14.6836 21.682 14.6836 23.5726C14.6836 25.4632 16.1419 26.9 17.8919 26.9C19.6419 26.9 21.1732 25.4632 21.1732 23.6482V8.82617H24.0898C24.3815 11.5486 26.4961 13.666 29.1211 13.8929V17.4472H28.6107C26.6419 17.4472 24.9648 16.3885 24.0169 14.876V23.5726Z" fill="#5A5D67"/>
</svg>
