<svg width="27" height="21" viewBox="0 0 27 21" fill="none" xmlns="http://www.w3.org/2000/svg">
<path fill-rule="evenodd" clip-rule="evenodd" d="M21.5999 7.55137C20.8285 3.27226 17.5228 0 13.4457 0C10.2501 0 7.49532 2.0137 6.06283 5.03425C2.75707 5.41182 0.222656 8.68407 0.222656 12.5856C0.222656 16.7389 3.19784 20.137 6.83417 20.137H21.1591C24.2445 20.137 26.6687 17.3682 26.6687 13.8442C26.6687 10.5719 24.4649 7.80308 21.5999 7.55137ZM21.1591 17.6199H6.83417C4.40995 17.6199 2.42649 15.3545 2.42649 12.5856C2.42649 9.94264 4.07937 7.80308 6.3934 7.55137L7.60552 7.42551L8.04628 6.29281C9.03801 4.0274 11.1317 2.51712 13.4457 2.51712C16.3107 2.51712 18.8451 4.90839 19.3961 8.05479L19.7266 9.94264L21.3795 10.0685C23.1426 10.1943 24.4649 11.8305 24.4649 13.8442C24.4649 15.8579 22.9222 17.6199 21.1591 17.6199ZM9.03801 11.3271H11.903V15.1027H15.0986V11.3271H17.8534L13.4457 6.29281L9.03801 11.3271Z" fill="#FF4445"/>
</svg>
