<svg width="41" height="40" viewBox="0 0 41 40" fill="none" xmlns="http://www.w3.org/2000/svg">
<path d="M17.8538 23.7869L24.4298 20.0002L17.8538 16.2135V23.7869Z" fill="#5A5D67"/>
<path d="M20.3711 0C9.32576 0 0.371094 8.95467 0.371094 20C0.371094 31.0453 9.32576 40 20.3711 40C31.4164 40 40.3711 31.0453 40.3711 20C40.3711 8.95467 31.4164 0 20.3711 0ZM33.0058 20.0213C33.0058 20.0213 33.0058 24.1227 32.4831 26.1013C32.1898 27.184 31.3364 28.0373 30.2538 28.3307C28.2751 28.8533 20.3658 28.8533 20.3658 28.8533C20.3658 28.8533 12.4778 28.8533 10.4778 28.3147C9.39509 28.0213 8.54176 27.168 8.24843 26.0853C7.72576 24.128 7.72576 20.0053 7.72576 20.0053C7.72576 20.0053 7.72576 15.904 8.24843 13.9253C8.54176 12.8427 9.41643 11.968 10.4778 11.6747C12.4564 11.152 20.3658 11.152 20.3658 11.152C20.3658 11.152 28.2751 11.152 30.2538 11.6907C31.3364 11.984 32.1898 12.8373 32.4831 13.92C33.0271 15.8987 33.0058 20.0213 33.0058 20.0213Z" fill="#5A5D67"/>
</svg>
