<svg width="81" height="80" viewBox="0 0 81 80" fill="none" xmlns="http://www.w3.org/2000/svg">
<mask id="path-1-outside-1_11376_6396" maskUnits="userSpaceOnUse" x="0.0976562" y="0" width="80" height="80" fill="black">
<rect fill="white" x="0.0976562" width="80" height="80"/>
<path fill-rule="evenodd" clip-rule="evenodd" d="M53.7477 7.76317L53.6178 7.71021C43.4958 24.4835 48.2718 30.3566 49.1079 32.4754C49.9554 34.6231 53.7553 39.8506 54.8272 41.398C55.4792 42.3337 56.0077 43.3111 56.5613 44.3037C59.95 50.3647 53.2722 55.9844 48.6791 58.8548C42.3393 62.8148 34.3525 65.3825 26.7869 64.7809C26.126 64.7292 25.469 64.6472 24.8157 64.5312C23.0274 64.2121 21.1949 63.3218 20.1873 61.7567C19.2641 60.3202 19.1494 58.4853 19.4836 56.8117C20.2201 53.1203 22.8697 50.1554 25.3391 47.3153C28.2296 43.9909 31.0231 40.553 33.2326 36.7418C35.4434 32.9306 37.0614 28.7146 37.4423 24.3271C37.9115 31.1385 34.9818 37.7356 31.3913 43.5432C29.1162 47.2245 26.5271 50.7733 25.0528 54.8418C24.6555 55.939 24.3302 57.2128 24.653 58.3705C24.9885 59.5749 26.068 60.2622 27.169 60.7251C33.0459 63.1957 40.1286 61.2774 45.3623 58.1372C47.645 56.7676 50.5557 54.7813 51.4133 52.124C52.0653 50.1012 51.5356 47.9143 50.8231 45.981C49.6515 42.8079 47.6904 40.017 46.1568 37.0218C45.1378 35.0304 44.2954 32.9193 44.0495 30.6807C44.0091 30.3213 43.9877 29.9606 43.9902 29.5987C44.0457 20.4062 51.4965 10.2565 53.5169 7.67111L53.5509 7.68372L53.392 7.6194C49.2933 5.93325 44.8062 5 40.0983 5C20.7674 5 5.09766 20.6698 5.09766 40.0006C5.09766 59.3302 20.7674 75 40.0983 75C59.4266 75 75.0977 59.3302 75.0977 40.0006C75.0977 25.5138 66.2961 13.0852 53.7477 7.76317Z"/>
</mask>
<path fill-rule="evenodd" clip-rule="evenodd" d="M53.7477 7.76317L53.6178 7.71021C43.4958 24.4835 48.2718 30.3566 49.1079 32.4754C49.9554 34.6231 53.7553 39.8506 54.8272 41.398C55.4792 42.3337 56.0077 43.3111 56.5613 44.3037C59.95 50.3647 53.2722 55.9844 48.6791 58.8548C42.3393 62.8148 34.3525 65.3825 26.7869 64.7809C26.126 64.7292 25.469 64.6472 24.8157 64.5312C23.0274 64.2121 21.1949 63.3218 20.1873 61.7567C19.2641 60.3202 19.1494 58.4853 19.4836 56.8117C20.2201 53.1203 22.8697 50.1554 25.3391 47.3153C28.2296 43.9909 31.0231 40.553 33.2326 36.7418C35.4434 32.9306 37.0614 28.7146 37.4423 24.3271C37.9115 31.1385 34.9818 37.7356 31.3913 43.5432C29.1162 47.2245 26.5271 50.7733 25.0528 54.8418C24.6555 55.939 24.3302 57.2128 24.653 58.3705C24.9885 59.5749 26.068 60.2622 27.169 60.7251C33.0459 63.1957 40.1286 61.2774 45.3623 58.1372C47.645 56.7676 50.5557 54.7813 51.4133 52.124C52.0653 50.1012 51.5356 47.9143 50.8231 45.981C49.6515 42.8079 47.6904 40.017 46.1568 37.0218C45.1378 35.0304 44.2954 32.9193 44.0495 30.6807C44.0091 30.3213 43.9877 29.9606 43.9902 29.5987C44.0457 20.4062 51.4965 10.2565 53.5169 7.67111L53.5509 7.68372L53.392 7.6194C49.2933 5.93325 44.8062 5 40.0983 5C20.7674 5 5.09766 20.6698 5.09766 40.0006C5.09766 59.3302 20.7674 75 40.0983 75C59.4266 75 75.0977 59.3302 75.0977 40.0006C75.0977 25.5138 66.2961 13.0852 53.7477 7.76317Z" fill="#E42722"/>
<path d="M53.6178 7.71021L55.5057 3.08032L51.5462 1.46577L49.3369 5.12685L53.6178 7.71021ZM49.1079 32.4754L53.7589 30.6401L53.7589 30.6399L49.1079 32.4754ZM54.8272 41.398L50.7171 44.2453L50.7248 44.2564L54.8272 41.398ZM56.5613 44.3037L52.1947 46.7394L52.1971 46.7437L56.5613 44.3037ZM48.6791 58.8548L51.328 63.0955L51.3289 63.0949L48.6791 58.8548ZM26.7869 64.7809L27.1832 59.7966L27.1769 59.7962L26.7869 64.7809ZM24.8157 64.5312L23.9375 69.4535L23.9414 69.4542L24.8157 64.5312ZM20.1873 61.7567L15.981 64.4599L15.9833 64.4634L20.1873 61.7567ZM19.4836 56.8117L24.3868 57.7909L24.3869 57.79L19.4836 56.8117ZM25.3391 47.3153L21.5659 44.0345L21.5658 44.0346L25.3391 47.3153ZM33.2326 36.7418L28.9076 34.233L28.907 34.234L33.2326 36.7418ZM37.4423 24.3271L42.4305 23.9835L32.461 23.8947L37.4423 24.3271ZM31.3913 43.5432L27.1385 40.9139L27.138 40.9146L31.3913 43.5432ZM25.0528 54.8418L20.3519 53.1384L20.3515 53.1396L25.0528 54.8418ZM24.653 58.3705L29.4697 57.0289L29.4692 57.0274L24.653 58.3705ZM27.169 60.7251L25.2313 65.3343L25.2313 65.3343L27.169 60.7251ZM45.3623 58.1372L47.9348 62.4247L45.3623 58.1372ZM51.4133 52.124L56.1716 53.6597L56.1722 53.6579L51.4133 52.124ZM50.8231 45.981L55.5146 44.2519L55.5136 44.2491L50.8231 45.981ZM46.1568 37.0218L41.7058 39.2995L41.7063 39.3005L46.1568 37.0218ZM44.0495 30.6807L49.0196 30.1347L49.0182 30.1229L44.0495 30.6807ZM43.9902 29.5987L48.9901 29.6335L48.9901 29.6289L43.9902 29.5987ZM53.5169 7.67111L55.2537 2.98244L51.8271 1.7132L49.5772 4.59237L53.5169 7.67111ZM53.5509 7.68372L51.8142 12.3724L55.4269 3.04899L53.5509 7.68372ZM53.392 7.6194L51.4898 12.2434L51.5029 12.2488L51.5161 12.2541L53.392 7.6194ZM55.6356 3.13329L55.5057 3.08032L51.7299 12.3401L51.8598 12.3931L55.6356 3.13329ZM49.3369 5.12685C43.9885 13.9898 42.2098 20.5665 42.2538 25.6317C42.2759 28.1842 42.7614 30.2083 43.342 31.7918C43.6255 32.5652 43.9192 33.1986 44.142 33.6611C44.3216 34.0339 44.2748 33.931 44.4015 34.1951C44.4685 34.3347 44.4727 34.3507 44.457 34.3108L53.7589 30.6399C53.0024 28.723 52.276 28.1479 52.2534 25.5448C52.2308 22.9504 53.1251 18.2039 57.8987 10.2936L49.3369 5.12685ZM44.4569 34.3106C45.1184 35.9869 46.6216 38.2979 47.7348 39.9527C48.9399 41.7441 50.2638 43.5909 50.7171 44.2452L58.9373 38.5507C58.3187 37.6576 57.2067 36.117 56.032 34.3709C55.4597 33.5202 54.9224 32.693 54.4903 31.9763C54.2748 31.6189 54.1 31.3129 53.9667 31.0626C53.9008 30.9387 53.8506 30.8388 53.8137 30.7615C53.7956 30.7235 53.7822 30.6939 53.7727 30.6724C53.768 30.6617 53.7645 30.6537 53.7622 30.6481C53.7599 30.6425 53.7588 30.6398 53.7589 30.6401L44.4569 34.3106ZM50.7248 44.2564C51.2001 44.9385 51.5893 45.6542 52.1947 46.7394L60.9279 41.8679C60.426 40.9681 59.7584 39.729 58.9296 38.5396L50.7248 44.2564ZM52.1971 46.7437C52.5993 47.4631 52.7206 48.2404 51.5593 49.8493C50.2995 51.5945 48.1222 53.3068 46.0293 54.6147L51.3289 63.0949C53.8291 61.5324 57.2873 58.9997 59.6675 55.7022C62.1462 52.2684 63.912 47.2053 60.9255 41.8637L52.1971 46.7437ZM46.0303 54.6141C40.3639 58.1535 33.433 60.2936 27.1832 59.7966L26.3906 69.7652C35.272 70.4714 44.3148 67.4761 51.328 63.0955L46.0303 54.6141ZM27.1769 59.7962C26.669 59.7564 26.174 59.6942 25.69 59.6082L23.9414 69.4542C24.764 69.6003 25.583 69.702 26.3968 69.7657L27.1769 59.7962ZM25.6939 59.6089C25.28 59.5351 24.9255 59.4039 24.6757 59.2622C24.4307 59.1232 24.3775 59.0286 24.3913 59.05L15.9833 64.4634C18.0021 67.5991 21.3357 68.9893 23.9375 69.4535L25.6939 59.6089ZM24.3935 59.0535C24.4092 59.0778 24.3564 59.0099 24.3279 58.7739C24.2986 58.5312 24.3066 58.1921 24.3868 57.7909L14.5804 55.8326C14.0942 58.267 14.1185 61.5618 15.981 64.4599L24.3935 59.0535ZM24.3869 57.79C24.8131 55.6538 26.3972 53.7187 29.1123 50.5959L21.5658 44.0346C19.3423 46.5921 15.627 50.5868 14.5802 55.8334L24.3869 57.79ZM29.1122 50.596C32.0524 47.2145 35.1022 43.486 37.5582 39.2496L28.907 34.234C26.944 37.62 24.4068 40.7673 21.5659 44.0345L29.1122 50.596ZM37.5576 39.2507C40.0237 34.9994 41.9622 30.0749 42.4236 24.7595L32.461 23.8947C32.1607 27.3544 30.8631 30.8619 28.9076 34.233L37.5576 39.2507ZM32.4541 24.6707C32.8134 29.887 30.5672 35.3679 27.1385 40.9139L35.6442 46.1725C39.3964 40.1033 43.0095 32.3901 42.4305 23.9835L32.4541 24.6707ZM27.138 40.9146C25.1421 44.1442 22.0592 48.4269 20.3519 53.1384L29.7537 56.5453C30.9949 53.1198 33.0904 50.3048 35.6446 46.1718L27.138 40.9146ZM20.3515 53.1396C19.9134 54.3494 19.0609 56.9313 19.8368 59.7136L29.4692 57.0274C29.5516 57.3228 29.5065 57.4645 29.5268 57.33C29.5357 57.2708 29.555 57.1748 29.5938 57.0356C29.6324 56.8968 29.6848 56.7354 29.7541 56.544L20.3515 53.1396ZM19.8364 59.7121C20.8277 63.2712 23.8685 64.7614 25.2313 65.3343L29.1067 56.1158C28.9653 56.0564 28.8767 56.0113 28.8273 55.9832C28.7772 55.9548 28.7953 55.9596 28.8533 56.0087C28.9139 56.0599 29.0301 56.1698 29.1541 56.3503C29.2829 56.5377 29.3972 56.7687 29.4697 57.0289L19.8364 59.7121ZM25.2313 65.3343C33.2254 68.6949 42.0776 65.939 47.9348 62.4247L42.7898 53.8497C38.1795 56.6159 32.8665 57.6964 29.1067 56.1158L25.2313 65.3343ZM47.9348 62.4247C49.1524 61.6941 50.7742 60.6625 52.2518 59.3436C53.699 58.0518 55.3588 56.1783 56.1716 53.6597L46.655 50.5884C46.6102 50.727 46.3859 51.1753 45.5926 51.8834C44.8298 52.5643 43.8549 53.2107 42.7898 53.8497L47.9348 62.4247ZM56.1722 53.6579C57.3713 49.9376 56.2939 46.3664 55.5146 44.2519L46.1316 47.7101C46.4249 48.5059 46.6029 49.1525 46.6745 49.6852C46.744 50.2019 46.6935 50.4688 46.6544 50.5902L56.1722 53.6579ZM55.5136 44.2491C54.7866 42.2803 53.8453 40.5112 52.9807 38.9784C52.0525 37.3326 51.3147 36.1245 50.6074 34.7431L41.7063 39.3005C42.5326 40.9143 43.5421 42.5993 44.2707 43.8911C45.0629 45.2957 45.6879 46.5086 46.1326 47.7129L55.5136 44.2491ZM50.6079 34.7441C49.7114 32.9921 49.1701 31.5054 49.0196 30.1347L39.0794 31.2268C39.4206 34.3331 40.5643 37.0688 41.7058 39.2995L50.6079 34.7441ZM49.0182 30.1229C48.9973 29.9366 48.9891 29.775 48.9901 29.6335L38.9903 29.5638C38.9863 30.1463 39.0209 30.7061 39.0807 31.2386L49.0182 30.1229ZM48.9901 29.6289C49.0106 26.2294 50.4501 22.2481 52.4359 18.4962C54.3694 14.8431 56.5453 11.916 57.4566 10.7499L49.5772 4.59237C48.4682 6.01154 45.9084 9.45203 43.5975 13.8183C41.3389 18.0856 39.0252 23.7754 38.9903 29.5685L48.9901 29.6289ZM51.7801 12.3598L51.8142 12.3724L55.2877 2.99505L55.2537 2.98244L51.7801 12.3598ZM55.4269 3.04899L55.268 2.98467L51.5161 12.2541L51.675 12.3185L55.4269 3.04899ZM55.2943 2.99539C50.6051 1.06634 45.4726 0 40.0983 0V10C44.1397 10 47.9815 10.8002 51.4898 12.2434L55.2943 2.99539ZM40.0983 0C18.006 0 0.0976562 17.9083 0.0976562 40.0006H10.0977C10.0977 23.4312 23.5288 10 40.0983 10V0ZM0.0976562 40.0006C0.0976562 62.0918 18.0061 80 40.0983 80V70C23.5287 70 10.0977 56.5687 10.0977 40.0006H0.0976562ZM40.0983 80C62.1879 80 80.0977 62.0918 80.0977 40.0006H70.0977C70.0977 56.5687 56.6653 70 40.0983 70V80ZM80.0977 40.0006C80.0977 23.4358 70.0298 9.23763 55.7 3.16006L51.7954 12.3663C62.5624 16.9328 70.0977 27.5918 70.0977 40.0006H80.0977Z" fill="white" mask="url(#path-1-outside-1_11376_6396)"/>
</svg>
