<svg width="91" height="90" viewBox="0 0 91 90" fill="none" xmlns="http://www.w3.org/2000/svg">
<path d="M78.5066 14.6854C102.616 41.3034 86.9646 84.1782 51.7891 89.4645C11.6341 95.4971 -15.3612 49.2432 9.65227 17.0611C26.6098 -4.75565 59.9901 -5.75901 78.5066 14.6854ZM74.3605 75.3429C95.46 55.0726 89.5186 19.0554 62.9836 6.78295C30.4657 -8.2591 -4.48593 20.9585 4.22503 55.5909C11.9907 86.471 51.3206 97.4748 74.3605 75.3429Z" fill="black"/>
<path d="M31.593 21.5938C33.4214 23.0242 43.8654 34.2601 44.9268 34.3513C45.6856 34.4176 46.2038 33.8165 46.7387 33.4101C48.6335 31.9507 57.7093 21.5938 58.5468 21.5938L68.1077 31.1256L67.9004 32.1705L55.4662 44.6544L68.3026 58.2785L58.5426 68.0384L45.2171 55.202L31.593 68.4323L22.0321 58.9004V58.0794L34.6445 44.9446L21.8828 31.6937L31.5971 21.602L31.593 21.5938Z" fill="black"/>
</svg>
