<svg width="19" height="24" viewBox="0 0 19 24" fill="none" xmlns="http://www.w3.org/2000/svg">
<path d="M18.6806 8.47939C18.6773 7.54246 18.0156 6.88048 17.0712 6.87886C14.4344 6.87371 11.7976 6.87371 9.16102 6.87886C8.27106 6.87886 7.59092 7.55059 7.58601 8.43187C7.5781 9.70439 7.5781 10.9769 7.58601 12.2494C7.59072 12.5941 7.71152 12.9273 7.92915 13.1959C8.14678 13.4645 8.44871 13.653 8.78679 13.7314C8.86409 13.7496 8.94139 13.7691 9.02973 13.7911V16.7558C9.42931 16.3959 9.78349 16.0808 10.134 15.7608C10.8039 15.1463 11.4677 14.5257 12.1433 13.9178C12.2423 13.833 12.3666 13.783 12.4971 13.7756C13.0517 13.7618 13.6071 13.7756 14.1621 13.7695H14.4648C15.3321 13.7755 16.1994 13.7769 17.0667 13.7736C18.0045 13.7712 18.679 13.1063 18.6822 12.1755C18.6858 10.9428 18.6852 9.71075 18.6806 8.47939ZM17.9816 12.1345C17.9816 12.6836 17.6921 13.0174 17.1477 13.0718C16.9072 13.0962 16.6627 13.0787 16.4197 13.0791C15.7702 13.0791 15.1204 13.0751 14.4709 13.0791C13.9552 13.0832 13.4398 13.1023 12.9245 13.1063C12.6938 13.1063 12.4624 13.0763 12.2321 13.084C12.1269 13.0892 12.0263 13.1286 11.9458 13.1961C11.7413 13.3825 11.5646 13.5973 11.3618 13.785C11.2321 13.9068 11.0661 13.9852 10.9327 14.1017C10.5503 14.4364 10.1765 14.7804 9.79944 15.1207L9.73892 15.0992V14.886C9.73892 14.3446 9.73442 13.8032 9.74137 13.2615C9.74341 13.1173 9.6927 13.0686 9.55283 13.0767C9.41295 13.0848 9.28003 13.0812 9.14384 13.0767C8.65674 13.0588 8.28497 12.7047 8.2821 12.2238C8.27365 10.9651 8.27365 9.70615 8.2821 8.4469C8.28497 7.94534 8.63874 7.59932 9.14343 7.56967C9.20478 7.56602 9.26613 7.56967 9.32747 7.56967H16.9522C17.6536 7.56967 17.9825 7.89457 17.9825 8.58498C17.9825 9.76598 17.9822 10.9487 17.9816 12.1333V12.1345Z" fill="black"/>
<path d="M16.3275 10.0532C16.28 10.0532 16.2322 10.0532 16.1843 10.0532H10.0548C9.9804 10.0532 9.88428 10.035 9.83602 10.0727C9.73787 10.1499 9.61313 10.2527 9.59881 10.357C9.58572 10.4521 9.68633 10.5873 9.77386 10.662C9.83275 10.712 9.95586 10.6945 10.0503 10.6949C11.0791 10.6965 12.1075 10.6965 13.1357 10.6949C14.1991 10.6949 15.2625 10.6949 16.3234 10.6949C16.5397 10.6949 16.678 10.5698 16.6853 10.3891C16.6927 10.2084 16.5434 10.063 16.3275 10.0532Z" fill="black"/>
<path d="M9.85315 9.39413C9.9211 9.40073 9.98937 9.40345 10.0576 9.40225H16.2472C16.3019 9.40352 16.3565 9.40108 16.4108 9.39494C16.5765 9.37261 16.6648 9.26783 16.6812 9.11066C16.6925 9.04235 16.6778 8.97231 16.64 8.91414C16.6022 8.85598 16.544 8.81384 16.4767 8.79591C16.3787 8.76916 16.2772 8.75739 16.1757 8.76098C14.1326 8.75936 12.0898 8.75936 10.047 8.76098C9.95245 8.75757 9.85806 8.77133 9.76849 8.8016C9.62698 8.85724 9.56399 8.97826 9.58649 9.12934C9.60898 9.28042 9.6965 9.37585 9.85315 9.39413Z" fill="black"/>
<path d="M15.3826 11.3705C15.3097 11.3544 15.2348 11.3485 15.1602 11.353C13.4506 11.353 11.741 11.353 10.0315 11.353C9.96297 11.3492 9.89427 11.354 9.82697 11.3672C9.67115 11.4078 9.58158 11.5134 9.58403 11.6755C9.58771 11.8444 9.67933 11.9748 9.8511 11.9809C10.2503 11.9955 10.6507 11.9853 11.0474 11.9853H11.4192L11.4008 11.9878C11.687 11.9878 11.9733 11.9878 12.2629 11.9841H12.8813C13.6915 11.991 14.5013 11.9886 15.3115 11.9841C15.4894 11.9841 15.5908 11.8741 15.61 11.7088C15.6293 11.5435 15.5483 11.418 15.3826 11.3705Z" fill="black"/>
<path d="M13.5316 14.5659C13.5066 14.5172 13.4563 14.4485 13.4138 14.4465C13.1909 14.4347 12.9668 14.4408 12.7103 14.4408V14.7531C12.7103 17.0948 12.7103 18.2178 12.7144 20.5607C12.7144 20.7568 12.6588 20.8125 12.4625 20.81C11.8981 20.8027 11.3337 20.8031 10.7689 20.8048V20.8019H2.49955V20.8048C2.0284 20.8048 1.55888 20.8048 1.0865 20.8109C0.874238 20.8109 0.826795 20.7495 0.827204 20.5473C0.834157 17.6788 0.833339 16.0288 0.827204 13.1599V4.14643C0.827204 3.95027 0.884462 3.89585 1.07914 3.89829C1.85622 3.90844 2.63329 3.90235 3.41037 3.90235H4.01444L3.98049 3.91575L4.02139 3.90235L9.40775 3.90438C10.4368 3.90032 11.4658 3.90438 12.4948 3.89829C12.6653 3.89829 12.7165 3.94865 12.7144 4.11678C12.7058 4.75967 12.7107 4.99644 12.7107 5.63933C12.7107 6.20791 12.7107 6.19735 13.2862 6.214C13.5066 6.2205 13.5422 6.14252 13.541 5.94758C13.5336 4.56027 13.5377 3.57908 13.5377 2.19176C13.5377 1.1992 12.9021 0.570519 11.9018 0.570519C8.46626 0.570519 5.03077 0.570519 1.59528 0.570519C1.45911 0.568531 1.3231 0.58092 1.18957 0.607476C0.482429 0.76099 0.0186381 1.36936 0.0182291 2.13978C0.0182291 5.47648 0.0182289 8.40665 0.0129121 11.7434C0.0122808 11.7843 0.0163973 11.8252 0.0251812 11.8652C-0.0136725 12.5962 0.00023341 13.43 0.0153659 13.5843C0.0280445 13.7118 0.0227274 13.841 0.0227274 13.9693C0.0227274 17.157 0.0190471 19.1271 0.0182291 22.3139C0.0182291 23.3012 0.643979 23.9234 1.63986 23.9238C5.06117 23.9238 8.48303 23.9238 11.9054 23.9238C12.0286 23.927 12.1518 23.9192 12.2735 23.9006C13.0571 23.7605 13.5414 23.1489 13.5414 22.2977C13.5414 19.3606 13.5414 17.6419 13.5414 14.7032C13.5365 14.6589 13.5508 14.6021 13.5316 14.5659ZM5.29457 1.39535C5.78535 1.38845 6.27614 1.39332 6.76692 1.39332C7.25075 1.39332 7.73458 1.38804 8.21841 1.39332C8.59959 1.39901 8.82126 1.73853 8.6184 2.02322C8.54397 2.12719 8.37628 2.22181 8.25032 2.22384C7.2622 2.24009 6.27368 2.23643 5.28557 2.22993C5.02668 2.22993 4.8545 2.04393 4.85572 1.80797C4.85572 1.57973 5.0365 1.39901 5.29457 1.39535ZM7.70268 22.4223C7.68019 22.8975 7.2528 23.2935 6.78369 23.2716C6.29618 23.2488 5.90069 22.8382 5.91582 22.3716C5.93218 21.8749 6.33748 21.483 6.825 21.4931C6.94422 21.4964 7.06161 21.5232 7.17039 21.5717C7.27917 21.6203 7.37718 21.6898 7.45878 21.7762C7.54038 21.8626 7.60394 21.9641 7.6458 22.075C7.68766 22.186 7.70699 22.304 7.70268 22.4223Z" fill="black"/>
</svg>
