<svg width="18" height="19" viewBox="0 0 18 19" fill="none" xmlns="http://www.w3.org/2000/svg">
<path d="M15.527 6.49299C16.1865 7.2158 16.8045 7.85635 17.3698 8.51578C18.221 9.50425 18.1954 9.50425 17.381 10.5022C16.2855 11.8507 15.0416 13.0644 13.3568 13.9032C11.0956 15.0305 8.7259 15.2031 5.9569 14.4115C6.60843 13.9328 7.11302 13.539 7.65117 13.183C7.8267 13.1039 8.02934 13.0786 8.22447 13.1116C11.4709 13.4662 13.7257 11.5567 13.3425 8.78144C13.3114 8.59491 13.3656 8.40539 13.4942 8.25146C14.1234 7.67969 14.7813 7.13354 15.527 6.49299Z" fill="#FF4445"/>
<path d="M2.63858 12.5128C1.72995 11.5689 0.891576 10.7301 0.109102 9.85622C-0.0234394 9.70788 -0.0409864 9.32895 0.0883613 9.19275C1.04649 8.18135 1.97588 7.12545 3.07932 6.22598C5.41397 4.33804 8.19894 3.66378 11.3831 4.3785C11.5604 4.4176 11.728 4.48638 12.1959 4.63741C11.5572 5.09052 11.0542 5.48159 10.5048 5.82547C10.3452 5.92256 10.0673 5.91851 9.8549 5.89154C6.78888 5.51261 4.34245 7.57855 4.78798 10.1637C4.82152 10.3579 4.79756 10.6303 4.66023 10.7597C4.04063 11.345 3.36996 11.8885 2.63858 12.5128Z" fill="#FF4445"/>
<path d="M15.2086 4.95127C15.0683 5.15716 14.9081 5.35291 14.7296 5.53653C10.7278 8.92494 8.35916 10.9547 4.35098 14.3377C4.01084 14.625 3.64038 14.7774 3.24754 14.4429C2.85471 14.1085 3.04951 13.7916 3.38485 13.5084C7.41113 10.1083 9.80481 8.06817 13.8385 4.67617C13.9542 4.59654 14.0875 4.53727 14.2306 4.50183C14.3738 4.4664 14.5239 4.45552 14.6721 4.46984C14.8605 4.49007 15.009 4.75977 15.2086 4.95127Z" fill="#FF4445"/>
</svg>
