<svg width="25" height="25" viewBox="0 0 25 25" fill="none" xmlns="http://www.w3.org/2000/svg">
<path d="M21.8571 23.0558C20.6452 24.2404 20.912 21.4569 18.6101 20.5539C18.1452 20.3054 18.1604 19.6178 18.633 19.3859C20.6757 18.5575 20.5613 16.561 21.3693 16.5527C22.162 16.561 22.04 18.5243 24.0751 19.3693C24.5324 19.6178 24.7153 20.3883 24.0903 20.5871C23.008 21.051 22.3296 21.9291 21.8571 23.0558ZM21.7885 20.6865C22.7336 20.0983 21.7123 18.5575 20.9272 19.2865C20.5995 19.5681 20.3708 20.0652 20.7138 20.4463C20.9653 20.819 21.4455 21.0676 21.7885 20.6865Z" fill="#F7F8FC"/>
<path d="M8.46526 6.1528C8.07654 5.88771 8.06892 5.23325 8.48813 5.00958C9.53234 4.52081 10.2717 3.73381 10.7214 2.59059C10.9272 2.12668 11.5674 2.07697 11.7808 2.58231C12.5354 4.77762 14.2198 4.66993 14.3799 5.59776C14.2122 6.49245 12.5354 6.42618 11.7884 8.57179C11.5598 9.06056 10.8586 9.20967 10.6833 8.55522C10.2717 7.40372 9.50185 6.64157 8.46526 6.1528ZM10.8052 4.86875L10.5918 5.09242C9.97441 5.73031 11.0643 6.95637 11.6665 6.3102C12.6345 5.70545 11.5979 4.16459 10.8052 4.86875Z" fill="#F7F8FC"/>
<path d="M24.9014 6.66909C24.6194 5.55901 23.7734 4.65603 22.7368 4.36608C21.7231 4.08442 20.717 4.44064 19.9243 5.3519C16.1057 9.50229 12.9502 12.9319 9.98526 16.1628C9.92428 16.2291 9.84807 16.2622 9.76422 16.2622C9.68038 16.2622 9.60416 16.2208 9.55081 16.1628C8.3313 14.8207 7.08892 13.4704 5.88465 12.1698L5.03099 11.242C4.25355 10.3804 3.27794 10.0573 2.29471 10.3307C1.25813 10.6207 0.404466 11.5319 0.114832 12.6503C-0.151936 13.7107 0.122454 14.7628 0.899893 15.6077C2.5005 17.364 4.1316 19.1451 5.70934 20.8682C6.33434 21.5475 6.96697 22.2351 7.59197 22.9144C8.23983 23.6186 8.98678 23.9914 9.76422 23.9914C10.534 23.9914 11.281 23.6269 11.9212 22.931C13.6133 21.0919 15.3359 19.2197 17.0051 17.4054C19.3222 14.887 21.7154 12.2858 24.0706 9.72596C24.8709 8.83955 25.1758 7.75432 24.9014 6.66909ZM23.2322 7.33183C23.2475 7.67976 23.1179 8.03598 22.8664 8.30936C20.2597 11.1591 17.6072 14.042 15.0386 16.8338C13.6057 18.383 12.1804 19.9404 10.7475 21.4895C10.3892 21.8789 10.0691 22.0694 9.7566 22.0694C9.4441 22.0694 9.11636 21.8789 8.7505 21.4813C7.79776 20.4457 6.84502 19.4019 5.89227 18.3664C4.65752 17.0243 3.42276 15.674 2.188 14.3237L2.17276 14.3071C1.68495 13.8349 1.71544 13.2385 1.89837 12.8325C2.07367 12.4597 2.43191 12.1284 2.89684 12.1284C2.95782 12.1284 3.0188 12.1367 3.07977 12.1449C4.33739 13.0314 5.40447 14.274 6.44105 15.4669C7.07367 16.1959 7.72154 16.9498 8.41514 17.6291C8.49898 17.7119 8.59044 17.8113 8.68191 17.919C8.98678 18.2753 9.33739 18.6812 9.78709 18.6812C9.79471 18.6812 9.80233 18.6812 9.80995 18.6812C10.0615 18.6729 10.2978 18.5404 10.5112 18.267C12.2185 16.4196 13.9182 14.5639 15.6179 12.7166C17.4548 10.7201 19.3526 8.64901 21.2276 6.62767C21.7154 6.09748 22.3252 6.03121 22.8054 6.46198C23.0645 6.69394 23.217 7.00046 23.2322 7.33183Z" fill="#F7F8FC"/>
</svg>
