<svg width="16" height="15" viewBox="0 0 16 15" fill="none" xmlns="http://www.w3.org/2000/svg">
<path d="M14.0625 1.5C14.9944 1.5 15.75 2.25541 15.75 3.18703V11.813C15.75 12.7446 14.9944 13.5 14.0625 13.5H2.4375C1.50563 13.5 0.75 12.7446 0.75 11.813V3.18703C0.75 2.25541 1.50563 1.5 2.4375 1.5H14.0625ZM6.1875 7.87321H3.5625C3.27787 7.87321 3.04238 8.08465 3.00525 8.35907L3 8.43555V8.80445L3.006 8.8858C3.12787 9.72069 3.82687 10.1237 4.875 10.1237C5.87325 10.1237 6.55463 9.75855 6.723 9.00314L6.74438 8.88692L6.75 8.80482V8.43555C6.75 8.151 6.5385 7.91557 6.264 7.87846L6.1875 7.87321ZM12.9375 8.2451H9.56437L9.48787 8.25035C9.21338 8.28747 9.00187 8.5229 9.00187 8.80745C9.00187 9.09199 9.21338 9.32742 9.48787 9.36454L9.56437 9.36979H12.9375L13.014 9.36454C13.2885 9.32742 13.5 9.09236 13.5 8.80745C13.5 8.5229 13.2885 8.28747 13.014 8.25035L12.9375 8.2451ZM4.875 4.87555C4.25362 4.87555 3.75 5.37903 3.75 6.00023C3.75 6.62143 4.25362 7.12492 4.875 7.12492C5.49638 7.12492 6 6.62143 6 6.00023C6 5.37903 5.49638 4.87555 4.875 4.87555ZM12.9375 5.62384H9.56437L9.48787 5.62909C9.21338 5.6662 9.00187 5.90164 9.00187 6.18618C9.00187 6.47073 9.21338 6.70616 9.48787 6.74328L9.56437 6.74852H12.9375L13.014 6.74328C13.2885 6.70616 13.5 6.47073 13.5 6.18618C13.5 5.90164 13.2885 5.6662 13.014 5.62909L12.9375 5.62384Z" fill="#666666"/>
</svg>
